<?xml version="1.0" encoding="utf-8"?>
<!-- Generator: Adobe Illustrator 16.0.0, SVG Export Plug-In . SVG Version: 6.00 Build 0)  -->
<!DOCTYPE svg PUBLIC "-//W3C//DTD SVG 1.1//EN" "http://www.w3.org/Graphics/SVG/1.1/DTD/svg11.dtd">
<svg version="1.1" xmlns="http://www.w3.org/2000/svg" xmlns:xlink="http://www.w3.org/1999/xlink" x="0px" y="0px"
	 width="584.757px" height="282.301px" viewBox="0 0 584.757 282.301" enable-background="new 0 0 584.757 282.301"
	 xml:space="preserve">
<g id="Laag_1">
	<rect fill="#ED1C24" width="584.757" height="282.301"/>
	<path fill="#FFFFFF" d="M83.271,63.5h25.114v43.596c7.52-5.054,15.892-7.581,25.117-7.581c28.305,0,42.459,15.921,42.459,47.767
		c0,34.499-16.206,51.748-48.62,51.748c-13.648,0-28.337-1.359-44.07-4.076V63.5z M108.384,175.999
		c5.751,1.832,12.416,2.749,19.998,2.749c15.165,0,22.746-10.71,22.746-32.13c0-17.501-6.538-26.252-19.617-26.252
		c-8.469,0-16.175,1.707-23.127,5.118V175.999z"/>
	<path fill="#FFFFFF" d="M253.742,188.181c-10.655,7.218-22.04,10.849-33.882,10.849c-20.344,0-30.518-12.037-30.518-36.111V99.515
		h25.117v62.741c0,10.994,4.8,16.491,14.404,16.491c8.151,0,16.46-3.255,24.925-9.763v-69.47h25.117v99.515h-25.202"/>
	<path fill="#FFFFFF" d="M320.622,109.983c8-6.98,16.419-10.468,25.254-10.468v20.282c-9.351,0-17.723,3.884-25.116,11.656v67.576
		h-25.115V99.515h25.012"/>
	<path fill="#FFFFFF" d="M360.091,194.292v-20.853c11.061,4.423,23.82,6.636,38.291,6.636c10.805,0,16.205-3.475,16.205-10.428
		c0-6.633-3.629-9.95-10.896-9.95h-18.008c-20.219,0-30.33-9.95-30.33-29.854c0-20.851,14.755-31.275,44.261-31.275
		c12.511,0,24.294,1.894,35.353,5.686v20.851c-11.059-4.423-23.062-6.635-36.015-6.635c-13.585,0-20.379,3.476-20.379,10.426
		c0,6.634,3.95,9.951,11.849,9.951h16.113c22.115,0,33.17,9.953,33.17,29.854c0,20.854-14.088,31.277-42.27,31.277
		C383.596,199.977,371.151,198.081,360.091,194.292z"/>
	<path fill="#FFFFFF" d="M453.843,83.401l25.061,0.001v16.113h22.33v19.901h-22.271v45.777c0,9.289,4.01,13.933,12.037,13.933
		h10.234v19.903h-22.369c-16.68,0-25.021-8.941-25.021-26.822V83.401z"/>
</g>
<g id="inverted" display="none">
	<path display="inline" fill="#E2001A" d="M83.271,63.5h25.114v43.596c7.52-5.054,15.892-7.581,25.117-7.581
		c28.305,0,42.459,15.921,42.459,47.767c0,34.499-16.206,51.748-48.62,51.748c-13.648,0-28.337-1.359-44.07-4.076V63.5z
		 M108.384,175.999c5.751,1.832,12.416,2.749,19.998,2.749c15.165,0,22.746-10.71,22.746-32.13c0-17.501-6.538-26.252-19.617-26.252
		c-8.469,0-16.175,1.707-23.127,5.118V175.999z"/>
	<path display="inline" fill="#E2001A" d="M253.742,188.181c-10.655,7.218-22.04,10.849-33.882,10.849
		c-20.344,0-30.518-12.037-30.518-36.111V99.515h25.117v62.741c0,10.994,4.8,16.491,14.404,16.491c8.151,0,16.46-3.255,24.925-9.763
		v-69.47h25.117v99.515h-25.202"/>
	<path display="inline" fill="#E2001A" d="M320.622,109.983c8-6.98,16.419-10.468,25.254-10.468v20.282
		c-9.351,0-17.723,3.884-25.116,11.656v67.576h-25.115V99.515h25.012"/>
	<path display="inline" fill="#E2001A" d="M360.091,194.292v-20.853c11.061,4.423,23.82,6.636,38.291,6.636
		c10.805,0,16.205-3.475,16.205-10.428c0-6.633-3.629-9.95-10.896-9.95h-18.008c-20.219,0-30.33-9.95-30.33-29.854
		c0-20.851,14.755-31.275,44.261-31.275c12.511,0,24.294,1.894,35.353,5.686v20.851c-11.059-4.423-23.062-6.635-36.015-6.635
		c-13.585,0-20.379,3.476-20.379,10.426c0,6.634,3.95,9.951,11.849,9.951h16.113c22.115,0,33.17,9.953,33.17,29.854
		c0,20.854-14.088,31.277-42.27,31.277C383.596,199.977,371.151,198.081,360.091,194.292z"/>
	<path display="inline" fill="#E2001A" d="M453.843,83.401l25.061,0.001v16.113h22.33v19.901h-22.271v45.777
		c0,9.289,4.01,13.933,12.037,13.933h10.234v19.903h-22.369c-16.68,0-25.021-8.941-25.021-26.822V83.401z"/>
</g>
<g id="guides" display="none">
	<rect x="418.216" display="inline" fill="#00AAFF" width="83.27" height="83.271"/>
	<rect x="501.485" display="inline" fill="#00AAFF" width="83.271" height="83.271"/>
	<rect x="418.216" y="199.03" display="inline" fill="#00AAFF" width="83.27" height="83.271"/>
	<rect x="501.485" y="199.03" display="inline" fill="#00AAFF" width="83.271" height="83.271"/>
	<rect y="199.801" display="inline" fill="#00AAFF" width="83.271" height="83.27"/>
	<rect x="83.271" y="199.801" display="inline" fill="#00AAFF" width="83.271" height="83.27"/>
	<rect display="inline" fill="#00AAFF" width="83.271" height="83.271"/>
	<rect x="83.271" display="inline" fill="#00AAFF" width="83.271" height="83.271"/>
</g>
</svg>
