<?xml version="1.0" encoding="utf-8"?>
<!-- Generator: Adobe Illustrator 16.0.0, SVG Export Plug-In . SVG Version: 6.00 Build 0)  -->
<!DOCTYPE svg PUBLIC "-//W3C//DTD SVG 1.1//EN" "http://www.w3.org/Graphics/SVG/1.1/DTD/svg11.dtd">
<svg version="1.1" id="Layer_1" xmlns="http://www.w3.org/2000/svg" xmlns:xlink="http://www.w3.org/1999/xlink" x="0px" y="0px"
	 width="841px" height="60px" viewBox="0 0 841 60" enable-background="new 0 0 841 60" xml:space="preserve">
<g>
	<defs>
		<rect id="SVGID_1_" width="841" height="60"/>
	</defs>
	<clipPath id="SVGID_2_">
		<use xlink:href="#SVGID_1_"  overflow="visible"/>
	</clipPath>
	<g clip-path="url(#SVGID_2_)">
		<defs>
			<rect id="SVGID_3_" x="-0.927" y="-0.782" width="841.021" height="60.782"/>
		</defs>
		<clipPath id="SVGID_4_">
			<use xlink:href="#SVGID_3_"  overflow="visible"/>
		</clipPath>
		<g clip-path="url(#SVGID_4_)">
			<defs>
				<rect id="SVGID_5_" x="-0.89" y="-267.29" width="841.89" height="595.29"/>
			</defs>
			<clipPath id="SVGID_6_">
				<use xlink:href="#SVGID_5_"  overflow="visible"/>
			</clipPath>
			<path clip-path="url(#SVGID_6_)" fill="#00B2E2" d="M21.502,60C10.909,60,3.698,55.028,0.647,45.623
				C-0.676,41.727-1,38.593-1,29.608c0-8.989,0.324-12.131,1.647-16.013C3.698,4.186,10.909-0.782,21.502-0.782
				c9.816,0,17.067,4.613,20.42,12.996c0.073,0.126,0.116,0.234,0.081,0.327c-0.032,0.091-0.134,0.171-0.284,0.215l-9.591,4.313
				c-0.12,0.062-0.218,0.09-0.302,0.09c-0.171,0-0.314-0.116-0.426-0.35c-2.023-4.676-5.232-6.957-9.811-6.957
				c-4.657,0-7.881,2.361-9.306,6.84c-0.735,2.3-0.98,4.492-0.98,12.916c0,8.415,0.245,10.612,0.98,12.917
				c1.424,4.473,4.644,6.836,9.306,6.836c4.578,0,7.788-2.282,9.816-6.975c0.105-0.212,0.249-0.337,0.42-0.337
				c0.087,0,0.182,0.03,0.288,0.081l9.569,4.307c0.187,0.059,0.289,0.141,0.321,0.234c0.036,0.094-0.007,0.197-0.055,0.277
				C38.569,55.382,31.318,60,21.502,60"/>
		</g>
	</g>
</g>
<g>
	<defs>
		<rect id="SVGID_7_" width="841" height="60"/>
	</defs>
	<clipPath id="SVGID_8_">
		<use xlink:href="#SVGID_7_"  overflow="visible"/>
	</clipPath>
	<g clip-path="url(#SVGID_8_)">
		<defs>
			<rect id="SVGID_9_" x="-0.89" y="-267.29" width="841.89" height="595.29"/>
		</defs>
		<clipPath id="SVGID_10_">
			<use xlink:href="#SVGID_9_"  overflow="visible"/>
		</clipPath>
		<path clip-path="url(#SVGID_10_)" fill="#00B2E2" d="M52.25,59.027c-0.317,0-0.496-0.176-0.496-0.484V0.675
			c0-0.313,0.179-0.498,0.496-0.498h11.137c0.312,0,0.492,0.185,0.492,0.498v46.732c0,0.556,0.35,0.905,0.908,0.905h22.173
			c0.318,0,0.496,0.176,0.496,0.497v9.733c0,0.309-0.177,0.484-0.496,0.484H52.25"/>
		<path clip-path="url(#SVGID_10_)" fill="#00B2E2" d="M116.264,60c-10.717,0-18.507-5.178-21.379-14.203
			c-1.313-4.105-1.65-7.428-1.65-16.188c0-8.764,0.337-12.09,1.65-16.192c2.872-9.024,10.662-14.198,21.379-14.198
			c10.713,0,18.503,5.174,21.376,14.198c1.308,4.103,1.647,7.429,1.647,16.192c0,8.761-0.339,12.083-1.647,16.188
			C134.771,54.822,126.977,60,116.264,60 M116.264,9.853c-4.881,0-8.337,2.429-9.748,6.84c-0.743,2.229-0.981,5.367-0.981,12.916
			c0,7.54,0.239,10.683,0.986,12.921c1.402,4.406,4.861,6.832,9.743,6.832c4.874,0,8.333-2.426,9.741-6.836
			c0.743-2.234,0.987-5.377,0.987-12.917c0-7.549-0.245-10.688-0.987-12.924C124.597,12.281,121.138,9.853,116.264,9.853z"/>
		<path clip-path="url(#SVGID_10_)" fill="#00B2E2" d="M170.644,60c-10.593,0-17.805-4.972-20.855-14.377
			c-1.323-3.888-1.647-7.03-1.647-16.015c0-8.989,0.325-12.131,1.645-16.013c3.053-9.41,10.265-14.378,20.858-14.378
			c9.812,0,17.066,4.613,20.419,12.996c0.073,0.131,0.118,0.234,0.081,0.327c-0.032,0.091-0.134,0.171-0.284,0.215l-9.591,4.313
			c-0.12,0.062-0.221,0.09-0.302,0.09c-0.171,0-0.313-0.116-0.427-0.35c-2.023-4.676-5.23-6.957-9.813-6.957
			c-4.658,0-7.878,2.361-9.302,6.84c-0.735,2.3-0.984,4.492-0.984,12.916c0,8.425,0.249,10.612,0.984,12.917
			c1.424,4.473,4.644,6.836,9.302,6.836c4.583,0,7.79-2.282,9.82-6.975c0.106-0.212,0.248-0.337,0.419-0.337
			c0.084,0,0.183,0.03,0.289,0.081l9.568,4.307c0.187,0.059,0.289,0.148,0.321,0.234c0.037,0.094-0.008,0.197-0.054,0.277
			C187.71,55.382,180.457,60,170.644,60"/>
		<path clip-path="url(#SVGID_10_)" fill="#00B2E2" d="M235.259,59.027c-0.55,0-0.695-0.086-0.988-0.588l-13.768-25.584
			l-8.249,10.383v15.305c0,0.309-0.183,0.484-0.493,0.484H200.63c-0.317,0-0.497-0.176-0.497-0.484V0.675
			c0-0.313,0.18-0.498,0.497-0.498h11.132c0.31,0,0.493,0.185,0.493,0.498v26.904l20.5-26.761c0.369-0.516,0.6-0.642,1.184-0.642
			h12.717c0.08,0,0.135,0.032,0.167,0.1c0.039,0.089,0.033,0.242-0.114,0.412l-18.222,22.833l19.848,35.025
			c0.11,0.189,0.126,0.337,0.096,0.395c-0.038,0.059-0.146,0.086-0.291,0.086H235.259"/>
		<path clip-path="url(#SVGID_10_)" fill="#00B2E2" d="M300.595,59.027c-0.4,0-0.641-0.188-0.779-0.609l-10.418-37.35h-0.751
			l-10.513,37.363c-0.139,0.407-0.379,0.596-0.78,0.596h-8.762c-0.321,0-0.557-0.202-0.687-0.609L252.479,0.572
			c-0.016-0.131-0.007-0.27,0.036-0.318c0.045-0.045,0.146-0.077,0.298-0.077h11.308c0.394,0,0.612,0.185,0.677,0.561l8.661,37.753
			h0.773l10.251-37.713c0.131-0.407,0.372-0.601,0.767-0.601h7.626c0.32,0,0.553,0.212,0.69,0.619l10.593,37.694h0.773l8.305-37.729
			c0.065-0.439,0.24-0.584,0.677-0.584h11.229c0.146,0,0.256,0.032,0.292,0.077c0.051,0.049,0.057,0.188,0.029,0.358l-15.333,57.827
			c-0.065,0.386-0.35,0.588-0.773,0.588H300.595"/>
		<path clip-path="url(#SVGID_10_)" fill="#00B2E2" d="M353.852,60c-10.714,0-18.502-5.178-21.375-14.203
			c-1.313-4.105-1.656-7.428-1.656-16.188c0-8.764,0.343-12.09,1.656-16.192c2.873-9.024,10.661-14.198,21.375-14.198
			c10.718,0,18.511,5.174,21.375,14.198c1.313,4.103,1.649,7.429,1.649,16.192c0,8.761-0.336,12.083-1.649,16.188
			C372.362,54.822,364.57,60,353.852,60 M353.852,9.853c-4.869,0-8.339,2.429-9.747,6.84c-0.735,2.224-0.978,5.367-0.978,12.916
			c0,7.54,0.242,10.683,0.986,12.921c1.398,4.406,4.86,6.832,9.738,6.832c4.878,0,8.333-2.426,9.747-6.836
			c0.744-2.234,0.985-5.377,0.985-12.917c0-7.549-0.241-10.688-0.99-12.924C362.185,12.281,358.729,9.853,353.852,9.853z"/>
		<path clip-path="url(#SVGID_10_)" fill="#00B2E2" d="M420.358,59.027c-0.614,0-0.753-0.13-0.973-0.642L409.02,36.324h-8.226
			c-0.561,0-0.902,0.346-0.902,0.906v21.312c0,0.309-0.184,0.484-0.497,0.484h-11.132c-0.314,0-0.498-0.176-0.498-0.484V0.675
			c0-0.313,0.184-0.498,0.498-0.498h23.751c11.889,0,19.874,7.286,19.874,18.121c0,7.401-3.784,13.319-10.383,16.22l-0.364,0.162
			l11.935,23.854c0.066,0.144,0.08,0.282,0.018,0.372c-0.067,0.107-0.216,0.121-0.3,0.121H420.358 M400.794,10.551
			c-0.561,0-0.902,0.346-0.902,0.906V25.22c0,0.565,0.341,0.91,0.902,0.91h10.531c5.129,0,8.441-3.075,8.441-7.832
			c0-4.707-3.312-7.747-8.441-7.747H400.794z"/>
		<path clip-path="url(#SVGID_10_)" fill="#00B2E2" d="M478.518,59.027c-0.547,0-0.699-0.086-0.991-0.588l-13.763-25.584
			l-8.244,10.383v15.305c0,0.309-0.184,0.484-0.498,0.484H443.89c-0.323,0-0.501-0.176-0.501-0.484V0.675
			c0-0.313,0.178-0.498,0.501-0.498h11.132c0.314,0,0.498,0.185,0.498,0.498v26.904l20.502-26.761
			c0.362-0.516,0.586-0.642,1.178-0.642h12.715c0.08,0,0.139,0.032,0.17,0.1c0.04,0.089,0.035,0.242-0.116,0.412l-18.22,22.833
			L491.6,58.547c0.108,0.189,0.13,0.337,0.095,0.395c-0.037,0.059-0.153,0.086-0.293,0.086H478.518"/>
		<path clip-path="url(#SVGID_10_)" d="M533.938,0.431c0-0.188,0.128-0.315,0.314-0.315h1.164c0.189,0,0.314,0.127,0.314,0.315
			v9.181c0,0.126,0.063,0.189,0.188,0.189h10.565c0.126,0,0.189-0.063,0.189-0.189V0.431c0-0.188,0.125-0.315,0.313-0.315h1.165
			c0.188,0,0.313,0.127,0.313,0.315v20.752c0,0.189-0.126,0.314-0.313,0.314h-1.165c-0.188,0-0.313-0.125-0.313-0.314v-9.496
			c0-0.126-0.063-0.188-0.189-0.188h-10.565c-0.125,0-0.188,0.062-0.188,0.188v9.496c0,0.189-0.125,0.314-0.314,0.314h-1.164
			c-0.187,0-0.314-0.125-0.314-0.314V0.431"/>
		<path clip-path="url(#SVGID_10_)" d="M553.75,17.851c-0.283-0.913-0.44-1.949-0.44-3.868c0-1.887,0.157-2.987,0.44-3.898
			c0.818-2.516,2.862-3.898,5.565-3.898c2.705,0,4.78,1.383,5.598,3.898c0.314,0.943,0.439,1.917,0.439,3.992
			c0,0.188-0.125,0.314-0.346,0.314h-9.778c-0.126,0-0.189,0.095-0.189,0.221c0,1.258,0.096,1.949,0.314,2.642
			c0.692,1.98,2.201,2.924,4.245,2.924c1.95,0,3.302-0.817,4.183-1.918c0.126-0.157,0.282-0.189,0.439-0.063l0.723,0.661
			c0.158,0.126,0.158,0.282,0.033,0.439c-1.102,1.479-2.988,2.516-5.473,2.516C556.58,21.812,554.6,20.429,553.75,17.851
			 M563.435,12.944c0.126,0,0.188-0.062,0.188-0.188c0-0.911-0.094-1.572-0.282-2.169c-0.598-1.855-2.044-2.831-4.025-2.831
			c-1.949,0-3.396,0.976-3.992,2.831c-0.188,0.597-0.284,1.258-0.284,2.169c0,0.126,0.063,0.188,0.189,0.188H563.435z"/>
		<path clip-path="url(#SVGID_10_)" d="M574.41,21.591c-2.831,0-3.899-1.1-3.899-4.055V8.197c0-0.127-0.063-0.188-0.188-0.188
			h-1.572c-0.189,0-0.314-0.126-0.314-0.314V6.812c0-0.188,0.125-0.314,0.314-0.314h1.572c0.125,0,0.188-0.062,0.188-0.188V2.003
			c0-0.188,0.126-0.314,0.314-0.314h1.07c0.187,0,0.314,0.126,0.314,0.314V6.31c0,0.126,0.061,0.188,0.188,0.188h2.829
			c0.189,0,0.314,0.126,0.314,0.314v0.882c0,0.188-0.125,0.314-0.314,0.314h-2.829c-0.128,0-0.188,0.062-0.188,0.188v9.243
			c0,2.013,0.691,2.516,2.42,2.516h0.598c0.189,0,0.314,0.126,0.314,0.314v1.008c0,0.187-0.125,0.312-0.314,0.312H574.41"/>
		<path clip-path="url(#SVGID_10_)" d="M597.145,21.497c-0.188,0-0.314-0.125-0.314-0.314v-1.823h-0.032
			c-0.722,1.416-2.075,2.452-4.558,2.452c-2.643,0-4.34-1.194-5.095-3.584c-0.408-1.227-0.534-2.548-0.534-4.213
			c0-1.699,0.126-3.02,0.534-4.245c0.755-2.391,2.452-3.584,5.095-3.584c2.482,0,3.836,1.036,4.558,2.452h0.032V0.431
			c0-0.188,0.126-0.315,0.314-0.315h1.069c0.188,0,0.313,0.127,0.313,0.315v20.752c0,0.189-0.125,0.314-0.313,0.314H597.145
			 M596.421,17.536c0.283-0.817,0.409-1.887,0.409-3.521c0-1.636-0.126-2.736-0.409-3.554c-0.564-1.761-1.949-2.641-3.836-2.641
			c-1.949,0-3.27,0.943-3.836,2.641c-0.314,0.943-0.409,2.201-0.409,3.554c0,1.32,0.095,2.578,0.409,3.521
			c0.566,1.697,1.887,2.641,3.836,2.641C594.472,20.177,595.856,19.296,596.421,17.536z"/>
		<path clip-path="url(#SVGID_10_)" d="M604.472,2.506c-0.188,0-0.314-0.126-0.314-0.314V0.431c0-0.188,0.126-0.315,0.314-0.315
			h1.384c0.188,0,0.314,0.127,0.314,0.315v1.761c0,0.188-0.126,0.314-0.314,0.314H604.472 M604.63,21.497
			c-0.188,0-0.314-0.125-0.314-0.314V6.812c0-0.188,0.126-0.314,0.314-0.314h1.069c0.188,0,0.314,0.126,0.314,0.314v14.37
			c0,0.189-0.127,0.314-0.314,0.314H604.63z"/>
		<path clip-path="url(#SVGID_10_)" d="M611.453,25.303c-0.095-0.158-0.095-0.315,0.063-0.44l0.785-0.692
			c0.157-0.125,0.315-0.095,0.441,0.063c0.911,1.037,2.169,1.603,3.71,1.603c2.672,0,4.276-1.32,4.276-4.558v-2.171h-0.031
			c-0.693,1.478-2.014,2.453-4.434,2.453c-2.516,0-4.245-1.29-5-3.585c-0.347-1.068-0.503-2.296-0.503-4.087
			c0-1.793,0.156-3.02,0.503-4.088c0.755-2.295,2.484-3.615,5-3.615c2.42,0,3.74,0.974,4.434,2.452h0.031V6.812
			c0-0.188,0.126-0.314,0.314-0.314h1.068c0.188,0,0.314,0.126,0.314,0.314v14.401c0,4.183-2.264,6.259-6.005,6.259
			C614.252,27.473,612.271,26.529,611.453,25.303 M620.352,17.315c0.284-0.849,0.378-1.854,0.378-3.427
			c0-1.573-0.094-2.579-0.378-3.428c-0.628-1.888-2.012-2.641-3.741-2.641c-1.856,0-3.112,0.911-3.679,2.608
			c-0.314,0.881-0.439,1.95-0.439,3.46c0,1.477,0.125,2.578,0.439,3.427c0.566,1.729,1.822,2.641,3.679,2.641
			C618.34,19.956,619.724,19.171,620.352,17.315z"/>
		<path clip-path="url(#SVGID_10_)" d="M628.37,2.506c-0.188,0-0.314-0.126-0.314-0.314V0.431c0-0.188,0.126-0.315,0.314-0.315
			h1.384c0.188,0,0.314,0.127,0.314,0.315v1.761c0,0.188-0.126,0.314-0.314,0.314H628.37 M628.528,21.497
			c-0.188,0-0.314-0.125-0.314-0.314V6.812c0-0.188,0.126-0.314,0.314-0.314h1.068c0.188,0,0.315,0.126,0.315,0.314v14.37
			c0,0.189-0.127,0.314-0.315,0.314H628.528z"/>
		<path clip-path="url(#SVGID_10_)" d="M640.006,21.591c-2.83,0-3.899-1.1-3.899-4.055V8.197c0-0.127-0.062-0.188-0.188-0.188
			h-1.572c-0.188,0-0.314-0.126-0.314-0.314V6.812c0-0.188,0.126-0.314,0.314-0.314h1.572c0.126,0,0.188-0.062,0.188-0.188V2.003
			c0-0.188,0.126-0.314,0.314-0.314h1.069c0.188,0,0.314,0.126,0.314,0.314V6.31c0,0.126,0.062,0.188,0.188,0.188h2.83
			c0.188,0,0.314,0.126,0.314,0.314v0.882c0,0.188-0.126,0.314-0.314,0.314h-2.83c-0.126,0-0.188,0.062-0.188,0.188v9.243
			c0,2.013,0.692,2.516,2.422,2.516h0.597c0.188,0,0.314,0.126,0.314,0.314v1.008c0,0.187-0.126,0.312-0.314,0.312H640.006"/>
		<path clip-path="url(#SVGID_10_)" d="M646.673,8.889c-0.158,0.126-0.347,0.126-0.473-0.031l-0.533-0.787
			c-0.094-0.156-0.063-0.314,0.094-0.44c1.068-0.911,2.673-1.444,4.779-1.444c3.899,0,5.471,1.288,5.471,4.967v10.03
			c0,0.189-0.125,0.314-0.314,0.314h-1.006c-0.188,0-0.314-0.125-0.314-0.314V19.61h-0.03c-0.599,1.259-2.202,2.201-4.654,2.201
			c-3.019,0-5.03-1.509-5.03-4.434c0-2.987,2.044-4.434,5.69-4.434h3.804c0.126,0,0.19-0.062,0.19-0.188v-1.54
			c0-2.452-0.851-3.46-3.9-3.46C648.622,7.756,647.553,8.165,646.673,8.889 M654.346,16.875v-2.296c0-0.126-0.064-0.188-0.19-0.188
			h-3.584c-2.986,0-4.245,0.975-4.245,2.957c0,1.886,1.32,2.892,3.711,2.892C652.616,20.239,654.346,18.919,654.346,16.875z"/>
		<path clip-path="url(#SVGID_10_)" d="M664.69,21.591c-2.264,0-3.113-1.037-3.113-3.521V0.431c0-0.188,0.126-0.315,0.315-0.315
			h1.068c0.188,0,0.314,0.127,0.314,0.315v17.576c0,1.479,0.472,1.949,1.604,1.949h0.536c0.187,0,0.314,0.126,0.314,0.314v1.008
			c0,0.187-0.128,0.312-0.314,0.312H664.69"/>
		<path clip-path="url(#SVGID_10_)" d="M677.017,17.851c-0.283-0.913-0.439-1.949-0.439-3.868c0-1.887,0.156-2.987,0.439-3.898
			c0.817-2.516,2.862-3.898,5.565-3.898c2.704,0,4.779,1.383,5.597,3.898c0.314,0.943,0.44,1.917,0.44,3.992
			c0,0.188-0.126,0.314-0.346,0.314h-9.779c-0.124,0-0.188,0.095-0.188,0.221c0,1.258,0.095,1.949,0.315,2.642
			c0.69,1.98,2.199,2.924,4.243,2.924c1.95,0,3.303-0.817,4.183-1.918c0.126-0.157,0.284-0.189,0.44-0.063l0.724,0.661
			c0.156,0.126,0.156,0.282,0.031,0.439c-1.1,1.479-2.986,2.516-5.472,2.516C679.847,21.812,677.865,20.429,677.017,17.851
			 M686.7,12.944c0.128,0,0.188-0.062,0.188-0.188c0-0.911-0.094-1.572-0.282-2.169c-0.596-1.855-2.044-2.831-4.024-2.831
			c-1.95,0-3.395,0.976-3.993,2.831c-0.188,0.597-0.283,1.258-0.283,2.169c0,0.126,0.064,0.188,0.188,0.188H686.7z"/>
		<path clip-path="url(#SVGID_10_)" d="M703.398,21.497c-0.188,0-0.314-0.125-0.314-0.314v-8.867c0-2.986-1.32-4.495-3.93-4.495
			c-2.296,0-4.088,1.571-4.088,4.181v9.182c0,0.189-0.126,0.314-0.314,0.314h-1.069c-0.188,0-0.314-0.125-0.314-0.314V6.812
			c0-0.188,0.126-0.314,0.314-0.314h1.069c0.188,0,0.314,0.126,0.314,0.314v1.793h0.031c0.755-1.479,2.327-2.42,4.435-2.42
			c3.332,0,5.251,2.074,5.251,5.722v9.275c0,0.189-0.126,0.314-0.314,0.314H703.398"/>
		<path clip-path="url(#SVGID_10_)" d="M710.035,25.303c-0.096-0.158-0.096-0.315,0.062-0.44l0.786-0.692
			c0.157-0.125,0.314-0.095,0.439,0.063c0.912,1.037,2.171,1.603,3.71,1.603c2.674,0,4.277-1.32,4.277-4.558v-2.171h-0.032
			c-0.691,1.478-2.012,2.453-4.434,2.453c-2.515,0-4.244-1.29-5-3.585c-0.345-1.068-0.502-2.296-0.502-4.087
			c0-1.793,0.157-3.02,0.502-4.088c0.756-2.295,2.485-3.615,5-3.615c2.422,0,3.742,0.974,4.434,2.452h0.032V6.812
			c0-0.188,0.126-0.314,0.314-0.314h1.068c0.189,0,0.314,0.126,0.314,0.314v14.401c0,4.183-2.263,6.259-6.005,6.259
			C712.833,27.473,710.853,26.529,710.035,25.303 M718.934,17.315c0.282-0.849,0.377-1.854,0.377-3.427
			c0-1.573-0.095-2.579-0.377-3.428c-0.631-1.888-2.013-2.641-3.742-2.641c-1.855,0-3.113,0.911-3.679,2.608
			c-0.314,0.881-0.44,1.95-0.44,3.46c0,1.477,0.126,2.578,0.44,3.427c0.565,1.729,1.823,2.641,3.679,2.641
			C716.921,19.956,718.303,19.171,718.934,17.315z"/>
		<path clip-path="url(#SVGID_10_)" d="M727.99,8.889c-0.158,0.126-0.347,0.126-0.472-0.031l-0.534-0.787
			c-0.095-0.156-0.064-0.314,0.094-0.44c1.068-0.911,2.673-1.444,4.779-1.444c3.899,0,5.471,1.288,5.471,4.967v10.03
			c0,0.189-0.125,0.314-0.314,0.314h-1.006c-0.188,0-0.314-0.125-0.314-0.314V19.61h-0.031c-0.597,1.259-2.201,2.201-4.653,2.201
			c-3.019,0-5.03-1.509-5.03-4.434c0-2.987,2.043-4.434,5.689-4.434h3.806c0.125,0,0.188-0.062,0.188-0.188v-1.54
			c0-2.452-0.849-3.46-3.899-3.46C729.939,7.756,728.87,8.165,727.99,8.889 M735.662,16.875v-2.296c0-0.126-0.063-0.188-0.188-0.188
			h-3.585c-2.987,0-4.245,0.975-4.245,2.957c0,1.886,1.32,2.892,3.71,2.892C733.934,20.239,735.662,18.919,735.662,16.875z"/>
		<path clip-path="url(#SVGID_10_)" d="M742.58,25.303c-0.095-0.158-0.095-0.315,0.063-0.44l0.787-0.692
			c0.155-0.125,0.312-0.095,0.438,0.063c0.912,1.037,2.17,1.603,3.711,1.603c2.674,0,4.276-1.32,4.276-4.558v-2.171h-0.032
			c-0.692,1.478-2.013,2.453-4.433,2.453c-2.517,0-4.245-1.29-5-3.585c-0.346-1.068-0.503-2.296-0.503-4.087
			c0-1.793,0.157-3.02,0.503-4.088c0.755-2.295,2.483-3.615,5-3.615c2.42,0,3.74,0.974,4.433,2.452h0.032V6.812
			c0-0.188,0.126-0.314,0.314-0.314h1.068c0.188,0,0.314,0.126,0.314,0.314v14.401c0,4.183-2.264,6.259-6.005,6.259
			C745.378,27.473,743.397,26.529,742.58,25.303 M751.479,17.315c0.283-0.849,0.377-1.854,0.377-3.427
			c0-1.573-0.094-2.579-0.377-3.428c-0.629-1.888-2.013-2.641-3.742-2.641c-1.856,0-3.112,0.911-3.68,2.608
			c-0.314,0.881-0.438,1.95-0.438,3.46c0,1.477,0.124,2.578,0.438,3.427c0.567,1.729,1.823,2.641,3.68,2.641
			C749.467,19.956,750.851,19.171,751.479,17.315z"/>
		<path clip-path="url(#SVGID_10_)" d="M758.775,17.851c-0.284-0.913-0.44-1.949-0.44-3.868c0-1.887,0.156-2.987,0.44-3.898
			c0.817-2.516,2.86-3.898,5.563-3.898c2.705,0,4.781,1.383,5.599,3.898c0.313,0.943,0.439,1.917,0.439,3.992
			c0,0.188-0.126,0.314-0.345,0.314h-9.779c-0.126,0-0.189,0.095-0.189,0.221c0,1.258,0.095,1.949,0.314,2.642
			c0.692,1.98,2.201,2.924,4.245,2.924c1.95,0,3.302-0.817,4.183-1.918c0.125-0.157,0.282-0.189,0.439-0.063l0.723,0.661
			c0.158,0.126,0.158,0.282,0.032,0.439c-1.101,1.479-2.987,2.516-5.471,2.516C761.604,21.812,759.624,20.429,758.775,17.851
			 M768.459,12.944c0.126,0,0.188-0.062,0.188-0.188c0-0.911-0.094-1.572-0.282-2.169c-0.599-1.855-2.044-2.831-4.026-2.831
			c-1.948,0-3.395,0.976-3.991,2.831c-0.189,0.597-0.284,1.258-0.284,2.169c0,0.126,0.063,0.188,0.189,0.188H768.459z"/>
		<path clip-path="url(#SVGID_10_)" d="M794.874,21.497c-0.19,0-0.314-0.125-0.314-0.314v-8.867c0-2.986-1.354-4.495-3.964-4.495
			c-2.295,0-4.056,1.571-4.056,4.181v9.182c0,0.189-0.126,0.314-0.314,0.314h-1.069c-0.188,0-0.314-0.125-0.314-0.314v-8.867
			c0-2.986-1.32-4.495-3.931-4.495c-2.295,0-4.086,1.571-4.086,4.181v9.182c0,0.189-0.127,0.314-0.315,0.314h-1.068
			c-0.189,0-0.314-0.125-0.314-0.314V6.812c0-0.188,0.125-0.314,0.314-0.314h1.068c0.188,0,0.315,0.126,0.315,0.314v1.793h0.031
			c0.754-1.479,2.326-2.42,4.434-2.42c2.326,0,3.899,0.974,4.653,2.797h0.031c0.88-1.729,2.483-2.797,4.937-2.797
			c3.396,0,5.346,2.074,5.346,5.722v9.275c0,0.189-0.125,0.314-0.313,0.314H794.874"/>
		<path clip-path="url(#SVGID_10_)" d="M801.291,17.851c-0.284-0.913-0.441-1.949-0.441-3.868c0-1.887,0.157-2.987,0.441-3.898
			c0.817-2.516,2.861-3.898,5.564-3.898c2.705,0,4.78,1.383,5.598,3.898c0.314,0.943,0.439,1.917,0.439,3.992
			c0,0.188-0.125,0.314-0.346,0.314h-9.778c-0.126,0-0.189,0.095-0.189,0.221c0,1.258,0.096,1.949,0.314,2.642
			c0.692,1.98,2.201,2.924,4.245,2.924c1.95,0,3.302-0.817,4.183-1.918c0.126-0.157,0.282-0.189,0.439-0.063l0.723,0.661
			c0.158,0.126,0.158,0.282,0.033,0.439c-1.102,1.479-2.988,2.516-5.473,2.516C804.12,21.812,802.14,20.429,801.291,17.851
			 M810.975,12.944c0.126,0,0.188-0.062,0.188-0.188c0-0.911-0.094-1.572-0.282-2.169c-0.599-1.855-2.044-2.831-4.025-2.831
			c-1.949,0-3.396,0.976-3.992,2.831c-0.188,0.597-0.284,1.258-0.284,2.169c0,0.126,0.063,0.188,0.189,0.188H810.975z"/>
		<path clip-path="url(#SVGID_10_)" d="M827.672,21.497c-0.188,0-0.314-0.125-0.314-0.314v-8.867c0-2.986-1.32-4.495-3.93-4.495
			c-2.295,0-4.087,1.571-4.087,4.181v9.182c0,0.189-0.127,0.314-0.315,0.314h-1.068c-0.188,0-0.314-0.125-0.314-0.314V6.812
			c0-0.188,0.126-0.314,0.314-0.314h1.068c0.188,0,0.315,0.126,0.315,0.314v1.793h0.031c0.753-1.479,2.326-2.42,4.433-2.42
			c3.334,0,5.251,2.074,5.251,5.722v9.275c0,0.189-0.125,0.314-0.314,0.314H827.672"/>
		<path clip-path="url(#SVGID_10_)" d="M838.963,21.591c-2.832,0-3.9-1.1-3.9-4.055V8.197c0-0.127-0.062-0.188-0.188-0.188h-1.572
			c-0.188,0-0.314-0.126-0.314-0.314V6.812c0-0.188,0.126-0.314,0.314-0.314h1.572c0.126,0,0.188-0.062,0.188-0.188V2.003
			c0-0.188,0.126-0.314,0.314-0.314h1.07c0.188,0,0.314,0.126,0.314,0.314V6.31c0,0.126,0.062,0.188,0.188,0.188h2.83
			c0.188,0,0.314,0.126,0.314,0.314v0.882c0,0.188-0.126,0.314-0.314,0.314h-2.83c-0.126,0-0.188,0.062-0.188,0.188v9.243
			c0,2.013,0.691,2.516,2.421,2.516h0.598c0.188,0,0.314,0.126,0.314,0.314v1.008c0,0.187-0.126,0.312-0.314,0.312H838.963"/>
		<path clip-path="url(#SVGID_10_)" d="M535.605,56.762h-0.031v1.825c0,0.188-0.126,0.313-0.316,0.313h-1.067
			c-0.188,0-0.315-0.125-0.315-0.313V37.834c0-0.189,0.127-0.314,0.315-0.314h1.067c0.19,0,0.316,0.125,0.316,0.314v8.207h0.031
			c0.723-1.416,2.075-2.453,4.559-2.453c2.642,0,4.309,1.194,5.094,3.584c0.378,1.228,0.535,2.548,0.535,4.245
			c0,1.667-0.157,2.987-0.535,4.214c-0.785,2.389-2.452,3.584-5.094,3.584C537.681,59.215,536.328,58.178,535.605,56.762
			 M543.655,54.939c0.314-0.943,0.408-2.202,0.408-3.522c0-1.353-0.094-2.61-0.408-3.554c-0.566-1.698-1.855-2.641-3.836-2.641
			c-1.888,0-3.271,0.881-3.837,2.641c-0.282,0.818-0.408,1.918-0.408,3.554c0,1.635,0.126,2.703,0.408,3.522
			c0.565,1.76,1.949,2.641,3.837,2.641C541.8,57.58,543.089,56.637,543.655,54.939z"/>
		<path clip-path="url(#SVGID_10_)" d="M560.228,58.9c-0.189,0-0.314-0.125-0.314-0.313v-1.763h-0.033
			c-0.754,1.479-2.326,2.391-4.37,2.391c-3.332,0-5.188-2.076-5.188-5.69v-9.308c0-0.189,0.125-0.314,0.314-0.314h1.07
			c0.188,0,0.314,0.125,0.314,0.314v8.867c0,3.018,1.258,4.496,3.868,4.496c2.262,0,4.024-1.572,4.024-4.184v-9.18
			c0-0.189,0.125-0.314,0.314-0.314h1.068c0.188,0,0.314,0.125,0.314,0.314v14.37c0,0.188-0.126,0.313-0.314,0.313H560.228"/>
		<path clip-path="url(#SVGID_10_)" d="M567.711,58.9c-0.188,0-0.314-0.125-0.314-0.313v-14.37c0-0.189,0.126-0.314,0.314-0.314
			h1.07c0.187,0,0.314,0.125,0.314,0.314v1.918h0.03c0.566-1.479,1.919-2.547,4.024-2.547c1.195,0,2.296,0.408,3.019,1.037
			c0.157,0.095,0.188,0.253,0.064,0.408l-0.631,0.881c-0.124,0.156-0.282,0.156-0.471,0.064c-0.691-0.441-1.446-0.756-2.39-0.756
			c-2.641,0-3.646,2.296-3.646,5.062v8.302c0,0.188-0.128,0.313-0.314,0.313H567.711"/>
		<path clip-path="url(#SVGID_10_)" d="M578.719,55.254c-0.283-0.912-0.439-1.951-0.439-3.869c0-1.885,0.156-2.985,0.439-3.898
			c0.817-2.514,2.861-3.898,5.564-3.898c2.705,0,4.78,1.385,5.598,3.898c0.314,0.943,0.439,1.919,0.439,3.993
			c0,0.188-0.125,0.314-0.346,0.314h-9.778c-0.126,0-0.188,0.095-0.188,0.222c0,1.256,0.095,1.947,0.314,2.641
			c0.691,1.98,2.2,2.924,4.244,2.924c1.95,0,3.303-0.818,4.183-1.918c0.126-0.158,0.283-0.188,0.44-0.063l0.722,0.661
			c0.158,0.125,0.158,0.283,0.033,0.439c-1.102,1.479-2.988,2.516-5.473,2.516C581.549,59.215,579.567,57.832,578.719,55.254
			 M588.402,50.348c0.128,0,0.188-0.062,0.188-0.188c0-0.911-0.094-1.571-0.282-2.169c-0.596-1.855-2.044-2.831-4.025-2.831
			c-1.949,0-3.396,0.976-3.992,2.831c-0.188,0.598-0.283,1.258-0.283,2.169c0,0.126,0.062,0.188,0.188,0.188H588.402z"/>
		<path clip-path="url(#SVGID_10_)" d="M596.266,46.293c-0.157,0.124-0.346,0.124-0.472-0.033l-0.534-0.785
			c-0.095-0.158-0.063-0.315,0.095-0.441c1.068-0.912,2.671-1.445,4.778-1.445c3.899,0,5.471,1.29,5.471,4.967v10.032
			c0,0.188-0.126,0.313-0.314,0.313h-1.006c-0.189,0-0.314-0.125-0.314-0.313v-1.573h-0.031c-0.598,1.258-2.2,2.201-4.652,2.201
			c-3.02,0-5.032-1.51-5.032-4.434c0-2.987,2.044-4.434,5.691-4.434h3.805c0.126,0,0.188-0.062,0.188-0.188v-1.54
			c0-2.454-0.85-3.46-3.899-3.46C598.215,45.159,597.146,45.569,596.266,46.293 M603.938,54.278v-2.296
			c0-0.125-0.062-0.188-0.188-0.188h-3.586c-2.985,0-4.243,0.976-4.243,2.956c0,1.887,1.32,2.893,3.71,2.893
			C602.208,57.643,603.938,56.322,603.938,54.278z"/>
		<path clip-path="url(#SVGID_10_)" d="M620.855,58.9c-0.189,0-0.314-0.125-0.314-0.313v-1.763h-0.033
			c-0.754,1.479-2.326,2.391-4.369,2.391c-3.334,0-5.188-2.076-5.188-5.69v-9.308c0-0.189,0.126-0.314,0.314-0.314h1.069
			c0.188,0,0.314,0.125,0.314,0.314v8.867c0,3.018,1.258,4.496,3.868,4.496c2.263,0,4.024-1.572,4.024-4.184v-9.18
			c0-0.189,0.125-0.314,0.314-0.314h1.068c0.188,0,0.313,0.125,0.313,0.314v14.37c0,0.188-0.125,0.313-0.313,0.313H620.855"/>
		<path clip-path="url(#SVGID_10_)" d="M639.723,58.9c-0.221,0-0.314-0.125-0.379-0.313l-5.438-14.37
			c-0.062-0.189,0.031-0.314,0.252-0.314h1.162c0.222,0,0.314,0.094,0.409,0.314l4.527,12.011h0.032l4.435-12.011
			c0.094-0.221,0.188-0.314,0.407-0.314h1.164c0.22,0,0.315,0.125,0.252,0.314l-5.44,14.37c-0.062,0.188-0.188,0.313-0.377,0.313
			H639.723"/>
		<path clip-path="url(#SVGID_10_)" d="M651.357,46.293c-0.158,0.124-0.347,0.124-0.472-0.033l-0.534-0.785
			c-0.095-0.158-0.064-0.315,0.094-0.441c1.068-0.912,2.673-1.445,4.779-1.445c3.899,0,5.471,1.29,5.471,4.967v10.032
			c0,0.188-0.125,0.313-0.314,0.313h-1.006c-0.188,0-0.314-0.125-0.314-0.313v-1.573h-0.031c-0.597,1.258-2.201,2.201-4.653,2.201
			c-3.019,0-5.03-1.51-5.03-4.434c0-2.987,2.043-4.434,5.689-4.434h3.806c0.125,0,0.188-0.062,0.188-0.188v-1.54
			c0-2.454-0.849-3.46-3.899-3.46C653.307,45.159,652.237,45.569,651.357,46.293 M659.029,54.278v-2.296
			c0-0.125-0.063-0.188-0.188-0.188h-3.585c-2.987,0-4.245,0.976-4.245,2.956c0,1.887,1.32,2.893,3.71,2.893
			C657.301,57.643,659.029,56.322,659.029,54.278z"/>
		<path clip-path="url(#SVGID_10_)" d="M676.324,58.9c-0.188,0-0.314-0.125-0.314-0.313V49.72c0-2.988-1.321-4.497-3.931-4.497
			c-2.296,0-4.087,1.572-4.087,4.183v9.182c0,0.188-0.127,0.313-0.316,0.313h-1.068c-0.188,0-0.314-0.125-0.314-0.313v-14.37
			c0-0.189,0.126-0.314,0.314-0.314h1.068c0.189,0,0.316,0.125,0.316,0.314v1.791h0.031c0.754-1.478,2.326-2.42,4.434-2.42
			c3.332,0,5.251,2.074,5.251,5.723v9.276c0,0.188-0.126,0.313-0.314,0.313H676.324"/>
		<path clip-path="url(#SVGID_10_)" d="M690.82,54.404c-0.377-1.133-0.629-2.516-0.629-6.194c0-3.68,0.252-5.062,0.629-6.194
			c1.038-3.145,3.428-4.812,6.918-4.812c3.459,0,5.848,1.667,6.887,4.812c0.376,1.132,0.628,2.515,0.628,6.194
			c0,3.679-0.252,5.062-0.628,6.194c-1.039,3.145-3.428,4.811-6.887,4.811C694.248,59.215,691.858,57.549,690.82,54.404
			 M702.896,42.519c-0.786-2.358-2.516-3.616-5.157-3.616c-2.673,0-4.401,1.258-5.188,3.616c-0.282,0.849-0.535,2.231-0.535,5.691
			c0,3.458,0.253,4.842,0.535,5.691c0.787,2.358,2.516,3.616,5.188,3.616c2.642,0,4.371-1.258,5.157-3.616
			c0.282-0.85,0.534-2.233,0.534-5.691C703.43,44.75,703.178,43.367,702.896,42.519z"/>
		<path clip-path="url(#SVGID_10_)" d="M710.506,58.9c-0.188,0-0.314-0.125-0.314-0.313v-14.37c0-0.189,0.126-0.314,0.314-0.314
			h1.069c0.188,0,0.314,0.125,0.314,0.314v1.918h0.032c0.565-1.479,1.917-2.547,4.024-2.547c1.194,0,2.296,0.408,3.018,1.037
			c0.157,0.095,0.189,0.253,0.063,0.408l-0.63,0.881c-0.125,0.156-0.282,0.156-0.47,0.064c-0.692-0.441-1.447-0.756-2.39-0.756
			c-2.643,0-3.648,2.296-3.648,5.062v8.302c0,0.188-0.126,0.313-0.314,0.313H710.506"/>
		<path clip-path="url(#SVGID_10_)" d="M731.604,58.9c-0.188,0-0.313-0.125-0.313-0.313v-1.825h-0.031
			c-0.724,1.416-2.075,2.453-4.559,2.453c-2.643,0-4.339-1.195-5.094-3.584c-0.409-1.227-0.535-2.547-0.535-4.214
			c0-1.697,0.126-3.018,0.535-4.245c0.755-2.39,2.451-3.584,5.094-3.584c2.483,0,3.835,1.037,4.559,2.453h0.031v-8.207
			c0-0.189,0.126-0.314,0.313-0.314h1.069c0.19,0,0.314,0.125,0.314,0.314v20.753c0,0.188-0.124,0.313-0.314,0.313H731.604
			 M730.883,54.939c0.282-0.819,0.408-1.888,0.408-3.522c0-1.636-0.126-2.735-0.408-3.554c-0.565-1.76-1.949-2.641-3.836-2.641
			c-1.95,0-3.271,0.942-3.837,2.641c-0.314,0.943-0.408,2.201-0.408,3.554c0,1.32,0.094,2.579,0.408,3.522
			c0.566,1.697,1.887,2.641,3.837,2.641C728.934,57.58,730.317,56.699,730.883,54.939z"/>
		<path clip-path="url(#SVGID_10_)" d="M738.934,39.908c-0.19,0-0.314-0.126-0.314-0.314v-1.76c0-0.189,0.124-0.314,0.314-0.314
			h1.384c0.188,0,0.313,0.125,0.313,0.314v1.76c0,0.188-0.125,0.314-0.313,0.314H738.934 M739.091,58.9
			c-0.189,0-0.314-0.125-0.314-0.313v-14.37c0-0.189,0.125-0.314,0.314-0.314h1.069c0.188,0,0.314,0.125,0.314,0.314v14.37
			c0,0.188-0.127,0.313-0.314,0.313H739.091z"/>
		<path clip-path="url(#SVGID_10_)" d="M756.29,58.9c-0.188,0-0.314-0.125-0.314-0.313V49.72c0-2.988-1.32-4.497-3.93-4.497
			c-2.295,0-4.087,1.572-4.087,4.183v9.182c0,0.188-0.127,0.313-0.315,0.313h-1.068c-0.188,0-0.314-0.125-0.314-0.313v-14.37
			c0-0.189,0.126-0.314,0.314-0.314h1.068c0.188,0,0.315,0.125,0.315,0.314v1.791h0.03c0.754-1.478,2.326-2.42,4.434-2.42
			c3.333,0,5.251,2.074,5.251,5.723v9.276c0,0.188-0.125,0.313-0.314,0.313H756.29"/>
		<path clip-path="url(#SVGID_10_)" d="M764.468,46.293c-0.158,0.124-0.347,0.124-0.473-0.033l-0.533-0.785
			c-0.095-0.158-0.063-0.315,0.094-0.441c1.068-0.912,2.672-1.445,4.779-1.445c3.899,0,5.471,1.29,5.471,4.967v10.032
			c0,0.188-0.126,0.313-0.314,0.313h-1.006c-0.189,0-0.314-0.125-0.314-0.313v-1.573h-0.032c-0.597,1.258-2.2,2.201-4.652,2.201
			c-3.019,0-5.031-1.51-5.031-4.434c0-2.987,2.043-4.434,5.691-4.434h3.804c0.126,0,0.188-0.062,0.188-0.188v-1.54
			c0-2.454-0.849-3.46-3.898-3.46C766.417,45.159,765.348,45.569,764.468,46.293 M772.139,54.278v-2.296
			c0-0.125-0.062-0.188-0.188-0.188h-3.585c-2.986,0-4.244,0.976-4.244,2.956c0,1.887,1.32,2.893,3.711,2.893
			C770.41,57.643,772.139,56.322,772.139,54.278z"/>
	</g>
</g>
</svg>
