<?xml version="1.0" encoding="utf-8"?>
<!-- Generator: Adobe Illustrator 16.0.0, SVG Export Plug-In . SVG Version: 6.00 Build 0)  -->
<!DOCTYPE svg PUBLIC "-//W3C//DTD SVG 1.1//EN" "http://www.w3.org/Graphics/SVG/1.1/DTD/svg11.dtd">
<svg version="1.1" id="Layer_1" xmlns="http://www.w3.org/2000/svg" xmlns:xlink="http://www.w3.org/1999/xlink" x="0px" y="0px"
	 width="841px" height="421px" viewBox="0 0 841 421" enable-background="new 0 0 841 421" xml:space="preserve">
<g>
	<defs>
		<rect id="SVGID_1_" width="841" height="421"/>
	</defs>
	<clipPath id="SVGID_2_">
		<use xlink:href="#SVGID_1_"  overflow="visible"/>
	</clipPath>
	<g clip-path="url(#SVGID_2_)">
		<defs>
			<rect id="SVGID_3_" x="-0.89" y="-87.29" width="841.89" height="595.29"/>
		</defs>
		<clipPath id="SVGID_4_">
			<use xlink:href="#SVGID_3_"  overflow="visible"/>
		</clipPath>
		<path clip-path="url(#SVGID_4_)" fill="#121212" d="M63.475,315.635c-3.398-1.523-6.561-2.641-9.487-3.349
			c-2.928-0.706-6.208-1.062-9.837-1.062c-4.102,0-7.936,0.709-11.507,2.123c-3.574,1.417-6.649,3.458-9.224,6.125
			c-2.577,2.672-4.597,5.91-6.061,9.721c-1.465,3.814-2.196,8.168-2.196,13.069c0,4.466,0.673,8.604,2.021,12.415
			c1.344,3.812,3.25,7.16,5.708,10.047c2.46,2.885,5.387,5.145,8.785,6.779c3.396,1.633,7.204,2.449,11.419,2.449
			c4.449,0,8.257-0.434,11.419-1.307c3.161-0.871,6.558-2.23,10.189-4.084l4.919,12.414c-3.749,1.854-7.848,3.323-12.297,4.411
			c-4.453,1.087-9.547,1.634-15.285,1.634c-6.56,0-12.474-1.09-17.745-3.268c-5.27-2.176-9.78-5.227-13.526-9.146
			c-3.749-3.92-6.649-8.603-8.696-14.049C0.024,355.114-1,349.123-1,342.589c0-6.099,1.024-11.844,3.075-17.234
			c2.047-5.392,5.007-10.099,8.871-14.13c3.865-4.027,8.521-7.214,13.967-9.557c5.446-2.342,11.565-3.514,18.36-3.514
			c5.27,0,9.837,0.438,13.703,1.308c3.865,0.873,7.612,2.125,11.244,3.757L63.475,315.635"/>
		<path clip-path="url(#SVGID_4_)" fill="#121212" d="M68.744,342.589c0-6.862,1.169-13.04,3.514-18.54
			c2.341-5.499,5.533-10.156,9.574-13.969c4.042-3.81,8.842-6.752,14.406-8.822c5.562-2.065,11.565-3.104,18.008-3.104
			c6.324,0,12.267,1.038,17.832,3.104c5.562,2.07,10.392,5.013,14.494,8.822c4.098,3.812,7.318,8.441,9.663,13.886
			c2.341,5.448,3.512,11.546,3.512,18.297c0,6.753-1.142,12.878-3.425,18.377c-2.284,5.501-5.476,10.209-9.574,14.13
			c-4.102,3.92-8.933,6.943-14.495,9.067c-5.564,2.122-11.568,3.185-18.007,3.185c-6.562,0-12.623-1.09-18.184-3.268
			c-5.564-2.176-10.365-5.227-14.406-9.146c-4.042-3.92-7.203-8.603-9.487-14.049C69.886,355.114,68.744,349.123,68.744,342.589
			 M143.584,342.589c0-4.247-0.733-8.276-2.196-12.089c-1.466-3.81-3.514-7.132-6.15-9.965c-2.635-2.83-5.74-5.09-9.311-6.779
			c-3.574-1.688-7.467-2.531-11.682-2.531c-9.254,0-16.457,2.832-21.609,8.494c-5.155,5.664-7.73,13.18-7.73,22.544
			c0,4.247,0.73,8.306,2.196,12.169c1.463,3.867,3.514,7.245,6.149,10.128c2.636,2.888,5.737,5.175,9.311,6.861
			c3.571,1.689,7.467,2.532,11.684,2.532c4.568,0,8.666-0.76,12.297-2.287c3.629-1.525,6.704-3.676,9.224-6.453
			c2.517-2.777,4.449-6.068,5.797-9.883C142.908,351.52,143.584,347.272,143.584,342.589z"/>
		<path clip-path="url(#SVGID_4_)" fill="#121212" d="M182.057,314.328c3.278-4.574,7.407-8.412,12.386-11.517
			c4.976-3.104,10.744-4.657,17.304-4.657c7.26,0,13.176,1.609,17.743,4.822c4.568,3.211,7.846,7.594,9.839,13.148
			c3.629-5.008,7.933-9.256,12.913-12.742c4.977-3.484,11.156-5.229,18.535-5.229c4.918,0,9.224,0.766,12.913,2.289
			c3.689,1.525,6.763,3.676,9.223,6.451c2.459,2.777,4.304,6.1,5.535,9.965c1.229,3.867,1.844,8.143,1.844,12.824v55.378H284.48
			v-54.233c0-5.881-1.465-10.645-4.392-14.295c-2.93-3.647-6.97-5.473-12.122-5.473c-2.696,0-5.271,0.49-7.73,1.471
			s-4.803,2.314-7.026,4.002c-2.227,1.69-4.335,3.65-6.325,5.882c-1.993,2.231-3.808,4.548-5.446,6.942v55.704h-15.811v-54.233
			c0-5.881-1.466-10.645-4.392-14.295c-2.93-3.647-6.97-5.473-12.122-5.473c-2.577,0-5.096,0.465-7.554,1.389
			c-2.46,0.927-4.832,2.205-7.115,3.838c-2.285,1.635-4.423,3.541-6.413,5.718c-1.993,2.181-3.808,4.468-5.447,6.862v56.194h-15.81
			v-84.946h15.284V314.328"/>
		<path clip-path="url(#SVGID_4_)" fill="#121212" d="M306.264,300.115c10.773,0,17.507,3.979,20.202,11.926
			c0.819-1.197,2.078-2.613,3.777-4.246c1.697-1.635,3.778-3.158,6.236-4.576c2.461-1.414,5.271-2.613,8.434-3.592
			c3.162-0.981,6.676-1.473,10.541-1.473c5.271,0,10.335,0.981,15.197,2.942c4.858,1.96,9.136,4.794,12.825,8.493
			c3.689,3.705,6.645,8.279,8.871,13.723c2.224,5.447,3.339,11.598,3.339,18.46c0,6.753-1.084,12.905-3.25,18.459
			c-2.169,5.553-5.096,10.319-8.785,14.293c-3.689,3.978-7.936,7.054-12.736,9.229c-4.805,2.178-9.839,3.268-15.11,3.268
			c-5.506,0-10.571-1.008-15.196-3.022c-4.628-2.013-8.463-4.329-11.507-6.942V421H313.29v-99.157c0-3.7-0.967-6.343-2.898-7.923
			c-1.934-1.578-4.423-2.369-7.467-2.369L306.264,300.115 M379.522,342.263c0-4.901-0.734-9.283-2.197-13.149
			c-1.465-3.865-3.455-7.16-5.972-9.885c-2.521-2.721-5.447-4.791-8.785-6.207c-3.338-1.414-6.882-2.123-10.629-2.123
			c-5.037,0-9.574,1.17-13.614,3.51c-4.04,2.345-7.115,4.877-9.224,7.597v41.819c3.044,2.941,6.528,5.365,10.453,7.27
			c3.923,1.908,8.285,2.859,13.087,2.859c3.982,0,7.613-0.76,10.893-2.287c3.278-1.525,6.119-3.676,8.521-6.453
			c2.398-2.777,4.243-6.098,5.533-9.965C378.876,351.385,379.522,347.057,379.522,342.263z"/>
		<path clip-path="url(#SVGID_4_)" fill="#121212" d="M488.794,385.878c-5.622,0-10.073-1.032-13.352-3.104
			c-3.281-2.069-5.564-5.063-6.851-8.983c-4.103,3.92-8.815,7.104-14.143,9.555c-5.332,2.452-11.156,3.676-17.481,3.676
			c-3.981,0-7.818-0.571-11.506-1.715c-3.69-1.144-6.97-2.967-9.839-5.473c-2.871-2.504-5.156-5.771-6.852-9.802
			c-1.7-4.027-2.547-8.928-2.547-14.702v-55.215h15.811v53.256c0,6.643,1.492,11.736,4.479,15.273
			c2.986,3.54,7.466,5.309,13.439,5.309c4.918,0,9.604-0.898,14.055-2.695c4.448-1.798,8.434-4.219,11.948-7.27v-63.873h15.812
			v62.893c0,2.396,0.29,4.33,0.876,5.8c0.585,1.47,1.347,2.613,2.283,3.43c0.937,0.817,2.05,1.39,3.339,1.716
			c1.289,0.328,2.575,0.49,3.866,0.49L488.794,385.878"/>
		<path clip-path="url(#SVGID_4_)" fill="#121212" d="M499.157,264.177h15.813v44.761c1.168-1.197,2.635-2.451,4.391-3.758
			c1.757-1.307,3.718-2.475,5.886-3.512c2.165-1.033,4.596-1.88,7.292-2.532c2.692-0.652,5.619-0.981,8.783-0.981
			c5.27,0,10.334,0.981,15.196,2.942c4.858,1.96,9.136,4.794,12.825,8.493c3.688,3.705,6.645,8.279,8.87,13.723
			c2.224,5.447,3.339,11.598,3.339,18.46c0,6.753-1.173,12.905-3.513,18.459c-2.344,5.553-5.446,10.319-9.313,14.293
			c-3.863,3.978-8.285,7.054-13.264,9.229c-4.979,2.178-10.043,3.268-15.194,3.268c-5.271,0-10.22-0.873-14.847-2.612
			c-4.626-1.743-8.463-3.865-11.508-6.372v7.024h-14.757V264.177 M565.391,342.263c0-4.901-0.732-9.283-2.196-13.149
			c-1.467-3.865-3.457-7.16-5.974-9.885c-2.521-2.721-5.446-4.791-8.783-6.207c-3.339-1.414-6.883-2.123-10.629-2.123
			c-5.038,0-9.575,1.17-13.615,3.51c-4.041,2.345-7.115,4.877-9.223,7.597v45.414c2.692,1.96,5.854,3.54,9.486,4.737
			c3.628,1.199,7.493,1.797,11.595,1.797c4.217,0,8.138-0.76,11.77-2.287c3.63-1.525,6.733-3.676,9.311-6.453
			c2.575-2.777,4.596-6.098,6.062-9.965C564.658,351.385,565.391,347.057,565.391,342.263z"/>
		<path clip-path="url(#SVGID_4_)" fill="#121212" d="M586.821,343.078c0-6.314,1.055-12.225,3.163-17.724
			c2.108-5.497,5.064-10.264,8.872-14.294c3.805-4.027,8.372-7.188,13.703-9.474c5.328-2.288,11.156-3.433,17.48-3.433
			c5.271,0,10.041,0.846,14.317,2.532c4.273,1.69,7.993,3.786,11.156,6.29v-6.861h14.405v64.364c0,4.139,1.081,6.835,3.251,8.084
			c2.165,1.253,4.536,1.88,7.114,1.88l-3.337,11.435c-11.245,0-18.038-4.247-20.38-12.741c-1.405,1.742-3.017,3.458-4.83,5.145
			c-1.818,1.69-3.896,3.186-6.237,4.493c-2.345,1.308-4.981,2.341-7.906,3.104c-2.93,0.762-6.148,1.144-9.663,1.144
			c-5.739,0-11.098-1.037-16.075-3.104c-4.979-2.066-9.311-5.008-12.999-8.822c-3.689-3.811-6.619-8.41-8.783-13.803
			C587.904,355.902,586.821,349.832,586.821,343.078 M631.445,373.953c4.45,0,8.665-0.98,12.648-2.939
			c3.98-1.961,7.318-4.518,10.015-7.678v-45.578c-3.163-2.067-6.649-3.729-10.453-4.982c-3.807-1.25-7.819-1.877-12.033-1.877
			c-4.217,0-8.082,0.763-11.598,2.285c-3.513,1.525-6.53,3.676-9.047,6.453c-2.52,2.778-4.479,6.127-5.885,10.047
			c-1.406,3.92-2.108,8.224-2.108,12.905c0,4.574,0.702,8.796,2.108,12.659c1.405,3.867,3.395,7.188,5.974,9.965
			c2.573,2.777,5.591,4.928,9.047,6.453C623.567,373.193,627.344,373.953,631.445,373.953z"/>
		<path clip-path="url(#SVGID_4_)" fill="#121212" d="M693.105,365.949c3.046,2.506,6.882,4.521,11.509,6.043
			c4.624,1.527,9.575,2.289,14.846,2.289c6.558,0,11.506-1.008,14.845-3.023c3.338-2.014,5.007-4.601,5.007-7.76
			c0-1.635-0.325-3.157-0.966-4.574c-0.646-1.413-1.819-2.777-3.515-4.084c-1.698-1.307-4.014-2.584-6.94-3.838
			c-2.927-1.252-6.735-2.64-11.418-4.166c-8.668-2.721-15.108-5.962-19.325-9.721c-4.216-3.756-6.325-8.955-6.325-15.599
			c0-3.269,0.792-6.316,2.372-9.149c1.581-2.831,3.864-5.309,6.852-7.432c2.987-2.124,6.616-3.783,10.892-4.982
			c4.274-1.197,9.163-1.799,14.67-1.799c5.975,0,11.215,0.572,15.724,1.715c4.507,1.146,8.578,2.59,12.21,4.331l-4.391,12.087
			c-3.164-1.739-6.764-3.157-10.805-4.246c-4.041-1.088-8.521-1.633-13.439-1.633c-6.093,0-10.717,1.143-13.88,3.43
			s-4.743,4.793-4.743,7.515c0,1.308,0.263,2.507,0.791,3.595c0.527,1.088,1.493,2.122,2.898,3.104
			c1.405,0.979,3.277,1.959,5.622,2.939c2.341,0.98,5.271,2.018,8.783,3.104c5.737,1.854,10.599,3.732,14.582,5.635
			c3.979,1.908,7.203,4.004,9.663,6.291c2.458,2.287,4.216,4.764,5.27,7.432c1.054,2.67,1.582,5.637,1.582,8.903
			c0,3.815-0.88,7.245-2.636,10.292c-1.758,3.05-4.216,5.635-7.38,7.758c-3.16,2.125-6.999,3.759-11.506,4.902
			c-4.511,1.144-9.518,1.715-15.021,1.715c-7.028,0-13.296-0.817-18.799-2.451c-5.505-1.633-10.074-3.756-13.703-6.369
			L693.105,365.949"/>
		<path clip-path="url(#SVGID_4_)" fill="#121212" d="M776.026,348.633c1.054,7.951,4.04,14.158,8.96,18.623
			c4.919,4.466,11.419,6.697,19.501,6.697c5.27,0,10.013-0.516,14.229-1.551c4.217-1.034,8.257-2.37,12.122-4.002l3.689,12.576
			c-4.217,1.854-8.96,3.323-14.229,4.411c-5.271,1.087-11.188,1.634-17.745,1.634c-6.561,0-12.472-1.008-17.744-3.022
			c-5.271-2.013-9.749-4.899-13.44-8.657c-3.688-3.758-6.53-8.385-8.519-13.886c-1.993-5.499-2.987-11.786-2.987-18.867
			c0-6.315,0.994-12.196,2.987-17.642c1.988-5.445,4.8-10.154,8.433-14.133c3.629-3.973,7.963-7.076,13-9.311
			c5.034-2.231,10.655-3.35,16.865-3.35c6.558,0,12.298,1.038,17.217,3.104c4.92,2.07,9.019,4.902,12.298,8.496
			c3.277,3.594,5.737,7.787,7.38,12.577c1.638,4.796,2.458,9.859,2.458,15.194c0,3.812-0.176,7.513-0.527,11.107H776.026
			 M800.796,310.898c-6.91,0-12.56,2.18-16.952,6.533c-4.393,4.357-7.056,10.781-7.994,19.276h50.071
			c0-8.274-2.226-14.646-6.677-19.112C814.791,313.13,808.643,310.898,800.796,310.898z"/>
		<path clip-path="url(#SVGID_4_)" fill="#C7C7C7" d="M415.697,225.244c-65.286,0.002-128.438-17.832-132.691-42.164
			c-4.153-23.757,49.733-40.281,110.898-40.836c1.108-0.011,2.22-0.016,3.325-0.016c35.122,0,69.078,5.052,93.955,13.391
			c0.244,0.081-19.83,1.302-21.3,1.302c-0.044,0-0.07,0-0.08-0.002c-16.884-4.075-39.139-8.48-62.38-8.48
			c-0.552,0-1.101,0.003-1.655,0.008c-44.866,0.408-86.268,11.12-81.336,29.951c4.763,18.216,49.689,30.991,96.801,30.992
			c13.483,0.001,27.138-1.045,40.091-3.311c27.124-4.74,41.741-12.761,42.946-21.505l23.748-2.43
			c0.618,12.733-13.154,30.775-58.362,38.679C452.333,223.852,433.925,225.242,415.697,225.244"/>
	</g>
</g>
<g>
	<defs>
		<rect id="SVGID_5_" width="841" height="421"/>
	</defs>
	<clipPath id="SVGID_6_">
		<use xlink:href="#SVGID_5_"  overflow="visible"/>
	</clipPath>
	<g clip-path="url(#SVGID_6_)">
		<defs>
			<rect id="SVGID_7_" x="-1" y="-0.094" width="841.501" height="421.094"/>
		</defs>
		<clipPath id="SVGID_8_">
			<use xlink:href="#SVGID_7_"  overflow="visible"/>
		</clipPath>
		<g clip-path="url(#SVGID_8_)">
			<defs>
				<rect id="SVGID_9_" x="-0.89" y="-87.29" width="841.89" height="595.29"/>
			</defs>
			<clipPath id="SVGID_10_">
				<use xlink:href="#SVGID_9_"  overflow="visible"/>
			</clipPath>
			<polyline clip-path="url(#SVGID_10_)" fill="#C7C7C7" points="398.781,179.287 387.123,166.868 516.638,159.333 532.314,168.356 
				398.781,179.287 			"/>
			<path clip-path="url(#SVGID_10_)" fill="#121212" d="M540.369,152.58c-1.58,28.909-18.203,64.109-63.96,64.109
				c-80.327,0-176.829-86.22-176.829-158.437c0-55.118,55.759-71.114,115.925-48.288c35.701,13.541,69.517,38.936,93.241,68.396
				c0.233,0.288-20.92-5.187-21.22-5.487c-16.26-16.194-37.984-35.383-61.434-44.277c-44.134-16.737-86.633-8.917-85.024,35.419
				c1.997,55.159,70.775,116.203,129.691,116.203c27.452,0,43.185-12.305,45.869-31.517
				C516.653,148.553,540.375,152.455,540.369,152.58"/>
		</g>
	</g>
</g>
<g>
	<defs>
		<rect id="SVGID_11_" width="841" height="421"/>
	</defs>
	<clipPath id="SVGID_12_">
		<use xlink:href="#SVGID_11_"  overflow="visible"/>
	</clipPath>
	<g clip-path="url(#SVGID_12_)">
		<defs>
			<rect id="SVGID_13_" x="-0.89" y="-87.29" width="841.89" height="595.29"/>
		</defs>
		<clipPath id="SVGID_14_">
			<use xlink:href="#SVGID_13_"  overflow="visible"/>
		</clipPath>
		<polyline clip-path="url(#SVGID_14_)" fill="#7FC460" points="431.62,74.567 440.938,107.118 573.958,135.063 560.11,108.58 
			431.62,74.567 		"/>
	</g>
</g>
</svg>
