<?xml version="1.0" encoding="utf-8"?>
<!-- Generator: Adobe Illustrator 16.0.0, SVG Export Plug-In . SVG Version: 6.00 Build 0)  -->
<!DOCTYPE svg PUBLIC "-//W3C//DTD SVG 1.1//EN" "http://www.w3.org/Graphics/SVG/1.1/DTD/svg11.dtd">
<svg version="1.1" id="Layer_1" xmlns="http://www.w3.org/2000/svg" xmlns:xlink="http://www.w3.org/1999/xlink" x="0px" y="0px"
	 width="429.182px" height="94.309px" viewBox="0 0 429.182 94.309" enable-background="new 0 0 429.182 94.309"
	 xml:space="preserve">
<g>
	<g>
		<defs>
			<rect id="SVGID_1_" width="429.182" height="94.309"/>
		</defs>
		<clipPath id="SVGID_2_">
			<use xlink:href="#SVGID_1_"  overflow="visible"/>
		</clipPath>
		<path clip-path="url(#SVGID_2_)" fill="#37B3E1" d="M75.2,16.342c12.663,0,22.73,9.01,22.73,21.675
			c0,12.744-10.067,21.674-22.73,21.674c-12.583,0-22.649-8.93-22.649-21.674C52.551,25.353,62.617,16.342,75.2,16.342 M75.2,50.924
			c6.737,0,12.339-5.194,12.339-12.906c0-7.632-5.602-12.908-12.339-12.908c-6.657,0-12.258,5.276-12.258,12.908
			C62.941,45.729,68.542,50.924,75.2,50.924"/>
		<path clip-path="url(#SVGID_2_)" fill="#37B3E1" d="M255.221,16.342c12.663,0,22.73,9.01,22.73,21.675
			c0,12.744-10.067,21.674-22.73,21.674c-12.583,0-22.648-8.93-22.648-21.674C232.573,25.353,242.638,16.342,255.221,16.342
			 M255.221,50.924c6.737,0,12.339-5.194,12.339-12.906c0-7.632-5.602-12.908-12.339-12.908c-6.657,0-12.258,5.276-12.258,12.908
			C242.963,45.729,248.564,50.924,255.221,50.924"/>
		<rect x="160.85" clip-path="url(#SVGID_2_)" fill="#37B3E1" width="10.391" height="59.016"/>
		<rect x="342.366" clip-path="url(#SVGID_2_)" fill="#37B3E1" width="10.391" height="59.016"/>
		<rect x="318.662" y="16.277" clip-path="url(#SVGID_2_)" fill="#37B3E1" width="10.391" height="42.739"/>
		<rect x="366.069" clip-path="url(#SVGID_2_)" fill="#37B3E1" width="10.392" height="59.016"/>
		<path clip-path="url(#SVGID_2_)" fill="#37B3E1" d="M150.863,37.975c-0.023-12.642-10.08-21.632-22.729-21.632
			c-12.583,0-22.649,9.01-22.649,21.675c0,12.744,10.066,21.674,22.649,21.674c4.569,0,8.797-1.168,12.339-3.253v2.578h10.391
			L150.863,37.975L150.863,37.975z M128.134,50.924c-6.657,0-12.258-5.194-12.258-12.906c0-7.632,5.601-12.908,12.258-12.908
			c6.737,0,12.339,5.276,12.339,12.908C140.474,45.729,134.872,50.924,128.134,50.924"/>
		<path clip-path="url(#SVGID_2_)" fill="#37B3E1" d="M423.989,0.544c-2.841,0-5.149,2.35-5.149,5.279
			c0,2.928,2.309,5.293,5.149,5.293c2.887,0,5.193-2.365,5.193-5.293C429.182,2.894,426.875,0.544,423.989,0.544"/>
		<path clip-path="url(#SVGID_2_)" fill="#37B3E1" d="M36.675,55.338c5.314-3.826,8.704-9.931,8.704-17.32
			c0-5.014-1.582-9.451-4.274-12.987h2.355v-8.668H21.786C9.61,16.764,0,25.645,0,38.018c0,12.744,10.066,21.714,22.649,21.714
			c0.014,0,0.04-0.003,0.04-0.003c6.714,0.165,12.299,5.29,12.299,12.906c0,7.695-5.579,12.883-12.299,12.904v-0.001
			c-0.013,0-0.026,0.002-0.04,0.002c-6.657,0-12.258-5.193-12.258-12.905H0C0,85.378,10.066,94.31,22.649,94.31
			c0.014,0,0.027-0.003,0.04-0.003v0.001c12.645-0.021,22.69-8.943,22.69-21.673C45.379,65.289,41.989,59.18,36.675,55.338
			 M22.649,50.924c-6.657,0-12.258-5.194-12.258-12.906c0-7.632,5.601-12.908,12.258-12.908c6.737,0,12.339,5.276,12.339,12.908
			C34.988,45.729,29.386,50.924,22.649,50.924"/>
		<path clip-path="url(#SVGID_2_)" fill="#37B3E1" d="M216.693,55.338c5.314-3.826,8.704-9.931,8.704-17.32
			c0-5.014-1.582-9.451-4.273-12.987h2.354v-8.668h-21.674c-12.176,0.402-21.786,9.282-21.786,21.655
			c0,12.744,10.066,21.714,22.649,21.714c0.014,0,0.04-0.003,0.04-0.003c6.714,0.165,12.299,5.29,12.299,12.906
			c0,7.695-5.579,12.883-12.299,12.904v-0.001c-0.013,0-0.026,0.002-0.04,0.002c-6.657,0-12.258-5.193-12.258-12.905h-10.391
			c0,12.743,10.066,21.675,22.649,21.675c0.014,0,0.027-0.003,0.04-0.003v0.001c12.645-0.021,22.69-8.943,22.69-21.673
			C225.397,65.289,222.007,59.18,216.693,55.338 M202.667,50.924c-6.657,0-12.258-5.194-12.258-12.906
			c0-7.632,5.601-12.908,12.258-12.908c6.737,0,12.339,5.276,12.339,12.908C215.006,45.729,209.404,50.924,202.667,50.924"/>
		<path clip-path="url(#SVGID_2_)" fill="#37B3E1" d="M429.181,37.975c-0.022-12.642-10.079-21.632-22.729-21.632
			c-12.583,0-22.649,9.01-22.649,21.675c0,12.744,10.066,21.674,22.649,21.674c4.569,0,8.797-1.168,12.339-3.253v2.578h10.391
			L429.181,37.975L429.181,37.975z M406.453,50.924c-6.657,0-12.258-5.194-12.258-12.906c0-7.632,5.601-12.908,12.258-12.908
			c6.737,0,12.339,5.276,12.339,12.908C418.792,45.729,413.19,50.924,406.453,50.924"/>
		<path clip-path="url(#SVGID_2_)" fill="#37B3E1" d="M308.458,16.343v8.767c-6.657,0-12.258,5.276-12.258,12.908v20.892h-10.392
			V38.018C285.809,25.353,295.875,16.343,308.458,16.343"/>
		<rect x="318.662" clip-path="url(#SVGID_2_)" fill="#37B3E1" width="10.391" height="9.831"/>
	</g>
</g>
</svg>
