<?xml version="1.0" encoding="utf-8"?>
<!-- Generator: Adobe Illustrator 16.0.0, SVG Export Plug-In . SVG Version: 6.00 Build 0)  -->
<!DOCTYPE svg PUBLIC "-//W3C//DTD SVG 1.1//EN" "http://www.w3.org/Graphics/SVG/1.1/DTD/svg11.dtd">
<svg version="1.1" id="Layer_1" xmlns="http://www.w3.org/2000/svg" xmlns:xlink="http://www.w3.org/1999/xlink" x="0px" y="0px"
	 width="162.112px" height="66.426px" viewBox="0 0 162.112 66.426" enable-background="new 0 0 162.112 66.426"
	 xml:space="preserve">
<g>
	<polygon fill="#231F20" points="20.672,19.162 31.37,19.162 31.37,30.59 39.705,30.59 39.705,0.516 31.37,0.516 31.37,11.772 
		20.672,11.772 20.672,0.516 12.337,0.516 12.337,30.59 20.672,30.59 	"/>
	<path fill="#231F20" d="M56.975,25.219h11.6l2.191,5.371h8.937L66.899,0.301h-8.034L46.062,30.59h8.765L56.975,25.219z
		 M62.818,10.225l3.351,8.55h-6.746L62.818,10.225z"/>
	<path fill="#231F20" d="M94.568,25.219h11.6l2.191,5.371h8.937L104.492,0.301h-8.034L83.655,30.59h8.765L94.568,25.219z
		 M100.411,10.225l3.351,8.55h-6.746L100.411,10.225z"/>
	<path fill="#231F20" d="M138.326,23.61c-0.588,0.357-1.439,0.536-2.557,0.536c-3.494,0-6.744-1.203-9.752-3.609l-4.64,5.554
		c1.861,1.671,4.002,2.925,6.423,3.761c2.42,0.835,4.977,1.253,7.668,1.253c1.834,0,3.494-0.222,4.984-0.665
		c1.488-0.443,2.764-1.086,3.824-1.93c1.059-0.843,1.883-1.865,2.471-3.066c0.586-1.2,0.881-2.573,0.881-4.117v-0.086
		c0-1.4-0.258-2.608-0.773-3.624s-1.262-1.88-2.234-2.595c-0.975-0.715-2.156-1.322-3.545-1.823c-1.391-0.5-2.943-0.936-4.662-1.308
		c-1.031-0.228-1.883-0.45-2.557-0.665c-0.672-0.214-1.203-0.428-1.588-0.643c-0.387-0.215-0.66-0.451-0.816-0.708
		c-0.158-0.257-0.236-0.557-0.236-0.9V8.89c0-0.543,0.25-1,0.752-1.372c0.5-0.372,1.252-0.558,2.254-0.558
		c1.348,0,2.742,0.251,4.189,0.752c1.445,0.501,2.857,1.239,4.232,2.212l4.168-5.904c-1.633-1.325-3.459-2.327-5.479-3.004
		C139.314,0.339,137.015,0,134.437,0c-1.805,0-3.422,0.236-4.854,0.708c-1.434,0.472-2.658,1.137-3.674,1.995
		c-1.017,0.858-1.791,1.873-2.32,3.045c-0.53,1.172-0.794,2.459-0.794,3.86v0.085c0,1.544,0.293,2.838,0.88,3.881
		c0.587,1.044,1.389,1.916,2.406,2.616c1.016,0.701,2.213,1.272,3.588,1.716c1.375,0.443,2.863,0.851,4.467,1.222
		c1.031,0.229,1.869,0.45,2.514,0.665s1.16,0.437,1.547,0.665c0.387,0.229,0.652,0.465,0.795,0.708
		c0.143,0.243,0.215,0.522,0.215,0.836v0.085C139.207,22.744,138.914,23.252,138.326,23.61z"/>
	<path fill="#231F20" d="M110.318,53.715v-0.024c0-0.458-0.152-0.806-0.458-1.042c-0.305-0.237-0.734-0.355-1.288-0.355h-2.155
		v2.832h2.167c0.529,0,0.951-0.126,1.264-0.38C110.162,54.493,110.318,54.149,110.318,53.715z"/>
	<path fill="#231F20" d="M121.74,52.673c-0.329-0.253-0.771-0.379-1.325-0.379h-1.722v3.036h1.722c0.562,0,1.005-0.14,1.331-0.421
		s0.488-0.643,0.488-1.084v-0.024C122.234,53.301,122.069,52.926,121.74,52.673z"/>
	<path fill="#231F20" d="M44.124,53.055c-0.251-0.268-0.552-0.482-0.902-0.642c-0.351-0.16-0.733-0.24-1.147-0.24
		s-0.794,0.078-1.141,0.234c-0.346,0.156-0.643,0.368-0.89,0.636s-0.44,0.582-0.58,0.942s-0.209,0.744-0.209,1.152v0.024
		c0,0.408,0.069,0.794,0.209,1.158c0.14,0.364,0.334,0.68,0.585,0.948c0.251,0.269,0.552,0.482,0.902,0.642
		c0.351,0.16,0.733,0.24,1.147,0.24c0.415,0,0.795-0.078,1.141-0.234c0.347-0.156,0.644-0.368,0.89-0.636
		c0.247-0.268,0.44-0.582,0.58-0.942s0.209-0.744,0.209-1.152v-0.024c0-0.408-0.07-0.793-0.209-1.158S44.375,53.323,44.124,53.055z"
		/>
	<path fill="#231F20" d="M143.508,54.764v-1h11.291l7.312-11.662H0l7.315,11.662h11.408v1H7.315L0,66.426h162.112l-7.312-11.662
		H143.508z M46.479,55.161c0,0.592-0.108,1.15-0.324,1.674s-0.52,0.984-0.912,1.38s-0.856,0.71-1.392,0.942
		c-0.536,0.232-1.128,0.348-1.776,0.348s-1.24-0.114-1.776-0.342c-0.536-0.228-0.996-0.538-1.38-0.93
		c-0.384-0.392-0.684-0.85-0.9-1.374c-0.216-0.524-0.324-1.082-0.324-1.674v-0.024c0-0.592,0.108-1.15,0.324-1.674
		c0.216-0.524,0.52-0.984,0.912-1.38s0.856-0.71,1.392-0.942s1.128-0.348,1.776-0.348s1.24,0.114,1.776,0.342
		c0.536,0.228,0.996,0.538,1.38,0.93c0.384,0.392,0.684,0.85,0.9,1.374s0.324,1.082,0.324,1.674V55.161z M59.186,59.361h-1.233
		l-4.623-5.976v5.976h-1.464v-8.4h1.365l4.491,5.808v-5.808h1.464V59.361z M71.162,52.329h-2.664v7.032H67.01v-7.032h-2.664v-1.368
		h6.816V52.329z M85.274,59.421h-1.272l-2.064-6.036l-2.064,6.036h-1.272l-2.928-8.46h1.596l2.004,6.228l2.064-6.252h1.248
		l2.064,6.252l2.004-6.228h1.548L85.274,59.421z M99.59,59.361h-6.276v-8.4h6.216v1.332h-4.752v2.16h4.212v1.332h-4.212v2.244h4.812
		V59.361z M110.342,59.361l-2.07-2.928h-0.024h-1.83v2.928h-1.464v-8.4h3.744c0.528,0,0.996,0.074,1.404,0.222
		c0.408,0.148,0.748,0.354,1.02,0.618c0.224,0.232,0.396,0.5,0.516,0.804c0.12,0.304,0.18,0.64,0.18,1.008v0.024
		c0,0.344-0.05,0.654-0.15,0.93s-0.238,0.52-0.414,0.732s-0.386,0.392-0.63,0.54s-0.514,0.262-0.81,0.342l2.268,3.18H110.342z
		 M123.734,53.793c0,0.472-0.088,0.886-0.265,1.242c-0.177,0.356-0.417,0.654-0.722,0.894c-0.305,0.24-0.662,0.422-1.07,0.546
		c-0.409,0.125-0.846,0.186-1.312,0.186h-1.672v2.7h-1.464v-8.4h3.312c0.488,0,0.93,0.066,1.326,0.198
		c0.396,0.132,0.732,0.322,1.008,0.57s0.488,0.544,0.636,0.888c0.148,0.344,0.222,0.728,0.222,1.152V53.793z"/>
</g>
<g>
</g>
<g>
</g>
<g>
</g>
<g>
</g>
<g>
</g>
<g>
</g>
</svg>
