<?xml version="1.0" encoding="utf-8"?>
<!-- Generator: Adobe Illustrator 16.0.0, SVG Export Plug-In . SVG Version: 6.00 Build 0)  -->
<!DOCTYPE svg PUBLIC "-//W3C//DTD SVG 1.1//EN" "http://www.w3.org/Graphics/SVG/1.1/DTD/svg11.dtd">
<svg version="1.1" id="Layer_1" xmlns="http://www.w3.org/2000/svg" xmlns:xlink="http://www.w3.org/1999/xlink" x="0px" y="0px"
	 width="287.309px" height="103.861px" viewBox="0 0 287.309 103.861" enable-background="new 0 0 287.309 103.861"
	 xml:space="preserve">
<g>
	<path d="M1.551,103.485H0.15V88.713h1.401V103.485z"/>
	<path d="M22.894,103.485h-1.38l-8.684-12.764v12.764H11.47V88.713h1.359l8.809,12.638l-0.125-12.638h1.38V103.485z"/>
	<path d="M36.599,103.485h-1.403V89.947h-4.643v-1.234h10.713v1.234h-4.667V103.485z"/>
	<path d="M59.092,103.485h-10.17V88.713h9.647v1.298h-8.245v5.251h7.469v1.298h-7.469v5.628h8.768V103.485z"/>
	<path d="M79.388,103.485H77.63l-4.666-6.549H69.49v6.549h-1.401V88.691h4.141c2.575,0.021,3.223,0.021,4.143,0.335
		c2.429,0.858,2.596,3.181,2.596,3.914c0,1.548-0.669,2.405-1.109,2.845c-1.067,1.005-2.468,1.088-3.265,1.151L79.388,103.485z
		 M69.49,95.723h3.474c0.961,0,1.862-0.021,2.489-0.147c1.57-0.313,2.133-1.506,2.133-2.698c0-1.443-0.711-2.531-2.154-2.825
		c-0.419-0.083-0.607-0.083-2.469-0.104H69.49V95.723z"/>
	<path d="M99.286,103.485h-1.528l-1.695-4.457H89.45l-1.672,4.457h-1.57l6.026-14.772h1.171L99.286,103.485z M95.645,97.898
		l-2.846-7.532l-2.888,7.532H95.645z"/>
	<path d="M117.719,100.263c-1.422,3.139-3.641,3.599-5.481,3.599c-1.026,0-3.182-0.146-4.729-1.966
		c-1.109-1.298-1.716-3.391-1.716-5.691c0-3.14,1.13-7.868,6.319-7.868c3.974,0,5.062,2.406,5.711,3.829l-1.401,0.732
		c-0.273-1.214-0.963-2.113-1.57-2.573c-0.984-0.733-2.154-0.754-2.677-0.754c-1.591,0-2.7,0.461-3.643,1.737
		c-1.024,1.402-1.276,3.096-1.276,4.687c0,1.004,0.127,3.41,1.235,4.875c1.15,1.569,2.867,1.737,3.913,1.737
		c0.711,0,1.549-0.083,2.323-0.628c0.523-0.355,1.339-1.214,1.695-2.511L117.719,100.263z"/>
	<path d="M130.294,103.485h-1.401V89.947h-4.646v-1.234h10.713v1.234h-4.667V103.485z"/>
	<path d="M144.02,103.485h-1.401V88.713h1.401V103.485z"/>
	<path d="M158.249,103.485h-1.256l-5.419-14.772h1.547l4.521,12.848l4.666-12.848h1.484L158.249,103.485z"/>
	<path d="M181.516,103.485h-10.169V88.713h9.646v1.298h-8.244v5.251h7.471v1.298h-7.471v5.628h8.768V103.485z"/>
	<path d="M213.696,103.485h-1.36l0.104-12.533l-4.833,12.533h-0.963l-4.917-12.533l0.167,12.533h-1.359V88.713h1.653l5,12.533
		l4.771-12.533h1.737V103.485z"/>
	<path d="M233.804,103.485h-10.17V88.713h9.647v1.298h-8.245v5.251h7.469v1.298h-7.469v5.628h8.768V103.485z"/>
	<path d="M242.799,103.485V88.713h3.935c1.57,0.021,2.93,0.021,3.997,0.439c2.112,0.837,3.703,3.452,3.703,6.905
		c0,2.761-1.005,5.084-2.636,6.36c-1.341,1.046-2.68,1.067-5.169,1.067H242.799z M244.223,102.23h2.219
		c1.214,0,2.906,0.021,3.891-0.44c1.422-0.648,2.7-2.72,2.7-5.67c0-2.531-1.005-4.959-2.805-5.754
		c-0.815-0.355-1.611-0.355-3.432-0.355h-2.573V102.23z"/>
	<path d="M264.686,103.485h-1.401V88.713h1.401V103.485z"/>
	<path d="M285.317,103.485h-1.528l-1.695-4.457h-6.612l-1.674,4.457h-1.568l6.026-14.772h1.172L285.317,103.485z M281.677,97.898
		l-2.846-7.532l-2.889,7.532H281.677z"/>
	<path fill="#FF0000" d="M0,79.63V2.152h21.52V79.63H0z"/>
	<path fill="#FF0000" d="M73.172,81.781c-23.674,0-40.892-17.217-40.892-40.89S49.499,0,73.172,0c9.577,0,19.584,2.475,26.901,9.685
		L89.312,27.979c-5.273-6.457-10.114-8.608-16.14-8.608c-10.761,0-19.37,8.608-19.37,21.521c0,12.914,8.609,21.522,19.37,21.522
		c6.132,0,11.836-3.229,16.14-9.685l11.837,17.217C95.77,77.479,85.115,81.781,73.172,81.781z"/>
	<path fill="#FF0000" d="M210.37,21.522V79.63h-21.522V21.522h-16.14l2.151-19.37h49.5l2.153,19.37H210.37z"/>
	<path fill="#FF0000" d="M271.168,21.522V79.63h-21.521V21.522h-16.141l2.151-19.37h49.499l2.152,19.37H271.168z"/>
	<polygon fill="#FF0000" points="151.646,2.144 130.129,2.144 103.228,79.621 125.826,79.621 134.542,50.564 140.784,29.045 
		141.001,29.045 147.235,50.564 155.952,79.621 178.548,79.621 	"/>
</g>
<g>
</g>
<g>
</g>
<g>
</g>
<g>
</g>
<g>
</g>
<g>
</g>
</svg>
