<?xml version="1.0" encoding="utf-8"?>
<!-- Generator: Adobe Illustrator 16.0.0, SVG Export Plug-In . SVG Version: 6.00 Build 0)  -->
<!DOCTYPE svg PUBLIC "-//W3C//DTD SVG 1.1//EN" "http://www.w3.org/Graphics/SVG/1.1/DTD/svg11.dtd">
<svg version="1.1" id="Layer_1" xmlns="http://www.w3.org/2000/svg" xmlns:xlink="http://www.w3.org/1999/xlink" x="0px" y="0px"
	 width="217.291px" height="80.728px" viewBox="0 0 217.291 80.728" enable-background="new 0 0 217.291 80.728"
	 xml:space="preserve">
<g>
	<g>
		<g>
			<path fill="#344960" d="M11.015,11.051c1.124-1.226,3.06-1.841,5.81-1.841c2.81,0,4.745,0.615,5.808,1.841
				c0.828,0.967,1.312,4.612,1.454,10.928h9.481c-0.265-9.221-1.512-15.105-3.742-17.649c-2.595-2.948-6.928-4.39-13.001-4.328
				c-5.569,0-9.775,1.505-12.622,4.511C1.716,7.197,0.314,13.019,0,21.979h9.47C9.622,15.713,10.136,12.068,11.015,11.051z"/>
			<path fill="#344960" d="M22.54,41.348c-1,1.167-2.905,1.75-5.714,1.75c-2.625,0-4.532-0.583-5.717-1.75
				c-0.913-0.946-1.455-4.441-1.626-10.485H0.028C0.392,39.425,1.783,45.039,4.203,47.7c2.847,3.132,7.117,4.663,12.811,4.605
				c5.946,0,10.217-1.535,12.812-4.605c2.142-2.598,3.377-8.211,3.706-16.837h-9.458C23.911,36.857,23.4,40.354,22.54,41.348z"/>
		</g>
		<g>
			<path fill="#344960" d="M52.635,11.051c1.123-1.226,3.06-1.841,5.809-1.841c2.81,0,4.747,0.615,5.809,1.841
				c0.487,0.569,0.855,2.066,1.105,4.485h9.432c-0.572-5.58-1.688-9.315-3.345-11.207c-2.594-2.948-6.927-4.39-13.001-4.328
				c-5.568,0-9.774,1.505-12.621,4.511c-2.463,2.657-3.859,8.391-4.191,17.199h9.465C51.256,15.608,51.77,12.053,52.635,11.051z"/>
			<path fill="#344960" d="M64.159,41.348c-1,1.167-2.905,1.75-5.715,1.75c-2.625,0-4.53-0.583-5.716-1.75
				c-0.925-0.96-1.469-4.546-1.633-10.752h-9.457c0.345,8.712,1.738,14.417,4.184,17.105c2.847,3.132,7.118,4.663,12.812,4.605
				c5.946,0,10.216-1.535,12.811-4.605c1.605-1.947,2.702-5.593,3.289-10.931h-9.394C65.075,39.216,64.682,40.744,64.159,41.348z"/>
		</g>
		<g>
			<path fill="#344960" d="M103.716,41.348c-1,1.167-2.906,1.75-5.716,1.75c-2.625,0-4.53-0.583-5.715-1.75
				c-0.927-0.96-1.471-4.546-1.634-10.752h-9.458c0.346,8.712,1.74,14.417,4.185,17.105c2.846,3.132,7.118,4.663,12.811,4.605
				c5.946,0,10.218-1.535,12.812-4.605c1.606-1.947,2.701-5.593,3.288-10.931h-9.394C104.631,39.216,104.238,40.744,103.716,41.348z
				"/>
			<path fill="#344960" d="M92.191,11.051C93.315,9.825,95.252,9.21,98,9.21c2.81,0,4.747,0.615,5.809,1.841
				c0.487,0.569,0.854,2.066,1.104,4.485h9.433c-0.572-5.58-1.687-9.315-3.345-11.207C108.408,1.382,104.074-0.06,98,0.002
				c-5.568,0-9.775,1.505-12.622,4.511c-2.462,2.657-3.859,8.391-4.192,17.199h9.466C90.812,15.608,91.325,12.053,92.191,11.051z"/>
		</g>
		<g>
			<rect x="165.166" y="0.488" fill="#344960" width="9.491" height="21.224"/>
			<rect x="165.166" y="30.595" fill="#344960" width="9.491" height="21.561"/>
		</g>
		<g>
			<path fill="#344960" d="M194.746,11.051c1.123-1.226,3.06-1.841,5.808-1.841c2.81,0,4.748,0.615,5.809,1.841
				c0.816,0.954,1.299,4.508,1.449,10.661h9.479c-0.28-9.068-1.526-14.863-3.735-17.382c-2.593-2.948-6.926-4.39-13.002-4.328
				c-5.565,0-9.772,1.505-12.62,4.511c-2.462,2.657-3.858,8.391-4.191,17.199h9.466C193.367,15.608,193.878,12.053,194.746,11.051z"
				/>
			<path fill="#344960" d="M206.269,41.348c-0.998,1.167-2.906,1.75-5.716,1.75c-2.625,0-4.529-0.583-5.714-1.75
				c-0.928-0.96-1.471-4.546-1.634-10.752h-9.456c0.345,8.712,1.738,14.417,4.184,17.105c2.848,3.132,7.119,4.663,12.812,4.605
				c5.945,0,10.217-1.535,12.81-4.605c2.165-2.623,3.403-8.329,3.716-17.105h-9.46C207.657,36.752,207.142,40.339,206.269,41.348z"
				/>
		</g>
	</g>
	<g>
		<path fill="#344960" d="M148.974,0.563h-3.784v21.399h-14.011V0.563h-3.73c-3.188,0-5.772,2.569-5.772,5.739v40.271
			c0,3.17,2.585,5.738,5.772,5.738h3.73V30.857h14.011v21.455h3.784c3.188,0,5.772-2.568,5.772-5.738V6.303
			C154.747,3.133,152.163,0.563,148.974,0.563z"/>
	</g>
</g>
<g>
	<path fill="#777777" d="M0.003,62.656h3.162L5.558,74.31h0.05l2.443-11.653h3.285l2.468,11.653h0.05l2.369-11.653h3.185
		l-3.902,17.825h-3.283L9.731,68.286H9.682L6.99,80.481H3.731L0.003,62.656z"/>
	<path fill="#777777" d="M24.253,80.481V62.656h9.333v3.011h-5.925v4.099h4.518v3.012h-4.518v4.69h6.171v3.014H24.253z"/>
	<path fill="#777777" d="M39.316,62.656h4.79c3.654,0,5.753,1.53,5.753,4.592c0,1.553-0.766,2.841-2.198,3.704
		c1.876,1.185,2.616,2.172,2.616,4.395c0,3.529-2.37,5.135-5.973,5.135h-4.988V62.656z M42.724,69.717h1.183
		c1.532,0,2.544-0.891,2.544-2.097c0-1.311-0.765-2.15-2.37-2.15h-1.356V69.717z M42.724,77.665h1.431
		c1.777,0,2.716-1.034,2.716-2.592c0-1.702-1.186-2.543-2.965-2.543h-1.183V77.665z"/>
	<path fill="#777777" d="M65.344,62.656h4.74c3.901,0,6.075,1.677,6.222,6.17v5.483c-0.147,4.492-2.321,6.172-6.222,6.172h-4.74
		V62.656z M68.751,77.468h1.185c1.877,0,2.962-0.89,2.962-3.552v-4.694c0-2.517-0.84-3.555-2.962-3.555h-1.185V77.468z"/>
	<path fill="#777777" d="M81.792,80.481V62.656h9.332v3.011h-5.925v4.1h4.518v3.011h-4.518v4.69h6.171v3.014H81.792z"/>
	<path fill="#777777" d="M95.693,62.656h3.358l3.135,12.737h0.05l3.11-12.737h3.333l-4.544,17.825h-3.875L95.693,62.656z"/>
	<path fill="#777777" d="M113.3,80.481V62.656h9.333v3.011h-5.927v4.1h4.519v3.011h-4.519v4.69h6.172v3.014H113.3z"/>
	<path fill="#777777" d="M128.365,80.481V62.656h3.405v14.812h5.482v3.014H128.365z"/>
	<path fill="#777777" d="M141.748,68.384c0-4.395,2.322-5.974,5.627-5.974c3.311,0,5.632,1.579,5.632,5.974v6.37
		c0,4.395-2.321,5.974-5.632,5.974c-3.305,0-5.627-1.579-5.627-5.974V68.384z M145.154,75.199c0,1.974,0.865,2.518,2.221,2.518
		c1.36,0,2.225-0.544,2.225-2.518v-7.26c0-1.977-0.864-2.518-2.225-2.518c-1.355,0-2.221,0.541-2.221,2.518V75.199z"/>
	<path fill="#777777" d="M158.688,80.481V62.656h4.913c4.197,0,6.245,1.975,6.245,5.331c0,3.361-2.048,5.334-6.245,5.334h-1.505
		v7.16H158.688z M162.096,70.508h1.824c1.681,0,2.521-0.842,2.521-2.521c0-1.678-0.841-2.518-2.521-2.518h-1.824V70.508z"/>
	<path fill="#777777" d="M174.937,80.481V62.656h9.332v3.011h-5.924v4.1h4.519v3.011h-4.519v4.69h6.171v3.014H174.937z"/>
	<path fill="#777777" d="M198.001,80.481l-2.965-7.259h-1.629v7.259H190V62.656h4.939c4.099,0,6.05,1.975,6.05,5.331
		c0,2.223-0.792,3.827-2.695,4.543l3.359,7.951H198.001z M193.408,70.408h1.753c1.507,0,2.419-0.742,2.419-2.469
		c0-1.729-0.912-2.47-2.419-2.47h-1.753V70.408z"/>
	<path fill="#777777" d="M213.978,67.619c-0.568-1.679-1.311-2.396-2.494-2.396c-1.209,0-1.876,0.739-1.876,1.952
		c0,2.689,7.604,2.889,7.604,8.466c0,3.062-2.097,5.086-5.679,5.086c-2.765,0-4.913-1.507-5.827-5.011l3.36-0.717
		c0.391,2.148,1.629,2.911,2.642,2.911c1.185,0,2.099-0.788,2.099-2.121c0-3.357-7.606-3.406-7.606-8.395
		c0-3.062,1.828-4.985,5.359-4.985c3.036,0,4.888,1.801,5.48,4.319L213.978,67.619z"/>
</g>
<g>
</g>
<g>
</g>
<g>
</g>
<g>
</g>
<g>
</g>
<g>
</g>
</svg>
