<?xml version="1.0" encoding="utf-8"?>
<!-- Generator: Adobe Illustrator 16.0.0, SVG Export Plug-In . SVG Version: 6.00 Build 0)  -->
<!DOCTYPE svg PUBLIC "-//W3C//DTD SVG 1.1//EN" "http://www.w3.org/Graphics/SVG/1.1/DTD/svg11.dtd">
<svg version="1.1" id="Layer_1" xmlns="http://www.w3.org/2000/svg" xmlns:xlink="http://www.w3.org/1999/xlink" x="0px" y="0px"
	 width="592.72px" height="44.16px" viewBox="87.6 490.56 592.72 44.16" enable-background="new 87.6 490.56 592.72 44.16"
	 xml:space="preserve">
<g>
	<path fill="#FF7A3D" d="M105.52,497.36V534H98.8v-36.64H87.6v-6h29.2v5.6h-11.2L105.52,497.36L105.52,497.36z"/>
	<path fill="#FF7A3D" d="M136.56,534.72c-13.12,0-16.08-11.2-16.08-22.08s2.96-22.08,16.08-22.08s16.08,11.2,16.08,22.08
		S149.68,534.72,136.56,534.72z M136.56,496.24c-8.96,0-9.36,9.359-9.36,16.479c0,6.721,0.72,16.48,9.36,16.48s9.36-9.76,9.36-16.48
		C145.92,506,145.2,496.24,136.56,496.24z"/>
	<path fill="#FF7A3D" d="M174.32,497.36V534h-6.72v-36.64h-11.2v-6h29.2v5.6h-11.2v0.4H174.32z"/>
	<path fill="#FF7A3D" d="M214,534.32l-3.76-10.88h-15.36l-3.76,11.199l-6.32-1.52l14.24-41.521h7.44l13.84,41.521L214,534.32z
		 M205.04,504.88c-0.72-2.64-1.52-4.88-2.24-7.439c-0.72,2.64-1.52,5.6-2.24,8.239c-1.12,4.08-2.64,8.24-3.76,12h12
		C207.6,513.44,206.16,509.36,205.04,504.88z"/>
	<path fill="#FF7A3D" d="M228.56,534v-42.56h6.72v36.64h16.08v6h-22.8V534z"/>
	<path fill="#FF7A3D" d="M304.08,534.32l-3.76-10.88h-15.36l-3.76,11.199l-6-1.84l14.24-41.52h7.44l13.84,41.52L304.08,534.32z
		 M295.12,504.88c-0.72-2.64-1.52-4.88-2.24-7.439c-0.72,2.64-1.52,5.6-2.24,8.239c-1.12,4.08-2.64,8.24-3.76,12h12
		C297.76,513.44,296.24,509.36,295.12,504.88z"/>
	<path fill="#FF7A3D" d="M332.56,534.72c-13.119,0-16.8-10.88-16.8-22.08c0-10.88,4.48-22.08,16.8-22.08
		c6,0,11.601,4.08,13.841,9.761l-6.32,1.84c-1.12-2.96-4.08-5.601-7.44-5.601c-8.64,0-10.08,9.36-10.08,16.08
		c0,6.721,1.521,16.48,10.08,16.48c3.761,0,6.32-2.64,7.841-5.601l6,2.24C343.76,530.96,338.88,534.72,332.56,534.72z"/>
	<path fill="#FF7A3D" d="M368.4,497.36V534h-6.721v-36.64H350.48v-6h29.199v5.6H368.48v0.4H368.4z"/>
	<path fill="#FF7A3D" d="M386.8,534v-42.56h6.72v42.64h-6.72V534z"/>
	<path fill="#FF7A3D" d="M424.56,534h-8.96l-13.119-41.92l6.319-1.521c2.24,7.44,4.48,15.36,7.12,22.801
		c1.521,4.88,2.96,9.76,4.08,14.56c1.12-5.2,2.96-10.479,4.48-15.68c2.239-7.12,4.079-14.561,6.319-21.681l6,1.521L424.56,534z"/>
	<path fill="#FF7A3D" d="M445.12,534v-42.56h24.72v5.6h-17.92v12.32H468v6h-16.08v12.72h17.92v6h-24.72V534z"/>
	<path fill="#FF7A3D" d="M538.24,534.32c-1.12-12.32-2.641-24.721-3.76-37.04c-1.12,4.08-2.24,8.239-3.36,12
		c-2.24,8.239-4.88,16.479-7.12,24.72h-8.24c-2.24-7.12-4.479-14.56-6.72-21.68c-1.521-4.88-2.96-10.08-4.08-14.96
		c-1.12,12.319-2.24,24.72-3.36,37.04l-6.319-0.4l4.08-42.64h10.479c3.76,12,7.12,24.319,10.88,36.239
		c1.12-4.479,2.64-8.96,3.76-13.439c2.24-7.44,4.48-15.36,6.721-22.8h9.6l4.88,42.64L538.24,534.32z"/>
	<path fill="#FF7A3D" d="M555.04,534v-42.56h24.72v5.6h-17.92v12.32h16.08v6h-16.08v12.72h17.92v6h-24.72V534z"/>
	<path fill="#FF7A3D" d="M602.56,534H590.24v-42.56h12.72c12.72,0,17.6,9.359,17.6,21.279C620.48,524.64,616.4,534,602.56,534z
		 M603.28,497.36h-6.32v31.04h5.6c9.36,0,10.88-7.44,10.88-15.36C613.76,505.28,611.92,497.36,603.28,497.36z"/>
	<path fill="#FF7A3D" d="M630.24,534v-42.56h6.72v42.64h-6.72V534z"/>
	<path fill="#FF7A3D" d="M674,534.32l-3.76-10.88h-15.36l-3.76,11.199l-6.32-1.52l14.24-41.521h7.439l13.841,41.521L674,534.32z
		 M664.96,504.88c-0.72-2.64-1.52-4.88-2.24-7.439c-0.72,2.64-1.52,5.6-2.239,8.239c-1.12,4.08-2.641,8.24-3.761,12h12
		C667.6,513.44,666.48,509.36,664.96,504.88z"/>
</g>
</svg>
