<?xml version="1.0" encoding="utf-8"?>
<!-- Generator: Adobe Illustrator 16.0.0, SVG Export Plug-In . SVG Version: 6.00 Build 0)  -->
<!DOCTYPE svg PUBLIC "-//W3C//DTD SVG 1.1//EN" "http://www.w3.org/Graphics/SVG/1.1/DTD/svg11.dtd">
<svg version="1.1" id="TRUE-logo" xmlns="http://www.w3.org/2000/svg" xmlns:xlink="http://www.w3.org/1999/xlink" x="0px" y="0px"
	 width="144px" height="30px" viewBox="0 0 144 30" enable-background="new 0 0 144 30" xml:space="preserve">
<g id="TRUE-logo_1_">
	<rect id="E-3" x="114.001" y="24" fill="#FF0000" width="29.999" height="6"/>
	<rect id="E-2" x="114.001" y="12" fill="#FF0000" width="29.999" height="6"/>
	<rect id="E-1" x="114.001" fill="#FF0000" width="29.999" height="6"/>
	<path id="U" d="M106,14.999C106,23.287,99.285,30,91,30c-8.284,0-15-6.713-15-15.001V0h6.002v14.999
		c0,4.971,4.027,9.003,8.998,9.003c4.975,0,9.003-4.032,9.003-9.003V0H106V14.999z"/>
	<path id="R" d="M68.2,30l-9.206-11.997c4.976,0,9.005-4.031,9.005-9C67.999,4.031,63.97,0,58.994,0H38v30h5.999V18.003h7.433
		L60.638,30H68.2z M43.999,12.005V6.003h14.995c1.663,0,3.002,1.343,3.002,3c0,1.659-1.339,3.002-3.002,3.002H43.999z"/>
	<polygon id="T" points="30.001,0 0,0 0,6.003 11.998,6.003 11.998,30 18,30 18,6.003 30.001,6.003 	"/>
</g>
</svg>
