<?xml version="1.0" encoding="utf-8"?>
<!-- Generator: Adobe Illustrator 16.0.0, SVG Export Plug-In . SVG Version: 6.00 Build 0)  -->
<!DOCTYPE svg PUBLIC "-//W3C//DTD SVG 1.1//EN" "http://www.w3.org/Graphics/SVG/1.1/DTD/svg11.dtd">
<svg version="1.1" id="Layer_1" xmlns="http://www.w3.org/2000/svg" xmlns:xlink="http://www.w3.org/1999/xlink" x="0px" y="0px"
	 width="113.567px" height="167.696px" viewBox="0 0 113.567 167.696" enable-background="new 0 0 113.567 167.696"
	 xml:space="preserve">
<g>
	<defs>
		<rect id="SVGID_1_" x="0.18" width="113.388" height="113.385"/>
	</defs>
	<clipPath id="SVGID_2_">
		<use xlink:href="#SVGID_1_"  overflow="visible"/>
	</clipPath>
	<rect x="0.18" clip-path="url(#SVGID_2_)" fill="#FF6600" width="113.388" height="113.385"/>
	<rect x="52.959" y="78.037" clip-path="url(#SVGID_2_)" fill="#FFFFFF" width="16.049" height="16.049"/>
	<rect x="79.296" y="78.037" clip-path="url(#SVGID_2_)" fill="#FFFFFF" width="16.049" height="16.049"/>
	<polygon clip-path="url(#SVGID_2_)" fill="#FFFFFF" points="43.344,21.834 15.534,98.272 32.449,98.256 60.259,21.817 	"/>
</g>
<g>
	<path d="M19.205,166.893h-6.78L0,131.971h7.731l6.584,20.207c0.649,1.941,1.348,4.492,1.649,5.734c0.3-1.293,0.95-3.688,1.6-5.734
		l6.432-20.207h7.632L19.205,166.893z"/>
	<path d="M46.05,166.893H35.624v-34.922h10.922c9.979,0,17.361,4.689,17.361,17.463C63.906,161.704,55.031,166.893,46.05,166.893z
		 M46.293,138.756h-3.687v21.357h3.443c7.333,0,10.678-4.297,10.678-10.68C56.728,142.297,53.684,138.756,46.293,138.756z"/>
	<path d="M94.09,166.893v-12.822c0-1.893,0.104-6.334,0.104-7.68c-0.504,1.297-1.55,3.791-2.452,5.787l-7.081,15.518l-7.081-15.518
		c-0.9-1.996-1.948-4.49-2.442-5.787c0,1.346,0.097,5.787,0.097,7.68v12.822h-6.837v-34.922h6.74l7.283,15.816
		c0.893,1.947,1.941,4.586,2.385,5.836c0.458-1.299,1.456-3.84,2.349-5.836l7.04-15.816h6.878v34.922H94.09z"/>
	<path d="M106.668,166.893v-24.66h6.886v24.66H106.668z"/>
	<path d="M106.668,138.692v-6.785h6.886v6.785H106.668z"/>
</g>
<g>
</g>
<g>
</g>
<g>
</g>
<g>
</g>
<g>
</g>
<g>
</g>
</svg>
