<?xml version="1.0" encoding="utf-8"?>
<!-- Generator: Adobe Illustrator 16.0.0, SVG Export Plug-In . SVG Version: 6.00 Build 0)  -->
<!DOCTYPE svg PUBLIC "-//W3C//DTD SVG 1.1//EN" "http://www.w3.org/Graphics/SVG/1.1/DTD/svg11.dtd">
<svg version="1.1" id="Layer_1" xmlns:sketch="http://www.bohemiancoding.com/sketch/ns"
	 xmlns="http://www.w3.org/2000/svg" xmlns:xlink="http://www.w3.org/1999/xlink" x="0px" y="0px" width="401.314px"
	 height="99.645px" viewBox="-0.015 0.377 401.314 99.645" enable-background="new -0.015 0.377 401.314 99.645"
	 xml:space="preserve">
<title>20120427 - logo Voys 86x86</title>
<desc>Created with Sketch.</desc>
<g id="Welcome" sketch:type="MSPage">
	<g id="Artboard-5" transform="translate(-391.000000, -37.000000)" sketch:type="MSArtboardGroup">
		<g id="_x32_0120427---logo-Voys-86x86" transform="translate(391.000000, 37.000000)" sketch:type="MSLayerGroup">
			<path id="Shape" sketch:type="MSShapeGroup" fill="#2F3490" d="M38.204,57.439L18.254,2.915H-0.015l30.498,74.757h15.313
				L76.147,2.915H58.303L38.204,57.439z"/>
			<path id="Shape_1_" sketch:type="MSShapeGroup" fill="#2F3490" d="M137.42,40.294c0,13.079-8.715,23.755-22.483,23.755
				c-13.21,0-22.634-10.822-22.634-24.031c0-13.074,8.721-23.751,22.35-23.751C128.002,16.267,137.42,27.09,137.42,40.294
				L137.42,40.294z M154.42,40.018c0-21.361-16.716-38.651-39.482-38.651c-22.768,0-39.636,17.57-39.636,38.928
				c0,21.229,16.728,38.512,39.351,38.512C137.562,78.807,154.42,61.236,154.42,40.018L154.42,40.018z"/>
			<path id="Shape_2_" sketch:type="MSShapeGroup" fill="#2F3490" d="M230.314,2.915h-17.711l-19.251,55.091L172.267,2.915H154.14
				l30.92,74.2c-2.812,6.467-5.763,8.576-10.537,8.576c-3.512,0-6.895-1.127-9.979-2.816l-5.763,12.65
				c5.199,2.81,10.396,4.496,17.562,4.496c11.948,0,18.558-5.616,24.458-20.802L230.314,2.915L230.314,2.915z"/>
			<path id="Shape_3_" sketch:type="MSShapeGroup" fill="#2F3490" d="M289.475,55.193v-0.28c0-13.351-12.227-18.273-23.049-21.642
				c-8.715-2.813-16.72-5.061-16.72-10.396v-0.28c0-4.353,3.787-7.45,10.396-7.45c6.186,0,13.773,2.67,20.938,7.022l6.748-12.085
				c-7.868-5.195-17.988-8.433-27.265-8.433c-14.752,0-26.424,8.575-26.424,22.636v0.271c0,14.197,12.229,18.692,23.189,21.781
				c8.713,2.674,16.586,4.641,16.586,10.403v0.279c0,4.914-4.221,8.008-11.525,8.008c-7.593,0-16.298-3.094-24.312-9.137
				l-7.589,11.525c9.275,7.309,20.939,11.104,31.482,11.104C277.393,78.521,289.475,70.792,289.475,55.193L289.475,55.193z"/>
			<path id="Shape_4_" sketch:type="MSShapeGroup" fill="#A7CD45" d="M309.387,6.196c5.822-5.819,5.822-5.819,11.641-5.819h39.208
				h21.311c4.629,0,5.583,0.011,8.695,2.942l-7.498,12.968h-83.445C299.297,16.287,302.217,13.379,309.387,6.196"/>
			<path id="Shape_5_" sketch:type="MSShapeGroup" fill="#0085C8" d="M397.407,10.475c-5.826-5.82-7.167-7.155-7.167-7.155
				l-40.253,69.577l3.391,5.869h4.671c5.821,0,7.909,0,11.639-5.83c3.364-5.24,30.893-53.459,30.893-53.459
				C402.487,15.551,400.312,13.39,397.407,10.475"/>
			<path id="Shape_6_" sketch:type="MSShapeGroup" fill="#2F3490" d="M317.247,16.287h-17.95
				c0.351,0.515,32.611,56.646,32.611,56.646c2.581,4.562,6.839,5.83,12.078,5.83h9.392L317.247,16.287"/>
			<path id="Shape_7_" sketch:type="MSShapeGroup" fill="#1C1862" d="M299.297,16.287c0,0,17.95,0,32.534,25.216l-14.584-25.216
				H299.297"/>
			<path id="Shape_8_" sketch:type="MSShapeGroup" fill="#005988" d="M353.378,78.766l-3.391-5.869l12.731-22.011
				C362.72,50.886,349.804,73.219,353.378,78.766"/>
			<path id="Shape_9_" sketch:type="MSShapeGroup" fill="#6B892B" d="M390.24,3.319l-7.498,12.968h-38.33
				C344.412,16.287,377.413,16.149,390.24,3.319"/>
		</g>
	</g>
</g>
</svg>
