<?xml version="1.0" encoding="utf-8"?>
<!-- Generator: Adobe Illustrator 16.0.0, SVG Export Plug-In . SVG Version: 6.00 Build 0)  -->
<!DOCTYPE svg PUBLIC "-//W3C//DTD SVG 1.1//EN" "http://www.w3.org/Graphics/SVG/1.1/DTD/svg11.dtd">
<svg version="1.1" id="Layer_1" xmlns="http://www.w3.org/2000/svg" xmlns:xlink="http://www.w3.org/1999/xlink" x="0px" y="0px"
	 width="137.137px" height="28.947px" viewBox="229.647 197.36 137.137 28.947"
	 enable-background="new 229.647 197.36 137.137 28.947" xml:space="preserve">
<g id="Layer_1_1_">
	<polygon fill="#01426A" points="266.499,200.916 268.812,200.916 270.75,212.556 271.165,212.556 273.733,200.955 276.303,200.955 
		278.874,212.556 279.309,212.556 281.245,200.916 283.557,200.916 280.889,214.454 277.352,214.454 275.018,203.604 
		272.706,214.454 269.148,214.454 	"/>
	<polygon fill="#01426A" points="286.581,214.454 286.581,200.916 295.12,200.916 295.12,202.831 288.775,202.831 288.775,206.667 
		293.934,206.667 293.934,208.563 288.775,208.563 288.775,212.517 295.12,212.517 295.12,214.454 	"/>
	<path fill="#01426A" d="M298.499,200.916h5.139c1.387,0,2.42,0.278,3.104,0.839c0.688,0.561,1.027,1.454,1.027,2.68
		c0,0.805-0.127,1.435-0.385,1.896c-0.258,0.461-0.664,0.843-1.215,1.145c1.291,0.502,1.936,1.551,1.936,3.144
		c0,2.557-1.436,3.835-4.309,3.835h-5.297V200.916L298.499,200.916z M303.516,202.812h-2.824v3.875h2.904
		c1.291,0,1.939-0.666,1.939-1.996C305.536,203.438,304.862,202.812,303.516,202.812 M303.635,208.544h-2.943v4.012h2.984
		c0.725,0,1.27-0.152,1.631-0.455c0.361-0.304,0.543-0.822,0.543-1.562c0-0.738-0.211-1.254-0.633-1.55
		C304.795,208.69,304.266,208.544,303.635,208.544"/>
	<path fill="#01426A" d="M315.553,202.615c-1.674,0-2.51,0.586-2.51,1.759c0,0.604,0.197,1.037,0.594,1.295
		c0.395,0.256,1.27,0.571,2.619,0.947c1.352,0.375,2.303,0.824,2.855,1.344c0.551,0.52,0.83,1.341,0.83,2.46
		c0,1.424-0.404,2.489-1.215,3.193c-0.811,0.702-1.916,1.058-3.312,1.058c-1.119,0-2.357-0.133-3.715-0.396l-0.713-0.137
		l0.217-1.759c1.781,0.237,3.137,0.356,4.072,0.356c1.635,0,2.451-0.727,2.451-2.174c0-0.568-0.186-0.986-0.555-1.256
		c-0.369-0.271-1.199-0.566-2.49-0.891c-1.289-0.322-2.254-0.768-2.887-1.333c-0.631-0.567-0.949-1.463-0.949-2.688
		c0-1.225,0.4-2.15,1.197-2.777c0.797-0.625,1.9-0.938,3.312-0.938c1.014,0,2.215,0.117,3.598,0.354l0.689,0.118l-0.178,1.779
		C317.624,202.72,316.321,202.615,315.553,202.615"/>
	<path fill="#01426A" d="M327.848,214.671c-1.977,0-3.316-0.548-4.02-1.64c-0.707-1.093-1.059-2.894-1.059-5.396
		c0-2.504,0.354-4.284,1.064-5.347c0.713-1.061,2.049-1.592,4.014-1.592c1.176,0,2.465,0.164,3.875,0.496l-0.078,1.777
		c-1.188-0.211-2.371-0.316-3.559-0.316s-1.99,0.354-2.412,1.059s-0.631,2.029-0.631,3.973c0,1.942,0.203,3.267,0.611,3.973
		c0.408,0.705,1.205,1.057,2.391,1.057c1.189,0,2.385-0.099,3.6-0.296l0.061,1.817C330.344,214.524,329.057,214.671,327.848,214.671
		"/>
	<path fill="#01426A" d="M333.875,214.454l3.34-13.538h4.369l3.359,13.538h-2.213l-0.73-2.905h-5.197l-0.732,2.905H333.875z
		 M338.917,202.752l-1.68,6.858h4.328l-1.66-6.858H338.917z"/>
	<polygon fill="#01426A" points="355.458,214.454 347.87,214.454 347.87,200.916 350.065,200.916 350.065,212.498 355.458,212.498 	
		"/>
	<polygon fill="#01426A" points="358.247,214.454 358.247,200.916 366.784,200.916 366.784,202.831 360.442,202.831 
		360.442,206.667 365.596,206.667 365.596,208.563 360.442,208.563 360.442,212.517 366.784,212.517 366.784,214.454 	"/>
	<g>
		<path fill="#C8102E" d="M247.954,212.618l5.823,4.699l5.208-4.486l-3.232-5.012l-3.609,2.488l-7.312-12.945l-8.437,15.07
			l5.584,4.885L247.954,212.618z M259.813,214.114l-6.037,5.199l-5.822-4.698l-5.938,4.698l-6.374-5.543l-5.995,10.709h36.85
			L259.813,214.114z"/>
		<path fill="#A50E2B" d="M255.75,207.817l-1.975,9.498l5.208-4.485L255.75,207.817z M259.813,214.114l-4.865,4.188l11.551,6.177
			L259.813,214.114z"/>
		<path fill="#DD2246" d="M247.95,214.617l-5.933,4.696l-0.685,5.166h6.599l5.846-5.166L247.95,214.617z M244.831,197.36
			l-2.853,19.955l5.976-4.698L244.831,197.36z"/>
	</g>
</g>
<g id="Layer_2">
</g>
<g id="Layer_3">
	<g>
		<path fill="#828B9B" d="M273.833,224.479h-0.584v-5.584h0.584v1.914c0.414-0.197,0.812-0.295,1.196-0.295
			c0.519,0,0.868,0.139,1.046,0.42c0.18,0.28,0.27,0.777,0.27,1.492v2.055h-0.584v-2.039c0-0.539-0.053-0.907-0.159-1.107
			c-0.106-0.199-0.33-0.3-0.672-0.3c-0.327,0-0.644,0.06-0.949,0.179l-0.147,0.055V224.479L273.833,224.479z"/>
		<path fill="#828B9B" d="M277.565,222.528c0-0.711,0.127-1.225,0.381-1.541c0.254-0.315,0.684-0.475,1.287-0.475
			s1.033,0.159,1.284,0.475c0.251,0.316,0.377,0.83,0.377,1.541c0,0.71-0.12,1.226-0.358,1.547
			c-0.238,0.322-0.674,0.482-1.307,0.482s-1.068-0.16-1.309-0.482C277.686,223.754,277.565,223.239,277.565,222.528z
			 M278.165,222.517c0,0.567,0.069,0.965,0.207,1.192c0.137,0.228,0.426,0.342,0.862,0.342c0.438,0,0.726-0.112,0.861-0.339
			c0.133-0.225,0.2-0.623,0.2-1.193c0-0.569-0.073-0.961-0.225-1.178c-0.15-0.215-0.429-0.322-0.837-0.322
			c-0.405,0-0.687,0.107-0.84,0.322C278.241,221.558,278.165,221.948,278.165,222.517z"/>
		<path fill="#828B9B" d="M283.375,221.035c-0.565,0-0.849,0.196-0.849,0.591c0,0.182,0.065,0.311,0.194,0.385
			c0.129,0.075,0.426,0.153,0.887,0.233s0.789,0.192,0.98,0.339c0.19,0.145,0.287,0.417,0.287,0.816
			c0,0.398-0.129,0.691-0.385,0.879c-0.257,0.187-0.632,0.279-1.125,0.279c-0.322,0-0.699-0.037-1.135-0.108l-0.232-0.039
			l0.031-0.507c0.592,0.089,1.037,0.134,1.338,0.134s0.529-0.047,0.688-0.144c0.157-0.097,0.237-0.258,0.237-0.483
			s-0.067-0.378-0.203-0.458c-0.135-0.081-0.43-0.157-0.887-0.229c-0.455-0.072-0.779-0.18-0.972-0.318
			c-0.19-0.141-0.286-0.399-0.286-0.778s0.133-0.658,0.399-0.84c0.267-0.183,0.601-0.272,0.997-0.272
			c0.316,0,0.715,0.036,1.191,0.108l0.219,0.039l-0.014,0.498C284.161,221.076,283.708,221.035,283.375,221.035z"/>
		<path fill="#828B9B" d="M288.097,221.097h-1.237v1.858c0,0.446,0.033,0.739,0.098,0.879c0.065,0.14,0.219,0.21,0.463,0.21
			l0.691-0.046l0.039,0.481c-0.347,0.058-0.611,0.086-0.793,0.086c-0.404,0-0.686-0.1-0.84-0.295
			c-0.156-0.197-0.232-0.574-0.232-1.129v-2.046h-0.553v-0.505h0.553v-1.189h0.574v1.189h1.238L288.097,221.097L288.097,221.097z"/>
		<path fill="#828B9B" d="M289.124,219.712v-0.677h0.584v0.677H289.124z M289.124,224.479v-3.889h0.584v3.889H289.124z"/>
		<path fill="#828B9B" d="M291.722,224.479h-0.584v-3.889h0.575v0.272c0.42-0.233,0.822-0.351,1.207-0.351
			c0.518,0,0.867,0.141,1.045,0.422c0.181,0.279,0.271,0.777,0.271,1.492v2.053h-0.575v-2.037c0-0.539-0.055-0.908-0.16-1.108
			c-0.105-0.199-0.334-0.3-0.681-0.3c-0.165,0-0.341,0.025-0.524,0.074c-0.185,0.049-0.326,0.098-0.424,0.144l-0.147,0.071v3.156
			H291.722z"/>
		<path fill="#828B9B" d="M297.127,226.308c-0.623,0-1.057-0.084-1.305-0.252c-0.246-0.168-0.369-0.476-0.369-0.922
			c0-0.213,0.047-0.385,0.141-0.517s0.251-0.281,0.475-0.447c-0.145-0.098-0.219-0.276-0.219-0.537c0-0.088,0.064-0.251,0.195-0.489
			l0.07-0.125c-0.41-0.187-0.615-0.578-0.615-1.174c0-0.887,0.486-1.33,1.455-1.33c0.25,0,0.479,0.025,0.693,0.077l0.117,0.023
			l1.148-0.031v0.498l-0.738-0.017c0.172,0.172,0.26,0.431,0.26,0.778c0,0.487-0.121,0.828-0.363,1.022
			c-0.242,0.193-0.623,0.292-1.14,0.292c-0.14,0-0.267-0.011-0.382-0.031c-0.094,0.229-0.139,0.376-0.139,0.442
			c0,0.162,0.049,0.261,0.148,0.301c0.098,0.039,0.396,0.058,0.895,0.058s0.855,0.078,1.072,0.233
			c0.219,0.154,0.328,0.459,0.328,0.91C298.854,225.896,298.28,226.308,297.127,226.308z M296.032,225.087
			c0,0.275,0.075,0.465,0.229,0.571c0.152,0.106,0.435,0.159,0.848,0.159c0.412,0,0.707-0.057,0.887-0.17
			c0.178-0.114,0.268-0.306,0.268-0.571c0-0.267-0.064-0.44-0.193-0.517c-0.131-0.078-0.385-0.117-0.764-0.117l-0.84-0.041
			c-0.172,0.125-0.286,0.233-0.348,0.328C296.06,224.823,296.032,224.94,296.032,225.087z M296.084,221.844
			c0,0.306,0.068,0.523,0.205,0.653c0.139,0.129,0.365,0.193,0.682,0.193s0.541-0.064,0.678-0.193
			c0.135-0.13,0.201-0.35,0.201-0.658s-0.066-0.527-0.201-0.658c-0.137-0.13-0.361-0.193-0.678-0.193s-0.543,0.065-0.682,0.199
			C296.154,221.317,296.084,221.538,296.084,221.844z"/>
		<path fill="#828B9B" d="M301.59,220.591h0.623l0.908,3.383h0.287l0.943-3.383h0.6l-1.1,3.889h-1.164L301.59,220.591z"/>
		<path fill="#828B9B" d="M305.838,222.528c0-0.711,0.127-1.225,0.381-1.541c0.254-0.315,0.684-0.475,1.287-0.475
			c0.605,0,1.031,0.159,1.281,0.475c0.252,0.316,0.377,0.83,0.377,1.541c0,0.71-0.117,1.226-0.357,1.547
			c-0.234,0.322-0.674,0.482-1.307,0.482s-1.068-0.16-1.307-0.482C305.958,223.754,305.838,223.239,305.838,222.528z
			 M306.44,222.517c0,0.567,0.064,0.965,0.203,1.192s0.428,0.342,0.863,0.342c0.438,0,0.727-0.112,0.859-0.339
			c0.135-0.225,0.203-0.623,0.203-1.193c0-0.569-0.076-0.961-0.227-1.178c-0.15-0.215-0.428-0.322-0.836-0.322
			s-0.688,0.107-0.84,0.322C306.512,221.558,306.44,221.948,306.44,222.517z"/>
		<path fill="#828B9B" d="M310.256,222.528c0-0.711,0.127-1.225,0.381-1.541c0.254-0.315,0.684-0.475,1.287-0.475
			c0.605,0,1.031,0.159,1.281,0.475c0.252,0.316,0.377,0.83,0.377,1.541c0,0.71-0.119,1.226-0.357,1.547
			c-0.236,0.322-0.674,0.482-1.307,0.482s-1.068-0.16-1.307-0.482C310.375,223.754,310.256,223.239,310.256,222.528z
			 M310.858,222.517c0,0.567,0.064,0.965,0.205,1.192c0.137,0.228,0.426,0.342,0.861,0.342c0.438,0,0.727-0.112,0.859-0.339
			c0.135-0.225,0.203-0.623,0.203-1.193c0-0.569-0.076-0.961-0.227-1.178c-0.15-0.215-0.428-0.322-0.836-0.322
			s-0.688,0.107-0.84,0.322C310.93,221.558,310.858,221.948,310.858,222.517z"/>
		<path fill="#828B9B" d="M314.842,224.479v-3.889h0.576v0.529c0.451-0.311,0.926-0.516,1.424-0.614v0.591
			c-0.219,0.043-0.443,0.106-0.68,0.194s-0.416,0.166-0.543,0.233l-0.193,0.101v2.854H314.842L314.842,224.479z"/>
		<path fill="#828B9B" d="M319.87,226.207v-5.616h0.576v0.28c0.393-0.239,0.779-0.358,1.166-0.358c0.49,0,0.85,0.158,1.07,0.471
			c0.227,0.313,0.336,0.832,0.336,1.552s-0.133,1.237-0.393,1.551c-0.264,0.313-0.695,0.472-1.305,0.472
			c-0.316,0-0.605-0.029-0.869-0.087v1.735L319.87,226.207L319.87,226.207z M321.526,221.035c-0.156,0-0.322,0.026-0.5,0.078
			c-0.182,0.051-0.32,0.103-0.426,0.155l-0.146,0.078v2.62c0.367,0.058,0.646,0.085,0.84,0.085c0.42,0,0.715-0.119,0.883-0.357
			c0.168-0.237,0.252-0.627,0.252-1.165c0-0.539-0.076-0.925-0.229-1.151C322.043,221.147,321.823,221.035,321.526,221.035z"/>
		<path fill="#828B9B" d="M324.28,224.479v-3.889h0.576v0.529c0.447-0.311,0.926-0.516,1.422-0.614v0.591
			c-0.221,0.043-0.443,0.106-0.682,0.194c-0.236,0.088-0.416,0.166-0.541,0.233l-0.191,0.101v2.854H324.28L324.28,224.479z"/>
		<path fill="#828B9B" d="M327.11,222.528c0-0.711,0.127-1.225,0.381-1.541c0.254-0.315,0.684-0.475,1.287-0.475
			s1.031,0.159,1.281,0.475c0.254,0.316,0.379,0.83,0.379,1.541c0,0.71-0.119,1.226-0.357,1.547
			c-0.238,0.322-0.674,0.482-1.307,0.482c-0.635,0-1.068-0.16-1.311-0.482C327.231,223.754,327.11,223.239,327.11,222.528z
			 M327.708,222.517c0,0.567,0.068,0.965,0.205,1.192c0.139,0.228,0.426,0.342,0.863,0.342c0.439,0,0.725-0.112,0.861-0.339
			c0.133-0.225,0.201-0.623,0.201-1.193c0-0.569-0.074-0.961-0.225-1.178c-0.15-0.215-0.432-0.322-0.838-0.322
			c-0.404,0-0.688,0.107-0.842,0.322C327.786,221.558,327.708,221.948,327.708,222.517z"/>
		<path fill="#828B9B" d="M332.446,221.097v3.383h-0.582v-3.383h-0.49v-0.506h0.49v-0.35c0-0.549,0.076-0.924,0.23-1.124
			c0.156-0.2,0.43-0.3,0.816-0.3l0.785,0.056l-0.008,0.481c-0.289-0.01-0.531-0.016-0.721-0.016s-0.324,0.062-0.404,0.188
			s-0.119,0.367-0.119,0.724v0.342h1.129v0.505H332.446L332.446,221.097z"/>
		<path fill="#828B9B" d="M337.231,223.998l0.225-0.022l0.014,0.457c-0.59,0.084-1.096,0.125-1.516,0.125
			c-0.562,0-0.957-0.162-1.191-0.485c-0.232-0.325-0.35-0.829-0.35-1.513c0-1.365,0.543-2.047,1.627-2.047
			c0.523,0,0.914,0.147,1.174,0.44c0.258,0.292,0.389,0.753,0.389,1.38l-0.031,0.443h-2.566c0,0.431,0.076,0.75,0.232,0.957
			c0.156,0.209,0.428,0.312,0.812,0.312C336.434,224.044,336.829,224.028,337.231,223.998z M337.02,222.31
			c0-0.477-0.076-0.812-0.23-1.011c-0.152-0.196-0.402-0.296-0.746-0.296s-0.604,0.104-0.777,0.311s-0.264,0.541-0.27,0.996H337.02
			L337.02,222.31z"/>
		<path fill="#828B9B" d="M340.043,221.035c-0.564,0-0.85,0.196-0.85,0.591c0,0.182,0.066,0.311,0.195,0.385
			c0.129,0.075,0.426,0.153,0.887,0.233s0.789,0.192,0.98,0.339c0.191,0.145,0.287,0.417,0.287,0.816
			c0,0.398-0.129,0.691-0.385,0.879c-0.258,0.187-0.633,0.279-1.125,0.279c-0.322,0-0.699-0.037-1.135-0.108l-0.232-0.039
			l0.031-0.507c0.592,0.089,1.037,0.134,1.338,0.134s0.529-0.047,0.688-0.144c0.158-0.098,0.238-0.258,0.238-0.483
			s-0.068-0.378-0.203-0.458c-0.135-0.081-0.43-0.157-0.887-0.229c-0.455-0.074-0.779-0.18-0.973-0.318
			c-0.191-0.141-0.285-0.399-0.285-0.778s0.133-0.658,0.396-0.84c0.27-0.183,0.602-0.272,1-0.272c0.314,0,0.713,0.036,1.189,0.108
			l0.219,0.039l-0.016,0.498C340.831,221.076,340.375,221.035,340.043,221.035z"/>
		<path fill="#828B9B" d="M343.971,221.035c-0.564,0-0.848,0.196-0.848,0.591c0,0.182,0.064,0.311,0.193,0.385
			c0.129,0.075,0.426,0.153,0.887,0.233c0.463,0.08,0.789,0.192,0.98,0.339c0.191,0.145,0.287,0.417,0.287,0.816
			c0,0.398-0.127,0.691-0.383,0.879c-0.258,0.187-0.633,0.279-1.125,0.279c-0.322,0-0.699-0.037-1.135-0.108l-0.234-0.039
			l0.031-0.507c0.592,0.089,1.037,0.134,1.338,0.134c0.303,0,0.531-0.047,0.689-0.144c0.156-0.098,0.234-0.258,0.234-0.483
			s-0.066-0.378-0.199-0.458c-0.137-0.081-0.432-0.157-0.889-0.229c-0.457-0.072-0.781-0.18-0.973-0.318s-0.287-0.399-0.287-0.778
			s0.133-0.658,0.398-0.84c0.27-0.183,0.602-0.272,1-0.272c0.316,0,0.713,0.036,1.191,0.108l0.217,0.039l-0.014,0.498
			C344.756,221.076,344.303,221.035,343.971,221.035z"/>
		<path fill="#828B9B" d="M346.676,219.712v-0.677h0.584v0.677H346.676z M346.676,224.479v-3.889h0.584v3.889H346.676z"/>
		<path fill="#828B9B" d="M348.522,222.528c0-0.711,0.127-1.225,0.381-1.541c0.254-0.315,0.684-0.475,1.287-0.475
			s1.031,0.159,1.283,0.475c0.25,0.316,0.377,0.83,0.377,1.541c0,0.71-0.119,1.226-0.357,1.547
			c-0.238,0.322-0.674,0.482-1.309,0.482c-0.633,0-1.066-0.16-1.307-0.482C348.641,223.754,348.522,223.239,348.522,222.528z
			 M349.122,222.517c0,0.567,0.07,0.965,0.205,1.192c0.139,0.228,0.426,0.342,0.865,0.342c0.438,0,0.725-0.112,0.857-0.339
			c0.135-0.225,0.201-0.623,0.201-1.193c0-0.569-0.074-0.961-0.225-1.178c-0.15-0.215-0.43-0.322-0.836-0.322
			s-0.688,0.107-0.842,0.322C349.198,221.558,349.122,221.948,349.122,222.517z"/>
		<path fill="#828B9B" d="M353.694,224.479h-0.582v-3.889h0.576v0.272c0.42-0.233,0.818-0.351,1.201-0.351
			c0.521,0,0.867,0.141,1.049,0.422c0.18,0.279,0.268,0.777,0.268,1.492v2.053h-0.574v-2.037c0-0.539-0.055-0.908-0.16-1.108
			c-0.107-0.199-0.334-0.3-0.682-0.3c-0.166,0-0.34,0.025-0.523,0.074c-0.186,0.049-0.326,0.098-0.426,0.144l-0.146,0.071V224.479
			L353.694,224.479z"/>
		<path fill="#828B9B" d="M360.344,221.767v1.989c0.016,0.191,0.164,0.308,0.451,0.343l-0.021,0.459c-0.41,0-0.721-0.104-0.93-0.312
			c-0.467,0.208-0.932,0.312-1.396,0.312c-0.357,0-0.631-0.103-0.818-0.305c-0.186-0.202-0.279-0.492-0.279-0.871
			c0-0.378,0.096-0.656,0.287-0.836c0.191-0.179,0.494-0.289,0.902-0.331l1.221-0.116v-0.334c0-0.266-0.057-0.455-0.17-0.568
			c-0.113-0.114-0.27-0.172-0.467-0.172c-0.416,0-0.844,0.026-1.291,0.078l-0.242,0.022l-0.021-0.442
			c0.57-0.115,1.074-0.172,1.516-0.172c0.443,0,0.762,0.103,0.961,0.305C360.247,221.019,360.344,221.335,360.344,221.767z
			 M357.95,223.353c0,0.479,0.197,0.717,0.59,0.717c0.354,0,0.701-0.061,1.043-0.18l0.18-0.062v-1.283l-1.15,0.108
			c-0.234,0.021-0.402,0.089-0.506,0.203C358,222.969,357.95,223.134,357.95,223.353z"/>
		<path fill="#828B9B" d="M361.854,224.479v-5.584h0.58v5.584H361.854z"/>
		<path fill="#828B9B" d="M365.133,221.035c-0.562,0-0.848,0.196-0.848,0.591c0,0.182,0.064,0.311,0.195,0.385
			c0.129,0.076,0.426,0.153,0.887,0.233s0.787,0.192,0.98,0.339c0.191,0.145,0.287,0.417,0.287,0.816
			c0,0.398-0.129,0.691-0.385,0.879c-0.258,0.187-0.633,0.279-1.125,0.279c-0.322,0-0.699-0.037-1.135-0.108l-0.234-0.039
			l0.033-0.507c0.59,0.089,1.037,0.134,1.336,0.134c0.303,0,0.531-0.047,0.689-0.144c0.156-0.098,0.236-0.258,0.236-0.483
			s-0.066-0.378-0.203-0.458c-0.135-0.081-0.43-0.157-0.887-0.229c-0.455-0.074-0.781-0.18-0.973-0.318s-0.287-0.399-0.287-0.778
			s0.133-0.658,0.4-0.84c0.268-0.183,0.6-0.272,0.998-0.272c0.316,0,0.715,0.036,1.191,0.108l0.219,0.039l-0.016,0.498
			C365.92,221.076,365.465,221.035,365.133,221.035z"/>
	</g>
</g>
</svg>
