<?xml version="1.0" encoding="utf-8"?>
<!-- Generator: Adobe Illustrator 16.0.0, SVG Export Plug-In . SVG Version: 6.00 Build 0)  -->
<!DOCTYPE svg PUBLIC "-//W3C//DTD SVG 1.1//EN" "http://www.w3.org/Graphics/SVG/1.1/DTD/svg11.dtd">
<svg version="1.1" xmlns="http://www.w3.org/2000/svg" xmlns:xlink="http://www.w3.org/1999/xlink" x="0px" y="0px" width="158px"
	 height="156px" viewBox="0 0 158 156" enable-background="new 0 0 158 156" xml:space="preserve">
<g id="Layer_6">
	<g>
		<g>
			<path fill="#ECCE1F" d="M94.264,130.107c-0.417,0-0.746,0.181-0.991,0.542c-0.164,0.247-0.247,0.552-0.247,0.913
				c0,0.437,0.114,0.778,0.346,1.025c0.23,0.247,0.525,0.371,0.883,0.371c0.441,0,0.78-0.174,1.018-0.522
				c0.17-0.247,0.254-0.55,0.254-0.908c0-0.42-0.117-0.762-0.351-1.025C94.939,130.239,94.636,130.107,94.264,130.107z
				 M104.191,106.395c-0.715-0.631-1.618-0.947-2.707-0.947c-1.032,0-1.881,0.311-2.55,0.931c-0.468,0.437-0.779,1.022-0.931,1.757
				h7.102C104.952,107.4,104.647,106.82,104.191,106.395z M80.234,128.767c-0.365-0.335-0.838-0.503-1.424-0.503h-0.502v4.422h0.264
				c0.494,0,0.879-0.066,1.159-0.2c0.387-0.182,0.684-0.474,0.892-0.873c0.175-0.339,0.263-0.725,0.263-1.157
				c0-0.345-0.057-0.665-0.172-0.962C80.598,129.197,80.438,128.955,80.234,128.767z M64.527,130.107
				c-0.414,0-0.74,0.186-0.982,0.557c-0.166,0.257-0.248,0.555-0.248,0.894c0,0.43,0.127,0.773,0.381,1.03
				c0.24,0.247,0.531,0.371,0.869,0.371c0.389,0,0.701-0.156,0.939-0.469c0.201-0.264,0.303-0.589,0.303-0.977
				c0-0.394-0.116-0.726-0.348-0.996C65.211,130.244,64.906,130.107,64.527,130.107z M117.856,130.115
				c-0.381,0-0.685,0.155-0.909,0.464c-0.199,0.277-0.299,0.6-0.299,0.968c0,0.439,0.136,0.795,0.406,1.065
				c0.229,0.231,0.501,0.347,0.816,0.347c0.389,0,0.708-0.159,0.959-0.479c0.217-0.28,0.326-0.614,0.326-1.002
				c0-0.349-0.097-0.649-0.293-0.904C118.626,130.269,118.289,130.115,117.856,130.115z M70.475,130.107
				c-0.365,0-0.658,0.128-0.879,0.385c-0.125,0.146-0.211,0.341-0.26,0.584h2.32c-0.043-0.243-0.131-0.438-0.264-0.584
				C71.16,130.235,70.855,130.107,70.475,130.107z M100.104,130.115c-0.382,0-0.686,0.155-0.911,0.464
				c-0.198,0.277-0.297,0.6-0.297,0.968c0,0.439,0.135,0.795,0.405,1.065c0.229,0.231,0.5,0.347,0.816,0.347
				c0.388,0,0.708-0.159,0.959-0.479c0.217-0.28,0.326-0.614,0.326-1.002c0-0.349-0.097-0.649-0.293-0.904
				C100.872,130.269,100.535,130.115,100.104,130.115z M146,0H12C5.373,0,0,5.373,0,12v132c0,6.627,5.373,12,12,12h134
				c6.627,0,12-5.373,12-12V12C158,5.373,152.627,0,146,0z M125.817,101.572h5.5v1.899c0.503-0.886,1.003-1.494,1.505-1.825
				c0.745-0.508,1.659-0.762,2.744-0.762c1.747,0,3.16,0.541,4.231,1.622c0.665,0.67,1.082,1.446,1.258,2.327
				c0.175,0.882,0.262,1.945,0.262,3.191v10.234h-5.5v-10.182c0-0.654-0.104-1.163-0.31-1.526c-0.402-0.736-1.041-1.104-1.915-1.104
				c-0.838,0-1.471,0.357-1.896,1.07c-0.252,0.409-0.38,0.953-0.38,1.631v10.111h-5.5V101.572z M83.859,94.26h5.5v24h-5.5V94.26z
				 M67.258,106.135v-4.562h14.128l-6.2,12.125h5.885v4.562H66.748l6.218-12.125H67.258z M27.84,36.349l1.932-0.484l-1.473-5.872
				c-0.479-1.906,0.914-3.896,3.109-4.447l3.127-0.784c2.195-0.55,4.362,0.548,4.84,2.454l1.473,5.872l1.931-0.483
				c2.062-0.518,4.145,0.7,4.651,2.719l1.833,7.312c0.507,2.02-0.755,4.075-2.817,4.593l-2.722,0.683l3.903,15.566
				c0.354,1.414-0.194,2.839-1.277,3.677l0.843,3.362c1.077,0.536,1.931,1.506,2.245,2.765c0.574,2.286-0.814,4.604-3.101,5.177
				c-2.284,0.573-4.603-0.815-5.176-3.102c-0.315-1.259-0.021-2.516,0.676-3.497l-0.843-3.361c-1.352-0.228-2.508-1.226-2.861-2.64
				l-3.904-15.567l-2.721,0.683c-2.063,0.518-4.146-0.7-4.652-2.72l-1.832-7.311C24.518,38.922,25.777,36.866,27.84,36.349z
				 M36.223,118.26h-5.818l-2.496-9.056l-2.479,9.056h-5.977l-5.203-16.688h5.537l2.936,9.144l2.443-9.144h5.238l2.602,9.144
				l2.936-9.144h5.537L36.223,118.26z M48.842,118.26h-5.5v-16.688h5.5V118.26z M48.996,96.779c-0.768,0.672-1.74,1.007-2.918,1.007
				c-1.339,0-2.418-0.441-3.238-1.325c-0.787-0.847-1.18-1.88-1.18-3.1c0-1.062,0.321-1.968,0.942-2.729l-0.049-0.049l3.493-5.374
				l3.494,5.374l-0.006,0.005c0.646,0.798,0.988,1.726,0.988,2.8C50.523,94.785,50.014,95.914,48.996,96.779z M51.771,106.135
				v-4.562H65.9l-6.201,12.125h5.885v4.562H51.262l6.218-12.125H51.771z M67.062,133.818h-1.273v-0.605
				c-0.184,0.252-0.367,0.428-0.553,0.529c-0.289,0.16-0.623,0.24-1.001,0.24c-0.716,0-1.29-0.246-1.72-0.738
				c-0.381-0.434-0.57-0.999-0.57-1.696c0-0.796,0.247-1.423,0.742-1.883c0.455-0.424,0.98-0.636,1.572-0.636
				c0.297,0,0.582,0.058,0.855,0.172c0.221,0.095,0.445,0.263,0.674,0.505v-2.552h1.273V133.818z M72.959,131.803h-3.617
				c0.041,0.256,0.133,0.464,0.273,0.624c0.24,0.282,0.553,0.423,0.938,0.423c0.266,0,0.512-0.077,0.736-0.231
				c0.141-0.096,0.251-0.221,0.332-0.375l1.162,0.322c-0.182,0.363-0.414,0.655-0.697,0.878c-0.459,0.359-0.975,0.539-1.548,0.539
				c-0.769,0-1.399-0.263-1.894-0.787c-0.418-0.44-0.625-1.006-0.625-1.696c0-0.365,0.064-0.709,0.195-1.029
				c0.129-0.321,0.312-0.593,0.547-0.814c0.445-0.417,1.012-0.626,1.698-0.626c0.819,0,1.47,0.29,1.948,0.869
				c0.371,0.452,0.557,1.001,0.557,1.646C72.965,131.605,72.963,131.692,72.959,131.803z M81.734,132.427
				c-0.575,0.928-1.518,1.392-2.826,1.392h-1.967v-6.664h1.889c0.752,0,1.354,0.114,1.806,0.342c0.562,0.28,0.985,0.706,1.274,1.279
				c0.245,0.479,0.366,1.021,0.366,1.63C82.276,131.174,82.097,131.848,81.734,132.427z M85.863,130.336
				c-0.112-0.012-0.204-0.018-0.279-0.018c-0.365,0-0.646,0.141-0.841,0.421c-0.088,0.131-0.142,0.27-0.161,0.416
				c-0.016,0.124-0.023,0.268-0.023,0.432v2.231h-1.274v-4.625h1.274v0.674c0.106-0.294,0.242-0.498,0.405-0.612
				c0.204-0.15,0.45-0.226,0.737-0.226c0.037,0,0.089,0.003,0.162,0.008V130.336z M90.573,132.119c0,0.47-0.076,0.823-0.229,1.062
				c-0.18,0.273-0.442,0.48-0.787,0.621c-0.297,0.12-0.632,0.181-1.006,0.181c-0.659,0-1.175-0.168-1.546-0.504
				c-0.329-0.3-0.494-0.753-0.494-1.359v-2.926h1.273v2.843c0,0.198,0.047,0.379,0.143,0.541c0.128,0.219,0.337,0.327,0.628,0.327
				c0.268,0,0.472-0.098,0.613-0.293c0.088-0.12,0.133-0.284,0.133-0.492v-2.926h1.272V132.119z M95.963,133.552
				c-0.391,0.287-0.854,0.431-1.391,0.431c-0.647,0-1.163-0.223-1.547-0.667v2.581h-1.274v-6.703h1.274v0.571
				c0.159-0.216,0.322-0.374,0.492-0.476c0.287-0.173,0.628-0.26,1.025-0.26c0.478,0,0.907,0.129,1.287,0.386
				c0.703,0.473,1.055,1.176,1.055,2.107C96.885,132.426,96.576,133.103,95.963,133.552z M102.652,133.818h-1.272v-0.635
				c-0.421,0.532-0.957,0.799-1.607,0.799c-0.706,0-1.275-0.263-1.705-0.787c-0.354-0.437-0.532-0.98-0.532-1.632
				c0-0.378,0.066-0.735,0.2-1.072c0.134-0.338,0.323-0.62,0.566-0.848c0.428-0.404,0.948-0.606,1.563-0.606
				c0.365,0,0.69,0.086,0.978,0.259c0.172,0.104,0.351,0.266,0.537,0.483v-0.586h1.272V133.818z M105.188,133.818h-1.274v-6.664
				h1.274V133.818z M107.497,116.95c-1.688,1.331-3.597,1.997-5.729,1.997c-1.335,0-2.614-0.247-3.839-0.74
				s-2.271-1.181-3.136-2.062c-1.593-1.633-2.39-3.735-2.39-6.309c0-1.339,0.246-2.602,0.738-3.788s1.185-2.186,2.075-2.996
				c1.596-1.445,3.684-2.168,6.264-2.168c1.441,0,2.782,0.268,4.02,0.801c1.237,0.534,2.271,1.294,3.104,2.278
				c1.408,1.678,2.111,3.795,2.111,6.352c0,0.164-0.015,0.417-0.04,0.757H98.056c0.153,0.788,0.458,1.415,0.915,1.881
				c0.761,0.788,1.722,1.182,2.883,1.182c0.819,0,1.564-0.223,2.231-0.669c0.445-0.289,0.798-0.699,1.055-1.23l5.045,1.285
				C109.459,114.97,108.562,116.113,107.497,116.95z M111.36,130.24h-0.585v2.218c0.002,0.117,0.03,0.195,0.084,0.234
				c0.059,0.042,0.151,0.063,0.279,0.063h0.222v1.062h-1.021c-0.298,0-0.514-0.069-0.643-0.207c-0.13-0.138-0.196-0.363-0.196-0.675
				v-2.696h-0.522v-1.07h0.522v-1.242h1.274v1.242h0.585V130.24z M114.862,130.336c-0.111-0.012-0.204-0.018-0.278-0.018
				c-0.366,0-0.646,0.141-0.841,0.421c-0.088,0.131-0.142,0.27-0.162,0.416c-0.017,0.124-0.024,0.268-0.024,0.432v2.231h-1.272
				v-4.625h1.272v0.674c0.107-0.294,0.244-0.498,0.406-0.612c0.205-0.15,0.451-0.226,0.738-0.226c0.034,0,0.089,0.003,0.161,0.008
				V130.336z M120.406,133.818h-1.272v-0.635c-0.42,0.532-0.957,0.799-1.607,0.799c-0.707,0-1.275-0.263-1.704-0.787
				c-0.354-0.437-0.533-0.98-0.533-1.632c0-0.378,0.066-0.735,0.2-1.072c0.134-0.338,0.323-0.62,0.566-0.848
				c0.428-0.404,0.948-0.606,1.563-0.606c0.365,0,0.69,0.086,0.978,0.259c0.172,0.104,0.351,0.266,0.537,0.483v-0.586h1.272V133.818
				z M122.942,133.818h-1.274v-4.625h1.274V133.818z M122.772,128.415c-0.125,0.107-0.28,0.161-0.471,0.161
				c-0.214,0-0.388-0.071-0.518-0.216c-0.125-0.137-0.187-0.303-0.187-0.498c0-0.216,0.08-0.396,0.24-0.539
				c0.123-0.107,0.284-0.161,0.479-0.161c0.205,0,0.375,0.073,0.509,0.22c0.125,0.138,0.187,0.299,0.187,0.484
				C123.013,128.089,122.932,128.271,122.772,128.415z M123.501,106.531c-0.46-0.056-0.828-0.084-1.104-0.084
				c-0.541,0-1.056,0.123-1.544,0.369c-0.489,0.246-0.872,0.567-1.147,0.966c-0.346,0.516-0.518,1.394-0.518,2.635v7.843h-5.5
				v-16.688h5.5v2.251c0.358-1.062,0.822-1.799,1.399-2.213c0.677-0.483,1.464-0.726,2.363-0.726c0.112,0,0.296,0.019,0.55,0.055
				V106.531z M128.28,133.818h-1.272v-2.862c0-0.243-0.037-0.424-0.112-0.541c-0.132-0.205-0.333-0.308-0.606-0.308
				c-0.268,0-0.483,0.109-0.646,0.327c-0.111,0.149-0.166,0.342-0.166,0.575v2.809h-1.274v-4.625h1.274v0.566
				c0.149-0.238,0.3-0.408,0.449-0.51c0.221-0.147,0.487-0.221,0.796-0.221c0.47,0,0.851,0.144,1.144,0.431
				c0.183,0.18,0.299,0.388,0.348,0.626c0.046,0.222,0.067,0.491,0.067,0.807V133.818z M134.151,131.803h-3.618
				c0.042,0.256,0.134,0.464,0.272,0.624c0.241,0.282,0.554,0.423,0.938,0.423c0.267,0,0.513-0.077,0.737-0.231
				c0.141-0.096,0.251-0.221,0.333-0.375l1.162,0.322c-0.183,0.363-0.416,0.655-0.699,0.878c-0.459,0.359-0.975,0.539-1.546,0.539
				c-0.77,0-1.4-0.263-1.896-0.787c-0.417-0.44-0.625-1.006-0.625-1.696c0-0.365,0.066-0.709,0.195-1.029
				c0.13-0.321,0.312-0.593,0.547-0.814c0.445-0.417,1.012-0.626,1.699-0.626c0.82,0,1.47,0.29,1.948,0.869
				c0.371,0.452,0.556,1.001,0.556,1.646C134.155,131.605,134.154,131.692,134.151,131.803z M137.65,130.336
				c-0.111-0.012-0.203-0.018-0.278-0.018c-0.366,0-0.646,0.141-0.842,0.421c-0.088,0.131-0.142,0.27-0.161,0.416
				c-0.016,0.124-0.023,0.268-0.023,0.432v2.231h-1.273v-4.625h1.273v0.674c0.106-0.294,0.242-0.498,0.405-0.612
				c0.204-0.15,0.45-0.226,0.737-0.226c0.037,0,0.089,0.003,0.162,0.008V130.336z M141.184,133.641
				c-0.312,0.228-0.719,0.342-1.217,0.342c-0.684,0-1.188-0.209-1.515-0.627c-0.188-0.241-0.29-0.54-0.307-0.896h1.22
				c0.057,0.386,0.258,0.578,0.607,0.578c0.15,0,0.271-0.039,0.358-0.117c0.101-0.091,0.152-0.198,0.152-0.322
				c0-0.149-0.081-0.276-0.24-0.381c-0.088-0.059-0.295-0.137-0.62-0.234c-0.488-0.149-0.847-0.338-1.074-0.566
				c-0.247-0.243-0.371-0.55-0.371-0.917c0-0.505,0.203-0.891,0.61-1.157c0.321-0.208,0.716-0.312,1.18-0.312
				c0.661,0,1.147,0.214,1.463,0.643c0.163,0.222,0.25,0.508,0.259,0.857h-1.201c0.001-0.036,0.002-0.064,0.002-0.088
				c0-0.097-0.031-0.185-0.097-0.263c-0.109-0.136-0.274-0.204-0.491-0.204c-0.151,0-0.273,0.039-0.364,0.117
				c-0.095,0.081-0.142,0.179-0.142,0.293c0,0.225,0.18,0.391,0.538,0.498c0.649,0.192,1.083,0.364,1.297,0.518
				c0.354,0.254,0.532,0.614,0.532,1.083C141.764,132.972,141.571,133.357,141.184,133.641z M131.666,130.107
				c-0.365,0-0.657,0.128-0.879,0.385c-0.124,0.146-0.211,0.341-0.26,0.584h2.319c-0.041-0.243-0.129-0.438-0.263-0.584
				C132.352,130.235,132.047,130.107,131.666,130.107z"/>
		</g>
	</g>
</g>
<g id="wizzlern_logo">
	<g>
		<g>
			<path fill="#010101" d="M65.789,129.706v-2.552h1.273v6.664h-1.273v-0.605c-0.184,0.252-0.367,0.428-0.553,0.529
				c-0.289,0.16-0.623,0.24-1.001,0.24c-0.716,0-1.29-0.246-1.72-0.738c-0.381-0.434-0.57-0.999-0.57-1.696
				c0-0.796,0.247-1.423,0.742-1.883c0.455-0.424,0.98-0.636,1.572-0.636c0.297,0,0.582,0.058,0.855,0.172
				C65.336,129.296,65.561,129.464,65.789,129.706z M64.527,130.107c-0.414,0-0.74,0.186-0.982,0.557
				c-0.166,0.257-0.248,0.555-0.248,0.894c0,0.43,0.127,0.773,0.381,1.03c0.24,0.247,0.531,0.371,0.869,0.371
				c0.389,0,0.701-0.156,0.939-0.469c0.201-0.264,0.303-0.589,0.303-0.977c0-0.394-0.116-0.726-0.348-0.996
				C65.211,130.244,64.906,130.107,64.527,130.107z"/>
			<path fill="#010101" d="M72.959,131.803h-3.617c0.041,0.256,0.133,0.464,0.273,0.624c0.24,0.282,0.553,0.423,0.938,0.423
				c0.266,0,0.512-0.077,0.736-0.231c0.141-0.096,0.251-0.221,0.332-0.375l1.162,0.322c-0.182,0.363-0.414,0.655-0.697,0.878
				c-0.459,0.359-0.975,0.539-1.548,0.539c-0.769,0-1.399-0.263-1.894-0.787c-0.418-0.44-0.625-1.006-0.625-1.696
				c0-0.365,0.064-0.709,0.195-1.029c0.129-0.321,0.312-0.593,0.547-0.814c0.445-0.417,1.012-0.626,1.698-0.626
				c0.819,0,1.47,0.29,1.948,0.869c0.371,0.452,0.557,1.001,0.557,1.646C72.965,131.605,72.963,131.692,72.959,131.803z
				 M71.656,131.076c-0.043-0.243-0.131-0.438-0.264-0.584c-0.232-0.257-0.537-0.385-0.918-0.385c-0.365,0-0.658,0.128-0.879,0.385
				c-0.125,0.146-0.211,0.341-0.26,0.584H71.656z"/>
			<path fill="#010101" d="M76.941,133.818v-6.664h1.889c0.752,0,1.354,0.114,1.806,0.342c0.562,0.28,0.985,0.706,1.274,1.279
				c0.245,0.479,0.366,1.021,0.366,1.63c0,0.769-0.18,1.442-0.542,2.021c-0.575,0.928-1.518,1.392-2.826,1.392H76.941z
				 M78.309,128.264v4.422h0.264c0.494,0,0.879-0.066,1.159-0.2c0.387-0.182,0.684-0.474,0.892-0.873
				c0.175-0.339,0.263-0.725,0.263-1.157c0-0.345-0.057-0.665-0.172-0.962c-0.116-0.296-0.275-0.538-0.479-0.727
				c-0.365-0.335-0.838-0.503-1.424-0.503H78.309z"/>
			<path fill="#010101" d="M83.284,129.193h1.274v0.674c0.106-0.294,0.242-0.498,0.405-0.612c0.204-0.15,0.45-0.226,0.737-0.226
				c0.037,0,0.089,0.003,0.162,0.008v1.299c-0.112-0.012-0.204-0.018-0.279-0.018c-0.365,0-0.646,0.141-0.841,0.421
				c-0.088,0.131-0.142,0.27-0.161,0.416c-0.016,0.124-0.023,0.268-0.023,0.432v2.231h-1.274V129.193z"/>
			<path fill="#010101" d="M89.301,129.193h1.272v2.926c0,0.47-0.076,0.823-0.229,1.062c-0.18,0.273-0.442,0.48-0.787,0.621
				c-0.297,0.12-0.632,0.181-1.006,0.181c-0.659,0-1.175-0.168-1.546-0.504c-0.329-0.3-0.494-0.753-0.494-1.359v-2.926h1.273v2.843
				c0,0.198,0.047,0.379,0.143,0.541c0.128,0.219,0.337,0.327,0.628,0.327c0.268,0,0.472-0.098,0.613-0.293
				c0.088-0.12,0.133-0.284,0.133-0.492V129.193z"/>
			<path fill="#010101" d="M91.751,129.193h1.274v0.571c0.159-0.216,0.322-0.374,0.492-0.476c0.287-0.173,0.628-0.26,1.025-0.26
				c0.478,0,0.907,0.129,1.287,0.386c0.703,0.473,1.055,1.176,1.055,2.107c0,0.903-0.309,1.58-0.922,2.029
				c-0.391,0.287-0.854,0.431-1.391,0.431c-0.647,0-1.163-0.223-1.547-0.667v2.581h-1.274V129.193z M94.264,130.107
				c-0.417,0-0.746,0.181-0.991,0.542c-0.164,0.247-0.247,0.552-0.247,0.913c0,0.437,0.114,0.778,0.346,1.025
				c0.23,0.247,0.525,0.371,0.883,0.371c0.441,0,0.78-0.174,1.018-0.522c0.17-0.247,0.254-0.55,0.254-0.908
				c0-0.42-0.117-0.762-0.351-1.025C94.939,130.239,94.636,130.107,94.264,130.107z"/>
			<path fill="#010101" d="M101.38,129.779v-0.586h1.272v4.625h-1.272v-0.635c-0.421,0.532-0.957,0.799-1.607,0.799
				c-0.706,0-1.275-0.263-1.705-0.787c-0.354-0.437-0.532-0.98-0.532-1.632c0-0.378,0.066-0.735,0.2-1.072
				c0.134-0.338,0.323-0.62,0.566-0.848c0.428-0.404,0.948-0.606,1.563-0.606c0.365,0,0.69,0.086,0.978,0.259
				C101.015,129.4,101.193,129.562,101.38,129.779z M100.104,130.115c-0.382,0-0.686,0.155-0.911,0.464
				c-0.198,0.277-0.297,0.6-0.297,0.968c0,0.439,0.135,0.795,0.405,1.065c0.229,0.231,0.5,0.347,0.816,0.347
				c0.388,0,0.708-0.159,0.959-0.479c0.217-0.28,0.326-0.614,0.326-1.002c0-0.349-0.097-0.649-0.293-0.904
				C100.872,130.269,100.535,130.115,100.104,130.115z"/>
			<path fill="#010101" d="M105.188,133.818h-1.274v-6.664h1.274V133.818z"/>
			<path fill="#010101" d="M110.775,130.24v2.218c0.002,0.117,0.03,0.195,0.084,0.234c0.059,0.042,0.151,0.063,0.279,0.063h0.222
				v1.062h-1.021c-0.298,0-0.514-0.069-0.643-0.207c-0.13-0.138-0.196-0.363-0.196-0.675v-2.696h-0.522v-1.07h0.522v-1.242h1.274
				v1.242h0.585v1.07H110.775z"/>
			<path fill="#010101" d="M112.284,129.193h1.272v0.674c0.107-0.294,0.244-0.498,0.406-0.612c0.205-0.15,0.451-0.226,0.738-0.226
				c0.034,0,0.089,0.003,0.161,0.008v1.299c-0.111-0.012-0.204-0.018-0.278-0.018c-0.366,0-0.646,0.141-0.841,0.421
				c-0.088,0.131-0.142,0.27-0.162,0.416c-0.017,0.124-0.024,0.268-0.024,0.432v2.231h-1.272V129.193z"/>
			<path fill="#010101" d="M119.134,129.779v-0.586h1.272v4.625h-1.272v-0.635c-0.42,0.532-0.957,0.799-1.607,0.799
				c-0.707,0-1.275-0.263-1.704-0.787c-0.354-0.437-0.533-0.98-0.533-1.632c0-0.378,0.066-0.735,0.2-1.072
				c0.134-0.338,0.323-0.62,0.566-0.848c0.428-0.404,0.948-0.606,1.563-0.606c0.365,0,0.69,0.086,0.978,0.259
				C118.769,129.4,118.947,129.562,119.134,129.779z M117.856,130.115c-0.381,0-0.685,0.155-0.909,0.464
				c-0.199,0.277-0.299,0.6-0.299,0.968c0,0.439,0.136,0.795,0.406,1.065c0.229,0.231,0.501,0.347,0.816,0.347
				c0.389,0,0.708-0.159,0.959-0.479c0.217-0.28,0.326-0.614,0.326-1.002c0-0.349-0.097-0.649-0.293-0.904
				C118.626,130.269,118.289,130.115,117.856,130.115z"/>
			<path fill="#010101" d="M122.317,127.162c0.205,0,0.375,0.073,0.509,0.22c0.125,0.138,0.187,0.299,0.187,0.484
				c0,0.223-0.081,0.405-0.24,0.549c-0.125,0.107-0.28,0.161-0.471,0.161c-0.214,0-0.388-0.071-0.518-0.216
				c-0.125-0.137-0.187-0.303-0.187-0.498c0-0.216,0.08-0.396,0.24-0.539C121.961,127.216,122.122,127.162,122.317,127.162z
				 M122.942,129.193v4.625h-1.274v-4.625H122.942z"/>
			<path fill="#010101" d="M124.202,129.193h1.274v0.566c0.149-0.238,0.3-0.408,0.449-0.51c0.221-0.147,0.487-0.221,0.796-0.221
				c0.47,0,0.851,0.144,1.144,0.431c0.183,0.18,0.299,0.388,0.348,0.626c0.046,0.222,0.067,0.491,0.067,0.807v2.926h-1.272v-2.862
				c0-0.243-0.037-0.424-0.112-0.541c-0.132-0.205-0.333-0.308-0.606-0.308c-0.268,0-0.483,0.109-0.646,0.327
				c-0.111,0.149-0.166,0.342-0.166,0.575v2.809h-1.274V129.193z"/>
			<path fill="#010101" d="M134.151,131.803h-3.618c0.042,0.256,0.134,0.464,0.272,0.624c0.241,0.282,0.554,0.423,0.938,0.423
				c0.267,0,0.513-0.077,0.737-0.231c0.141-0.096,0.251-0.221,0.333-0.375l1.162,0.322c-0.183,0.363-0.416,0.655-0.699,0.878
				c-0.459,0.359-0.975,0.539-1.546,0.539c-0.77,0-1.4-0.263-1.896-0.787c-0.417-0.44-0.625-1.006-0.625-1.696
				c0-0.365,0.066-0.709,0.195-1.029c0.13-0.321,0.312-0.593,0.547-0.814c0.445-0.417,1.012-0.626,1.699-0.626
				c0.82,0,1.47,0.29,1.948,0.869c0.371,0.452,0.556,1.001,0.556,1.646C134.155,131.605,134.154,131.692,134.151,131.803z
				 M132.847,131.076c-0.041-0.243-0.129-0.438-0.263-0.584c-0.232-0.257-0.537-0.385-0.918-0.385c-0.365,0-0.657,0.128-0.879,0.385
				c-0.124,0.146-0.211,0.341-0.26,0.584H132.847z"/>
			<path fill="#010101" d="M135.072,129.193h1.273v0.674c0.106-0.294,0.242-0.498,0.405-0.612c0.204-0.15,0.45-0.226,0.737-0.226
				c0.037,0,0.089,0.003,0.162,0.008v1.299c-0.111-0.012-0.203-0.018-0.278-0.018c-0.366,0-0.646,0.141-0.842,0.421
				c-0.088,0.131-0.142,0.27-0.161,0.416c-0.016,0.124-0.023,0.268-0.023,0.432v2.231h-1.273V129.193z"/>
			<path fill="#010101" d="M141.689,130.529h-1.201c0.001-0.036,0.002-0.064,0.002-0.088c0-0.097-0.031-0.185-0.097-0.263
				c-0.109-0.136-0.274-0.204-0.491-0.204c-0.151,0-0.273,0.039-0.364,0.117c-0.095,0.081-0.142,0.179-0.142,0.293
				c0,0.225,0.18,0.391,0.538,0.498c0.649,0.192,1.083,0.364,1.297,0.518c0.354,0.254,0.532,0.614,0.532,1.083
				c0,0.488-0.192,0.874-0.58,1.157c-0.312,0.228-0.719,0.342-1.217,0.342c-0.684,0-1.188-0.209-1.515-0.627
				c-0.188-0.241-0.29-0.54-0.307-0.896h1.22c0.057,0.386,0.258,0.578,0.607,0.578c0.15,0,0.271-0.039,0.358-0.117
				c0.101-0.091,0.152-0.198,0.152-0.322c0-0.149-0.081-0.276-0.24-0.381c-0.088-0.059-0.295-0.137-0.62-0.234
				c-0.488-0.149-0.847-0.338-1.074-0.566c-0.247-0.243-0.371-0.55-0.371-0.917c0-0.505,0.203-0.891,0.61-1.157
				c0.321-0.208,0.716-0.312,1.18-0.312c0.661,0,1.147,0.214,1.463,0.643C141.594,129.894,141.681,130.18,141.689,130.529z"/>
		</g>
		<path fill="#010101" d="M35.941,101.572h5.537l-5.256,16.688h-5.818l-2.496-9.056l-2.479,9.056h-5.977l-5.203-16.688h5.537
			l2.936,9.144l2.443-9.144h5.238l2.602,9.144L35.941,101.572z"/>
		<rect x="43.342" y="101.572" fill="#010101" width="5.5" height="16.688"/>
		<path fill="#010101" d="M59.699,113.697h5.885v4.562H51.262l6.218-12.125h-5.708v-4.562H65.9L59.699,113.697z"/>
		<path fill="#010101" d="M75.186,113.697h5.885v4.562H66.748l6.218-12.125h-5.708v-4.562h14.128L75.186,113.697z"/>
		<path fill="#010101" d="M89.359,118.26h-5.5v-24h5.5V118.26z"/>
		<path fill="#010101" d="M110.677,111.072H98.056c0.153,0.788,0.458,1.415,0.915,1.881c0.761,0.788,1.722,1.182,2.883,1.182
			c0.819,0,1.564-0.223,2.231-0.669c0.445-0.289,0.798-0.699,1.055-1.23l5.045,1.285c-0.726,1.449-1.622,2.593-2.688,3.43
			c-1.688,1.331-3.597,1.997-5.729,1.997c-1.335,0-2.614-0.247-3.839-0.74s-2.271-1.181-3.136-2.062
			c-1.593-1.633-2.39-3.735-2.39-6.309c0-1.339,0.246-2.602,0.738-3.788s1.185-2.186,2.075-2.996
			c1.596-1.445,3.684-2.168,6.264-2.168c1.441,0,2.782,0.268,4.02,0.801c1.237,0.534,2.271,1.294,3.104,2.278
			c1.408,1.678,2.111,3.795,2.111,6.352C110.717,110.479,110.702,110.732,110.677,111.072z M105.105,108.135
			c-0.153-0.734-0.458-1.314-0.914-1.74c-0.715-0.631-1.618-0.947-2.707-0.947c-1.032,0-1.881,0.311-2.55,0.931
			c-0.468,0.437-0.779,1.022-0.931,1.757H105.105z"/>
		<path fill="#010101" d="M113.688,101.572h5.5v2.251c0.358-1.062,0.822-1.799,1.399-2.213c0.677-0.483,1.464-0.726,2.363-0.726
			c0.112,0,0.296,0.019,0.55,0.055v5.592c-0.46-0.056-0.828-0.084-1.104-0.084c-0.541,0-1.056,0.123-1.544,0.369
			c-0.489,0.246-0.872,0.567-1.147,0.966c-0.346,0.516-0.518,1.394-0.518,2.635v7.843h-5.5V101.572z"/>
		<path fill="#010101" d="M125.817,101.572h5.5v1.899c0.503-0.886,1.003-1.494,1.505-1.825c0.745-0.508,1.659-0.762,2.744-0.762
			c1.747,0,3.16,0.541,4.231,1.622c0.665,0.67,1.082,1.446,1.258,2.327c0.175,0.882,0.262,1.945,0.262,3.191v10.234h-5.5v-10.182
			c0-0.654-0.104-1.163-0.31-1.526c-0.402-0.736-1.041-1.104-1.915-1.104c-0.838,0-1.471,0.357-1.896,1.07
			c-0.252,0.409-0.38,0.953-0.38,1.631v10.111h-5.5V101.572z"/>
		<g>
			<path fill="#010101" d="M46.158,89.017c1.303,0,2.365,0.442,3.187,1.325c0.785,0.849,1.179,1.863,1.179,3.047
				c0,1.396-0.51,2.525-1.527,3.391c-0.768,0.672-1.74,1.007-2.918,1.007c-1.339,0-2.418-0.441-3.238-1.325
				c-0.787-0.847-1.18-1.88-1.18-3.1c0-1.359,0.509-2.471,1.527-3.337C43.954,89.354,44.943,89.017,46.158,89.017z"/>
			<polygon fill="#010101" points="46.047,94.075 42.554,90.584 46.047,85.21 49.541,90.584 			"/>
		</g>
	</g>
	<g>
		<g>
			<g>
				<g>
					<path fill="none" stroke="#010101" stroke-width="2.8346" d="M49.438,73.279c-0.314-1.259-1.168-2.229-2.245-2.765
						l-0.843-3.362c1.083-0.838,1.632-2.263,1.277-3.677l-5.465-21.79c-0.478-1.906-2.409-3.064-4.314-2.586l-2.594,0.65
						c-1.906,0.478-3.063,2.41-2.586,4.316l5.465,21.79c0.354,1.414,1.51,2.412,2.861,2.64l0.843,3.361
						c-0.696,0.981-0.991,2.238-0.676,3.497c0.573,2.286,2.892,3.675,5.176,3.102C48.623,77.883,50.012,75.565,49.438,73.279z"/>
				</g>
			</g>
			<g>
				<g>
					<path fill="#010101" d="M49.263,42.634l-1.833-7.312c-0.507-2.019-2.589-3.236-4.651-2.719L27.84,36.349
						c-2.062,0.518-3.322,2.573-2.816,4.593l1.832,7.311c0.506,2.02,2.589,3.237,4.652,2.72l14.938-3.745
						C48.508,46.709,49.77,44.653,49.263,42.634z M46.482,45.327c-0.467,0.118-0.977-0.307-1.137-0.946l-2.098-8.361
						c-0.161-0.641,0.088-1.254,0.556-1.371c0.469-0.118,0.978,0.306,1.138,0.945l2.1,8.362
						C47.201,44.597,46.951,45.211,46.482,45.327z"/>
				</g>
			</g>
			<g>
				<g>
					<path fill="#010101" d="M42.346,39.059l-2.971-11.844c-0.478-1.906-2.645-3.004-4.84-2.454l-3.127,0.784
						c-2.195,0.551-3.588,2.541-3.109,4.447l2.97,11.844c0.478,1.906,2.644,3.004,4.839,2.453l3.129-0.784
						C41.431,42.954,42.823,40.964,42.346,39.059z M37.947,32.873c-0.467,0.117-0.977-0.307-1.138-0.947l-1.117-4.451
						c-0.161-0.64,0.089-1.254,0.556-1.371c0.47-0.117,0.979,0.307,1.139,0.947l1.118,4.451
						C38.666,32.142,38.416,32.756,37.947,32.873z"/>
				</g>
			</g>
		</g>
		<g>
			<g>
				<path fill="#010101" d="M65.789,129.706v-2.552h1.273v6.664h-1.273v-0.605c-0.184,0.252-0.367,0.428-0.553,0.529
					c-0.289,0.16-0.623,0.24-1.001,0.24c-0.716,0-1.29-0.246-1.72-0.738c-0.381-0.434-0.57-0.999-0.57-1.696
					c0-0.796,0.247-1.423,0.742-1.883c0.455-0.424,0.98-0.636,1.572-0.636c0.297,0,0.582,0.058,0.855,0.172
					C65.336,129.296,65.561,129.464,65.789,129.706z M64.527,130.107c-0.414,0-0.74,0.186-0.982,0.557
					c-0.166,0.257-0.248,0.555-0.248,0.894c0,0.43,0.127,0.773,0.381,1.03c0.24,0.247,0.531,0.371,0.869,0.371
					c0.389,0,0.701-0.156,0.939-0.469c0.201-0.264,0.303-0.589,0.303-0.977c0-0.394-0.116-0.726-0.348-0.996
					C65.211,130.244,64.906,130.107,64.527,130.107z"/>
				<path fill="#010101" d="M72.959,131.803h-3.617c0.041,0.256,0.133,0.464,0.273,0.624c0.24,0.282,0.553,0.423,0.938,0.423
					c0.266,0,0.512-0.077,0.736-0.231c0.141-0.096,0.251-0.221,0.332-0.375l1.162,0.322c-0.182,0.363-0.414,0.655-0.697,0.878
					c-0.459,0.359-0.975,0.539-1.548,0.539c-0.769,0-1.399-0.263-1.894-0.787c-0.418-0.44-0.625-1.006-0.625-1.696
					c0-0.365,0.064-0.709,0.195-1.029c0.129-0.321,0.312-0.593,0.547-0.814c0.445-0.417,1.012-0.626,1.698-0.626
					c0.819,0,1.47,0.29,1.948,0.869c0.371,0.452,0.557,1.001,0.557,1.646C72.965,131.605,72.963,131.692,72.959,131.803z
					 M71.656,131.076c-0.043-0.243-0.131-0.438-0.264-0.584c-0.232-0.257-0.537-0.385-0.918-0.385c-0.365,0-0.658,0.128-0.879,0.385
					c-0.125,0.146-0.211,0.341-0.26,0.584H71.656z"/>
				<path fill="#010101" d="M76.941,133.818v-6.664h1.889c0.752,0,1.354,0.114,1.806,0.342c0.562,0.28,0.985,0.706,1.274,1.279
					c0.245,0.479,0.366,1.021,0.366,1.63c0,0.769-0.18,1.442-0.542,2.021c-0.575,0.928-1.518,1.392-2.826,1.392H76.941z
					 M78.309,128.264v4.422h0.264c0.494,0,0.879-0.066,1.159-0.2c0.387-0.182,0.684-0.474,0.892-0.873
					c0.175-0.339,0.263-0.725,0.263-1.157c0-0.345-0.057-0.665-0.172-0.962c-0.116-0.296-0.275-0.538-0.479-0.727
					c-0.365-0.335-0.838-0.503-1.424-0.503H78.309z"/>
				<path fill="#010101" d="M83.284,129.193h1.274v0.674c0.106-0.294,0.242-0.498,0.405-0.612c0.204-0.15,0.45-0.226,0.737-0.226
					c0.037,0,0.089,0.003,0.162,0.008v1.299c-0.112-0.012-0.204-0.018-0.279-0.018c-0.365,0-0.646,0.141-0.841,0.421
					c-0.088,0.131-0.142,0.27-0.161,0.416c-0.016,0.124-0.023,0.268-0.023,0.432v2.231h-1.274V129.193z"/>
				<path fill="#010101" d="M89.301,129.193h1.272v2.926c0,0.47-0.076,0.823-0.229,1.062c-0.18,0.273-0.442,0.48-0.787,0.621
					c-0.297,0.12-0.632,0.181-1.006,0.181c-0.659,0-1.175-0.168-1.546-0.504c-0.329-0.3-0.494-0.753-0.494-1.359v-2.926h1.273v2.843
					c0,0.198,0.047,0.379,0.143,0.541c0.128,0.219,0.337,0.327,0.628,0.327c0.268,0,0.472-0.098,0.613-0.293
					c0.088-0.12,0.133-0.284,0.133-0.492V129.193z"/>
				<path fill="#010101" d="M91.751,129.193h1.274v0.571c0.159-0.216,0.322-0.374,0.492-0.476c0.287-0.173,0.628-0.26,1.025-0.26
					c0.478,0,0.907,0.129,1.287,0.386c0.703,0.473,1.055,1.176,1.055,2.107c0,0.903-0.309,1.58-0.922,2.029
					c-0.391,0.287-0.854,0.431-1.391,0.431c-0.647,0-1.163-0.223-1.547-0.667v2.581h-1.274V129.193z M94.264,130.107
					c-0.417,0-0.746,0.181-0.991,0.542c-0.164,0.247-0.247,0.552-0.247,0.913c0,0.437,0.114,0.778,0.346,1.025
					c0.23,0.247,0.525,0.371,0.883,0.371c0.441,0,0.78-0.174,1.018-0.522c0.17-0.247,0.254-0.55,0.254-0.908
					c0-0.42-0.117-0.762-0.351-1.025C94.939,130.239,94.636,130.107,94.264,130.107z"/>
				<path fill="#010101" d="M101.38,129.779v-0.586h1.272v4.625h-1.272v-0.635c-0.421,0.532-0.957,0.799-1.607,0.799
					c-0.706,0-1.275-0.263-1.705-0.787c-0.354-0.437-0.532-0.98-0.532-1.632c0-0.378,0.066-0.735,0.2-1.072
					c0.134-0.338,0.323-0.62,0.566-0.848c0.428-0.404,0.948-0.606,1.563-0.606c0.365,0,0.69,0.086,0.978,0.259
					C101.015,129.4,101.193,129.562,101.38,129.779z M100.104,130.115c-0.382,0-0.686,0.155-0.911,0.464
					c-0.198,0.277-0.297,0.6-0.297,0.968c0,0.439,0.135,0.795,0.405,1.065c0.229,0.231,0.5,0.347,0.816,0.347
					c0.388,0,0.708-0.159,0.959-0.479c0.217-0.28,0.326-0.614,0.326-1.002c0-0.349-0.097-0.649-0.293-0.904
					C100.872,130.269,100.535,130.115,100.104,130.115z"/>
				<path fill="#010101" d="M105.188,133.818h-1.274v-6.664h1.274V133.818z"/>
				<path fill="#010101" d="M110.775,130.24v2.218c0.002,0.117,0.03,0.195,0.084,0.234c0.059,0.042,0.151,0.063,0.279,0.063h0.222
					v1.062h-1.021c-0.298,0-0.514-0.069-0.643-0.207c-0.13-0.138-0.196-0.363-0.196-0.675v-2.696h-0.522v-1.07h0.522v-1.242h1.274
					v1.242h0.585v1.07H110.775z"/>
				<path fill="#010101" d="M112.284,129.193h1.272v0.674c0.107-0.294,0.244-0.498,0.406-0.612c0.205-0.15,0.451-0.226,0.738-0.226
					c0.034,0,0.089,0.003,0.161,0.008v1.299c-0.111-0.012-0.204-0.018-0.278-0.018c-0.366,0-0.646,0.141-0.841,0.421
					c-0.088,0.131-0.142,0.27-0.162,0.416c-0.017,0.124-0.024,0.268-0.024,0.432v2.231h-1.272V129.193z"/>
				<path fill="#010101" d="M119.134,129.779v-0.586h1.272v4.625h-1.272v-0.635c-0.42,0.532-0.957,0.799-1.607,0.799
					c-0.707,0-1.275-0.263-1.704-0.787c-0.354-0.437-0.533-0.98-0.533-1.632c0-0.378,0.066-0.735,0.2-1.072
					c0.134-0.338,0.323-0.62,0.566-0.848c0.428-0.404,0.948-0.606,1.563-0.606c0.365,0,0.69,0.086,0.978,0.259
					C118.769,129.4,118.947,129.562,119.134,129.779z M117.856,130.115c-0.381,0-0.685,0.155-0.909,0.464
					c-0.199,0.277-0.299,0.6-0.299,0.968c0,0.439,0.136,0.795,0.406,1.065c0.229,0.231,0.501,0.347,0.816,0.347
					c0.389,0,0.708-0.159,0.959-0.479c0.217-0.28,0.326-0.614,0.326-1.002c0-0.349-0.097-0.649-0.293-0.904
					C118.626,130.269,118.289,130.115,117.856,130.115z"/>
				<path fill="#010101" d="M122.317,127.162c0.205,0,0.375,0.073,0.509,0.22c0.125,0.138,0.187,0.299,0.187,0.484
					c0,0.223-0.081,0.405-0.24,0.549c-0.125,0.107-0.28,0.161-0.471,0.161c-0.214,0-0.388-0.071-0.518-0.216
					c-0.125-0.137-0.187-0.303-0.187-0.498c0-0.216,0.08-0.396,0.24-0.539C121.961,127.216,122.122,127.162,122.317,127.162z
					 M122.942,129.193v4.625h-1.274v-4.625H122.942z"/>
				<path fill="#010101" d="M124.202,129.193h1.274v0.566c0.149-0.238,0.3-0.408,0.449-0.51c0.221-0.147,0.487-0.221,0.796-0.221
					c0.47,0,0.851,0.144,1.144,0.431c0.183,0.18,0.299,0.388,0.348,0.626c0.046,0.222,0.067,0.491,0.067,0.807v2.926h-1.272v-2.862
					c0-0.243-0.037-0.424-0.112-0.541c-0.132-0.205-0.333-0.308-0.606-0.308c-0.268,0-0.483,0.109-0.646,0.327
					c-0.111,0.149-0.166,0.342-0.166,0.575v2.809h-1.274V129.193z"/>
				<path fill="#010101" d="M134.151,131.803h-3.618c0.042,0.256,0.134,0.464,0.272,0.624c0.241,0.282,0.554,0.423,0.938,0.423
					c0.267,0,0.513-0.077,0.737-0.231c0.141-0.096,0.251-0.221,0.333-0.375l1.162,0.322c-0.183,0.363-0.416,0.655-0.699,0.878
					c-0.459,0.359-0.975,0.539-1.546,0.539c-0.77,0-1.4-0.263-1.896-0.787c-0.417-0.44-0.625-1.006-0.625-1.696
					c0-0.365,0.066-0.709,0.195-1.029c0.13-0.321,0.312-0.593,0.547-0.814c0.445-0.417,1.012-0.626,1.699-0.626
					c0.82,0,1.47,0.29,1.948,0.869c0.371,0.452,0.556,1.001,0.556,1.646C134.155,131.605,134.154,131.692,134.151,131.803z
					 M132.847,131.076c-0.041-0.243-0.129-0.438-0.263-0.584c-0.232-0.257-0.537-0.385-0.918-0.385
					c-0.365,0-0.657,0.128-0.879,0.385c-0.124,0.146-0.211,0.341-0.26,0.584H132.847z"/>
				<path fill="#010101" d="M135.072,129.193h1.273v0.674c0.106-0.294,0.242-0.498,0.405-0.612c0.204-0.15,0.45-0.226,0.737-0.226
					c0.037,0,0.089,0.003,0.162,0.008v1.299c-0.111-0.012-0.203-0.018-0.278-0.018c-0.366,0-0.646,0.141-0.842,0.421
					c-0.088,0.131-0.142,0.27-0.161,0.416c-0.016,0.124-0.023,0.268-0.023,0.432v2.231h-1.273V129.193z"/>
				<path fill="#010101" d="M141.689,130.529h-1.201c0.001-0.036,0.002-0.064,0.002-0.088c0-0.097-0.031-0.185-0.097-0.263
					c-0.109-0.136-0.274-0.204-0.491-0.204c-0.151,0-0.273,0.039-0.364,0.117c-0.095,0.081-0.142,0.179-0.142,0.293
					c0,0.225,0.18,0.391,0.538,0.498c0.649,0.192,1.083,0.364,1.297,0.518c0.354,0.254,0.532,0.614,0.532,1.083
					c0,0.488-0.192,0.874-0.58,1.157c-0.312,0.228-0.719,0.342-1.217,0.342c-0.684,0-1.188-0.209-1.515-0.627
					c-0.188-0.241-0.29-0.54-0.307-0.896h1.22c0.057,0.386,0.258,0.578,0.607,0.578c0.15,0,0.271-0.039,0.358-0.117
					c0.101-0.091,0.152-0.198,0.152-0.322c0-0.149-0.081-0.276-0.24-0.381c-0.088-0.059-0.295-0.137-0.62-0.234
					c-0.488-0.149-0.847-0.338-1.074-0.566c-0.247-0.243-0.371-0.55-0.371-0.917c0-0.505,0.203-0.891,0.61-1.157
					c0.321-0.208,0.716-0.312,1.18-0.312c0.661,0,1.147,0.214,1.463,0.643C141.594,129.894,141.681,130.18,141.689,130.529z"/>
			</g>
			<path fill="#010101" d="M35.941,101.572h5.537l-5.256,16.688h-5.818l-2.496-9.056l-2.479,9.056h-5.977l-5.203-16.688h5.537
				l2.936,9.144l2.443-9.144h5.238l2.602,9.144L35.941,101.572z"/>
			<rect x="43.342" y="101.572" fill="#010101" width="5.5" height="16.688"/>
			<path fill="#010101" d="M59.699,113.697h5.885v4.562H51.262l6.218-12.125h-5.708v-4.562H65.9L59.699,113.697z"/>
			<path fill="#010101" d="M75.186,113.697h5.885v4.562H66.748l6.218-12.125h-5.708v-4.562h14.128L75.186,113.697z"/>
			<path fill="#010101" d="M89.359,118.26h-5.5v-24h5.5V118.26z"/>
			<path fill="#010101" d="M110.677,111.072H98.056c0.153,0.788,0.458,1.415,0.915,1.881c0.761,0.788,1.722,1.182,2.883,1.182
				c0.819,0,1.564-0.223,2.231-0.669c0.445-0.289,0.798-0.699,1.055-1.23l5.045,1.285c-0.726,1.449-1.622,2.593-2.688,3.43
				c-1.688,1.331-3.597,1.997-5.729,1.997c-1.335,0-2.614-0.247-3.839-0.74s-2.271-1.181-3.136-2.062
				c-1.593-1.633-2.39-3.735-2.39-6.309c0-1.339,0.246-2.602,0.738-3.788s1.185-2.186,2.075-2.996
				c1.596-1.445,3.684-2.168,6.264-2.168c1.441,0,2.782,0.268,4.02,0.801c1.237,0.534,2.271,1.294,3.104,2.278
				c1.408,1.678,2.111,3.795,2.111,6.352C110.717,110.479,110.702,110.732,110.677,111.072z M105.105,108.135
				c-0.153-0.734-0.458-1.314-0.914-1.74c-0.715-0.631-1.618-0.947-2.707-0.947c-1.032,0-1.881,0.311-2.55,0.931
				c-0.468,0.437-0.779,1.022-0.931,1.757H105.105z"/>
			<path fill="#010101" d="M113.688,101.572h5.5v2.251c0.358-1.062,0.822-1.799,1.399-2.213c0.677-0.483,1.464-0.726,2.363-0.726
				c0.112,0,0.296,0.019,0.55,0.055v5.592c-0.46-0.056-0.828-0.084-1.104-0.084c-0.541,0-1.056,0.123-1.544,0.369
				c-0.489,0.246-0.872,0.567-1.147,0.966c-0.346,0.516-0.518,1.394-0.518,2.635v7.843h-5.5V101.572z"/>
			<path fill="#010101" d="M125.817,101.572h5.5v1.899c0.503-0.886,1.003-1.494,1.505-1.825c0.745-0.508,1.659-0.762,2.744-0.762
				c1.747,0,3.16,0.541,4.231,1.622c0.665,0.67,1.082,1.446,1.258,2.327c0.175,0.882,0.262,1.945,0.262,3.191v10.234h-5.5v-10.182
				c0-0.654-0.104-1.163-0.31-1.526c-0.402-0.736-1.041-1.104-1.915-1.104c-0.838,0-1.471,0.357-1.896,1.07
				c-0.252,0.409-0.38,0.953-0.38,1.631v10.111h-5.5V101.572z"/>
			<g>
				<path fill="#010101" d="M46.158,89.017c1.303,0,2.365,0.442,3.187,1.325c0.785,0.849,1.179,1.863,1.179,3.047
					c0,1.396-0.51,2.525-1.527,3.391c-0.768,0.672-1.74,1.007-2.918,1.007c-1.339,0-2.418-0.441-3.238-1.325
					c-0.787-0.847-1.18-1.88-1.18-3.1c0-1.359,0.509-2.471,1.527-3.337C43.954,89.354,44.943,89.017,46.158,89.017z"/>
				<polygon fill="#010101" points="46.047,94.075 42.554,90.584 46.047,85.21 49.541,90.584 				"/>
			</g>
		</g>
	</g>
</g>
</svg>
