<?xml version="1.0" encoding="utf-8"?>
<!-- Generator: Adobe Illustrator 16.0.0, SVG Export Plug-In . SVG Version: 6.00 Build 0)  -->
<!DOCTYPE svg PUBLIC "-//W3C//DTD SVG 1.1//EN" "http://www.w3.org/Graphics/SVG/1.1/DTD/svg11.dtd">
<svg version="1.1" id="Layer_1" xmlns="http://www.w3.org/2000/svg" xmlns:xlink="http://www.w3.org/1999/xlink" x="0px" y="0px"
	 width="590.547px" height="338.413px" viewBox="0 0 590.547 338.413" enable-background="new 0 0 590.547 338.413"
	 xml:space="preserve">
<rect y="0.004" fill="none" width="590.545" height="338.406"/>
<rect fill="none" width="590.542" height="338.41"/>
<path fill="#E36455" d="M271.195,42.045c-3.604,2.3-11.964,8.77-11.401,9.587c0.555,0.823,2.271-0.477,5.209-2.153
	c8.262-4.725,27.328-9.573,35.081,12.176c1.688,4.728,3.841,14.399,4.606,15.974c0.562,1.174,2.475,2.058,3.957,1.538
	c1.491-0.518,2.271-1.628,2.213-3.22c-0.297-8.166-4.799-30.124,12.192-45.447c7.561-6.831,17.022-7.029,16.368-8.505
	c-1.68-3.809-22.401-1.194-34.942,13.889C296.851,7.509,283.826,2.96,278.87,4.022c-4.958,1.065,8-1.74,14.692,35.299
	C293.562,39.321,284.026,33.859,271.195,42.045"/>
<rect fill="none" width="590.542" height="338.41"/>
<path fill="#E36455" d="M522.453,0.065C418.621-3.13,270.906,113.192,119.385,216.036c0,0-32.027,21.182-54.359,14.016
	c-7.215-2.316-13.209-5.045-18.128-7.684c-0.342-2.079-0.588-5.533,0.132-10.339c1.255-8.382,1.724-14.031-2.238-17.985
	c-3.958-3.954-4.423,1.432-5.903,3.35c-1.291,1.673-4.72,3.471-9.229,11.506c-0.194,0.346-0.611,1.521-0.331,3.158
	c0.028,0.474-0.02,0.776-0.175,0.877c-0.289,0.179-0.547,0.17-1.332,0.121c-0.001,0.005-0.001,0.012-0.002,0.017
	c-1.111-0.042-2,0.206-2.518,0.347c-11.888,3.215-17.348,9.583-19.366,10.723c-2.311,1.315-8.496-0.166-4.767,4.687
	c3.729,4.859,17.64,5.242,26.973,5.141c5.962-0.062,9.582,1.56,11.425,2.742c4.743,4.989,11.251,10.309,20.103,15.55
	c38.17,18.689,84.997,25.987,109.182,30.279c2.891,0.513,7.965,1.436,14.765,2.683c0.734,2.911,1.283,7.058,1.107,12.851
	c-0.126,4.232-0.395,13.72,4.939,12.498c9.103-2.085,13.927-4.467,18.791-9.854c2.745-3.037,4.415-6.679,5.432-9.918
	c83.031,15.341,245.965,45.662,254.744,47.006c13.66,2.087,45.883-1.344,61.756-8.071c2.484-1.062,4.842-3.063,6.453-5.352
	c1.877-2.652,2.846-5.631,3.212-7.203c-0.003,0,45.103-194.233,45.103-194.233S617.804,2.996,522.453,0.065z"/>
<path fill="none" d="M358.788,294.791c2.419,0.442,4.616-0.019,6.579-1.388c1.951-1.371,3.164-3.261,3.629-5.683l22.425-117.333
	c-5.733,1.919-11.455,3.918-17.146,5.977l-22.327,117.162C351.948,293.526,355.936,294.271,358.788,294.791z"/>
<path fill="none" d="M414.156,300.309c1.509,2.197,3.613,3.538,6.311,4.031c2.689,0.496,9.627,1.765,9.627,1.765l28.999-153.397
	c-6.743,1.14-13.587,2.527-20.501,4.131l-25.928,136.142C412.151,295.669,412.646,298.108,414.156,300.309z"/>
<path fill="none" d="M323.104,285.657c1.353,1.978,3.244,3.189,5.674,3.632c2.424,0.444,8.67,1.589,8.67,1.589l20.68-108.491
	c-6.562,2.516-13.057,5.083-19.447,7.668l-16.92,89.007C321.293,281.483,321.746,283.681,323.104,285.657z"/>
<path fill="none" d="M274.086,281.035c2.157,0.394,4.103-0.012,5.844-1.233c1.739-1.221,2.815-2.902,3.229-5.05l12.567-66.646
	c-5.308,2.289-10.459,4.521-15.436,6.67l-12.283,65.135C268.009,279.911,271.553,280.566,274.086,281.035z"/>
<path fill="none" d="M242.363,272.918c1.209,1.756,2.892,2.83,5.045,3.227c2.161,0.391,7.706,1.413,7.706,1.413l10.667-56.55
	c-6.212,2.643-12.041,5.075-17.438,7.239l-7.167,38.812C240.758,269.21,241.162,271.156,242.363,272.918z"/>
<path fill="none" d="M453.809,310.452c2.693,0.495,5.132-0.014,7.307-1.542c2.174-1.522,3.518-3.623,4.033-6.31l28.834-153.363
	c-5.791,0.104-11.727,0.484-17.78,1.112L446.2,309.046C446.2,309.046,450.641,309.872,453.809,310.452z"/>
<path fill="none" d="M139.415,258.528c0.866,1.261,2.075,2.038,3.626,2.322c1.549,0.283,5.54,1.015,5.54,1.015l4.375-23.079
	c-4.225-1.105-7.818-2.335-10.793-3.515l-3.606,19.042C138.26,255.86,138.549,257.263,139.415,258.528z"/>
<path fill="none" d="M162.223,264.369c1.547,0.28,2.945-0.011,4.2-0.885c1.25-0.884,2.026-2.093,2.318-3.638l3.356-17.824
	c-3.536-0.3-6.84-0.735-9.924-1.261l-4.326,22.798C157.846,263.56,160.396,264.029,162.223,264.369z"/>
<path fill="#FFFFFF" d="M524.83,151.808l-26.65,142.368c3.482,1.032,10.281,2.58,19.271,2.353
	c11.487-0.295,18.736-2.406,22.381-3.832c6.445-28.398,17.74-78.569,24.385-108.11C566.642,167.027,538.074,154.662,524.83,151.808z
	"/>
<path fill="#FFFFFF" d="M496.203,304.735l-1.083,5.788c-1.975,10.43,1.444,19.456,9.618,18.867
	c4.211-0.477,6.295-0.769,10.072-1.567c3.898-0.773,3.914-0.875,10.242-2.409c6.338-1.538,8.579-6.237,9.962-11.737
	c0.291-1.151,1.394-5.939,3.032-13.132c-4.152,1.793-12.494,4.802-22.396,5.161C506.076,306.048,499.549,305.29,496.203,304.735z"/>
<path fill="#FFFFFF" d="M493.982,149.238l-28.834,153.363c-0.516,2.687-1.859,4.787-4.033,6.31
	c-2.175,1.528-4.613,2.037-7.307,1.542c-3.168-0.58-7.608-1.406-7.608-1.406l30.002-158.696c-5.61,0.582-11.322,1.379-17.109,2.357
	l-28.999,153.397c0,0-6.938-1.269-9.627-1.765c-2.697-0.493-4.802-1.834-6.311-4.031c-1.51-2.2-2.005-4.64-1.492-7.329
	l25.928-136.142c-5.802,1.346-11.651,2.845-17.525,4.465l-24.519,128.749c-1.392,7.265-0.088,13.804,3.902,19.602
	c3.987,5.808,9.632,9.379,16.941,10.713c6.278,1.146,27.003,4.945,33.358,6.113c7.229,1.325,13.775-0.03,19.646-4.064
	c5.859-4.039,9.48-9.649,10.855-16.837l29.297-155.811C505.186,149.305,499.655,149.136,493.982,149.238z"/>
<path fill="#FFFFFF" d="M368.996,287.721c-0.465,2.422-1.678,4.312-3.629,5.683c-1.963,1.369-4.16,1.83-6.579,1.388
	c-2.853-0.521-6.84-1.265-6.84-1.265l22.327-117.162c-5.418,1.96-10.805,3.975-16.148,6.022l-20.68,108.491
	c0,0-6.246-1.145-8.67-1.589c-2.43-0.442-4.321-1.654-5.674-3.632c-1.357-1.977-1.811-4.174-1.344-6.596l16.92-89.007
	c-5.51,2.228-10.943,4.468-16.279,6.699l-15.137,79.675c-1.254,6.539-0.082,12.418,3.506,17.641
	c3.581,5.229,8.675,8.437,15.248,9.641c5.643,1.035,24.299,4.459,30.015,5.503c6.506,1.192,12.403-0.026,17.685-3.659
	c5.275-3.632,8.538-8.681,9.77-15.154l23.918-125.128c-5.327,1.625-10.66,3.335-15.983,5.117L368.996,287.721z"/>
<path fill="#FFFFFF" d="M283.16,274.752c-0.415,2.147-1.491,3.829-3.229,5.05c-1.742,1.222-3.688,1.627-5.844,1.233
	c-2.533-0.469-6.077-1.124-6.077-1.124l12.283-65.135c-5.026,2.171-9.876,4.26-14.511,6.231l-10.667,56.55
	c0,0-5.544-1.022-7.706-1.413c-2.153-0.396-3.836-1.471-5.045-3.227c-1.201-1.762-1.605-3.708-1.188-5.859l7.167-38.812
	c-5.202,2.087-10.001,3.921-14.329,5.437l-5.733,31.029c-1.106,5.814-0.066,11.041,3.122,15.687
	c3.188,4.641,7.708,7.491,13.558,8.565c5.017,0.914,21.599,3.962,26.685,4.894c5.778,1.057,11.02-0.026,15.709-3.259
	c4.699-3.227,7.591-7.718,8.689-13.469l14.182-75.24c-4.942,2.104-9.78,4.181-14.499,6.216L283.16,274.752z"/>
<path fill="#FFFFFF" d="M168.741,259.847c-0.292,1.545-1.068,2.754-2.318,3.638c-1.255,0.874-2.653,1.165-4.2,0.885
	c-1.826-0.34-4.376-0.81-4.376-0.81l4.326-22.798c-3.339-0.569-6.415-1.243-9.216-1.976l-4.375,23.079c0,0-3.991-0.731-5.54-1.015
	c-1.551-0.284-2.76-1.062-3.626-2.322c-0.866-1.266-1.155-2.668-0.858-4.215l3.606-19.042c-4.201-1.667-7.162-3.229-8.795-4.18
	l-4.082,21.539c-0.794,4.177-0.048,7.938,2.246,11.275c2.294,3.337,5.537,5.389,9.747,6.159c3.606,0.664,15.529,2.85,19.18,3.52
	c4.162,0.762,7.928-0.015,11.304-2.344c3.37-2.315,5.457-5.546,6.248-9.688l3.592-19.097c-3.323-0.036-6.503-0.181-9.506-0.435
	L168.741,259.847z"/>
<path fill="#FFFFFF" d="M208.484,203.564c5.015,0,9.251,1.694,12.69,5.091c3.441,3.393,5.161,7.589,5.161,12.573
	c0,4.994-1.719,9.193-5.161,12.613c-3.439,3.423-7.675,5.126-12.69,5.126c-5.02,0-9.237-1.703-12.659-5.126
	c-3.411-3.42-5.119-7.619-5.119-12.613c0-4.984,1.708-9.181,5.119-12.573C199.247,205.259,203.464,203.564,208.484,203.564
	 M208.484,212.935c-2.32,0-4.292,0.805-5.916,2.421c-1.619,1.612-2.433,3.574-2.433,5.873c0,2.308,0.814,4.278,2.433,5.913
	c1.624,1.64,3.596,2.451,5.916,2.451c2.318,0,4.306-0.812,5.944-2.451c1.654-1.635,2.471-3.605,2.471-5.913
	c0-2.299-0.817-4.261-2.471-5.873C212.79,213.739,210.802,212.935,208.484,212.935"/>
</svg>
