<?xml version="1.0" encoding="utf-8"?>
<!-- Generator: Adobe Illustrator 16.0.0, SVG Export Plug-In . SVG Version: 6.00 Build 0)  -->
<!DOCTYPE svg PUBLIC "-//W3C//DTD SVG 1.1//EN" "http://www.w3.org/Graphics/SVG/1.1/DTD/svg11.dtd">
<svg version="1.1" id="Layer_1" xmlns="http://www.w3.org/2000/svg" xmlns:xlink="http://www.w3.org/1999/xlink" x="0px" y="0px"
	 width="22.07px" height="33.334px" viewBox="0 0 22.07 33.334" enable-background="new 0 0 22.07 33.334" xml:space="preserve">
<path fill="#7ED0E0" d="M18.678,5.858c0.005-0.074,0.012-0.147,0.012-0.223c0-1.596-1.329-2.891-2.972-2.891
	c-0.658,0-1.265,0.211-1.757,0.564C13.119,1.364,11.143,0,8.841,0C5.775,0,3.288,2.42,3.288,5.404c0,0.142,0.012,0.281,0.023,0.419
	C1.411,6.266,0,7.924,0,9.909c0,1.719,1.062,3.281,2.581,3.934l7.106-0.001l0.033-1.153l0.001-0.038l-0.027-0.03L7.035,9.762
	C6.916,9.64,6.916,9.448,7.033,9.33c0.058-0.057,0.134-0.089,0.214-0.089c0.082,0,0.158,0.032,0.215,0.089l2.16,1.965l0.149,0.134
	l0.009-0.201l0.075-1.832l0.002-0.039L9.831,9.329L8.266,7.607C8.203,7.546,8.172,7.469,8.172,7.389
	c0-0.081,0.031-0.157,0.091-0.215C8.32,7.116,8.395,7.085,8.478,7.085c0.079,0,0.155,0.031,0.215,0.089L9.751,8.14l0.151,0.136
	L9.91,8.074l0.095-2.288c0-0.226,0.18-0.407,0.402-0.407c0.221,0,0.4,0.181,0.4,0.402l0.164,3.972l0.008,0.202l0.15-0.136
	l1.644-1.494c0.061-0.061,0.137-0.092,0.219-0.092c0.081,0,0.156,0.031,0.213,0.089c0.058,0.056,0.09,0.132,0.09,0.214
	c0,0.081-0.032,0.156-0.09,0.214l-2.15,2.322l-0.025,0.029l0.001,0.038l0.091,2.703h8.286c1.52-0.652,2.582-2.178,2.582-3.897
	C21.989,7.96,20.577,6.302,18.678,5.858"/>
<path fill="#D8D0C7" d="M10.416,24.234c-0.406,0-0.733,0.328-0.733,0.732l0.108,2.607l0.002,0.039l-0.027,0.029l-2.152,2.32
	c-0.055,0.059-0.088,0.133-0.088,0.213c0,0.084,0.033,0.16,0.088,0.215c0.06,0.059,0.133,0.09,0.218,0.09
	c0.081,0,0.156-0.031,0.217-0.092l1.643-1.494l0.149-0.135l0.008,0.203l0.164,3.969c0,0.221,0.181,0.402,0.403,0.402
	c0.22,0,0.4-0.182,0.4-0.406l0.097-2.289l0.008-0.203l0.148,0.141l1.062,0.963c0.059,0.059,0.132,0.088,0.214,0.088
	s0.156-0.029,0.216-0.088c0.057-0.059,0.087-0.135,0.087-0.215s-0.03-0.156-0.089-0.217l-1.567-1.723l-0.028-0.031l0.003-0.037
	l0.075-1.832l0.008-0.201l0.149,0.137l2.16,1.963c0.059,0.059,0.134,0.092,0.215,0.092s0.158-0.033,0.214-0.092
	c0.119-0.115,0.119-0.311-0.002-0.432l-2.659-2.861l-0.025-0.025l0.002-0.041l0.043-1.057
	C11.146,24.562,10.819,24.234,10.416,24.234"/>
<path fill="#474220" d="M7.774,17.298l-0.002-0.01c-0.033-0.464-0.397-0.847-0.89-0.812c-0.489,0.034-0.787,0.454-0.755,0.918
	l0.001,0.01c0.033,0.465,0.398,0.846,0.887,0.812C7.508,18.182,7.806,17.764,7.774,17.298 M5.212,17.479l-0.002-0.01
	c-0.063-0.926,0.628-1.73,1.623-1.8c0.994-0.07,1.784,0.62,1.851,1.545l0.002,0.009c0.063,0.925-0.628,1.73-1.622,1.8
	C6.067,19.094,5.277,18.404,5.212,17.479"/>
<path fill="#474220" d="M9.031,17.398l-0.13-1.811l0.908-0.063l0.127,1.791c0.034,0.466,0.284,0.669,0.643,0.646
	c0.359-0.026,0.579-0.255,0.547-0.707l-0.128-1.815l0.907-0.064l0.126,1.788c0.074,1.04-0.488,1.538-1.403,1.604
	C9.711,18.832,9.102,18.406,9.031,17.398"/>
<path fill="#474220" d="M13.937,16.787c0.306-0.021,0.47-0.18,0.451-0.416v-0.008c-0.019-0.254-0.211-0.371-0.511-0.349l-0.585,0.04
	l0.056,0.775L13.937,16.787z M12.344,15.345l1.524-0.108c0.495-0.035,0.843,0.07,1.076,0.276c0.201,0.17,0.315,0.412,0.339,0.73
	v0.01c0.036,0.492-0.206,0.838-0.594,1.036l0.849,1.072l-1.031,0.072l-0.718-0.931h-0.01l-0.383,0.026l0.069,0.977l-0.894,0.064
	L12.344,15.345z"/>
<path fill="#474220" d="M2.586,23.131l0.456-0.629c0.335,0.229,0.699,0.338,1.072,0.312c0.24-0.02,0.364-0.109,0.354-0.248v-0.01
	c-0.011-0.133-0.121-0.199-0.567-0.27c-0.697-0.107-1.242-0.264-1.288-0.928v-0.01c-0.042-0.6,0.401-1.064,1.175-1.119
	c0.548-0.039,0.987,0.078,1.359,0.334l-0.405,0.662c-0.307-0.186-0.637-0.273-0.924-0.254c-0.216,0.016-0.317,0.117-0.309,0.23
	l0.002,0.01c0.01,0.148,0.125,0.203,0.579,0.273c0.753,0.107,1.23,0.316,1.272,0.92v0.008c0.048,0.66-0.443,1.086-1.228,1.145
	C3.563,23.598,3.006,23.457,2.586,23.131"/>
<path fill="#474220" d="M8.113,21.609V21.6c-0.033-0.463-0.399-0.846-0.892-0.811c-0.487,0.033-0.786,0.451-0.755,0.918l0.002,0.01
	c0.034,0.465,0.398,0.848,0.888,0.812C7.847,22.494,8.146,22.074,8.113,21.609 M5.552,21.789v-0.008
	c-0.066-0.926,0.628-1.729,1.623-1.801c0.994-0.07,1.783,0.619,1.85,1.545v0.01c0.065,0.928-0.628,1.73-1.623,1.801
	C6.407,23.404,5.617,22.717,5.552,21.789"/>
<path fill="#474220" d="M9.37,21.711L9.242,19.9l0.908-0.064l0.125,1.791c0.034,0.467,0.284,0.67,0.645,0.645
	c0.359-0.023,0.579-0.254,0.547-0.705l-0.129-1.812l0.908-0.066l0.125,1.787c0.074,1.041-0.485,1.539-1.402,1.605
	C10.05,23.143,9.442,22.719,9.37,21.711"/>
<path fill="#474220" d="M14.275,21.1c0.305-0.021,0.47-0.182,0.453-0.416v-0.01c-0.018-0.254-0.214-0.369-0.512-0.348l-0.585,0.043
	l0.056,0.771L14.275,21.1z M12.684,19.656l1.524-0.107c0.496-0.035,0.844,0.07,1.076,0.275c0.201,0.172,0.316,0.412,0.339,0.73v0.01
	c0.036,0.492-0.204,0.838-0.593,1.037l0.848,1.07l-1.031,0.072l-0.718-0.932l-0.011,0.002l-0.382,0.025l0.069,0.977l-0.895,0.064
	L12.684,19.656z"/>
<path fill="#474220" d="M15.908,21.059v-0.01c-0.066-0.939,0.605-1.727,1.581-1.797c0.657-0.048,1.103,0.199,1.414,0.574
	l-0.634,0.57c-0.201-0.219-0.424-0.35-0.732-0.328c-0.451,0.031-0.74,0.436-0.709,0.906l0.001,0.01
	c0.033,0.482,0.379,0.838,0.83,0.807c0.337-0.023,0.523-0.195,0.7-0.443l0.706,0.432c-0.273,0.441-0.662,0.777-1.376,0.828
	C16.769,22.672,15.976,22.02,15.908,21.059"/>
<polygon fill="#474220" points="19.227,19.195 21.821,19.012 21.873,19.771 20.164,19.891 20.2,20.379 21.747,20.27 21.798,20.975 
	20.248,21.084 20.286,21.596 22.017,21.473 22.07,22.234 19.454,22.42 "/>
<polygon fill="#474220" points="3.342,18.008 1.975,16.077 2.991,16.006 3.739,17.134 4.322,15.912 5.323,15.842 4.239,17.933 
	4.324,19.152 3.428,19.217 "/>
</svg>
