<?xml version="1.0" encoding="utf-8"?>
<!-- Generator: Adobe Illustrator 16.0.0, SVG Export Plug-In . SVG Version: 6.00 Build 0)  -->
<!DOCTYPE svg PUBLIC "-//W3C//DTD SVG 1.1//EN" "http://www.w3.org/Graphics/SVG/1.1/DTD/svg11.dtd">
<svg version="1.1" id="Layer_1" xmlns="http://www.w3.org/2000/svg" xmlns:xlink="http://www.w3.org/1999/xlink" x="0px" y="0px"
	 width="595px" height="512px" viewBox="0 0 595 512" enable-background="new 0 0 595 512" xml:space="preserve">
<g>
	<defs>
		<rect id="SVGID_1_" y="0.225" width="594.147" height="511.604"/>
	</defs>
	<clipPath id="SVGID_2_">
		<use xlink:href="#SVGID_1_"  overflow="visible"/>
	</clipPath>
	<g clip-path="url(#SVGID_2_)">
		<defs>
			<rect id="SVGID_3_" width="595" height="512"/>
		</defs>
		<clipPath id="SVGID_4_">
			<use xlink:href="#SVGID_3_"  overflow="visible"/>
		</clipPath>
		<path clip-path="url(#SVGID_4_)" d="M35.777,470.822L2.774,425.99C1.168,423.803,0,421.171,0,417.956
			c0-5.984,4.964-10.804,11.236-10.804c5.11,0,8.326,2.776,11.097,6.867l24.823,35.774l25.261-36.065
			c2.777-4.093,6.135-6.725,10.812-6.725c6.859,0,10.955,4.822,10.955,10.952c0,3.067-1.467,5.847-2.914,7.89l-33.006,44.538v29.494
			c0,6.28-4.964,11.248-11.25,11.248c-6.272,0-11.236-4.968-11.236-11.248V470.822"/>
		<path clip-path="url(#SVGID_4_)" d="M104.646,459.43v-0.291c0-29.061,22.929-52.858,54.465-52.858
			c31.55,0,54.183,23.504,54.183,52.571v0.287c0,29.063-22.932,52.861-54.471,52.861C127.278,512,104.646,488.49,104.646,459.43
			 M189.778,459.43v-0.291c0-17.528-12.846-32.126-30.955-32.126c-18.106,0-30.665,14.311-30.665,31.839v0.287
			c0,17.525,12.843,32.129,30.952,32.129S189.778,476.958,189.778,459.43"/>
		<path clip-path="url(#SVGID_4_)" d="M236.458,466.444v-48.047c0-6.275,4.964-11.239,11.236-11.239
			c6.286,0,11.253,4.964,11.253,11.239v47.458c0,16.65,8.317,25.261,22.046,25.261c13.729,0,22.046-8.322,22.046-24.532v-48.187
			c0-6.275,4.967-11.239,11.242-11.239c6.286,0,11.253,4.964,11.253,11.239v47.312c0,30.964-17.389,46.145-44.837,46.145
			C253.243,511.854,236.458,496.522,236.458,466.444"/>
		<path clip-path="url(#SVGID_4_)" d="M345.428,422.342c-0.438-1.312-0.88-2.916-0.88-4.235c0-6.28,5.261-10.954,11.541-10.954
			c5.261,0,9.499,3.36,10.948,8.029l20.297,62.65l20.445-62.066c1.746-5.253,5.702-8.901,11.394-8.901h1.745
			c5.708,0,9.645,3.504,11.394,8.901l20.445,62.066l20.3-62.65c1.464-4.378,5.263-8.029,10.809-8.029
			c6.133,0,11.097,4.674,11.097,10.804c0,1.318-0.444,3.073-0.88,4.386l-28.625,80.313c-2.048,5.696-6.27,9.199-11.678,9.199h-2.33
			c-5.406,0-9.502-3.353-11.538-9.199l-20.155-58.559l-20.157,58.559c-2.036,5.847-6.126,9.199-11.538,9.199h-2.33
			c-5.408,0-9.633-3.503-11.684-9.199L345.428,422.342"/>
		<path clip-path="url(#SVGID_4_)" d="M515.441,499.006v-79.731c0-6.28,4.968-11.242,11.239-11.242h56.658
			c5.551,0,10.071,4.528,10.071,10.074s-4.521,9.932-10.071,9.932h-45.562v20.733h38.99c5.546,0,10.068,4.528,10.068,10.08
			c0,5.545-4.522,9.923-10.068,9.923h-38.99v21.468h46.287c5.549,0,10.083,4.528,10.083,10.074c0,5.554-4.534,9.938-10.083,9.938
			h-57.384C520.409,510.254,515.441,505.286,515.441,499.006"/>
		<path clip-path="url(#SVGID_4_)" fill="#EB1946" d="M467.909,29.912c21.67-31.292,64.597-39.09,95.891-17.423
			c31.288,21.661,39.092,64.599,17.429,95.89L481.911,251.79c-23.042,33.271-60.893,53.063-101.358,53.063h-103.04
			C351.155,198.513,467.909,29.912,467.909,29.912"/>
		<path clip-path="url(#SVGID_4_)" fill="#EB1946" d="M127.922,32.344C107.429,2.753,67.499-8.69,36.099,8.9
			C0.077,29.072-10.012,75.245,12.917,108.379l129.565,187.091c9.55,13.795,29.952,13.783,39.491-0.022l35.256-51.041
			c17.292-25.028,17.272-58.156-0.045-83.167L127.922,32.344"/>
	</g>
</g>
<g>
	<defs>
		<rect id="SVGID_5_" width="595" height="512"/>
	</defs>
	<clipPath id="SVGID_6_">
		<use xlink:href="#SVGID_5_"  overflow="visible"/>
	</clipPath>
	<path clip-path="url(#SVGID_6_)" fill="#EB1946" d="M340.149,0.227h-92.634c-19.368,0-30.767,21.752-19.741,37.68l46.375,66.969
		c9.553,13.794,29.952,13.783,39.491-0.023l46.262-66.969C370.905,21.957,359.51,0.227,340.149,0.227"/>
	<path clip-path="url(#SVGID_6_)" d="M550.794,288.521v-0.077c0-6.181,4.723-11.265,11.342-11.265c3.272,0,5.574,0.889,7.392,2.418
		c0.404,0.33,0.972,1.051,0.972,2.104c0,1.536-1.254,2.74-2.789,2.74c-0.806,0-1.412-0.321-1.777-0.598
		c-1.091-0.852-2.222-1.376-3.834-1.376c-3.07,0-5.249,2.703-5.249,5.891v0.085c0,3.31,2.139,5.973,5.491,5.973
		c1.615,0,2.865-0.566,4.036-1.489c0.325-0.245,0.929-0.567,1.658-0.567c1.449,0,2.583,1.168,2.583,2.627
		c0,0.806-0.364,1.449-0.889,1.934c-1.817,1.657-4.118,2.788-7.671,2.788C555.557,299.709,550.794,294.702,550.794,288.521"/>
	<path clip-path="url(#SVGID_6_)" d="M573.238,288.521v-0.077c0-6.181,4.726-11.265,11.345-11.265c3.273,0,5.571,0.889,7.389,2.418
		c0.404,0.33,0.972,1.051,0.972,2.104c0,1.536-1.254,2.74-2.789,2.74c-0.806,0-1.412-0.321-1.777-0.598
		c-1.091-0.852-2.219-1.376-3.834-1.376c-3.07,0-5.249,2.703-5.249,5.891v0.085c0,3.31,2.142,5.973,5.489,5.973
		c1.617,0,2.867-0.566,4.038-1.489c0.325-0.245,0.932-0.567,1.658-0.567c1.452,0,2.583,1.168,2.583,2.627
		c0,0.806-0.361,1.449-0.889,1.934c-1.814,1.657-4.118,2.788-7.67,2.788C578.004,299.709,573.238,294.702,573.238,288.521"/>
</g>
</svg>
