<?xml version="1.0" encoding="utf-8"?>
<!-- Generator: Adobe Illustrator 16.0.0, SVG Export Plug-In . SVG Version: 6.00 Build 0)  -->
<!DOCTYPE svg PUBLIC "-//W3C//DTD SVG 1.1//EN" "http://www.w3.org/Graphics/SVG/1.1/DTD/svg11.dtd">
<svg version="1.1" id="Layer_1" xmlns="http://www.w3.org/2000/svg" xmlns:xlink="http://www.w3.org/1999/xlink" x="0px" y="0px"
	 width="304.348px" height="62.14px" viewBox="0 0 304.348 62.14" enable-background="new 0 0 304.348 62.14" xml:space="preserve">
<g>
	<path fill="#A6A8AB" d="M290.121,11.879V10.57h5.794v1.309h-2.118v5.766h-1.555v-5.766H290.121z"/>
	<path fill="#A6A8AB" d="M298.917,10.57l1.658,4.861h0.019l1.567-4.861h2.188v7.075h-1.458v-5.017h-0.018l-1.734,5.017h-1.2
		l-1.729-4.964h-0.022v4.964h-1.457V10.57H298.917z"/>
</g>
<g>
	<path fill="#077DBC" d="M184.924,61.545c-13.604,0-23.485-10.98-23.485-26.107l0.006-24.839h9.945v24.839
		c0,10.245,5.218,16.609,13.618,16.609c8.39,0,13.598-6.364,13.598-16.609L198.58,10.57h9.975v24.868
		C208.554,50.565,198.613,61.545,184.924,61.545L184.924,61.545z"/>
	<rect x="217.751" y="10.57" fill="#077DBC" width="9.904" height="49.577"/>
	<path fill="#077DBC" d="M84.136,52.607c-9.25,0-16.75-7.497-16.75-16.746c0-9.249,7.5-16.745,16.75-16.745
		c4.386,0,8.369,1.701,11.351,4.46c1.178-3.06,2.777-5.899,4.733-8.464c-4.447-3.456-10.02-5.531-16.084-5.531
		c-14.513,0-26.281,11.767-26.281,26.279S69.623,62.14,84.136,62.14c6.065,0,11.637-2.077,16.084-5.53
		c-1.957-2.566-3.555-5.404-4.733-8.463C92.504,50.907,88.522,52.607,84.136,52.607z"/>
	<path fill="#077DBC" d="M258.27,61.483c-6.781,0-12.464-2.483-16.888-7.38c-4.417-5.022-6.66-11.406-6.66-18.978
		c0-7.425,2.241-13.687,6.662-18.611c4.389-4.893,9.963-7.374,16.566-7.374c5.671,0,10.844,2.383,15.375,7.085l1.881,1.948V10.57
		h9.789v49.428h-9.789v-6.832l-1.841,1.721C268.687,59.264,263.607,61.483,258.27,61.483L258.27,61.483z M260.176,17.711
		c-4.403,0-8.137,1.693-11.098,5.03c-2.891,3.343-4.355,7.508-4.355,12.384c0,5.193,1.426,9.495,4.236,12.789
		c2.925,3.385,6.663,5.102,11.11,5.102c4.719,0,8.595-1.657,11.519-4.92c2.896-3.347,4.36-7.619,4.36-12.707
		c0-5.084-1.463-9.354-4.346-12.69C268.671,19.389,264.827,17.711,260.176,17.711L260.176,17.711z"/>
	<g>
		<path fill="#077DBC" d="M129.065,9.58c-0.052-0.001-0.101-0.003-0.153-0.006c-0.469-0.026-0.604,0.195-0.436,0.542
			c0.023,0.055,0.046,0.108,0.074,0.162c0.925,1.957,3.302,6.73,7.469,10.016c5.376,4.236,8.64,9.259,8.64,15.548
			c0,7.983-6.257,16.713-16.497,16.713c-10.238,0-16.497-8.729-16.497-16.713c0-6.289,3.264-11.312,8.642-15.548
			c4.243-3.348,6.676-8.211,7.513-10.113c0.178-0.37,0.08-0.62-0.354-0.628c-0.029,0-0.055,0-0.084,0
			c-14.238,0.304-25.728,11.982-25.728,26.29c0,11.725,9.936,25.363,25.969,25.363s26.631-10.936,26.631-25.363
			C154.253,21.413,143.049,10.168,129.065,9.58z"/>
		<polygon fill="#077DBC" points="147.536,43.732 140.725,50.924 150.364,60.05 164.772,60.05 		"/>
	</g>
	<path fill="#077DBC" d="M49.323,60.147h10.363L33.66,2.468C32.999,1.015,31.541,0,29.843,0c-1.699,0-3.156,1.015-3.817,2.468
		L0,60.147h10.364l3.772-8.247h31.468L49.323,60.147z M18.274,42.629l11.569-25.636l11.573,25.636H18.274z"/>
</g>
<g>
</g>
<g>
</g>
<g>
</g>
<g>
</g>
<g>
</g>
<g>
</g>
</svg>
