<?xml version="1.0" encoding="utf-8"?>
<!-- Generator: Adobe Illustrator 16.0.0, SVG Export Plug-In . SVG Version: 6.00 Build 0)  -->
<!DOCTYPE svg PUBLIC "-//W3C//DTD SVG 1.1//EN" "http://www.w3.org/Graphics/SVG/1.1/DTD/svg11.dtd">
<svg version="1.1" id="Hoppinger__x2B__Driehoek" xmlns="http://www.w3.org/2000/svg" xmlns:xlink="http://www.w3.org/1999/xlink"
	 x="0px" y="0px" width="553.998px" height="99.573px" viewBox="0 0 553.998 99.573" enable-background="new 0 0 553.998 99.573"
	 xml:space="preserve">
<polygon id="Driehoek_RGB_Groen" fill="#66FF33" points="465.266,77.588 553.998,77.588 510.634,0.739 "/>
<g id="r_1_">
	<path fill="#231F20" d="M426.861,77.562c-0.128,0-0.256-0.049-0.354-0.146c-0.195-0.195-0.195-0.512,0-0.707l2.309-2.309
		c0.195-0.195,0.512-0.195,0.707,0s0.195,0.512,0,0.707l-2.309,2.309C427.117,77.513,426.989,77.562,426.861,77.562z"/>
	<path fill="#231F20" d="M422.861,77.562c-0.128,0-0.256-0.049-0.354-0.146c-0.195-0.195-0.195-0.512,0-0.707l6.309-6.309
		c0.195-0.195,0.512-0.195,0.707,0s0.195,0.512,0,0.707l-6.309,6.309C423.117,77.513,422.989,77.562,422.861,77.562z"/>
	<path fill="#231F20" d="M418.861,77.562c-0.128,0-0.256-0.049-0.354-0.146c-0.195-0.195-0.195-0.512,0-0.707l10.309-10.309
		c0.195-0.195,0.512-0.195,0.707,0s0.195,0.512,0,0.707l-10.309,10.309C419.117,77.513,418.989,77.562,418.861,77.562z"/>
	<path fill="#231F20" d="M414.861,77.562c-0.128,0-0.256-0.049-0.354-0.146c-0.195-0.195-0.195-0.512,0-0.707l14.309-14.309
		c0.195-0.195,0.512-0.195,0.707,0s0.195,0.512,0,0.707l-14.309,14.309C415.117,77.513,414.989,77.562,414.861,77.562z"/>
	<path fill="#231F20" d="M414.01,74.413c-0.128,0-0.256-0.049-0.354-0.146c-0.195-0.195-0.195-0.512,0-0.707l15.16-15.16
		c0.195-0.195,0.512-0.195,0.707,0s0.195,0.512,0,0.707l-15.16,15.16C414.266,74.364,414.138,74.413,414.01,74.413z"/>
	<path fill="#231F20" d="M414.01,70.413c-0.128,0-0.256-0.049-0.354-0.146c-0.195-0.195-0.195-0.512,0-0.707l15.16-15.16
		c0.195-0.195,0.512-0.195,0.707,0s0.195,0.512,0,0.707l-15.16,15.16C414.266,70.364,414.138,70.413,414.01,70.413z"/>
	<path fill="#231F20" d="M414.01,66.413c-0.128,0-0.256-0.049-0.354-0.146c-0.195-0.195-0.195-0.512,0-0.707l15.16-15.16
		c0.195-0.195,0.512-0.195,0.707,0s0.195,0.512,0,0.707l-15.16,15.16C414.266,66.364,414.138,66.413,414.01,66.413z"/>
	<path fill="#231F20" d="M414.01,62.413c-0.128,0-0.256-0.049-0.354-0.146c-0.195-0.195-0.195-0.512,0-0.707l15.16-15.16
		c0.195-0.195,0.512-0.195,0.707,0s0.195,0.512,0,0.707l-15.16,15.16C414.266,62.364,414.138,62.413,414.01,62.413z"/>
	<path fill="#231F20" d="M414.01,58.413c-0.128,0-0.256-0.049-0.354-0.146c-0.195-0.195-0.195-0.512,0-0.707l15.16-15.16
		c0.195-0.195,0.512-0.195,0.707,0s0.195,0.512,0,0.707l-15.16,15.16C414.266,58.364,414.138,58.413,414.01,58.413z"/>
	<path fill="#231F20" d="M414.01,54.413c-0.128,0-0.256-0.049-0.354-0.146c-0.195-0.195-0.195-0.512,0-0.707l15.16-15.16
		c0.195-0.195,0.512-0.195,0.707,0s0.195,0.512,0,0.707l-15.16,15.16C414.266,54.364,414.138,54.413,414.01,54.413z"/>
	<path fill="#231F20" d="M414.01,50.413c-0.128,0-0.256-0.049-0.354-0.146c-0.195-0.195-0.195-0.512,0-0.707l25.695-25.695
		c0.195-0.195,0.512-0.195,0.707,0s0.195,0.512,0,0.707l-25.695,25.695C414.266,50.364,414.138,50.413,414.01,50.413z"/>
	<path fill="#231F20" d="M414.01,46.413c-0.128,0-0.256-0.049-0.354-0.146c-0.195-0.195-0.195-0.512,0-0.707l21.797-21.797
		c0.195-0.195,0.512-0.195,0.707,0s0.195,0.512,0,0.707l-21.797,21.797C414.266,46.364,414.138,46.413,414.01,46.413z"/>
	<path fill="#231F20" d="M414.01,30.413c-0.128,0-0.256-0.049-0.354-0.146c-0.195-0.195-0.195-0.512,0-0.707l3.16-3.16
		c0.195-0.195,0.512-0.195,0.707,0s0.195,0.512,0,0.707l-3.16,3.16C414.266,30.364,414.138,30.413,414.01,30.413z"/>
	<path fill="#231F20" d="M414.01,34.413c-0.128,0-0.256-0.049-0.354-0.146c-0.195-0.195-0.195-0.512,0-0.707l8.467-8.466
		c0.195-0.195,0.512-0.195,0.707,0s0.195,0.512,0,0.707l-8.467,8.466C414.266,34.364,414.138,34.413,414.01,34.413z"/>
	<path fill="#231F20" d="M414.01,38.413c-0.128,0-0.256-0.049-0.354-0.146c-0.195-0.195-0.195-0.512,0-0.707l13.234-13.234
		c0.195-0.195,0.512-0.195,0.707,0s0.195,0.512,0,0.707l-13.234,13.234C414.266,38.364,414.138,38.413,414.01,38.413z"/>
	<path fill="#231F20" d="M414.01,42.413c-0.128,0-0.256-0.049-0.354-0.146c-0.195-0.195-0.195-0.512,0-0.707l17.641-17.641
		c0.195-0.195,0.512-0.195,0.707,0s0.195,0.512,0,0.707l-17.641,17.641C414.266,42.364,414.138,42.413,414.01,42.413z"/>
	<path fill="#231F20" d="M431.803,36.62c-0.128,0-0.256-0.049-0.354-0.146c-0.195-0.195-0.195-0.512,0-0.707l11.504-11.504
		c0.195-0.195,0.512-0.195,0.707,0s0.195,0.512,0,0.707l-11.504,11.504C432.059,36.571,431.931,36.62,431.803,36.62z"/>
	<path fill="#231F20" d="M436.057,36.366c-0.128,0-0.256-0.049-0.354-0.146c-0.195-0.195-0.195-0.512,0-0.707l6.266-6.266
		c0.195-0.195,0.512-0.195,0.707,0s0.195,0.512,0,0.707l-6.266,6.266C436.312,36.317,436.185,36.366,436.057,36.366z"/>
	<path fill="#231F20" d="M439.672,36.866c-0.122,0-0.244-0.044-0.34-0.134c-0.203-0.188-0.215-0.504-0.026-0.707l1.51-1.625
		c0.188-0.202,0.506-0.212,0.706-0.026c0.203,0.188,0.215,0.504,0.026,0.707l-1.51,1.625
		C439.939,36.812,439.806,36.866,439.672,36.866z"/>
</g>
<g id="e_1_">
	<path fill="#231F20" d="M362.855,69.567c-0.128,0-0.256-0.049-0.354-0.146c-0.195-0.195-0.195-0.512,0-0.707l9.748-9.748
		c0.195-0.195,0.512-0.195,0.707,0s0.195,0.512,0,0.707l-9.748,9.748C363.111,69.519,362.983,69.567,362.855,69.567z"/>
	<path fill="#231F20" d="M357.377,51.046c-0.128,0-0.256-0.049-0.354-0.146c-0.195-0.195-0.195-0.512,0-0.707l26.398-26.398
		c0.195-0.195,0.512-0.195,0.707,0s0.195,0.512,0,0.707L357.73,50.899C357.633,50.997,357.505,51.046,357.377,51.046z"/>
	<path fill="#231F20" d="M357.689,46.733c-0.128,0-0.256-0.049-0.354-0.146c-0.195-0.195-0.195-0.512,0-0.707l22.008-22.008
		c0.195-0.195,0.512-0.195,0.707,0s0.195,0.512,0,0.707l-22.008,22.008C357.945,46.685,357.817,46.733,357.689,46.733z"/>
	<path fill="#231F20" d="M358.775,41.647c-0.128,0-0.256-0.049-0.354-0.146c-0.195-0.195-0.195-0.512,0-0.707l16.102-16.101
		c0.195-0.195,0.512-0.195,0.707,0s0.195,0.512,0,0.707l-16.102,16.101C359.031,41.599,358.903,41.647,358.775,41.647z"/>
	<path fill="#231F20" d="M360.686,35.736c-0.128,0-0.256-0.049-0.354-0.146c-0.195-0.195-0.195-0.512,0-0.707l8.37-8.37
		c0.195-0.195,0.512-0.195,0.707,0s0.195,0.512,0,0.707l-8.37,8.37C360.941,35.687,360.813,35.736,360.686,35.736z"/>
	<path fill="#231F20" d="M357.533,54.89c-0.128,0-0.256-0.049-0.354-0.146c-0.195-0.195-0.195-0.512,0-0.707L373.4,37.815
		c0.195-0.195,0.512-0.195,0.707,0s0.195,0.512,0,0.707l-16.221,16.221C357.789,54.841,357.661,54.89,357.533,54.89z"/>
	<path fill="#231F20" d="M357.986,58.437c-0.128,0-0.256-0.049-0.354-0.146c-0.195-0.195-0.195-0.512,0-0.707l13.291-13.292
		c0.195-0.195,0.512-0.195,0.707,0s0.195,0.512,0,0.707L358.34,58.29C358.242,58.388,358.114,58.437,357.986,58.437z"/>
	<path fill="#231F20" d="M358.783,61.64c-0.128,0-0.256-0.049-0.354-0.146c-0.195-0.195-0.195-0.512,0-0.707l13.057-13.056
		c0.195-0.195,0.512-0.195,0.707,0s0.195,0.512,0,0.707l-13.057,13.056C359.039,61.591,358.911,61.64,358.783,61.64z"/>
	<path fill="#231F20" d="M359.877,64.546c-0.128,0-0.256-0.049-0.354-0.146c-0.195-0.195-0.195-0.512,0-0.707l16.57-16.57
		c0.195-0.195,0.512-0.195,0.707,0s0.195,0.512,0,0.707l-16.57,16.57C360.133,64.497,360.005,64.546,359.877,64.546z"/>
	<path fill="#231F20" d="M361.24,67.183c-0.128,0-0.256-0.049-0.354-0.146c-0.195-0.195-0.195-0.512,0-0.707l19.791-19.792
		c0.195-0.195,0.512-0.195,0.707,0s0.195,0.512,0,0.707l-19.791,19.792C361.496,67.134,361.368,67.183,361.24,67.183z"/>
	<path fill="#231F20" d="M364.74,71.684c-0.128,0-0.256-0.049-0.354-0.146c-0.195-0.195-0.195-0.512,0-0.707l9.289-9.29
		c0.195-0.195,0.512-0.195,0.707,0s0.195,0.512,0,0.707l-9.289,9.29C364.996,71.635,364.868,71.684,364.74,71.684z"/>
	<path fill="#231F20" d="M366.859,73.562c-0.128,0-0.256-0.049-0.354-0.146c-0.195-0.195-0.195-0.512,0-0.707l9.135-9.134
		c0.195-0.195,0.512-0.195,0.707,0s0.195,0.512,0,0.707l-9.135,9.134C367.115,73.514,366.987,73.562,366.859,73.562z"/>
	<path fill="#231F20" d="M369.296,75.126c-0.128,0-0.256-0.049-0.354-0.146c-0.195-0.195-0.195-0.512,0-0.707l9.229-9.228
		c0.195-0.195,0.512-0.195,0.707,0s0.195,0.512,0,0.707l-9.229,9.228C369.552,75.077,369.424,75.126,369.296,75.126z"/>
	<path fill="#231F20" d="M371.941,76.481c-0.128,0-0.256-0.049-0.354-0.146c-0.195-0.195-0.195-0.512,0-0.707l9.635-9.634
		c0.195-0.195,0.512-0.195,0.707,0s0.195,0.512,0,0.707l-9.635,9.634C372.197,76.433,372.069,76.481,371.941,76.481z"/>
	<path fill="#231F20" d="M374.932,77.491c-0.128,0-0.256-0.049-0.354-0.146c-0.195-0.195-0.195-0.512,0-0.707l10.371-10.371
		c0.195-0.195,0.512-0.195,0.707,0s0.195,0.512,0,0.707l-10.371,10.371C375.188,77.442,375.06,77.491,374.932,77.491z"/>
	<path fill="#231F20" d="M378.159,78.264c-0.128,0-0.256-0.049-0.354-0.146c-0.195-0.195-0.195-0.512,0-0.707l11.144-11.144
		c0.195-0.195,0.512-0.195,0.707,0s0.195,0.512,0,0.707l-11.144,11.144C378.415,78.215,378.287,78.264,378.159,78.264z"/>
	<path fill="#231F20" d="M381.766,78.657c-0.128,0-0.256-0.049-0.354-0.146c-0.195-0.195-0.195-0.512,0-0.707l12.537-12.537
		c0.195-0.195,0.512-0.195,0.707,0s0.195,0.512,0,0.707l-12.537,12.537C382.021,78.608,381.894,78.657,381.766,78.657z"/>
	<path fill="#231F20" d="M385.721,78.703c-0.128,0-0.256-0.049-0.354-0.146c-0.195-0.195-0.195-0.512,0-0.707l14.384-14.386
		c0.195-0.195,0.512-0.195,0.707,0s0.195,0.512,0,0.707l-14.384,14.386C385.977,78.654,385.849,78.703,385.721,78.703z"/>
	<path fill="#231F20" d="M389.982,78.441c-0.128,0-0.256-0.049-0.354-0.146c-0.195-0.195-0.195-0.512,0-0.707l11.229-11.23
		c0.195-0.195,0.512-0.195,0.707,0s0.195,0.512,0,0.707l-11.229,11.23C390.238,78.393,390.11,78.441,389.982,78.441z"/>
	<path fill="#231F20" d="M394.543,77.88c-0.128,0-0.256-0.049-0.354-0.146c-0.195-0.195-0.195-0.512,0-0.707l7.735-7.734
		c0.195-0.195,0.512-0.195,0.707,0s0.195,0.512,0,0.707l-7.735,7.734C394.799,77.831,394.671,77.88,394.543,77.88z"/>
	<path fill="#231F20" d="M399.731,76.691c-0.128,0-0.256-0.049-0.354-0.146c-0.195-0.195-0.195-0.512,0-0.707l3.671-3.671
		c0.195-0.195,0.512-0.195,0.707,0s0.195,0.512,0,0.707l-3.671,3.671C399.987,76.643,399.859,76.691,399.731,76.691z"/>
	<path fill="#231F20" d="M373.754,38.669c-0.128,0-0.256-0.049-0.354-0.146c-0.195-0.195-0.195-0.512,0-0.707l13.584-13.584
		c0.195-0.195,0.512-0.195,0.707,0s0.195,0.512,0,0.707l-13.584,13.584C374.01,38.62,373.882,38.669,373.754,38.669z"/>
	<path fill="#231F20" d="M381.447,34.976c-0.128,0-0.256-0.049-0.354-0.146c-0.195-0.195-0.195-0.512,0-0.707l9.094-9.094
		c0.195-0.195,0.512-0.195,0.707,0s0.195,0.512,0,0.707l-9.094,9.094C381.703,34.927,381.575,34.976,381.447,34.976z"/>
	<path fill="#231F20" d="M384.928,35.495c-0.128,0-0.256-0.049-0.354-0.146c-0.195-0.195-0.195-0.512,0-0.707l8.473-8.473
		c0.195-0.195,0.512-0.195,0.707,0s0.195,0.512,0,0.707l-8.473,8.473C385.184,35.446,385.056,35.495,384.928,35.495z"/>
	<path fill="#231F20" d="M387.447,36.976c-0.128,0-0.256-0.049-0.354-0.146c-0.195-0.195-0.195-0.512,0-0.707l8.504-8.504
		c0.195-0.195,0.512-0.195,0.707,0s0.195,0.512,0,0.707l-8.504,8.504C387.703,36.927,387.575,36.976,387.447,36.976z"/>
	<path fill="#231F20" d="M389.213,39.21c-0.128,0-0.256-0.049-0.354-0.146c-0.195-0.195-0.195-0.512,0-0.707l8.922-8.922
		c0.195-0.195,0.512-0.195,0.707,0s0.195,0.512,0,0.707l-8.922,8.922C389.469,39.161,389.341,39.21,389.213,39.21z"/>
	<path fill="#231F20" d="M390.275,42.147c-0.128,0-0.256-0.049-0.354-0.146c-0.195-0.195-0.195-0.512,0-0.707l9.816-9.816
		c0.195-0.195,0.512-0.195,0.707,0s0.195,0.512,0,0.707l-9.816,9.816C390.531,42.099,390.403,42.147,390.275,42.147z"/>
	<path fill="#231F20" d="M379.768,56.655c-0.128,0-0.256-0.049-0.354-0.146c-0.195-0.195-0.195-0.512,0-0.707l21.938-21.938
		c0.195-0.195,0.512-0.195,0.707,0s0.195,0.512,0,0.707l-21.938,21.938C380.023,56.606,379.896,56.655,379.768,56.655z"/>
	<path fill="#231F20" d="M384.377,56.046c-0.128,0-0.256-0.049-0.354-0.146c-0.195-0.195-0.195-0.512,0-0.707l18.684-18.684
		c0.195-0.195,0.512-0.195,0.707,0s0.195,0.512,0,0.707L384.73,55.899C384.633,55.997,384.505,56.046,384.377,56.046z"/>
	<path fill="#231F20" d="M375.193,57.229c-0.128,0-0.256-0.049-0.354-0.146c-0.195-0.195-0.195-0.512,0-0.707l10.646-10.646
		c0.195-0.195,0.512-0.195,0.707,0s0.195,0.512,0,0.707l-10.646,10.646C375.449,57.181,375.321,57.229,375.193,57.229z"/>
	<path fill="#231F20" d="M388.963,55.46c-0.128,0-0.256-0.049-0.354-0.146c-0.195-0.195-0.195-0.512,0-0.707l15.141-15.141
		c0.195-0.195,0.512-0.195,0.707,0s0.195,0.512,0,0.707l-15.141,15.141C389.219,55.411,389.091,55.46,388.963,55.46z"/>
	<path fill="#231F20" d="M393.588,54.835c-0.128,0-0.256-0.049-0.354-0.146c-0.195-0.195-0.195-0.512,0-0.707l11.227-11.227
		c0.195-0.195,0.512-0.195,0.707,0s0.195,0.512,0,0.707l-11.227,11.227C393.844,54.786,393.716,54.835,393.588,54.835z"/>
	<path fill="#231F20" d="M398.178,54.245c-0.128,0-0.256-0.049-0.354-0.146c-0.195-0.195-0.195-0.512,0-0.707l6.988-6.988
		c0.195-0.195,0.512-0.195,0.707,0s0.195,0.512,0,0.707l-6.988,6.988C398.434,54.196,398.306,54.245,398.178,54.245z"/>
	<path fill="#231F20" d="M402.81,53.612c-0.128,0-0.256-0.049-0.354-0.146c-0.195-0.195-0.195-0.512,0-0.707l2.354-2.354
		c0.195-0.195,0.512-0.195,0.707,0s0.195,0.512,0,0.707l-2.354,2.354C403.065,53.563,402.938,53.612,402.81,53.612z"/>
</g>
<g id="g_1_">
	<path fill="#231F20" d="M333.592,46.831c-0.128,0-0.256-0.049-0.354-0.146c-0.195-0.195-0.195-0.512,0-0.707l14.945-14.945
		c0.195-0.195,0.512-0.195,0.707,0s0.195,0.512,0,0.707l-14.945,14.945C333.848,46.782,333.72,46.831,333.592,46.831z"/>
	<path fill="#231F20" d="M333.592,50.831c-0.128,0-0.256-0.049-0.354-0.146c-0.195-0.195-0.195-0.512,0-0.707l14.945-14.945
		c0.195-0.195,0.512-0.195,0.707,0s0.195,0.512,0,0.707l-14.945,14.945C333.848,50.782,333.72,50.831,333.592,50.831z"/>
	<path fill="#231F20" d="M333.592,54.831c-0.128,0-0.256-0.049-0.354-0.146c-0.195-0.195-0.195-0.512,0-0.707l14.945-14.945
		c0.195-0.195,0.512-0.195,0.707,0s0.195,0.512,0,0.707l-14.945,14.945C333.848,54.782,333.72,54.831,333.592,54.831z"/>
	<path fill="#231F20" d="M333.592,58.831c-0.128,0-0.256-0.049-0.354-0.146c-0.195-0.195-0.195-0.512,0-0.707l14.945-14.945
		c0.195-0.195,0.512-0.195,0.707,0s0.195,0.512,0,0.707l-14.945,14.945C333.848,58.782,333.72,58.831,333.592,58.831z"/>
	<path fill="#231F20" d="M321.119,75.304c-0.128,0-0.256-0.049-0.354-0.146c-0.195-0.195-0.195-0.512,0-0.707l27.418-27.418
		c0.195-0.195,0.512-0.195,0.707,0s0.195,0.512,0,0.707l-27.418,27.418C321.375,75.255,321.247,75.304,321.119,75.304z"/>
	<path fill="#231F20" d="M324.959,75.464c-0.128,0-0.256-0.049-0.354-0.146c-0.195-0.195-0.195-0.512,0-0.707l23.578-23.578
		c0.195-0.195,0.512-0.195,0.707,0s0.195,0.512,0,0.707l-23.578,23.578C325.215,75.415,325.087,75.464,324.959,75.464z"/>
	<path fill="#231F20" d="M329.291,75.132c-0.128,0-0.256-0.049-0.354-0.146c-0.195-0.195-0.195-0.512,0-0.707l19.246-19.246
		c0.195-0.195,0.512-0.195,0.707,0s0.195,0.512,0,0.707l-19.246,19.246C329.547,75.083,329.419,75.132,329.291,75.132z"/>
	<path fill="#231F20" d="M333.592,74.831c-0.128,0-0.256-0.049-0.354-0.146c-0.195-0.195-0.195-0.512,0-0.707l14.945-14.945
		c0.195-0.195,0.512-0.195,0.707,0s0.195,0.512,0,0.707l-14.945,14.945C333.848,74.782,333.72,74.831,333.592,74.831z"/>
	<path fill="#231F20" d="M333.592,78.831c-0.128,0-0.256-0.049-0.354-0.146c-0.195-0.195-0.195-0.512,0-0.707l14.945-14.945
		c0.195-0.195,0.512-0.195,0.707,0s0.195,0.512,0,0.707l-14.945,14.945C333.848,78.782,333.72,78.831,333.592,78.831z"/>
	<path fill="#231F20" d="M317.304,99.119c-0.128,0-0.256-0.049-0.354-0.146c-0.195-0.195-0.195-0.512,0-0.707l31.233-31.233
		c0.195-0.195,0.512-0.195,0.707,0s0.195,0.512,0,0.707l-31.233,31.233C317.56,99.07,317.432,99.119,317.304,99.119z"/>
	<path fill="#231F20" d="M320.963,99.46c-0.128,0-0.256-0.049-0.354-0.146c-0.195-0.195-0.195-0.512,0-0.707l27.574-27.574
		c0.195-0.195,0.512-0.195,0.707,0s0.195,0.512,0,0.707l-27.574,27.574C321.219,99.411,321.091,99.46,320.963,99.46z"/>
	<path fill="#231F20" d="M324.85,99.573c-0.128,0-0.256-0.049-0.354-0.146c-0.195-0.195-0.195-0.512,0-0.707l23.688-23.688
		c0.195-0.195,0.512-0.195,0.707,0s0.195,0.512,0,0.707l-23.688,23.688C325.105,99.524,324.978,99.573,324.85,99.573z"/>
	<path fill="#231F20" d="M329.08,99.343c-0.128,0-0.256-0.049-0.354-0.146c-0.195-0.195-0.195-0.512,0-0.707l19.338-19.338
		c0.195-0.195,0.512-0.195,0.707,0s0.195,0.512,0,0.707l-19.338,19.338C329.336,99.294,329.208,99.343,329.08,99.343z"/>
	<path fill="#231F20" d="M334.11,98.312c-0.128,0-0.256-0.049-0.354-0.146c-0.195-0.195-0.195-0.512,0-0.707l13.344-13.343
		c0.195-0.195,0.512-0.195,0.707,0s0.195,0.512,0,0.707l-13.344,13.343C334.366,98.263,334.238,98.312,334.11,98.312z"/>
	<path fill="#231F20" d="M313.822,98.601c-0.128,0-0.256-0.049-0.354-0.146c-0.195-0.195-0.195-0.512,0-0.707l11.77-11.77
		c0.195-0.195,0.512-0.195,0.707,0s0.195,0.512,0,0.707l-11.77,11.77C314.078,98.552,313.95,98.601,313.822,98.601z"/>
	<path fill="#231F20" d="M310.557,97.866c-0.128,0-0.256-0.049-0.354-0.146c-0.195-0.195-0.195-0.512,0-0.707l10.914-10.914
		c0.195-0.195,0.512-0.195,0.707,0s0.195,0.512,0,0.707L310.91,97.72C310.812,97.817,310.685,97.866,310.557,97.866z"/>
	<path fill="#231F20" d="M304.643,95.78c-0.128,0-0.256-0.049-0.354-0.146c-0.195-0.195-0.195-0.512,0-0.707l9.742-9.742
		c0.195-0.195,0.512-0.195,0.707,0s0.195,0.512,0,0.707l-9.742,9.742C304.898,95.731,304.771,95.78,304.643,95.78z"/>
	<path fill="#231F20" d="M307.518,96.905c-0.128,0-0.256-0.049-0.354-0.146c-0.195-0.195-0.195-0.512,0-0.707l10.25-10.25
		c0.195-0.195,0.512-0.195,0.707,0s0.195,0.512,0,0.707l-10.25,10.25C307.773,96.856,307.646,96.905,307.518,96.905z"/>
	<path fill="#231F20" d="M305.465,90.958c-0.128,0-0.256-0.049-0.354-0.146c-0.195-0.195-0.195-0.512,0-0.707l5.732-5.732
		c0.195-0.195,0.512-0.195,0.707,0s0.195,0.512,0,0.707l-5.732,5.732C305.721,90.909,305.593,90.958,305.465,90.958z"/>
	<path fill="#231F20" d="M306.864,85.559c-0.128,0-0.256-0.049-0.354-0.146c-0.195-0.195-0.195-0.512,0-0.707l1.518-1.518
		c0.195-0.195,0.512-0.195,0.707,0s0.195,0.512,0,0.707l-1.518,1.518C307.12,85.51,306.992,85.559,306.864,85.559z"/>
	<path fill="#231F20" d="M333.592,42.831c-0.128,0-0.256-0.049-0.354-0.146c-0.195-0.195-0.195-0.512,0-0.707l14.715-14.715
		c0.195-0.195,0.512-0.195,0.707,0s0.195,0.512,0,0.707l-14.715,14.715C333.848,42.782,333.72,42.831,333.592,42.831z"/>
	<path fill="#231F20" d="M333.592,38.831c-0.128,0-0.256-0.049-0.354-0.146c-0.195-0.195-0.195-0.512,0-0.707l11.789-11.789
		c0.195-0.195,0.512-0.195,0.707,0s0.195,0.512,0,0.707l-11.789,11.789C333.848,38.782,333.72,38.831,333.592,38.831z"/>
	<path fill="#231F20" d="M332.186,36.237c-0.128,0-0.256-0.049-0.354-0.146c-0.195-0.195-0.195-0.512,0-0.707l10.117-10.117
		c0.195-0.195,0.512-0.195,0.707,0s0.195,0.512,0,0.707l-10.117,10.117C332.441,36.188,332.313,36.237,332.186,36.237z"/>
	<path fill="#231F20" d="M328.596,35.827c-0.128,0-0.256-0.049-0.354-0.146c-0.195-0.195-0.195-0.512,0-0.707l10.383-10.383
		c0.195-0.195,0.512-0.195,0.707,0s0.195,0.512,0,0.707l-10.383,10.383C328.852,35.778,328.724,35.827,328.596,35.827z"/>
	<path fill="#231F20" d="M323.869,36.554c-0.128,0-0.256-0.049-0.354-0.146c-0.195-0.195-0.195-0.512,0-0.707l11.625-11.625
		c0.195-0.195,0.512-0.195,0.707,0s0.195,0.512,0,0.707l-11.625,11.625C324.125,36.505,323.997,36.554,323.869,36.554z"/>
	<path fill="#231F20" d="M302.159,54.264c-0.128,0-0.256-0.049-0.354-0.146c-0.195-0.195-0.195-0.512,0-0.707l29.585-29.585
		c0.195-0.195,0.512-0.195,0.707,0s0.195,0.512,0,0.707l-29.585,29.585C302.415,54.215,302.287,54.264,302.159,54.264z"/>
	<path fill="#231F20" d="M301.982,50.44c-0.128,0-0.256-0.049-0.354-0.146c-0.195-0.195-0.195-0.512,0-0.707l25.762-25.762
		c0.195-0.195,0.512-0.195,0.707,0s0.195,0.512,0,0.707l-25.762,25.762C302.238,50.392,302.11,50.44,301.982,50.44z"/>
	<path fill="#231F20" d="M302.316,46.106c-0.128,0-0.256-0.049-0.354-0.146c-0.195-0.195-0.195-0.512,0-0.707l21.033-21.033
		c0.195-0.195,0.512-0.195,0.707,0s0.195,0.512,0,0.707L302.67,45.959C302.572,46.057,302.444,46.106,302.316,46.106z"/>
	<path fill="#231F20" d="M303.338,41.085c-0.128,0-0.256-0.049-0.354-0.146c-0.195-0.195-0.195-0.512,0-0.707l14.824-14.824
		c0.195-0.195,0.512-0.195,0.707,0s0.195,0.512,0,0.707l-14.824,14.824C303.594,41.036,303.466,41.085,303.338,41.085z"/>
	<path fill="#231F20" d="M302.688,57.735c-0.128,0-0.256-0.049-0.354-0.146c-0.195-0.195-0.195-0.512,0-0.707l15.924-15.924
		c0.195-0.195,0.512-0.195,0.707,0s0.195,0.512,0,0.707l-15.924,15.924C302.943,57.687,302.815,57.735,302.688,57.735z"/>
	<path fill="#231F20" d="M303.494,60.929c-0.128,0-0.256-0.049-0.354-0.146c-0.195-0.195-0.195-0.512,0-0.707l13.766-13.766
		c0.195-0.195,0.512-0.195,0.707,0s0.195,0.512,0,0.707l-13.766,13.766C303.75,60.88,303.622,60.929,303.494,60.929z"/>
	<path fill="#231F20" d="M304.635,63.788c-0.128,0-0.256-0.049-0.354-0.146c-0.195-0.195-0.195-0.512,0-0.707l12.465-12.465
		c0.195-0.195,0.512-0.195,0.707,0s0.195,0.512,0,0.707l-12.465,12.465C304.891,63.739,304.763,63.788,304.635,63.788z"/>
	<path fill="#231F20" d="M306.064,66.358c-0.128,0-0.256-0.049-0.354-0.146c-0.195-0.195-0.195-0.512,0-0.707l11.43-11.43
		c0.195-0.195,0.512-0.195,0.707,0s0.195,0.512,0,0.707l-11.43,11.43C306.32,66.31,306.192,66.358,306.064,66.358z"/>
	<path fill="#231F20" d="M307.783,68.641c-0.128,0-0.256-0.049-0.354-0.146c-0.195-0.195-0.195-0.512,0-0.707l10.559-10.56
		c0.195-0.195,0.512-0.195,0.707,0s0.195,0.512,0,0.707l-10.559,10.56C308.039,68.592,307.911,68.641,307.783,68.641z"/>
	<path fill="#231F20" d="M309.803,70.62c-0.128,0-0.256-0.049-0.354-0.146c-0.195-0.195-0.195-0.512,0-0.707l9.908-9.908
		c0.195-0.195,0.512-0.195,0.707,0s0.195,0.512,0,0.707l-9.908,9.908C310.059,70.571,309.931,70.62,309.803,70.62z"/>
	<path fill="#231F20" d="M312.092,72.331c-0.128,0-0.256-0.049-0.354-0.146c-0.195-0.195-0.195-0.512,0-0.707l9.607-9.607
		c0.195-0.195,0.512-0.195,0.707,0s0.195,0.512,0,0.707l-9.607,9.607C312.348,72.282,312.22,72.331,312.092,72.331z"/>
	<path fill="#231F20" d="M314.757,73.666c-0.128,0-0.256-0.049-0.354-0.146c-0.195-0.195-0.195-0.512,0-0.707l9.588-9.588
		c0.195-0.195,0.512-0.195,0.707,0s0.195,0.512,0,0.707l-9.588,9.588C315.013,73.617,314.885,73.666,314.757,73.666z"/>
	<path fill="#231F20" d="M317.721,74.702c-0.128,0-0.256-0.049-0.354-0.146c-0.195-0.195-0.195-0.512,0-0.707l10.151-10.151
		c0.195-0.195,0.512-0.195,0.707,0s0.195,0.512,0,0.707l-10.151,10.151C317.977,74.653,317.849,74.702,317.721,74.702z"/>
	<path fill="#231F20" d="M305.1,35.324c-0.128,0-0.256-0.049-0.354-0.146c-0.195-0.195-0.195-0.512,0-0.707l6.84-6.84
		c0.195-0.195,0.512-0.195,0.707,0s0.195,0.512,0,0.707l-6.84,6.84C305.355,35.275,305.228,35.324,305.1,35.324z"/>
</g>
<g id="n_2_">
	<path fill="#231F20" d="M248.385,37.715c-0.128,0-0.256-0.049-0.354-0.146c-0.195-0.195-0.195-0.512,0-0.707l12.485-12.485
		c0.195-0.195,0.512-0.195,0.707,0s0.195,0.512,0,0.707l-12.485,12.485C248.641,37.666,248.513,37.715,248.385,37.715z"/>
	<path fill="#231F20" d="M248.395,41.705c-0.128,0-0.256-0.049-0.354-0.146c-0.195-0.195-0.195-0.512,0-0.707l16.809-16.809
		c0.195-0.195,0.512-0.195,0.707,0s0.195,0.512,0,0.707l-16.809,16.809C248.651,41.656,248.523,41.705,248.395,41.705z"/>
	<path fill="#231F20" d="M248.385,45.715c-0.128,0-0.256-0.049-0.354-0.146c-0.195-0.195-0.195-0.512,0-0.707l20.95-20.95
		c0.195-0.195,0.512-0.195,0.707,0s0.195,0.512,0,0.707l-20.95,20.95C248.641,45.666,248.513,45.715,248.385,45.715z"/>
	<path fill="#231F20" d="M248.395,49.673c-0.128,0-0.256-0.049-0.354-0.146c-0.195-0.195-0.195-0.512,0-0.707l24.934-24.934
		c0.195-0.195,0.512-0.195,0.707,0s0.195,0.512,0,0.707l-24.934,24.934C248.651,49.625,248.523,49.673,248.395,49.673z"/>
	<path fill="#231F20" d="M248.395,53.704c-0.128,0-0.256-0.049-0.354-0.146c-0.195-0.195-0.195-0.512,0-0.707l28.662-28.662
		c0.195-0.195,0.512-0.195,0.707,0s0.195,0.512,0,0.707l-28.662,28.662C248.651,53.655,248.523,53.704,248.395,53.704z"/>
	<path fill="#231F20" d="M248.395,57.611c-0.128,0-0.256-0.049-0.354-0.146c-0.195-0.195-0.195-0.512,0-0.707l15.092-15.093
		c0.195-0.195,0.512-0.195,0.707,0s0.195,0.512,0,0.707l-15.092,15.093C248.651,57.562,248.523,57.611,248.395,57.611z"/>
	<path fill="#231F20" d="M248.395,61.642c-0.128,0-0.256-0.049-0.354-0.146c-0.195-0.195-0.195-0.512,0-0.707l15.113-15.112
		c0.195-0.195,0.512-0.195,0.707,0s0.195,0.512,0,0.707l-15.113,15.112C248.651,61.593,248.523,61.642,248.395,61.642z"/>
	<path fill="#231F20" d="M248.395,65.673c-0.128,0-0.256-0.049-0.354-0.146c-0.195-0.195-0.195-0.512,0-0.707l15.09-15.09
		c0.195-0.195,0.512-0.195,0.707,0s0.195,0.512,0,0.707l-15.09,15.09C248.651,65.624,248.523,65.673,248.395,65.673z"/>
	<path fill="#231F20" d="M248.395,69.642c-0.128,0-0.256-0.049-0.354-0.146c-0.195-0.195-0.195-0.512,0-0.707l15.111-15.11
		c0.195-0.195,0.512-0.195,0.707,0s0.195,0.512,0,0.707l-15.111,15.11C248.651,69.593,248.523,69.642,248.395,69.642z"/>
	<path fill="#231F20" d="M248.395,73.642c-0.128,0-0.256-0.049-0.354-0.146c-0.195-0.195-0.195-0.512,0-0.707l15.072-15.071
		c0.195-0.195,0.512-0.195,0.707,0s0.195,0.512,0,0.707l-15.072,15.071C248.651,73.593,248.523,73.642,248.395,73.642z"/>
	<path fill="#231F20" d="M248.492,77.576c-0.128,0-0.256-0.049-0.354-0.146c-0.195-0.195-0.195-0.512,0-0.707l14.975-14.975
		c0.195-0.195,0.512-0.195,0.707,0s0.195,0.512,0,0.707L248.846,77.43C248.748,77.527,248.62,77.576,248.492,77.576z"/>
	<path fill="#231F20" d="M252.492,77.576c-0.128,0-0.256-0.049-0.354-0.146c-0.195-0.195-0.195-0.512,0-0.707l10.987-10.987
		c0.195-0.195,0.512-0.195,0.707,0s0.195,0.512,0,0.707L252.846,77.43C252.748,77.527,252.62,77.576,252.492,77.576z"/>
	<path fill="#231F20" d="M256.49,77.609c-0.128,0-0.256-0.049-0.354-0.146c-0.195-0.195-0.195-0.512,0-0.707l7.015-7.015
		c0.195-0.195,0.512-0.195,0.707,0s0.195,0.512,0,0.707l-7.015,7.015C256.746,77.561,256.618,77.609,256.49,77.609z"/>
	<path fill="#231F20" d="M260.428,77.609c-0.128,0-0.256-0.049-0.354-0.146c-0.195-0.195-0.195-0.512,0-0.707l3.067-3.067
		c0.195-0.195,0.512-0.195,0.707,0s0.195,0.512,0,0.707l-3.067,3.067C260.684,77.561,260.556,77.609,260.428,77.609z"/>
	<path fill="#231F20" d="M269.628,36.475c-0.128,0-0.256-0.049-0.354-0.146c-0.195-0.195-0.195-0.512,0-0.707l10.944-10.944
		c0.195-0.195,0.512-0.195,0.707,0s0.195,0.512,0,0.707l-10.944,10.944C269.884,36.426,269.756,36.475,269.628,36.475z"/>
	<path fill="#231F20" d="M273.147,36.93c-0.128,0-0.256-0.049-0.354-0.146c-0.195-0.195-0.195-0.512,0-0.707l10.384-10.383
		c0.195-0.195,0.512-0.195,0.707,0s0.195,0.512,0,0.707l-10.384,10.383C273.403,36.881,273.275,36.93,273.147,36.93z"/>
	<path fill="#231F20" d="M275.75,38.278c-0.128,0-0.256-0.049-0.354-0.146c-0.195-0.195-0.195-0.512,0-0.707l10.498-10.498
		c0.195-0.195,0.512-0.195,0.707,0s0.195,0.512,0,0.707l-10.498,10.498C276.006,38.229,275.878,38.278,275.75,38.278z"/>
	<path fill="#231F20" d="M277.469,40.582c-0.128,0-0.256-0.049-0.354-0.146c-0.195-0.195-0.195-0.512,0-0.707l10.994-10.994
		c0.195-0.195,0.512-0.195,0.707,0s0.195,0.512,0,0.707l-10.994,10.994C277.725,40.533,277.597,40.582,277.469,40.582z"/>
	<path fill="#231F20" d="M278.031,43.993c-0.128,0-0.256-0.049-0.354-0.146c-0.195-0.195-0.195-0.512,0-0.707l12.273-12.273
		c0.195-0.195,0.512-0.195,0.707,0s0.195,0.512,0,0.707l-12.273,12.273C278.287,43.944,278.159,43.993,278.031,43.993z"/>
	<path fill="#231F20" d="M278.031,48.019c-0.128,0-0.256-0.049-0.354-0.146c-0.195-0.196-0.195-0.512,0-0.708l13.68-13.658
		c0.195-0.194,0.512-0.195,0.707,0c0.195,0.196,0.195,0.512,0,0.708l-13.68,13.658C278.287,47.97,278.159,48.019,278.031,48.019z"/>
	<path fill="#231F20" d="M278.031,52.04c-0.128,0-0.256-0.049-0.354-0.146c-0.195-0.195-0.195-0.512,0-0.707l14.648-14.649
		c0.195-0.195,0.512-0.195,0.707,0s0.195,0.512,0,0.707l-14.648,14.649C278.287,51.991,278.159,52.04,278.031,52.04z"/>
	<path fill="#231F20" d="M278.031,56.038c-0.128,0-0.256-0.049-0.354-0.146c-0.195-0.195-0.195-0.512,0-0.707l15.119-15.119
		c0.195-0.195,0.512-0.195,0.707,0s0.195,0.512,0,0.707l-15.119,15.119C278.287,55.989,278.159,56.038,278.031,56.038z"/>
	<path fill="#231F20" d="M278.031,60.084c-0.128,0-0.256-0.049-0.354-0.146c-0.195-0.195-0.195-0.512,0-0.707L292.807,44.1
		c0.195-0.195,0.512-0.195,0.707,0s0.195,0.512,0,0.707l-15.129,15.131C278.287,60.035,278.159,60.084,278.031,60.084z"/>
	<path fill="#231F20" d="M278.031,64.012c-0.128,0-0.256-0.049-0.354-0.146c-0.195-0.195-0.195-0.512,0-0.707l15.07-15.07
		c0.195-0.195,0.512-0.195,0.707,0s0.195,0.512,0,0.707l-15.07,15.07C278.287,63.963,278.159,64.012,278.031,64.012z"/>
	<path fill="#231F20" d="M278.031,68.012c-0.128,0-0.256-0.049-0.354-0.146c-0.195-0.195-0.195-0.512,0-0.707l15.104-15.104
		c0.195-0.195,0.512-0.195,0.707,0s0.195,0.512,0,0.707l-15.104,15.104C278.287,67.963,278.159,68.012,278.031,68.012z"/>
	<path fill="#231F20" d="M278.021,72.02c-0.128,0-0.256-0.049-0.354-0.146c-0.195-0.195-0.195-0.512,0-0.707l15.107-15.108
		c0.195-0.195,0.512-0.195,0.707,0s0.195,0.512,0,0.707l-15.107,15.108C278.277,71.971,278.149,72.02,278.021,72.02z"/>
	<path fill="#231F20" d="M278.043,76.04c-0.128,0-0.256-0.049-0.354-0.146c-0.195-0.195-0.195-0.512,0-0.707l15.119-15.118
		c0.195-0.195,0.512-0.195,0.707,0s0.195,0.512,0,0.707l-15.119,15.118C278.299,75.991,278.171,76.04,278.043,76.04z"/>
	<path fill="#231F20" d="M280.494,77.59c-0.128,0-0.256-0.049-0.354-0.146c-0.195-0.195-0.195-0.512,0-0.707l12.621-12.621
		c0.195-0.195,0.512-0.195,0.707,0s0.195,0.512,0,0.707l-12.621,12.621C280.75,77.541,280.622,77.59,280.494,77.59z"/>
	<path fill="#231F20" d="M284.477,77.581c-0.128,0-0.256-0.049-0.354-0.146c-0.195-0.195-0.195-0.512,0-0.707l8.664-8.662
		c0.195-0.195,0.512-0.195,0.707,0s0.195,0.512,0,0.707l-8.664,8.662C284.732,77.532,284.604,77.581,284.477,77.581z"/>
	<path fill="#231F20" d="M288.488,77.614c-0.128,0-0.256-0.049-0.354-0.146c-0.195-0.195-0.195-0.512,0-0.707l4.65-4.65
		c0.195-0.195,0.512-0.195,0.707,0s0.195,0.512,0,0.707l-4.65,4.65C288.744,77.565,288.616,77.614,288.488,77.614z"/>
	<path fill="#231F20" d="M292.281,77.691c-0.128,0-0.256-0.049-0.354-0.146c-0.195-0.195-0.195-0.512,0-0.707l0.881-0.882
		c0.195-0.195,0.512-0.195,0.707,0s0.195,0.512,0,0.707l-0.881,0.882C292.537,77.643,292.409,77.691,292.281,77.691z"/>
	<path fill="#231F20" d="M248.385,33.715c-0.128,0-0.256-0.049-0.354-0.146c-0.195-0.195-0.195-0.512,0-0.707l7.688-7.688
		c0.195-0.195,0.512-0.195,0.707,0s0.195,0.512,0,0.707l-7.688,7.688C248.641,33.666,248.513,33.715,248.385,33.715z"/>
	<path fill="#231F20" d="M248.385,29.715c-0.128,0-0.256-0.049-0.354-0.146c-0.195-0.195-0.195-0.512,0-0.707l2.155-2.155
		c0.195-0.195,0.512-0.195,0.707,0s0.195,0.512,0,0.707l-2.155,2.155C248.641,29.666,248.513,29.715,248.385,29.715z"/>
</g>
<g id="i_1_">
	<path fill="#231F20" d="M223.127,5.296c-0.128,0-0.256-0.049-0.354-0.146c-0.195-0.195-0.195-0.512,0-0.707l1.934-1.934
		c0.195-0.195,0.512-0.195,0.707,0s0.195,0.512,0,0.707l-1.934,1.934C223.383,5.247,223.255,5.296,223.127,5.296z"/>
	<path fill="#231F20" d="M221.778,10.645c-0.128,0-0.256-0.049-0.354-0.146c-0.195-0.195-0.195-0.512,0-0.707l8.757-8.757
		c0.195-0.195,0.512-0.195,0.707,0s0.195,0.512,0,0.707l-8.757,8.757C222.034,10.596,221.906,10.645,221.778,10.645z"/>
	<path fill="#231F20" d="M222.848,13.575c-0.128,0-0.256-0.049-0.354-0.146c-0.195-0.195-0.195-0.512,0-0.707l10.888-10.888
		c0.195-0.195,0.512-0.195,0.707,0s0.195,0.512,0,0.707l-10.888,10.888C223.104,13.526,222.976,13.575,222.848,13.575z"/>
	<path fill="#231F20" d="M224.668,15.754c-0.128,0-0.256-0.049-0.354-0.146c-0.195-0.195-0.195-0.512,0-0.707l11.424-11.424
		c0.195-0.195,0.512-0.195,0.707,0s0.195,0.512,0,0.707l-11.424,11.424C224.924,15.706,224.796,15.754,224.668,15.754z"/>
	<path fill="#231F20" d="M227.295,17.128c-0.128,0-0.256-0.049-0.354-0.146c-0.195-0.195-0.195-0.512,0-0.707l10.439-10.44
		c0.195-0.195,0.512-0.195,0.707,0s0.195,0.512,0,0.707l-10.439,10.44C227.551,17.079,227.423,17.128,227.295,17.128z"/>
	<path fill="#231F20" d="M230.943,17.48c-0.128,0-0.256-0.049-0.354-0.146c-0.195-0.195-0.195-0.512,0-0.707l7.539-7.539
		c0.195-0.195,0.512-0.195,0.707,0s0.195,0.512,0,0.707l-7.539,7.539C231.199,17.432,231.071,17.48,230.943,17.48z"/>
	<path fill="#231F20" d="M222.6,26.823c-0.128,0-0.256-0.049-0.354-0.146c-0.195-0.195-0.195-0.512,0-0.707l1.045-1.045
		c0.195-0.195,0.512-0.195,0.707,0s0.195,0.512,0,0.707l-1.045,1.045C222.855,26.774,222.728,26.823,222.6,26.823z"/>
	<path fill="#231F20" d="M222.594,30.829c-0.128,0-0.256-0.049-0.354-0.146c-0.195-0.195-0.195-0.512,0-0.707l5.051-5.051
		c0.195-0.195,0.512-0.195,0.707,0s0.195,0.512,0,0.707l-5.051,5.051C222.85,30.78,222.722,30.829,222.594,30.829z"/>
	<path fill="#231F20" d="M222.594,34.829c-0.128,0-0.256-0.049-0.354-0.146c-0.195-0.195-0.195-0.512,0-0.707l9.053-9.053
		c0.195-0.195,0.512-0.195,0.707,0s0.195,0.512,0,0.707l-9.053,9.053C222.85,34.78,222.722,34.829,222.594,34.829z"/>
	<path fill="#231F20" d="M222.575,38.848c-0.128,0-0.256-0.049-0.354-0.146c-0.195-0.195-0.195-0.512,0-0.707l13.071-13.071
		c0.195-0.195,0.512-0.195,0.707,0s0.195,0.512,0,0.707l-13.071,13.071C222.831,38.799,222.703,38.848,222.575,38.848z"/>
	<path fill="#231F20" d="M222.554,42.869c-0.128,0-0.256-0.049-0.354-0.146c-0.195-0.195-0.195-0.512,0-0.707l15.131-15.131
		c0.195-0.195,0.512-0.195,0.707,0s0.195,0.512,0,0.707l-15.131,15.131C222.81,42.82,222.682,42.869,222.554,42.869z"/>
	<path fill="#231F20" d="M222.561,46.862c-0.128,0-0.256-0.049-0.354-0.146c-0.195-0.195-0.195-0.512,0-0.707l15.109-15.109
		c0.195-0.195,0.512-0.195,0.707,0s0.195,0.512,0,0.707l-15.109,15.109C222.816,46.813,222.688,46.862,222.561,46.862z"/>
	<path fill="#231F20" d="M222.561,50.862c-0.128,0-0.256-0.049-0.354-0.146c-0.195-0.195-0.195-0.512,0-0.707l15.125-15.125
		c0.195-0.195,0.512-0.195,0.707,0s0.195,0.512,0,0.707l-15.125,15.125C222.816,50.813,222.688,50.862,222.561,50.862z"/>
	<path fill="#231F20" d="M222.561,54.862c-0.128,0-0.256-0.049-0.354-0.146c-0.195-0.195-0.195-0.512,0-0.707l15.125-15.125
		c0.195-0.195,0.512-0.195,0.707,0s0.195,0.512,0,0.707l-15.125,15.125C222.816,54.813,222.688,54.862,222.561,54.862z"/>
	<path fill="#231F20" d="M222.561,58.862c-0.128,0-0.256-0.049-0.354-0.146c-0.195-0.195-0.195-0.512,0-0.707l15.125-15.125
		c0.195-0.195,0.512-0.195,0.707,0s0.195,0.512,0,0.707l-15.125,15.125C222.816,58.813,222.688,58.862,222.561,58.862z"/>
	<path fill="#231F20" d="M222.561,62.862c-0.128,0-0.256-0.049-0.354-0.146c-0.195-0.195-0.195-0.512,0-0.707l15.125-15.125
		c0.195-0.195,0.512-0.195,0.707,0s0.195,0.512,0,0.707l-15.125,15.125C222.816,62.813,222.688,62.862,222.561,62.862z"/>
	<path fill="#231F20" d="M222.561,66.862c-0.128,0-0.256-0.049-0.354-0.146c-0.195-0.195-0.195-0.512,0-0.707l15.125-15.125
		c0.195-0.195,0.512-0.195,0.707,0s0.195,0.512,0,0.707l-15.125,15.125C222.816,66.813,222.688,66.862,222.561,66.862z"/>
	<path fill="#231F20" d="M222.561,70.862c-0.128,0-0.256-0.049-0.354-0.146c-0.195-0.195-0.195-0.512,0-0.707l15.125-15.125
		c0.195-0.195,0.512-0.195,0.707,0s0.195,0.512,0,0.707l-15.125,15.125C222.816,70.813,222.688,70.862,222.561,70.862z"/>
	<path fill="#231F20" d="M222.561,74.862c-0.128,0-0.256-0.049-0.354-0.146c-0.195-0.195-0.195-0.512,0-0.707l15.125-15.125
		c0.195-0.195,0.512-0.195,0.707,0s0.195,0.512,0,0.707l-15.125,15.125C222.816,74.813,222.688,74.862,222.561,74.862z"/>
	<path fill="#231F20" d="M223.842,77.581c-0.128,0-0.256-0.049-0.354-0.146c-0.195-0.195-0.195-0.512,0-0.707l13.828-13.828
		c0.195-0.195,0.512-0.195,0.707,0s0.195,0.512,0,0.707l-13.828,13.828C224.098,77.532,223.97,77.581,223.842,77.581z"/>
	<path fill="#231F20" d="M227.886,77.537c-0.128,0-0.256-0.049-0.354-0.146c-0.195-0.195-0.195-0.512,0-0.707l9.784-9.784
		c0.195-0.195,0.512-0.195,0.707,0s0.195,0.512,0,0.707l-9.784,9.784C228.142,77.488,228.014,77.537,227.886,77.537z"/>
	<path fill="#231F20" d="M231.886,77.537c-0.128,0-0.256-0.049-0.354-0.146c-0.195-0.195-0.195-0.512,0-0.707l5.899-5.899
		c0.195-0.195,0.512-0.195,0.707,0s0.195,0.512,0,0.707l-5.899,5.899C232.142,77.488,232.014,77.537,231.886,77.537z"/>
	<path fill="#231F20" d="M235.874,77.55c-0.128,0-0.256-0.049-0.354-0.146c-0.195-0.195-0.195-0.512,0-0.707l1.609-1.609
		c0.195-0.195,0.512-0.195,0.707,0s0.195,0.512,0,0.707l-1.609,1.609C236.129,77.501,236.001,77.55,235.874,77.55z"/>
	<path fill="#231F20" d="M235.801,16.721c-0.128,0-0.256-0.049-0.354-0.146c-0.195-0.195-0.195-0.512,0-0.707l1.934-1.934
		c0.195-0.195,0.512-0.195,0.707,0s0.195,0.512,0,0.707l-1.934,1.934C236.057,16.672,235.929,16.721,235.801,16.721z"/>
</g>
<g id="p_3_">
	<path fill="#231F20" d="M167.139,28.75c-0.128,0-0.256-0.049-0.354-0.146c-0.195-0.195-0.195-0.512,0-0.707l1.806-1.806
		c0.195-0.195,0.512-0.195,0.707,0s0.195,0.512,0,0.707l-1.806,1.806C167.395,28.702,167.267,28.75,167.139,28.75z"/>
	<path fill="#231F20" d="M167.139,32.75c-0.128,0-0.256-0.049-0.354-0.146c-0.195-0.195-0.195-0.512,0-0.707l7.393-7.393
		c0.195-0.195,0.512-0.195,0.707,0s0.195,0.512,0,0.707l-7.393,7.393C167.395,32.702,167.267,32.75,167.139,32.75z"/>
	<path fill="#231F20" d="M167.139,36.75c-0.128,0-0.256-0.049-0.354-0.146c-0.195-0.195-0.195-0.512,0-0.707l12.299-12.299
		c0.195-0.195,0.512-0.195,0.707,0s0.195,0.512,0,0.707l-12.299,12.299C167.395,36.702,167.267,36.75,167.139,36.75z"/>
	<path fill="#231F20" d="M167.139,40.75c-0.128,0-0.256-0.049-0.354-0.146c-0.195-0.195-0.195-0.512,0-0.707l16.615-16.615
		c0.195-0.195,0.512-0.195,0.707,0s0.195,0.512,0,0.707l-16.615,16.615C167.395,40.702,167.267,40.75,167.139,40.75z"/>
	<path fill="#231F20" d="M167.139,44.75c-0.128,0-0.256-0.049-0.354-0.146c-0.195-0.195-0.195-0.512,0-0.707l20.736-20.736
		c0.195-0.195,0.512-0.195,0.707,0s0.195,0.512,0,0.707l-20.736,20.736C167.395,44.702,167.267,44.75,167.139,44.75z"/>
	<path fill="#231F20" d="M167.139,48.75c-0.128,0-0.256-0.049-0.354-0.146c-0.195-0.195-0.195-0.512,0-0.707l24.473-24.473
		c0.195-0.195,0.512-0.195,0.707,0s0.195,0.512,0,0.707l-24.473,24.473C167.395,48.702,167.267,48.75,167.139,48.75z"/>
	<path fill="#231F20" d="M167.139,52.75c-0.128,0-0.256-0.049-0.354-0.146c-0.195-0.195-0.195-0.512,0-0.707l27.503-27.503
		c0.195-0.195,0.512-0.195,0.707,0s0.195,0.512,0,0.707l-27.503,27.503C167.395,52.701,167.267,52.75,167.139,52.75z"/>
	<path fill="#231F20" d="M167.139,56.75c-0.128,0-0.256-0.049-0.354-0.146c-0.195-0.195-0.195-0.512,0-0.707l15.119-15.118
		c0.195-0.195,0.512-0.195,0.707,0s0.195,0.512,0,0.707l-15.119,15.118C167.395,56.701,167.267,56.75,167.139,56.75z"/>
	<path fill="#231F20" d="M167.139,60.75c-0.128,0-0.256-0.049-0.354-0.146c-0.195-0.195-0.195-0.512,0-0.707l15.119-15.118
		c0.195-0.195,0.512-0.195,0.707,0s0.195,0.512,0,0.707l-15.119,15.118C167.395,60.701,167.267,60.75,167.139,60.75z"/>
	<path fill="#231F20" d="M167.139,64.75c-0.128,0-0.256-0.049-0.354-0.146c-0.195-0.195-0.195-0.512,0-0.707l15.119-15.118
		c0.195-0.195,0.512-0.195,0.707,0s0.195,0.512,0,0.707l-15.119,15.118C167.395,64.701,167.267,64.75,167.139,64.75z"/>
	<path fill="#231F20" d="M167.139,68.75c-0.128,0-0.256-0.049-0.354-0.146c-0.195-0.195-0.195-0.512,0-0.707l15.119-15.118
		c0.195-0.195,0.512-0.195,0.707,0s0.195,0.512,0,0.707l-15.119,15.118C167.395,68.701,167.267,68.75,167.139,68.75z"/>
	<path fill="#231F20" d="M167.139,72.75c-0.128,0-0.256-0.049-0.354-0.146c-0.195-0.195-0.195-0.512,0-0.707l15.119-15.118
		c0.195-0.195,0.512-0.195,0.707,0s0.195,0.512,0,0.707l-15.119,15.118C167.395,72.701,167.267,72.75,167.139,72.75z"/>
	<path fill="#231F20" d="M167.139,76.75c-0.128,0-0.256-0.049-0.354-0.146c-0.195-0.195-0.195-0.512,0-0.707l15.119-15.118
		c0.195-0.195,0.512-0.195,0.707,0s0.195,0.512,0,0.707l-15.119,15.118C167.395,76.701,167.267,76.75,167.139,76.75z"/>
	<path fill="#231F20" d="M167.139,80.751c-0.128,0-0.256-0.049-0.354-0.146c-0.195-0.195-0.195-0.512,0-0.707l15.119-15.119
		c0.195-0.195,0.512-0.195,0.707,0s0.195,0.512,0,0.707l-15.119,15.119C167.395,80.702,167.267,80.751,167.139,80.751z"/>
	<path fill="#231F20" d="M167.139,84.751c-0.128,0-0.256-0.049-0.354-0.146c-0.195-0.195-0.195-0.512,0-0.707l18.009-18.01
		c0.195-0.195,0.512-0.195,0.707,0s0.195,0.512,0,0.707l-18.009,18.01C167.395,84.702,167.267,84.751,167.139,84.751z"/>
	<path fill="#231F20" d="M167.139,88.751c-0.128,0-0.256-0.049-0.354-0.146c-0.195-0.195-0.195-0.512,0-0.707l21.916-21.916
		c0.195-0.195,0.512-0.195,0.707,0s0.195,0.512,0,0.707l-21.916,21.916C167.395,88.702,167.267,88.751,167.139,88.751z"/>
	<path fill="#231F20" d="M167.139,96.751c-0.128,0-0.256-0.049-0.354-0.146c-0.195-0.195-0.195-0.512,0-0.707l15.119-15.119
		c0.195-0.195,0.512-0.195,0.707,0s0.195,0.512,0,0.707l-15.119,15.119C167.395,96.702,167.267,96.751,167.139,96.751z"/>
	<path fill="#231F20" d="M169.285,98.604c-0.128,0-0.256-0.049-0.354-0.146c-0.195-0.195-0.195-0.512,0-0.707l12.973-12.973
		c0.195-0.195,0.512-0.195,0.707,0s0.195,0.512,0,0.707l-12.973,12.973C169.541,98.556,169.413,98.604,169.285,98.604z"/>
	<path fill="#231F20" d="M173.285,98.604c-0.128,0-0.256-0.049-0.354-0.146c-0.195-0.195-0.195-0.512,0-0.707l8.973-8.973
		c0.195-0.195,0.512-0.195,0.707,0s0.195,0.512,0,0.707l-8.973,8.973C173.541,98.556,173.413,98.604,173.285,98.604z"/>
	<path fill="#231F20" d="M177.286,98.604c-0.128,0-0.256-0.049-0.354-0.146c-0.195-0.195-0.195-0.512,0-0.707l4.972-4.973
		c0.195-0.195,0.512-0.195,0.707,0s0.195,0.512,0,0.707l-4.972,4.973C177.542,98.556,177.414,98.604,177.286,98.604z"/>
	<path fill="#231F20" d="M181.285,98.604c-0.128,0-0.256-0.049-0.354-0.146c-0.195-0.195-0.195-0.512,0-0.707l0.973-0.973
		c0.195-0.195,0.512-0.195,0.707,0s0.195,0.512,0,0.707l-0.973,0.973C181.541,98.556,181.413,98.604,181.285,98.604z"/>
	<path fill="#231F20" d="M187.969,35.921c-0.128,0-0.256-0.049-0.354-0.146c-0.195-0.195-0.195-0.512,0-0.707l9.929-9.93
		c0.195-0.195,0.512-0.195,0.707,0s0.195,0.512,0,0.707l-9.929,9.93C188.225,35.873,188.097,35.921,187.969,35.921z"/>
	<path fill="#231F20" d="M191.336,36.554c-0.128,0-0.256-0.049-0.354-0.146c-0.195-0.195-0.195-0.512,0-0.707l9.316-9.316
		c0.195-0.195,0.512-0.195,0.707,0s0.195,0.512,0,0.707l-9.316,9.316C191.592,36.505,191.464,36.554,191.336,36.554z"/>
	<path fill="#231F20" d="M193.875,38.015c-0.128,0-0.256-0.049-0.354-0.146c-0.195-0.195-0.195-0.512,0-0.707l9.391-9.391
		c0.195-0.195,0.512-0.195,0.707,0s0.195,0.512,0,0.707l-9.391,9.391C194.131,37.966,194.003,38.015,193.875,38.015z"/>
	<path fill="#231F20" d="M195.844,40.046c-0.128,0-0.256-0.049-0.354-0.146c-0.195-0.195-0.195-0.512,0-0.707l9.73-9.731
		c0.195-0.195,0.512-0.195,0.707,0s0.195,0.512,0,0.707l-9.73,9.731C196.1,39.998,195.972,40.046,195.844,40.046z"/>
	<path fill="#231F20" d="M197.225,42.666c-0.128,0-0.256-0.049-0.354-0.146c-0.195-0.195-0.195-0.512,0-0.707l10.341-10.341
		c0.195-0.195,0.512-0.195,0.707,0s0.195,0.512,0,0.707l-10.341,10.341C197.48,42.617,197.353,42.666,197.225,42.666z"/>
	<path fill="#231F20" d="M198.109,45.781c-0.128,0-0.256-0.049-0.354-0.146c-0.195-0.195-0.195-0.512,0-0.707l11.194-11.195
		c0.195-0.195,0.512-0.195,0.707,0s0.195,0.512,0,0.707l-11.194,11.195C198.365,45.732,198.237,45.781,198.109,45.781z"/>
	<path fill="#231F20" d="M198.578,49.312c-0.128,0-0.256-0.049-0.354-0.146c-0.195-0.195-0.195-0.512,0-0.707l12.163-12.164
		c0.195-0.195,0.512-0.195,0.707,0s0.195,0.512,0,0.707l-12.163,12.164C198.834,49.263,198.706,49.312,198.578,49.312z"/>
	<path fill="#231F20" d="M194.203,77.688c-0.128,0-0.256-0.049-0.354-0.146c-0.195-0.195-0.195-0.512,0-0.707l18.797-18.798
		c0.195-0.195,0.512-0.195,0.707,0s0.195,0.512,0,0.707l-18.797,18.798C194.459,77.639,194.331,77.688,194.203,77.688z"/>
	<path fill="#231F20" d="M198.5,53.391c-0.128,0-0.256-0.049-0.354-0.146c-0.195-0.195-0.195-0.512,0-0.707l13.414-13.415
		c0.195-0.195,0.512-0.195,0.707,0s0.195,0.512,0,0.707l-13.414,13.415C198.756,53.342,198.628,53.391,198.5,53.391z"/>
	<path fill="#231F20" d="M197.734,58.156c-0.128,0-0.256-0.049-0.354-0.146c-0.195-0.195-0.195-0.512,0-0.707l15.027-15.028
		c0.195-0.195,0.512-0.195,0.707,0s0.195,0.512,0,0.707L198.088,58.01C197.99,58.107,197.862,58.156,197.734,58.156z"/>
	<path fill="#231F20" d="M186.098,77.793c-0.128,0-0.256-0.049-0.354-0.146c-0.195-0.195-0.195-0.512,0-0.707l27.551-27.552
		c0.195-0.195,0.512-0.195,0.707,0s0.195,0.512,0,0.707l-27.551,27.552C186.354,77.744,186.226,77.793,186.098,77.793z"/>
	<path fill="#231F20" d="M189.853,78.038c-0.128,0-0.256-0.049-0.354-0.146c-0.195-0.195-0.195-0.512,0-0.707l23.729-23.73
		c0.195-0.195,0.512-0.195,0.707,0s0.195,0.512,0,0.707l-23.729,23.73C190.108,77.989,189.98,78.038,189.853,78.038z"/>
	<path fill="#231F20" d="M199.684,76.206c-0.128,0-0.256-0.049-0.354-0.146c-0.195-0.195-0.195-0.512,0-0.707l11.637-11.637
		c0.195-0.195,0.512-0.195,0.707,0s0.195,0.512,0,0.707L200.037,76.06C199.939,76.157,199.812,76.206,199.684,76.206z"/>
	<path fill="#231F20" d="M205.994,73.896c-0.128,0-0.256-0.049-0.354-0.146c-0.195-0.195-0.195-0.512,0-0.707l3.508-3.508
		c0.195-0.195,0.512-0.195,0.707,0s0.195,0.512,0,0.707l-3.508,3.508C206.25,73.847,206.122,73.896,205.994,73.896z"/>
	<path fill="#231F20" d="M167.139,92.671c-0.128,0-0.256-0.049-0.354-0.146c-0.195-0.195-0.195-0.512,0-0.707l46.353-46.354
		c0.195-0.195,0.512-0.195,0.707,0s0.195,0.512,0,0.707l-46.353,46.354C167.395,92.622,167.267,92.671,167.139,92.671z"/>
</g>
<g id="p_2_">
	<path fill="#231F20" d="M111.672,28.75c-0.128,0-0.256-0.049-0.354-0.146c-0.195-0.195-0.195-0.512,0-0.707l1.806-1.806
		c0.195-0.195,0.512-0.195,0.707,0s0.195,0.512,0,0.707l-1.806,1.806C111.928,28.702,111.8,28.75,111.672,28.75z"/>
	<path fill="#231F20" d="M111.672,32.75c-0.128,0-0.256-0.049-0.354-0.146c-0.195-0.195-0.195-0.512,0-0.707l7.393-7.393
		c0.195-0.195,0.512-0.195,0.707,0s0.195,0.512,0,0.707l-7.393,7.393C111.928,32.702,111.8,32.75,111.672,32.75z"/>
	<path fill="#231F20" d="M111.672,36.75c-0.128,0-0.256-0.049-0.354-0.146c-0.195-0.195-0.195-0.512,0-0.707l12.299-12.299
		c0.195-0.195,0.512-0.195,0.707,0s0.195,0.512,0,0.707l-12.299,12.299C111.928,36.702,111.8,36.75,111.672,36.75z"/>
	<path fill="#231F20" d="M111.672,40.75c-0.128,0-0.256-0.049-0.354-0.146c-0.195-0.195-0.195-0.512,0-0.707l16.615-16.615
		c0.195-0.195,0.512-0.195,0.707,0s0.195,0.512,0,0.707l-16.615,16.615C111.928,40.702,111.8,40.75,111.672,40.75z"/>
	<path fill="#231F20" d="M111.672,44.75c-0.128,0-0.256-0.049-0.354-0.146c-0.195-0.195-0.195-0.512,0-0.707l20.736-20.736
		c0.195-0.195,0.512-0.195,0.707,0s0.195,0.512,0,0.707l-20.736,20.736C111.928,44.702,111.8,44.75,111.672,44.75z"/>
	<path fill="#231F20" d="M111.672,48.75c-0.128,0-0.256-0.049-0.354-0.146c-0.195-0.195-0.195-0.512,0-0.707l24.473-24.473
		c0.195-0.195,0.512-0.195,0.707,0s0.195,0.512,0,0.707l-24.473,24.473C111.928,48.702,111.8,48.75,111.672,48.75z"/>
	<path fill="#231F20" d="M111.672,52.75c-0.128,0-0.256-0.049-0.354-0.146c-0.195-0.195-0.195-0.512,0-0.707l27.503-27.503
		c0.195-0.195,0.512-0.195,0.707,0s0.195,0.512,0,0.707l-27.503,27.503C111.928,52.701,111.8,52.75,111.672,52.75z"/>
	<path fill="#231F20" d="M111.672,56.75c-0.128,0-0.256-0.049-0.354-0.146c-0.195-0.195-0.195-0.512,0-0.707l15.119-15.118
		c0.195-0.195,0.512-0.195,0.707,0s0.195,0.512,0,0.707l-15.119,15.118C111.928,56.701,111.8,56.75,111.672,56.75z"/>
	<path fill="#231F20" d="M111.672,60.75c-0.128,0-0.256-0.049-0.354-0.146c-0.195-0.195-0.195-0.512,0-0.707l15.119-15.118
		c0.195-0.195,0.512-0.195,0.707,0s0.195,0.512,0,0.707l-15.119,15.118C111.928,60.701,111.8,60.75,111.672,60.75z"/>
	<path fill="#231F20" d="M111.672,64.75c-0.128,0-0.256-0.049-0.354-0.146c-0.195-0.195-0.195-0.512,0-0.707l15.119-15.118
		c0.195-0.195,0.512-0.195,0.707,0s0.195,0.512,0,0.707l-15.119,15.118C111.928,64.701,111.8,64.75,111.672,64.75z"/>
	<path fill="#231F20" d="M111.672,68.75c-0.128,0-0.256-0.049-0.354-0.146c-0.195-0.195-0.195-0.512,0-0.707l15.119-15.118
		c0.195-0.195,0.512-0.195,0.707,0s0.195,0.512,0,0.707l-15.119,15.118C111.928,68.701,111.8,68.75,111.672,68.75z"/>
	<path fill="#231F20" d="M111.672,72.75c-0.128,0-0.256-0.049-0.354-0.146c-0.195-0.195-0.195-0.512,0-0.707l15.119-15.118
		c0.195-0.195,0.512-0.195,0.707,0s0.195,0.512,0,0.707l-15.119,15.118C111.928,72.701,111.8,72.75,111.672,72.75z"/>
	<path fill="#231F20" d="M111.672,76.75c-0.128,0-0.256-0.049-0.354-0.146c-0.195-0.195-0.195-0.512,0-0.707l15.119-15.118
		c0.195-0.195,0.512-0.195,0.707,0s0.195,0.512,0,0.707l-15.119,15.118C111.928,76.701,111.8,76.75,111.672,76.75z"/>
	<path fill="#231F20" d="M111.672,80.751c-0.128,0-0.256-0.049-0.354-0.146c-0.195-0.195-0.195-0.512,0-0.707l15.119-15.119
		c0.195-0.195,0.512-0.195,0.707,0s0.195,0.512,0,0.707l-15.119,15.119C111.928,80.702,111.8,80.751,111.672,80.751z"/>
	<path fill="#231F20" d="M111.672,84.751c-0.128,0-0.256-0.049-0.354-0.146c-0.195-0.195-0.195-0.512,0-0.707l18.009-18.01
		c0.195-0.195,0.512-0.195,0.707,0s0.195,0.512,0,0.707l-18.009,18.01C111.928,84.702,111.8,84.751,111.672,84.751z"/>
	<path fill="#231F20" d="M111.672,88.751c-0.128,0-0.256-0.049-0.354-0.146c-0.195-0.195-0.195-0.512,0-0.707l21.916-21.916
		c0.195-0.195,0.512-0.195,0.707,0s0.195,0.512,0,0.707l-21.916,21.916C111.928,88.702,111.8,88.751,111.672,88.751z"/>
	<path fill="#231F20" d="M111.672,96.751c-0.128,0-0.256-0.049-0.354-0.146c-0.195-0.195-0.195-0.512,0-0.707l15.119-15.119
		c0.195-0.195,0.512-0.195,0.707,0s0.195,0.512,0,0.707l-15.119,15.119C111.928,96.702,111.8,96.751,111.672,96.751z"/>
	<path fill="#231F20" d="M113.818,98.604c-0.128,0-0.256-0.049-0.354-0.146c-0.195-0.195-0.195-0.512,0-0.707l12.973-12.973
		c0.195-0.195,0.512-0.195,0.707,0s0.195,0.512,0,0.707l-12.973,12.973C114.074,98.556,113.946,98.604,113.818,98.604z"/>
	<path fill="#231F20" d="M117.818,98.604c-0.128,0-0.256-0.049-0.354-0.146c-0.195-0.195-0.195-0.512,0-0.707l8.973-8.973
		c0.195-0.195,0.512-0.195,0.707,0s0.195,0.512,0,0.707l-8.973,8.973C118.074,98.556,117.946,98.604,117.818,98.604z"/>
	<path fill="#231F20" d="M121.819,98.604c-0.128,0-0.256-0.049-0.354-0.146c-0.195-0.195-0.195-0.512,0-0.707l4.972-4.973
		c0.195-0.195,0.512-0.195,0.707,0s0.195,0.512,0,0.707l-4.972,4.973C122.075,98.556,121.947,98.604,121.819,98.604z"/>
	<path fill="#231F20" d="M125.818,98.604c-0.128,0-0.256-0.049-0.354-0.146c-0.195-0.195-0.195-0.512,0-0.707l0.973-0.973
		c0.195-0.195,0.512-0.195,0.707,0s0.195,0.512,0,0.707l-0.973,0.973C126.074,98.556,125.946,98.604,125.818,98.604z"/>
	<path fill="#231F20" d="M132.502,35.921c-0.128,0-0.256-0.049-0.354-0.146c-0.195-0.195-0.195-0.512,0-0.707l9.929-9.93
		c0.195-0.195,0.512-0.195,0.707,0s0.195,0.512,0,0.707l-9.929,9.93C132.758,35.873,132.63,35.921,132.502,35.921z"/>
	<path fill="#231F20" d="M135.87,36.554c-0.128,0-0.256-0.049-0.354-0.146c-0.195-0.195-0.195-0.512,0-0.707l9.316-9.316
		c0.195-0.195,0.512-0.195,0.707,0s0.195,0.512,0,0.707l-9.316,9.316C136.125,36.505,135.998,36.554,135.87,36.554z"/>
	<path fill="#231F20" d="M138.408,38.015c-0.128,0-0.256-0.049-0.354-0.146c-0.195-0.195-0.195-0.512,0-0.707l9.391-9.391
		c0.195-0.195,0.512-0.195,0.707,0s0.195,0.512,0,0.707l-9.391,9.391C138.664,37.966,138.536,38.015,138.408,38.015z"/>
	<path fill="#231F20" d="M140.377,40.046c-0.128,0-0.256-0.049-0.354-0.146c-0.195-0.195-0.195-0.512,0-0.707l9.73-9.731
		c0.195-0.195,0.512-0.195,0.707,0s0.195,0.512,0,0.707l-9.73,9.731C140.633,39.998,140.505,40.046,140.377,40.046z"/>
	<path fill="#231F20" d="M141.758,42.666c-0.128,0-0.256-0.049-0.354-0.146c-0.195-0.195-0.195-0.512,0-0.707l10.341-10.341
		c0.195-0.195,0.512-0.195,0.707,0s0.195,0.512,0,0.707l-10.341,10.341C142.014,42.617,141.886,42.666,141.758,42.666z"/>
	<path fill="#231F20" d="M142.643,45.781c-0.128,0-0.256-0.049-0.354-0.146c-0.195-0.195-0.195-0.512,0-0.707l11.194-11.195
		c0.195-0.195,0.512-0.195,0.707,0s0.195,0.512,0,0.707l-11.194,11.195C142.898,45.732,142.771,45.781,142.643,45.781z"/>
	<path fill="#231F20" d="M143.111,49.312c-0.128,0-0.256-0.049-0.354-0.146c-0.195-0.195-0.195-0.512,0-0.707l12.163-12.164
		c0.195-0.195,0.512-0.195,0.707,0s0.195,0.512,0,0.707l-12.163,12.164C143.367,49.263,143.239,49.312,143.111,49.312z"/>
	<path fill="#231F20" d="M138.736,77.688c-0.128,0-0.256-0.049-0.354-0.146c-0.195-0.195-0.195-0.512,0-0.707l18.797-18.798
		c0.195-0.195,0.512-0.195,0.707,0s0.195,0.512,0,0.707L139.09,77.541C138.992,77.639,138.864,77.688,138.736,77.688z"/>
	<path fill="#231F20" d="M143.033,53.391c-0.128,0-0.256-0.049-0.354-0.146c-0.195-0.195-0.195-0.512,0-0.707l13.414-13.415
		c0.195-0.195,0.512-0.195,0.707,0s0.195,0.512,0,0.707l-13.414,13.415C143.289,53.342,143.161,53.391,143.033,53.391z"/>
	<path fill="#231F20" d="M142.268,58.156c-0.128,0-0.256-0.049-0.354-0.146c-0.195-0.195-0.195-0.512,0-0.707l15.027-15.028
		c0.195-0.195,0.512-0.195,0.707,0s0.195,0.512,0,0.707L142.621,58.01C142.523,58.107,142.396,58.156,142.268,58.156z"/>
	<path fill="#231F20" d="M130.631,77.793c-0.128,0-0.256-0.049-0.354-0.146c-0.195-0.195-0.195-0.512,0-0.707l27.551-27.552
		c0.195-0.195,0.512-0.195,0.707,0s0.195,0.512,0,0.707l-27.551,27.552C130.887,77.744,130.759,77.793,130.631,77.793z"/>
	<path fill="#231F20" d="M134.386,78.038c-0.128,0-0.256-0.049-0.354-0.146c-0.195-0.195-0.195-0.512,0-0.707l23.729-23.73
		c0.195-0.195,0.512-0.195,0.707,0s0.195,0.512,0,0.707l-23.729,23.73C134.642,77.989,134.514,78.038,134.386,78.038z"/>
	<path fill="#231F20" d="M144.217,76.206c-0.128,0-0.256-0.049-0.354-0.146c-0.195-0.195-0.195-0.512,0-0.707L155.5,63.716
		c0.195-0.195,0.512-0.195,0.707,0s0.195,0.512,0,0.707L144.57,76.06C144.473,76.157,144.345,76.206,144.217,76.206z"/>
	<path fill="#231F20" d="M150.527,73.896c-0.128,0-0.256-0.049-0.354-0.146c-0.195-0.195-0.195-0.512,0-0.707l3.508-3.508
		c0.195-0.195,0.512-0.195,0.707,0s0.195,0.512,0,0.707l-3.508,3.508C150.783,73.847,150.655,73.896,150.527,73.896z"/>
	<path fill="#231F20" d="M111.672,92.671c-0.128,0-0.256-0.049-0.354-0.146c-0.195-0.195-0.195-0.512,0-0.707l46.331-46.332
		c0.195-0.195,0.512-0.195,0.707,0s0.195,0.512,0,0.707l-46.331,46.332C111.928,92.622,111.8,92.671,111.672,92.671z"/>
</g>
<g id="o_2_">
	<path fill="#231F20" d="M78.978,36.1c-0.128,0-0.256-0.049-0.354-0.146c-0.195-0.195-0.195-0.512,0-0.707l9.935-9.935
		c0.195-0.195,0.512-0.195,0.707,0s0.195,0.512,0,0.707l-9.935,9.935C79.233,36.051,79.105,36.1,78.978,36.1z"/>
	<path fill="#231F20" d="M55.922,59.157c-0.128,0-0.256-0.049-0.354-0.146c-0.195-0.195-0.195-0.512,0-0.707l14.798-14.799
		c0.195-0.195,0.512-0.195,0.707,0s0.195,0.512,0,0.707L56.275,59.011C56.178,59.108,56.05,59.157,55.922,59.157z"/>
	<path fill="#231F20" d="M56.354,62.767c-0.128,0-0.256-0.049-0.354-0.146c-0.195-0.195-0.195-0.512,0-0.707l13.747-13.747
		c0.195-0.195,0.512-0.195,0.707,0s0.195,0.512,0,0.707L56.707,62.62C56.609,62.718,56.481,62.767,56.354,62.767z"/>
	<path fill="#231F20" d="M82.397,36.723c-0.128,0-0.256-0.049-0.354-0.146c-0.195-0.195-0.195-0.512,0-0.707l9.136-9.136
		c0.195-0.195,0.512-0.195,0.707,0s0.195,0.512,0,0.707l-9.136,9.136C82.653,36.674,82.525,36.723,82.397,36.723z"/>
	<path fill="#231F20" d="M84.772,38.348c-0.128,0-0.256-0.049-0.354-0.146c-0.195-0.195-0.195-0.512,0-0.707l9.149-9.149
		c0.195-0.195,0.512-0.195,0.707,0s0.195,0.512,0,0.707l-9.149,9.149C85.028,38.299,84.9,38.348,84.772,38.348z"/>
	<path fill="#231F20" d="M57.527,65.58c-0.128,0-0.256-0.049-0.354-0.146c-0.195-0.195-0.195-0.512,0-0.707l12.544-12.543
		c0.195-0.195,0.512-0.195,0.707,0s0.195,0.512,0,0.707L57.881,65.434C57.783,65.531,57.655,65.58,57.527,65.58z"/>
	<path fill="#231F20" d="M58.949,68.158c-0.128,0-0.256-0.049-0.354-0.146c-0.195-0.195-0.195-0.512,0-0.707l11.479-11.478
		c0.195-0.195,0.512-0.195,0.707,0s0.195,0.512,0,0.707L59.303,68.012C59.205,68.109,59.077,68.158,58.949,68.158z"/>
	<path fill="#231F20" d="M60.652,70.455c-0.128,0-0.256-0.049-0.354-0.146c-0.195-0.195-0.195-0.512,0-0.707l10.403-10.402
		c0.195-0.195,0.512-0.195,0.707,0s0.195,0.512,0,0.707L61.006,70.309C60.908,70.406,60.78,70.455,60.652,70.455z"/>
	<path fill="#231F20" d="M62.637,72.471c-0.128,0-0.256-0.049-0.354-0.147c-0.195-0.195-0.194-0.512,0.001-0.707l9.609-9.575
		c0.196-0.194,0.512-0.195,0.707,0.002c0.195,0.195,0.194,0.512-0.001,0.707l-9.609,9.575
		C62.892,72.422,62.764,72.471,62.637,72.471z"/>
	<path fill="#231F20" d="M64.855,74.253c-0.128,0-0.256-0.049-0.354-0.146c-0.195-0.195-0.195-0.512,0-0.707l9.294-9.294
		c0.195-0.195,0.512-0.195,0.707,0s0.195,0.512,0,0.707l-9.294,9.294C65.111,74.204,64.983,74.253,64.855,74.253z"/>
	<path fill="#231F20" d="M67.332,75.775c-0.128,0-0.256-0.049-0.354-0.146c-0.195-0.195-0.195-0.512,0-0.707l9.317-9.316
		c0.195-0.195,0.512-0.195,0.707,0s0.195,0.512,0,0.707l-9.317,9.316C67.588,75.727,67.46,75.775,67.332,75.775z"/>
	<path fill="none" stroke="#231F20" stroke-linecap="round" d="M69.884,76.724"/>
	<path fill="#231F20" d="M70.145,76.963c-0.128,0-0.256-0.049-0.354-0.146c-0.195-0.195-0.195-0.512,0-0.707l10.278-10.277
		c0.195-0.195,0.512-0.195,0.707,0s0.195,0.512,0,0.707L70.498,76.816C70.4,76.914,70.272,76.963,70.145,76.963z"/>
	<path fill="#231F20" d="M86.368,40.74c-0.128,0-0.256-0.049-0.354-0.146c-0.195-0.195-0.195-0.512,0-0.707l9.56-9.56
		c0.195-0.195,0.512-0.195,0.707,0s0.195,0.512,0,0.707l-9.56,9.56C86.624,40.691,86.496,40.74,86.368,40.74z"/>
	<path fill="#231F20" d="M87.438,43.67c-0.128,0-0.256-0.049-0.354-0.146c-0.195-0.195-0.195-0.512,0-0.707l10.475-10.474
		c0.195-0.195,0.512-0.195,0.707,0s0.195,0.512,0,0.707L87.792,43.523C87.694,43.621,87.566,43.67,87.438,43.67z"/>
	<path fill="#231F20" d="M88.084,47.022c-0.128,0-0.256-0.049-0.354-0.146c-0.195-0.195-0.195-0.512,0-0.707l11.541-11.54
		c0.195-0.195,0.512-0.195,0.707,0s0.195,0.512,0,0.707l-11.541,11.54C88.34,46.974,88.212,47.022,88.084,47.022z"/>
	<path fill="#231F20" d="M88.297,50.81c-0.128,0-0.256-0.048-0.354-0.146c-0.195-0.195-0.195-0.512,0-0.708l12.307-12.307
		c0.195-0.195,0.512-0.195,0.707,0s0.195,0.512,0,0.707L88.651,50.664C88.553,50.762,88.425,50.81,88.297,50.81z"/>
	<path fill="#231F20" d="M88.146,54.973c-0.128,0-0.256-0.049-0.354-0.146c-0.195-0.195-0.195-0.512,0-0.707l13.502-13.502
		c0.195-0.195,0.512-0.195,0.707,0s0.195,0.512,0,0.707L88.5,54.826C88.402,54.924,88.274,54.973,88.146,54.973z"/>
	<path fill="#231F20" d="M73.309,77.799c-0.128,0-0.256-0.049-0.354-0.146c-0.195-0.195-0.195-0.512,0-0.707L102.5,47.401
		c0.195-0.195,0.512-0.195,0.707,0s0.195,0.512,0,0.707L73.662,77.652C73.564,77.75,73.437,77.799,73.309,77.799z"/>
	<path fill="#231F20" d="M76.862,78.247c-0.128,0-0.256-0.049-0.354-0.146c-0.195-0.195-0.195-0.512,0-0.707l26.133-26.135
		c0.195-0.195,0.512-0.195,0.707,0s0.195,0.512,0,0.707L77.216,78.101C77.118,78.198,76.99,78.247,76.862,78.247z"/>
	<path fill="#231F20" d="M80.868,78.241c-0.128,0-0.256-0.049-0.354-0.146c-0.195-0.195-0.195-0.512,0-0.707l21.727-21.728
		c0.195-0.195,0.512-0.195,0.707,0s0.195,0.512,0,0.707L81.221,78.095C81.124,78.192,80.996,78.241,80.868,78.241z"/>
	<path fill="#231F20" d="M85.676,77.433c-0.128,0-0.256-0.049-0.354-0.146c-0.195-0.195-0.195-0.512,0-0.707l15.3-15.3
		c0.195-0.195,0.512-0.195,0.707,0s0.195,0.512,0,0.707l-15.3,15.3C85.932,77.384,85.804,77.433,85.676,77.433z"/>
	<path fill="#231F20" d="M93.387,73.721c-0.128,0-0.256-0.049-0.354-0.146c-0.195-0.195-0.195-0.512,0-0.707l4.261-4.262
		c0.195-0.195,0.512-0.195,0.707,0s0.195,0.512,0,0.707l-4.261,4.262C93.643,73.672,93.515,73.721,93.387,73.721z"/>
	<path fill="#231F20" d="M87.141,59.967c-0.128,0-0.256-0.049-0.354-0.146c-0.195-0.195-0.195-0.512,0-0.707l15.3-15.3
		c0.195-0.195,0.512-0.195,0.707,0s0.195,0.512,0,0.707l-15.3,15.3C87.397,59.918,87.269,59.967,87.141,59.967z"/>
	<path fill="none" stroke="#231F20" stroke-linecap="round" stroke-linejoin="bevel" d="M53.89,54.648"/>
	<path fill="none" stroke="#231F20" stroke-linecap="round" stroke-linejoin="bevel" d="M81.414,27.123"/>
	<path fill="#231F20" d="M54.736,56.342c-0.128,0-0.256-0.049-0.354-0.146c-0.195-0.195-0.195-0.512,0-0.707l31.436-31.436
		c0.195-0.195,0.512-0.195,0.707,0s0.195,0.512,0,0.707L55.09,56.195C54.992,56.293,54.864,56.342,54.736,56.342z"/>
	<path fill="#231F20" d="M54.308,52.771c-0.128,0-0.256-0.049-0.354-0.146c-0.195-0.195-0.195-0.512,0-0.707l28.198-28.199
		c0.195-0.195,0.512-0.195,0.707,0s0.195,0.512,0,0.707L54.661,52.624C54.563,52.722,54.436,52.771,54.308,52.771z"/>
	<path fill="#231F20" d="M54.524,48.554c-0.128,0-0.256-0.049-0.354-0.146c-0.195-0.195-0.195-0.512,0-0.707l24.547-24.548
		c0.195-0.195,0.512-0.195,0.707,0s0.195,0.512,0,0.707L54.878,48.408C54.78,48.505,54.652,48.554,54.524,48.554z"/>
	<path fill="#231F20" d="M55.588,43.491c-0.128,0-0.256-0.049-0.354-0.146c-0.195-0.195-0.195-0.512,0-0.707l19.041-19.042
		c0.195-0.195,0.512-0.195,0.707,0s0.195,0.512,0,0.707L55.941,43.344C55.844,43.442,55.716,43.491,55.588,43.491z"/>
	<path fill="#231F20" d="M56.355,38.763c-0.128,0-0.255-0.049-0.353-0.146c-0.195-0.195-0.196-0.511-0.001-0.707l12.558-12.599
		c0.195-0.195,0.512-0.195,0.707-0.001c0.195,0.195,0.196,0.511,0.001,0.707L56.709,38.616
		C56.611,38.714,56.483,38.763,56.355,38.763z"/>
	<path fill="#231F20" d="M58.387,32.721c-0.128,0-0.256-0.049-0.354-0.146c-0.195-0.195-0.195-0.512,0-0.707l4.261-4.262
		c0.195-0.195,0.512-0.195,0.707,0s0.195,0.512,0,0.707l-4.261,4.262C58.643,32.672,58.515,32.721,58.387,32.721z"/>
</g>
<g id="H_1_">
	<path fill="#231F20" d="M0.5,1.925c-0.128,0-0.256-0.049-0.354-0.146c-0.195-0.195-0.195-0.512,0-0.707l0.882-0.882
		c0.195-0.195,0.512-0.195,0.707,0s0.195,0.512,0,0.707L0.854,1.778C0.756,1.876,0.628,1.925,0.5,1.925z"/>
	<path fill="#231F20" d="M0.781,5.644c-0.128,0-0.256-0.049-0.354-0.146c-0.195-0.195-0.195-0.512,0-0.707l4.485-4.485
		c0.195-0.195,0.512-0.195,0.707,0s0.195,0.512,0,0.707L1.134,5.498C1.037,5.595,0.909,5.644,0.781,5.644z"/>
	<path fill="#231F20" d="M0.781,9.576c-0.128,0-0.256-0.049-0.354-0.146c-0.195-0.195-0.195-0.512,0-0.707l8.386-8.386
		c0.195-0.195,0.512-0.195,0.707,0s0.195,0.512,0,0.707L1.134,9.429C1.037,9.527,0.909,9.576,0.781,9.576z"/>
	<path fill="#231F20" d="M0.781,13.548c-0.128,0-0.256-0.049-0.354-0.146c-0.195-0.195-0.195-0.512,0-0.707L12.976,0.146
		c0.195-0.195,0.512-0.195,0.707,0s0.195,0.512,0,0.707L1.134,13.402C1.037,13.5,0.909,13.548,0.781,13.548z"/>
	<path fill="#231F20" d="M0.574,17.812c-0.128,0-0.256-0.049-0.354-0.146c-0.195-0.195-0.195-0.512,0-0.707L15.54,1.639
		c0.195-0.195,0.512-0.195,0.707,0s0.195,0.512,0,0.707L0.927,17.665C0.83,17.763,0.702,17.812,0.574,17.812z"/>
	<path fill="#231F20" d="M0.781,21.577c-0.128,0-0.256-0.049-0.354-0.146c-0.195-0.195-0.195-0.512,0-0.707L15.534,5.616
		c0.195-0.195,0.512-0.195,0.707,0s0.195,0.512,0,0.707L1.134,21.431C1.037,21.528,0.909,21.577,0.781,21.577z"/>
	<path fill="#231F20" d="M0.781,25.634c-0.128,0-0.256-0.049-0.354-0.146c-0.195-0.195-0.195-0.512,0-0.707L15.547,9.66
		c0.195-0.195,0.512-0.195,0.707,0s0.195,0.512,0,0.707L1.134,25.488C1.037,25.585,0.909,25.634,0.781,25.634z"/>
	<path fill="#231F20" d="M0.781,29.606c-0.128,0-0.256-0.049-0.354-0.146c-0.195-0.195-0.195-0.512,0-0.707l15.12-15.119
		c0.195-0.195,0.512-0.195,0.707,0s0.195,0.512,0,0.707L1.134,29.46C1.037,29.558,0.909,29.606,0.781,29.606z"/>
	<path fill="#231F20" d="M0.781,33.58c-0.128,0-0.256-0.049-0.354-0.146c-0.195-0.195-0.195-0.512,0-0.707l15.104-15.104
		c0.195-0.195,0.512-0.195,0.707,0s0.195,0.512,0,0.707L1.134,33.433C1.037,33.531,0.909,33.58,0.781,33.58z"/>
	<path fill="#231F20" d="M0.771,37.684c-0.128,0-0.256-0.049-0.354-0.146c-0.195-0.195-0.195-0.512,0-0.707l15.106-15.106
		c0.195-0.195,0.512-0.195,0.707,0s0.195,0.512,0,0.707L1.124,37.537C1.026,37.635,0.898,37.684,0.771,37.684z"/>
	<path fill="#231F20" d="M0.781,41.673c-0.128,0-0.256-0.049-0.354-0.146c-0.195-0.195-0.195-0.512,0-0.707l15.12-15.12
		c0.195-0.195,0.512-0.195,0.707,0s0.195,0.512,0,0.707l-15.12,15.12C1.037,41.625,0.909,41.673,0.781,41.673z"/>
	<path fill="#231F20" d="M0.771,45.684c-0.128,0-0.256-0.049-0.354-0.146c-0.195-0.195-0.195-0.512,0-0.707l20.086-20.086
		c0.195-0.195,0.512-0.195,0.707,0s0.195,0.512,0,0.707L1.124,45.537C1.026,45.635,0.898,45.684,0.771,45.684z"/>
	<path fill="#231F20" d="M0.781,49.642c-0.128,0-0.256-0.049-0.354-0.146c-0.195-0.195-0.195-0.512,0-0.707L25.18,24.036
		c0.195-0.195,0.512-0.195,0.707,0s0.195,0.512,0,0.707L1.134,49.496C1.037,49.593,0.909,49.642,0.781,49.642z"/>
	<path fill="#231F20" d="M0.781,53.674c-0.128,0-0.256-0.049-0.354-0.146c-0.195-0.195-0.195-0.512,0-0.707L29.09,24.157
		c0.195-0.195,0.512-0.195,0.707,0s0.195,0.512,0,0.707L1.134,53.527C1.037,53.625,0.909,53.674,0.781,53.674z"/>
	<path fill="#231F20" d="M0.781,57.579c-0.128,0-0.256-0.049-0.354-0.146c-0.195-0.195-0.195-0.512,0-0.707L15.52,41.634
		c0.195-0.195,0.512-0.195,0.707,0s0.195,0.512,0,0.707L1.134,57.433C1.037,57.53,0.909,57.579,0.781,57.579z"/>
	<path fill="#231F20" d="M0.781,61.611c-0.128,0-0.256-0.049-0.354-0.146c-0.195-0.195-0.195-0.512,0-0.707L15.54,45.645
		c0.195-0.195,0.512-0.195,0.707,0s0.195,0.512,0,0.707L1.134,61.465C1.037,61.562,0.909,61.611,0.781,61.611z"/>
	<path fill="#231F20" d="M0.781,65.642c-0.128,0-0.256-0.049-0.354-0.146c-0.195-0.195-0.195-0.512,0-0.707l15.09-15.09
		c0.195-0.195,0.512-0.195,0.707,0s0.195,0.512,0,0.707l-15.09,15.09C1.037,65.593,0.909,65.642,0.781,65.642z"/>
	<path fill="#231F20" d="M0.781,69.611c-0.128,0-0.256-0.049-0.354-0.146c-0.195-0.195-0.195-0.512,0-0.707l15.111-15.111
		c0.195-0.195,0.512-0.195,0.707,0s0.195,0.512,0,0.707L1.134,69.465C1.037,69.562,0.909,69.611,0.781,69.611z"/>
	<path fill="#231F20" d="M0.781,73.611c-0.128,0-0.256-0.049-0.354-0.146c-0.195-0.195-0.195-0.512,0-0.707l15.072-15.072
		c0.195-0.195,0.512-0.195,0.707,0s0.195,0.512,0,0.707L1.134,73.465C1.037,73.562,0.909,73.611,0.781,73.611z"/>
	<path fill="#231F20" d="M0.878,77.545c-0.128,0-0.256-0.049-0.354-0.146c-0.195-0.195-0.195-0.512,0-0.707l14.975-14.975
		c0.195-0.195,0.512-0.195,0.707,0s0.195,0.512,0,0.707L1.231,77.398C1.134,77.496,1.006,77.545,0.878,77.545z"/>
	<path fill="#231F20" d="M4.878,77.545c-0.128,0-0.256-0.049-0.354-0.146c-0.195-0.195-0.195-0.512,0-0.707l10.987-10.987
		c0.195-0.195,0.512-0.195,0.707,0s0.195,0.512,0,0.707L5.231,77.398C5.134,77.496,5.006,77.545,4.878,77.545z"/>
	<path fill="#231F20" d="M8.876,77.578c-0.128,0-0.256-0.049-0.354-0.146c-0.195-0.195-0.195-0.512,0-0.707l7.015-7.015
		c0.195-0.195,0.512-0.195,0.707,0s0.195,0.512,0,0.707l-7.015,7.015C9.132,77.529,9.004,77.578,8.876,77.578z"/>
	<path fill="#231F20" d="M12.813,77.578c-0.128,0-0.256-0.049-0.354-0.146c-0.195-0.195-0.195-0.512,0-0.707l3.067-3.067
		c0.195-0.195,0.512-0.195,0.707,0s0.195,0.512,0,0.707l-3.067,3.067C13.069,77.529,12.941,77.578,12.813,77.578z"/>
	<path fill="#231F20" d="M22.014,36.444c-0.128,0-0.256-0.049-0.354-0.146c-0.195-0.195-0.195-0.512,0-0.707l10.944-10.944
		c0.195-0.195,0.512-0.195,0.707,0s0.195,0.512,0,0.707L22.368,36.297C22.27,36.395,22.142,36.444,22.014,36.444z"/>
	<path fill="#231F20" d="M25.533,36.898c-0.128,0-0.256-0.049-0.354-0.146c-0.195-0.195-0.195-0.512,0-0.707l10.384-10.383
		c0.195-0.195,0.512-0.195,0.707,0s0.195,0.512,0,0.707L25.887,36.752C25.789,36.85,25.661,36.898,25.533,36.898z"/>
	<path fill="#231F20" d="M28.137,38.247c-0.128,0-0.256-0.049-0.354-0.146c-0.195-0.195-0.195-0.512,0-0.707l10.498-10.498
		c0.195-0.195,0.512-0.195,0.707,0s0.195,0.512,0,0.707L28.49,38.101C28.393,38.198,28.265,38.247,28.137,38.247z"/>
	<path fill="#231F20" d="M29.854,40.551c-0.128,0-0.256-0.049-0.354-0.146c-0.195-0.195-0.195-0.512,0-0.707l10.994-10.994
		c0.195-0.195,0.512-0.195,0.707,0s0.195,0.512,0,0.707L30.208,40.404C30.11,40.502,29.982,40.551,29.854,40.551z"/>
	<path fill="#231F20" d="M30.418,43.962c-0.128,0-0.256-0.049-0.354-0.146c-0.195-0.195-0.195-0.512,0-0.707l12.273-12.273
		c0.195-0.195,0.512-0.195,0.707,0s0.195,0.512,0,0.707L30.771,43.815C30.674,43.913,30.546,43.962,30.418,43.962z"/>
	<path fill="#231F20" d="M30.417,47.987c-0.128,0-0.256-0.049-0.354-0.146c-0.195-0.196-0.195-0.512,0-0.708l13.68-13.658
		c0.195-0.194,0.512-0.195,0.708,0c0.195,0.196,0.195,0.512,0,0.708l-13.68,13.658C30.673,47.938,30.545,47.987,30.417,47.987z"/>
	<path fill="#231F20" d="M30.417,52.009c-0.128,0-0.256-0.049-0.354-0.146c-0.195-0.195-0.195-0.512,0-0.707l14.649-14.649
		c0.195-0.195,0.512-0.195,0.707,0s0.195,0.512,0,0.707L30.771,51.862C30.673,51.96,30.545,52.009,30.417,52.009z"/>
	<path fill="#231F20" d="M30.417,56.007c-0.128,0-0.256-0.049-0.354-0.146c-0.195-0.195-0.195-0.512,0-0.707l15.119-15.119
		c0.195-0.195,0.512-0.195,0.707,0s0.195,0.512,0,0.707L30.771,55.86C30.673,55.958,30.545,56.007,30.417,56.007z"/>
	<path fill="#231F20" d="M30.417,60.053c-0.128,0-0.256-0.049-0.354-0.146c-0.195-0.195-0.195-0.512,0-0.707l15.13-15.131
		c0.195-0.195,0.512-0.195,0.707,0s0.195,0.512,0,0.707l-15.13,15.131C30.673,60.004,30.545,60.053,30.417,60.053z"/>
	<path fill="#231F20" d="M30.417,63.98c-0.128,0-0.256-0.049-0.354-0.146c-0.195-0.195-0.195-0.512,0-0.707l15.07-15.07
		c0.195-0.195,0.512-0.195,0.707,0s0.195,0.512,0,0.707l-15.07,15.07C30.673,63.932,30.545,63.98,30.417,63.98z"/>
	<path fill="#231F20" d="M30.417,67.98c-0.128,0-0.256-0.049-0.354-0.146c-0.195-0.195-0.195-0.512,0-0.707l15.104-15.104
		c0.195-0.195,0.512-0.195,0.707,0s0.195,0.512,0,0.707L30.771,67.834C30.673,67.932,30.545,67.98,30.417,67.98z"/>
	<path fill="#231F20" d="M30.407,71.988c-0.128,0-0.256-0.049-0.354-0.146c-0.195-0.195-0.195-0.512,0-0.707l15.109-15.109
		c0.195-0.195,0.512-0.195,0.707,0s0.195,0.512,0,0.707L30.761,71.842C30.663,71.939,30.535,71.988,30.407,71.988z"/>
	<path fill="#231F20" d="M30.43,76.01c-0.128,0-0.256-0.049-0.354-0.146c-0.195-0.195-0.195-0.512,0-0.707l15.119-15.119
		c0.195-0.195,0.512-0.195,0.707,0s0.195,0.512,0,0.707L30.784,75.863C30.686,75.961,30.558,76.01,30.43,76.01z"/>
	<path fill="#231F20" d="M32.881,77.559c-0.128,0-0.256-0.049-0.354-0.146c-0.195-0.195-0.195-0.512,0-0.707l12.622-12.621
		c0.195-0.195,0.512-0.195,0.707,0s0.195,0.512,0,0.707L33.234,77.412C33.137,77.51,33.009,77.559,32.881,77.559z"/>
	<path fill="#231F20" d="M36.864,77.55c-0.128,0-0.256-0.049-0.354-0.146c-0.195-0.195-0.195-0.512,0-0.707l8.663-8.662
		c0.195-0.195,0.512-0.195,0.707,0s0.195,0.512,0,0.707l-8.663,8.662C37.12,77.501,36.992,77.55,36.864,77.55z"/>
	<path fill="#231F20" d="M40.875,77.583c-0.128,0-0.256-0.049-0.354-0.146c-0.195-0.195-0.195-0.512,0-0.707l4.65-4.65
		c0.195-0.195,0.512-0.195,0.707,0s0.195,0.512,0,0.707l-4.65,4.65C41.131,77.534,41.003,77.583,40.875,77.583z"/>
	<path fill="#231F20" d="M44.667,77.66c-0.128,0-0.256-0.049-0.354-0.146c-0.195-0.195-0.195-0.512,0-0.707l0.882-0.882
		c0.195-0.195,0.512-0.195,0.707,0s0.195,0.512,0,0.707l-0.882,0.882C44.923,77.611,44.795,77.66,44.667,77.66z"/>
</g>
<g>
</g>
<g>
</g>
<g>
</g>
<g>
</g>
<g>
</g>
<g>
</g>
</svg>
