<?xml version="1.0" encoding="utf-8"?>
<!-- Generator: Adobe Illustrator 16.0.0, SVG Export Plug-In . SVG Version: 6.00 Build 0)  -->
<!DOCTYPE svg PUBLIC "-//W3C//DTD SVG 1.1//EN" "http://www.w3.org/Graphics/SVG/1.1/DTD/svg11.dtd">
<svg version="1.1" id="Layer_1" xmlns="http://www.w3.org/2000/svg" xmlns:xlink="http://www.w3.org/1999/xlink" x="0px" y="0px"
	 width="842px" height="333px" viewBox="0 0 842 333" enable-background="new 0 0 842 333" xml:space="preserve">
<g>
	<defs>
		<rect id="SVGID_1_" width="842" height="333"/>
	</defs>
	<clipPath id="SVGID_2_">
		<use xlink:href="#SVGID_1_"  overflow="visible"/>
	</clipPath>
	<g clip-path="url(#SVGID_2_)">
		<defs>
			<rect id="SVGID_3_" y="-131" width="842" height="595"/>
		</defs>
		<clipPath id="SVGID_4_">
			<use xlink:href="#SVGID_3_"  overflow="visible"/>
		</clipPath>
		<polyline clip-path="url(#SVGID_4_)" fill="#ED1B2F" points="448.546,113.25 399.714,141.442 350.883,113.25 350.883,56.863 
			399.714,28.67 448.546,56.863 448.546,113.25 		"/>
		<polyline clip-path="url(#SVGID_4_)" fill="#D32052" points="448.546,113.25 399.714,141.442 350.883,113.25 448.546,56.863 
			448.546,113.25 		"/>
		<polyline clip-path="url(#SVGID_4_)" fill="#B51E87" points="448.546,113.25 399.714,141.442 399.714,28.67 448.546,56.863 
			448.546,113.25 		"/>
		<polyline clip-path="url(#SVGID_4_)" fill="#9A258F" points="448.546,113.25 350.883,56.863 399.714,28.67 448.546,56.863 
			448.546,113.25 		"/>
		<polyline clip-path="url(#SVGID_4_)" fill="#F37021" points="350.883,56.863 399.714,28.67 399.714,85.057 350.883,56.863 		"/>
		<polyline clip-path="url(#SVGID_4_)" fill="#F05323" points="399.714,28.67 448.546,56.863 399.714,85.057 399.714,28.67 		"/>
		<polyline clip-path="url(#SVGID_4_)" fill="#ED1B2F" points="350.883,113.25 302.051,141.442 253.219,113.25 253.219,56.863 
			302.051,28.67 350.883,56.863 350.883,113.25 		"/>
		<polyline clip-path="url(#SVGID_4_)" fill="#D32052" points="350.883,113.25 302.051,141.442 253.219,113.25 350.883,56.863 
			350.883,113.25 		"/>
		<polyline clip-path="url(#SVGID_4_)" fill="#B51E87" points="350.883,113.25 302.051,141.442 302.051,28.67 350.883,56.863 
			350.883,113.25 		"/>
		<polyline clip-path="url(#SVGID_4_)" fill="#9A258F" points="350.883,113.25 253.219,56.863 302.051,28.67 350.883,56.863 
			350.883,113.25 		"/>
		<polyline clip-path="url(#SVGID_4_)" fill="#F37021" points="253.219,56.863 302.051,28.67 302.051,85.057 253.219,56.863 		"/>
		<polyline clip-path="url(#SVGID_4_)" fill="#F05323" points="302.051,28.67 350.883,56.863 302.051,85.057 302.051,28.67 		"/>
		<polyline clip-path="url(#SVGID_4_)" fill="#ED1B2F" points="546.209,113.25 497.377,141.442 448.546,113.25 448.546,56.863 
			497.377,28.67 546.209,56.863 546.209,113.25 		"/>
		<polyline clip-path="url(#SVGID_4_)" fill="#D32052" points="546.209,113.25 497.377,141.442 448.546,113.25 546.209,56.863 
			546.209,113.25 		"/>
		<polyline clip-path="url(#SVGID_4_)" fill="#B51E87" points="546.209,113.25 497.377,141.442 497.377,28.67 546.209,56.863 
			546.209,113.25 		"/>
		<polyline clip-path="url(#SVGID_4_)" fill="#9A258F" points="546.209,113.25 448.546,56.863 497.377,28.67 546.209,56.863 
			546.209,113.25 		"/>
		<polyline clip-path="url(#SVGID_4_)" fill="#F37021" points="448.546,56.863 497.377,28.67 497.377,85.057 448.546,56.863 		"/>
		<polyline clip-path="url(#SVGID_4_)" fill="#F05323" points="497.377,28.67 546.209,56.863 497.377,85.057 497.377,28.67 		"/>
		<polyline clip-path="url(#SVGID_4_)" fill="#F99D1C" points="399.714,28.67 448.546,0.478 448.546,56.863 399.714,28.67 		"/>
		<polyline clip-path="url(#SVGID_4_)" fill="#F68B1F" points="448.546,0.478 497.377,28.67 448.546,56.863 448.546,0.478 		"/>
		<polyline clip-path="url(#SVGID_4_)" fill="#F99D1C" points="302.051,28.67 350.883,0.478 350.883,56.863 302.051,28.67 		"/>
	</g>
</g>
<g>
	<defs>
		<rect id="SVGID_5_" width="842" height="333"/>
	</defs>
	<clipPath id="SVGID_6_">
		<use xlink:href="#SVGID_5_"  overflow="visible"/>
	</clipPath>
	<g clip-path="url(#SVGID_6_)">
		<defs>
			<rect id="SVGID_7_" x="0.078" y="0.478" width="841.54" height="332.522"/>
		</defs>
		<clipPath id="SVGID_8_">
			<use xlink:href="#SVGID_7_"  overflow="visible"/>
		</clipPath>
		<g clip-path="url(#SVGID_8_)">
			<defs>
				<rect id="SVGID_9_" y="-131" width="842" height="595"/>
			</defs>
			<clipPath id="SVGID_10_">
				<use xlink:href="#SVGID_9_"  overflow="visible"/>
			</clipPath>
			<polyline clip-path="url(#SVGID_10_)" fill="#F68B1F" points="350.883,0.478 399.714,28.67 350.883,56.863 350.883,0.478 			"/>
			<polyline clip-path="url(#SVGID_10_)" points="0,265.953 0,211.699 11.714,211.699 27.126,233.893 41.924,211.699 
				53.638,211.699 53.638,265.953 41.924,265.953 41.924,227.882 28.359,248.689 24.662,248.689 11.714,229.499 11.714,265.953 
				0,265.953 			"/>
		</g>
	</g>
</g>
<g>
	<defs>
		<rect id="SVGID_11_" width="842" height="333"/>
	</defs>
	<clipPath id="SVGID_12_">
		<use xlink:href="#SVGID_11_"  overflow="visible"/>
	</clipPath>
	<g clip-path="url(#SVGID_12_)">
		<defs>
			<rect id="SVGID_13_" y="-131" width="842" height="595"/>
		</defs>
		<clipPath id="SVGID_14_">
			<use xlink:href="#SVGID_13_"  overflow="visible"/>
		</clipPath>
		<rect x="67.19" y="211.699" clip-path="url(#SVGID_14_)" width="11.714" height="54.254"/>
		<polyline clip-path="url(#SVGID_14_)" points="86.7,265.953 104.641,238.979 87.346,211.697 100.787,211.699 111.346,228.423 
			122.058,211.699 134.614,211.678 117.279,237.746 135.175,265.951 121.749,265.953 110.498,248.229 99.247,265.953 86.7,265.953 
					"/>
		<path clip-path="url(#SVGID_14_)" d="M139.312,238.21c0-18.188,13.254-27.128,27.743-27.128c6.474,0,12.332,1.85,14.181,3.697
			l-1.85,8.635c-3.391-1.852-7.399-2.777-12.332-2.777c-8.015,0-15.722,6.473-15.722,17.881c0,13.871,7.707,18.495,15.722,18.495
			c5.549,0,10.173-1.54,12.332-3.392l1.85,8.324c-3.083,2.774-8.94,4.623-15.414,4.623
			C149.485,266.568,139.312,255.779,139.312,238.21"/>
		<path clip-path="url(#SVGID_14_)" d="M188.01,238.825c0-17.879,9.248-27.743,25.277-27.743c16.647,0,25.278,9.864,25.278,27.743
			s-9.248,27.743-25.278,27.743C196.641,266.568,188.01,256.704,188.01,238.825 M226.542,238.825
			c0-12.331-4.932-18.188-13.256-18.188c-8.631,0-13.255,5.857-13.255,18.188c0,12.33,4.932,18.188,13.564,18.188
			C221.918,257.013,226.542,251.155,226.542,238.825z"/>
		<polyline clip-path="url(#SVGID_14_)" points="248.42,265.953 248.42,211.699 260.135,211.699 275.548,233.893 290.344,211.699 
			302.058,211.699 302.058,265.953 290.344,265.953 290.344,227.882 276.781,248.689 273.082,248.689 260.135,229.499 
			260.135,265.953 248.42,265.953 		"/>
		<polyline clip-path="url(#SVGID_14_)" points="335.925,265.953 335.925,211.699 339.008,211.699 360.277,242.217 381.857,211.699 
			384.938,211.699 384.938,265.953 381.857,265.953 381.857,216.707 360.277,246.84 359.662,246.84 339.008,217.092 
			339.008,265.953 335.925,265.953 		"/>
		<polyline clip-path="url(#SVGID_14_)" points="399.726,265.953 399.726,211.699 429.319,211.699 429.319,214.473 402.809,214.473 
			402.809,235.744 426.235,235.744 426.235,238.518 402.809,238.518 402.809,263.178 430.552,263.178 430.552,265.953 
			399.726,265.953 		"/>
		<path clip-path="url(#SVGID_14_)" d="M441.642,265.953v-54.254h12.948c17.878,0,27.127,9.247,27.127,25.893
			c0,16.955-8.94,28.361-26.819,28.361H441.642 M455.513,263.178c15.722,0,23.121-10.172,23.121-25.586s-8.323-23.119-23.736-23.119
			h-10.172v48.705H455.513z"/>
		<rect x="494.289" y="211.699" clip-path="url(#SVGID_14_)" width="3.084" height="54.254"/>
		<path clip-path="url(#SVGID_14_)" d="M506.338,265.951l21.837-54.252h2.775l19.967,54.252l-3.321,0.002l-5.241-14.182h-27.049
			l-5.625,14.182L506.338,265.951 M541.277,248.689l-11.868-32.366l-12.871,32.366H541.277z"/>
		<path clip-path="url(#SVGID_14_)" d="M575.328,238.21c0-16.647,12.638-27.128,24.969-27.128c7.09,0,11.715,2.157,14.181,4.008
			l-0.615,2.467c-2.466-1.543-6.783-3.699-13.565-3.699c-11.405,0-21.886,9.863-21.886,24.353c0,16.028,8.323,25.585,20.963,25.585
			c6.165,0,10.171-2.159,12.33-3.391v-19.113h-9.557v-2.773h12.638v23.118c-2.773,2.159-8.014,4.933-15.411,4.933
			C582.111,266.568,575.328,252.389,575.328,238.21"/>
		<path clip-path="url(#SVGID_14_)" d="M628.65,265.953v-54.254h14.179c12.022,0,17.264,6.164,17.264,15.104
			c0,7.398-4.315,12.639-10.48,15.414l13.938,23.736h-3.458l-13.562-23.121h-14.798v23.121H628.65 M648.071,240.059
			c5.24-2.159,8.939-6.166,8.939-13.256c0-7.706-4.317-12.33-14.182-12.33h-11.096v25.586H648.071z"/>
		<path clip-path="url(#SVGID_14_)" d="M669.334,238.825c0-17.879,9.557-27.743,23.12-27.743c14.18,0,23.121,9.864,23.121,27.743
			s-9.557,27.743-23.121,27.743C678.272,266.568,669.334,256.704,669.334,238.825 M712.491,238.825
			c0-15.411-6.782-24.968-20.037-24.968c-12.948,0-20.038,9.557-20.038,24.968c0,15.413,6.782,24.97,20.038,24.97
			C705.4,263.795,712.491,254.238,712.491,238.825z"/>
		<path clip-path="url(#SVGID_14_)" d="M726.663,245.607v-33.908h3.082v33.908c0,11.715,4.933,18.188,16.031,18.188
			c9.864,0,15.72-6.166,15.72-18.188v-33.908h3.084v33.908c0,13.255-7.397,20.961-18.804,20.961
			C732.828,266.568,726.663,258.555,726.663,245.607"/>
		<path clip-path="url(#SVGID_14_)" d="M779.369,265.953v-54.254h13.255c12.639,0,18.804,6.781,18.804,16.029
			c0,10.481-6.473,19.111-20.036,19.111h-8.941v19.113H779.369 M792.007,244.064c10.789,0,16.339-6.473,16.339-16.336
			c0-7.398-4.932-13.256-14.797-13.256H782.45v29.592H792.007z"/>
		<polyline clip-path="url(#SVGID_14_)" points="841.618,314.631 315.582,333 313.758,280.788 839.795,262.418 841.618,314.631 		
			"/>
		<polyline clip-path="url(#SVGID_14_)" fill="#ED1B2F" points="837.595,311.612 311.557,329.981 309.735,277.77 835.771,259.4 
			837.595,311.612 		"/>
		<polyline clip-path="url(#SVGID_14_)" fill="#FFFFFF" points="337.317,316.992 326.628,289.749 326.613,289.271 329.163,289.181 
			338.987,314.539 347.339,288.546 349.731,288.463 349.748,288.942 340.507,316.881 337.317,316.992 		"/>
		<path clip-path="url(#SVGID_14_)" fill="#FFFFFF" d="M352.778,302.405c-0.323-9.247,4.282-14.518,11.776-14.778
			c7.812-0.273,12.454,4.673,12.777,13.92s-4.283,14.517-11.775,14.779C357.743,316.598,353.101,311.651,352.778,302.405
			 M374.622,301.643c-0.267-7.654-3.454-12.014-9.989-11.784c-6.697,0.233-9.412,4.798-9.145,12.453
			c0.267,7.651,3.293,12.016,9.991,11.782C372.016,313.866,374.89,309.294,374.622,301.643z"/>
		<path clip-path="url(#SVGID_14_)" fill="#FFFFFF" d="M381.164,301.414c-0.323-9.247,4.283-14.518,11.776-14.779
			c7.812-0.271,12.454,4.674,12.777,13.922c0.323,9.246-4.281,14.516-11.775,14.777C386.13,315.605,381.487,310.661,381.164,301.414
			 M403.008,300.65c-0.267-7.653-3.453-12.012-9.989-11.783c-6.697,0.232-9.412,4.797-9.145,12.452
			c0.267,7.651,3.293,12.018,9.99,11.782C400.401,312.874,403.275,308.303,403.008,300.65z"/>
		<path clip-path="url(#SVGID_14_)" fill="#FFFFFF" d="M411.955,314.387l-0.98-28.062l7.814-0.274
			c6.059-0.211,9.661,2.377,9.845,7.639c0.122,3.508-1.695,6.286-4.983,8.156l6.942,11.41l0.017,0.479l-2.71,0.096l-6.777-11.258
			l-7.015,0.244l0.4,11.48L411.955,314.387 M422.158,300.301c1.727-0.858,3.903-2.53,3.765-6.518
			c-0.134-3.826-2.593-5.654-7.057-5.499l-5.262,0.184l0.424,12.118L422.158,300.301z"/>
		<polyline clip-path="url(#SVGID_14_)" fill="#FFFFFF" points="454.053,312.916 453.574,299.204 438.587,299.729 439.065,313.439 
			436.516,313.528 435.535,285.467 438.085,285.377 438.503,297.336 453.491,296.812 453.073,284.855 455.625,284.765 
			456.605,312.827 454.053,312.916 		"/>
		<polyline clip-path="url(#SVGID_14_)" fill="#FFFFFF" points="464.264,312.559 463.284,284.498 479.069,283.946 479.147,286.18 
			465.914,286.642 466.254,296.367 477.893,295.96 477.971,298.192 466.332,298.6 466.738,310.237 480.449,309.759 480.527,311.992 
			464.264,312.559 		"/>
		<polyline clip-path="url(#SVGID_14_)" fill="#FFFFFF" points="486.273,311.791 485.293,283.729 501.077,283.179 501.154,285.412 
			487.921,285.873 488.26,295.598 499.9,295.191 499.978,297.425 488.338,297.83 488.744,309.469 502.458,308.99 502.536,311.223 
			486.273,311.791 		"/>
		<polyline clip-path="url(#SVGID_14_)" fill="#FFFFFF" points="527.095,310.365 510.003,287.217 510.832,310.934 508.278,311.021 
			507.299,282.961 509.852,282.871 526.943,306.061 526.114,282.305 528.665,282.214 529.646,310.276 527.095,310.365 		"/>
		<polyline clip-path="url(#SVGID_14_)" fill="#FFFFFF" points="551.255,309.521 550.277,281.521 564.659,281.02 564.821,285.675 
			555.622,285.995 555.848,292.468 564.411,292.168 564.566,296.605 556.003,296.903 556.271,304.613 565.691,304.283 
			565.855,309.011 551.255,309.521 		"/>
		<polyline clip-path="url(#SVGID_14_)" fill="#FFFFFF" points="569.5,308.883 575.854,294.354 568.866,280.871 574.739,280.667 
			578.774,289.355 582.267,280.404 588.085,280.201 581.818,294.146 589.243,308.193 583.353,308.399 578.972,299.196 
			575.171,308.686 569.5,308.883 		"/>
		<polyline clip-path="url(#SVGID_14_)" fill="#FFFFFF" points="593.814,308.035 592.837,280.035 607.219,279.533 607.382,284.188 
			598.181,284.51 598.406,290.982 606.972,290.682 607.126,295.119 598.562,295.418 598.83,303.126 608.25,302.797 608.414,307.525 
			593.814,308.035 		"/>
		<path clip-path="url(#SVGID_14_)" fill="#FFFFFF" d="M614.112,307.326l-0.979-28l8.382-0.293c1.71-0.06,3.075,0.039,4.097,0.295
			c1.023,0.256,1.873,0.699,2.55,1.331c1.017,0.923,1.753,2.107,2.209,3.554c0.458,1.446,0.739,3.709,0.848,6.787
			c0.138,3.976,0.096,6.791-0.124,8.441c-0.222,1.652-0.646,3.066-1.272,4.241c-0.604,1.175-1.469,2.009-2.599,2.504
			c-1.129,0.493-3.106,0.79-5.93,0.889L614.112,307.326 M619.077,303.021l2.31-0.081c1.175-0.04,1.997-0.154,2.464-0.342
			c0.465-0.185,0.831-0.49,1.098-0.91c0.458-0.746,0.77-1.754,0.93-3.028c0.162-1.273,0.194-3.304,0.099-6.091
			c-0.096-2.717-0.287-4.688-0.571-5.916c-0.287-1.229-0.731-2.146-1.335-2.757c-0.315-0.304-0.713-0.513-1.196-0.622
			c-0.483-0.11-1.233-0.148-2.251-0.113l-2.236,0.078L619.077,303.021z"/>
		<polyline clip-path="url(#SVGID_14_)" fill="#FFFFFF" points="648.767,306.116 647.789,278.117 653.008,277.936 653.985,305.934 
			648.767,306.116 		"/>
		<polyline clip-path="url(#SVGID_14_)" fill="#FFFFFF" points="662.472,305.638 661.494,277.638 666.857,277.451 674.833,296.778 
			674.001,277.201 678.931,277.029 679.908,305.027 674.58,305.214 666.551,285.854 667.382,305.466 662.472,305.638 		"/>
		<polyline clip-path="url(#SVGID_14_)" fill="#FFFFFF" points="692.376,304.592 691.56,281.212 685.56,281.422 685.398,276.804 
			702.618,276.203 702.778,280.819 696.777,281.029 697.595,304.411 692.376,304.592 		"/>
		<polyline clip-path="url(#SVGID_14_)" fill="#FFFFFF" points="710.062,303.975 709.085,275.977 723.466,275.475 723.627,280.13 
			714.431,280.451 714.656,286.922 723.22,286.622 723.373,291.061 714.812,291.36 715.081,299.066 724.497,298.738 
			724.662,303.465 710.062,303.975 		"/>
		<path clip-path="url(#SVGID_14_)" fill="#FFFFFF" d="M732.22,303.201l-0.978-27.998l9.345-0.327
			c2.825-0.098,4.879,0.403,6.159,1.505c1.283,1.104,1.971,2.95,2.061,5.544c0.063,1.817-0.221,3.265-0.85,4.334
			c-0.629,1.073-1.591,1.722-2.881,1.948c2.496,0.568,3.858,2.616,4.09,6.138c0.006,0.157,0.011,0.279,0.014,0.364l0.276,3.703
			c0.084,1.054,0.248,1.893,0.488,2.523c0.241,0.627,0.599,1.164,1.075,1.609l-6.181,0.217c-0.163-0.467-0.291-1.019-0.387-1.652
			c-0.093-0.635-0.174-1.533-0.24-2.695l-0.172-2.925l-0.026-0.745c-0.058-1.623-0.441-2.727-1.154-3.31
			c-0.713-0.581-2.129-0.835-4.251-0.761l-1.781,0.061l0.429,12.291L732.22,303.201 M736.691,286.861l3.002-0.105
			c1.513-0.053,2.555-0.389,3.123-1.018c0.565-0.624,0.822-1.722,0.768-3.284c-0.049-1.394-0.405-2.359-1.066-2.896
			c-0.663-0.533-1.842-0.771-3.54-0.713l-2.562,0.09L736.691,286.861z"/>
		<polyline clip-path="url(#SVGID_14_)" fill="#FFFFFF" points="757.434,302.32 756.456,274.322 761.819,274.136 769.794,293.463 
			768.965,273.885 773.892,273.713 774.869,301.712 769.541,301.898 761.511,282.539 762.343,302.15 757.434,302.32 		"/>
		<polyline clip-path="url(#SVGID_14_)" fill="#FFFFFF" points="783.357,301.416 782.38,273.418 796.762,272.914 796.925,277.57 
			787.724,277.893 787.95,284.362 796.514,284.063 796.669,288.502 788.105,288.801 788.374,296.508 797.792,296.179 
			797.958,300.906 783.357,301.416 		"/>
		<polyline clip-path="url(#SVGID_14_)" fill="#FFFFFF" points="809.497,300.502 808.681,277.121 802.68,277.332 802.52,272.713 
			819.738,272.113 819.899,276.729 813.898,276.939 814.716,300.32 809.497,300.502 		"/>
	</g>
</g>
</svg>
