<?xml version="1.0" encoding="utf-8"?>
<!-- Generator: Adobe Illustrator 16.0.0, SVG Export Plug-In . SVG Version: 6.00 Build 0)  -->
<!DOCTYPE svg PUBLIC "-//W3C//DTD SVG 1.1//EN" "http://www.w3.org/Graphics/SVG/1.1/DTD/svg11.dtd">
<svg version="1.1" id="Layer_1" xmlns="http://www.w3.org/2000/svg" xmlns:xlink="http://www.w3.org/1999/xlink" x="0px" y="0px"
	 width="727.299px" height="223.98px" viewBox="3.43 -0.231 727.299 223.98" enable-background="new 3.43 -0.231 727.299 223.98"
	 xml:space="preserve">
<g>
	<g>
		<path fill="#87888A" d="M3.43,223.208v-47.161h10.188l13.396,19.294l12.862-19.295h10.19v47.161H39.878v-33.099l-11.792,18.09
			h-3.21l-11.255-16.678v31.687L3.43,223.208L3.43,223.208z"/>
		<path fill="#87888A" d="M61.853,223.208v-47.161h10.18v47.161H61.853z"/>
		<path fill="#87888A" d="M79.541,223.208v-1.071l14.865-22.376l-14.333-22.648v-1.065h10.989l9.183,14.535l9.312-14.535h10.182
			v1.065L105.4,198.686l14.874,23.451v1.071h-10.992l-9.778-15.407l-9.781,15.407H79.541z"/>
		<path fill="#87888A" d="M124.56,199.087c0-15.811,11.527-23.585,24.116-23.585c5.626,0,10.717,1.612,12.327,3.228v7.498h-1.61
			c-2.946-1.604-6.431-2.408-10.717-2.408c-6.967,0-13.668,5.625-13.668,15.549c0,12.065,6.701,16.078,13.668,16.078
			c4.826,0,8.845-1.344,10.717-2.949h1.61v7.235c-2.678,2.409-7.767,4.015-13.401,4.015
			C133.402,223.742,124.56,214.363,124.56,199.087z"/>
		<path fill="#87888A" d="M166.897,199.624c0-15.547,8.042-24.123,21.978-24.123c14.474,0,21.976,8.576,21.976,24.123
			c0,15.541-8.041,24.116-21.976,24.116C174.397,223.742,166.897,215.165,166.897,199.624z M200.397,199.624
			c0-10.718-4.291-15.811-11.523-15.811c-7.505,0-11.526,5.092-11.526,15.811c0,10.725,4.291,15.814,11.791,15.814
			C196.378,215.44,200.397,210.349,200.397,199.624z"/>
		<path fill="#87888A" d="M219.423,223.208v-47.161h10.182l13.393,19.296l12.866-19.296h10.184v47.161h-10.184v-33.1L244.077,208.2
			h-3.219l-11.251-16.678v31.686H219.423z"/>
		<path fill="#87888A" d="M295.257,223.208v-47.161h5.635l16.879,23.58l16.083-23.58h5.626v47.161h-5.626v-38.253l-15.81,22.175
			h-1.612l-15.536-21.771v37.85H295.257z"/>
		<path fill="#87888A" d="M352.344,223.208v-47.161h27.337v5.086h-21.71v14.471h19.027v5.099h-19.027v17.413h22.24v5.091
			L352.344,223.208L352.344,223.208z"/>
		<path fill="#87888A" d="M389.857,223.208v-47.161h12.867c16.08,0,24.654,7.5,24.654,22.509c0,13.937-6.968,24.652-23.583,24.652
			H389.857z M403.796,218.115c11.792,0,17.955-6.688,17.955-19.562c0-11.793-6.163-17.418-19.026-17.418h-7.236v36.984
			L403.796,218.115L403.796,218.115z"/>
		<path fill="#87888A" d="M437.021,223.208v-47.161h5.63v47.161H437.021z"/>
		<path fill="#87888A" d="M450.694,223.208v-1.071l17.146-46.09h6.708l16.344,46.09v1.071h-5.632l-3.885-10.716h-21.447
			l-3.885,10.716H450.694z M479.565,207.397l-8.779-24.654l-8.981,24.654H479.565z"/>
		<path fill="#87888A" d="M512.596,199.087c0-15.01,9.916-23.585,22.775-23.585c5.889,0,10.716,1.878,12.598,3.491v3.752h-1.611
			c-2.681-1.611-6.434-2.41-10.986-2.41c-9.644,0-16.879,6.429-16.879,18.756c0,13.403,5.889,19.832,15.543,19.832
			c4.277,0,7.5-1.072,9.371-2.142v-12.868h-7.233v-5.084h12.861v20.633c-3.218,1.877-7.504,4.287-16.079,4.287
			C518.496,223.742,512.596,213.029,512.596,199.087z"/>
		<path fill="#87888A" d="M560.826,223.208v-47.161h13.945c9.908,0,16.612,3.747,16.612,13.394c0,6.03-2.957,10.184-8.581,13.129
			l10.723,20.107v0.531h-6.162l-9.65-18.488h-11.25v18.488H560.826z M579.042,199.624c2.693-1.604,6.439-4.021,6.439-9.908
			c0-6.373-3.747-8.583-10.711-8.583h-8.312v18.491H579.042z"/>
		<path fill="#87888A" d="M599.952,199.624c0-15.547,8.041-24.123,20.907-24.123c13.395,0,20.9,8.576,20.9,24.123
			c0,15.541-8.04,24.116-20.9,24.116C607.456,223.742,599.952,215.165,599.952,199.624z M635.866,199.624
			c0-12.327-4.832-19.293-15.009-19.293c-10.459,0-15.005,6.966-15.005,19.293c0,12.328,4.546,19.293,15.005,19.293
			C631.035,218.917,635.866,211.952,635.866,199.624z"/>
		<path fill="#87888A" d="M651.404,205.524v-29.478h5.634v28.401c0,8.581,3.474,14.469,12.056,14.469
			c8.572,0,12.053-5.888,12.053-14.469v-28.401h5.64v29.478c0,11.789-6.968,18.218-18.229,18.218
			C657.842,223.742,651.404,217.313,651.404,205.524z"/>
		<path fill="#87888A" d="M699.638,223.208v-47.161h13.931c10.996,0,17.16,5.351,17.16,15.009c0,10.712-5.893,17.145-17.16,17.145
			h-8.297v15.008H699.638L699.638,223.208z M713.568,203.106c8.043,0,11.528-4.018,11.528-12.052c0-6.435-4.011-9.923-11.528-9.923
			h-8.295v21.975H713.568z"/>
	</g>
	<g>
		<path fill="#F5B6B1" d="M245.868,46.429c-0.006,46.652-0.006,46.652-0.006,46.652l40.406-23.332L245.868,46.429z"/>
		<path fill="#EE827D" d="M245.868,93.079c40.398,23.333,40.398,23.333,40.398,23.333V69.756L245.868,93.079z"/>
		<path fill="#E30034" d="M286.27,116.403c40.404-23.322,40.404-23.322,40.404-23.322L286.27,69.751V116.403z"/>
		<path fill="#970F23" d="M326.668,93.079c0.008-46.65,0.008-46.65,0.008-46.65l-40.404,23.329L326.668,93.079z"/>
		<path fill="#BC333B" d="M326.67,46.429c-40.398-23.332-40.398-23.332-40.398-23.332v46.653L326.67,46.429z"/>
		<path fill="#E85758" d="M286.27,23.104c-40.405,23.322-40.405,23.322-40.405,23.322l40.403,23.33L286.27,23.104z"/>
		<path fill="#F5B6B1" d="M326.682,46.429c-0.007,46.652-0.007,46.652-0.007,46.652L367.08,69.75L326.682,46.429z"/>
		<path fill="#EE827D" d="M326.682,93.079c40.398,23.333,40.398,23.333,40.398,23.333V69.756L326.682,93.079z"/>
		<path fill="#E30034" d="M367.08,116.403c40.404-23.322,40.404-23.322,40.404-23.322L367.08,69.751V116.403z"/>
		<path fill="#970F23" d="M407.48,93.079c0.006-46.65,0.006-46.65,0.006-46.65l-40.405,23.329L407.48,93.079z"/>
		<path fill="#BC333B" d="M407.48,46.429c-40.399-23.332-40.399-23.332-40.399-23.332v46.653L407.48,46.429z"/>
		<path fill="#E85758" d="M367.08,23.104c-40.403,23.322-40.403,23.322-40.403,23.322l40.402,23.33L367.08,23.104z"/>
		<path fill="#E30034" d="M367.075,23.101C326.676-0.23,326.676-0.23,326.676-0.23v46.655L367.075,23.101z"/>
		<path fill="#EE827D" d="M326.677-0.226c-40.405,23.325-40.405,23.325-40.405,23.325l40.404,23.33L326.677-0.226z"/>
		<path fill="#F5B6B1" d="M407.484,93.076c40.404-23.323,40.404-23.323,40.404-23.323l-40.404-23.329V93.076z"/>
		<path fill="#E85758" d="M447.885,69.751c0.007-46.649,0.007-46.649,0.007-46.649l-40.404,23.328L447.885,69.751z"/>
		<path fill="#EE8475" d="M407.484-0.226c-40.403,23.325-40.403,23.325-40.403,23.325l40.403,23.33V-0.226z"/>
		<path fill="#EE827D" d="M407.49,93.079c40.398,23.333,40.398,23.333,40.398,23.333V69.756L407.49,93.079z"/>
		<path fill="#E30034" d="M447.893,116.403c40.401-23.322,40.401-23.322,40.401-23.322l-40.401-23.331V116.403L447.893,116.403z"/>
		<path fill="#970F23" d="M488.291,93.079c0.004-46.65,0.004-46.65,0.004-46.65l-40.401,23.329L488.291,93.079z"/>
		<path fill="#BC333B" d="M488.291,46.429c-40.398-23.332-40.398-23.332-40.398-23.332v46.653L488.291,46.429z"/>
		<path fill="#E30034" d="M447.885,23.101C407.486-0.231,407.486-0.231,407.486-0.231v46.654L447.885,23.101z"/>
	</g>
</g>
</svg>
