<?xml version="1.0" encoding="utf-8"?>
<!-- Generator: Adobe Illustrator 16.0.0, SVG Export Plug-In . SVG Version: 6.00 Build 0)  -->
<!DOCTYPE svg PUBLIC "-//W3C//DTD SVG 1.1//EN" "http://www.w3.org/Graphics/SVG/1.1/DTD/svg11.dtd">
<svg version="1.1" xmlns="http://www.w3.org/2000/svg" xmlns:xlink="http://www.w3.org/1999/xlink" x="0px" y="0px"
	 width="850.375px" height="198.424px" viewBox="0 0 850.375 198.424" enable-background="new 0 0 850.375 198.424"
	 xml:space="preserve">
<g id="Measurements" display="none">
	<rect x="850.388" y="-85.039" display="inline" fill="#D0D2D3" width="85.04" height="85.04"/>
	<rect x="850.388" y="198.424" display="inline" fill="#D0D2D3" width="85.04" height="85.041"/>
	<rect x="-85.044" y="-85.039" display="inline" fill="#D0D2D3" width="85.039" height="85.04"/>
	<rect x="-85.044" y="198.424" display="inline" fill="#D0D2D3" width="85.039" height="85.041"/>
	<line display="inline" fill="none" stroke="#BBBDBF" x1="-56.698" y1="170.078" x2="-85.044" y2="170.078"/>
	<line display="inline" fill="none" stroke="#BBBDBF" x1="-70.871" y1="141.731" x2="-85.044" y2="141.731"/>
	<line display="inline" fill="none" stroke="#BBBDBF" x1="-56.698" y1="113.385" x2="-85.044" y2="113.385"/>
	<line display="inline" fill="none" stroke="#BBBDBF" x1="-70.871" y1="85.039" x2="-85.044" y2="85.039"/>
	<line display="inline" fill="none" stroke="#BBBDBF" x1="-56.698" y1="56.692" x2="-85.044" y2="56.692"/>
	<line display="inline" fill="none" stroke="#BBBDBF" x1="-70.871" y1="28.347" x2="-85.044" y2="28.347"/>
	<line display="inline" fill="none" stroke="#BBBDBF" x1="28.342" y1="-56.693" x2="28.342" y2="-85.039"/>
	<line display="inline" fill="none" stroke="#BBBDBF" x1="56.688" y1="-70.866" x2="56.688" y2="-85.039"/>
	<line display="inline" fill="none" stroke="#BBBDBF" x1="85.035" y1="-56.693" x2="85.035" y2="-85.039"/>
	<line display="inline" fill="none" stroke="#BBBDBF" x1="113.382" y1="-70.866" x2="113.382" y2="-85.039"/>
	<line display="inline" fill="none" stroke="#BBBDBF" x1="141.729" y1="-56.692" x2="141.729" y2="-85.039"/>
	<line display="inline" fill="none" stroke="#BBBDBF" x1="198.421" y1="-56.692" x2="198.421" y2="-85.039"/>
	<line display="inline" fill="none" stroke="#BBBDBF" x1="170.074" y1="-70.866" x2="170.074" y2="-85.039"/>
	<line display="inline" fill="none" stroke="#BBBDBF" x1="255.113" y1="-56.692" x2="255.113" y2="-85.039"/>
	<line display="inline" fill="none" stroke="#BBBDBF" x1="226.767" y1="-70.866" x2="226.767" y2="-85.039"/>
	<line display="inline" fill="none" stroke="#BBBDBF" x1="311.806" y1="-56.692" x2="311.806" y2="-85.039"/>
	<line display="inline" fill="none" stroke="#BBBDBF" x1="283.459" y1="-70.866" x2="283.459" y2="-85.039"/>
	<line display="inline" fill="none" stroke="#BBBDBF" x1="680.309" y1="-70.866" x2="680.309" y2="-85.039"/>
	<line display="inline" fill="none" stroke="#BBBDBF" x1="708.656" y1="-56.693" x2="708.656" y2="-85.039"/>
	<line display="inline" fill="none" stroke="#BBBDBF" x1="737.002" y1="-70.866" x2="737.002" y2="-85.039"/>
	<line display="inline" fill="none" stroke="#BBBDBF" x1="765.35" y1="-56.692" x2="765.35" y2="-85.039"/>
	<line display="inline" fill="none" stroke="#BBBDBF" x1="822.042" y1="-56.692" x2="822.042" y2="-85.039"/>
	<line display="inline" fill="none" stroke="#BBBDBF" x1="793.695" y1="-70.866" x2="793.695" y2="-85.039"/>
	<line display="inline" fill="none" stroke="#BBBDBF" x1="538.578" y1="-56.693" x2="538.578" y2="-85.039"/>
	<line display="inline" fill="none" stroke="#BBBDBF" x1="566.924" y1="-70.866" x2="566.924" y2="-85.039"/>
	<line display="inline" fill="none" stroke="#BBBDBF" x1="595.271" y1="-56.692" x2="595.271" y2="-85.039"/>
	<line display="inline" fill="none" stroke="#BBBDBF" x1="651.963" y1="-56.692" x2="651.963" y2="-85.039"/>
	<line display="inline" fill="none" stroke="#BBBDBF" x1="623.617" y1="-70.866" x2="623.617" y2="-85.039"/>
	<line display="inline" fill="none" stroke="#BBBDBF" x1="396.846" y1="-70.866" x2="396.846" y2="-85.039"/>
	<line display="inline" fill="none" stroke="#BBBDBF" x1="425.192" y1="-56.693" x2="425.192" y2="-85.039"/>
	<line display="inline" fill="none" stroke="#BBBDBF" x1="453.54" y1="-70.866" x2="453.54" y2="-85.039"/>
	<line display="inline" fill="none" stroke="#BBBDBF" x1="481.885" y1="-56.692" x2="481.885" y2="-85.039"/>
	<line display="inline" fill="none" stroke="#BBBDBF" x1="340.153" y1="-70.866" x2="340.153" y2="-85.039"/>
	<line display="inline" fill="none" stroke="#BBBDBF" x1="368.5" y1="-56.692" x2="368.5" y2="-85.039"/>
	<line display="inline" fill="none" stroke="#BBBDBF" x1="510.23" y1="-70.866" x2="510.23" y2="-85.039"/>
	<line display="inline" fill="none" stroke="#BBBDBF" x1="453.54" y1="269.291" x2="453.54" y2="283.465"/>
	<line display="inline" fill="none" stroke="#BBBDBF" x1="425.193" y1="255.117" x2="425.193" y2="283.465"/>
	<line display="inline" fill="none" stroke="#BBBDBF" x1="396.846" y1="269.291" x2="396.846" y2="283.465"/>
	<line display="inline" fill="none" stroke="#BBBDBF" x1="368.5" y1="255.117" x2="368.5" y2="283.465"/>
	<line display="inline" fill="none" stroke="#BBBDBF" x1="311.807" y1="255.117" x2="311.807" y2="283.465"/>
	<line display="inline" fill="none" stroke="#BBBDBF" x1="340.154" y1="269.291" x2="340.154" y2="283.465"/>
	<line display="inline" fill="none" stroke="#BBBDBF" x1="595.271" y1="255.117" x2="595.271" y2="283.465"/>
	<line display="inline" fill="none" stroke="#BBBDBF" x1="566.924" y1="269.291" x2="566.924" y2="283.465"/>
	<line display="inline" fill="none" stroke="#BBBDBF" x1="538.578" y1="255.117" x2="538.578" y2="283.465"/>
	<line display="inline" fill="none" stroke="#BBBDBF" x1="481.885" y1="255.117" x2="481.885" y2="283.465"/>
	<line display="inline" fill="none" stroke="#BBBDBF" x1="510.232" y1="269.291" x2="510.232" y2="283.465"/>
	<line display="inline" fill="none" stroke="#BBBDBF" x1="737.004" y1="269.291" x2="737.004" y2="283.465"/>
	<line display="inline" fill="none" stroke="#BBBDBF" x1="708.656" y1="255.117" x2="708.656" y2="283.465"/>
	<line display="inline" fill="none" stroke="#BBBDBF" x1="680.311" y1="269.291" x2="680.311" y2="283.465"/>
	<line display="inline" fill="none" stroke="#BBBDBF" x1="651.963" y1="255.117" x2="651.963" y2="283.465"/>
	<line display="inline" fill="none" stroke="#BBBDBF" x1="822.042" y1="255.117" x2="822.042" y2="283.465"/>
	<line display="inline" fill="none" stroke="#BBBDBF" x1="793.695" y1="269.291" x2="793.695" y2="283.465"/>
	<line display="inline" fill="none" stroke="#BBBDBF" x1="765.35" y1="255.117" x2="765.35" y2="283.465"/>
	<line display="inline" fill="none" stroke="#BBBDBF" x1="623.617" y1="269.291" x2="623.617" y2="283.465"/>
	<line display="inline" fill="none" stroke="#BBBDBF" x1="198.42" y1="255.117" x2="198.42" y2="283.463"/>
	<line display="inline" fill="none" stroke="#BBBDBF" x1="170.074" y1="269.289" x2="170.074" y2="283.463"/>
	<line display="inline" fill="none" stroke="#BBBDBF" x1="255.113" y1="255.117" x2="255.113" y2="283.463"/>
	<line display="inline" fill="none" stroke="#BBBDBF" x1="226.767" y1="269.289" x2="226.767" y2="283.463"/>
	<line display="inline" fill="none" stroke="#BBBDBF" x1="283.459" y1="269.289" x2="283.459" y2="283.463"/>
	<line display="inline" fill="none" stroke="#BBBDBF" x1="141.728" y1="255.117" x2="141.728" y2="283.463"/>
	<line display="inline" fill="none" stroke="#BBBDBF" x1="113.381" y1="269.289" x2="113.381" y2="283.463"/>
	<line display="inline" fill="none" stroke="#BBBDBF" x1="85.034" y1="255.115" x2="85.034" y2="283.463"/>
	<line display="inline" fill="none" stroke="#BBBDBF" x1="28.341" y1="255.115" x2="28.341" y2="283.463"/>
	<line display="inline" fill="none" stroke="#BBBDBF" x1="56.688" y1="269.289" x2="56.688" y2="283.463"/>
	<g display="inline">
		<line fill="none" stroke="#FFFFFF" x1="850.387" y1="198.425" x2="935.427" y2="283.464"/>
		<line fill="none" stroke="#FFFFFF" x1="935.427" y1="198.425" x2="850.39" y2="283.464"/>
	</g>
	<g display="inline">
		<line fill="none" stroke="#FFFFFF" x1="850.387" y1="-85.039" x2="935.427" y2="0"/>
		<line fill="none" stroke="#FFFFFF" x1="935.427" y1="-85.039" x2="850.39" y2="0"/>
	</g>
	<g display="inline">
		<line fill="none" stroke="#FFFFFF" x1="-85.044" y1="198.425" x2="-0.004" y2="283.464"/>
		<line fill="none" stroke="#FFFFFF" x1="-0.004" y1="198.425" x2="-85.042" y2="283.464"/>
	</g>
	<g display="inline">
		<line fill="none" stroke="#FFFFFF" x1="-85.044" y1="-85.039" x2="-0.004" y2="0"/>
		<line fill="none" stroke="#FFFFFF" x1="-0.004" y1="-85.039" x2="-85.042" y2="0"/>
	</g>
</g>
<g id="logo">
	<g>
		<path fill="#1C2A3B" d="M372.784,124.393h-59.486v0.367c0,10.634,4.473,20.345,19.203,20.345c11.75,0,28.354-0.938,35.807-1.684
			c0.184,0,0.381,0,0.559,0c2.057,0,3.551,0.922,3.551,2.986v14.166c0,2.988-0.746,4.291-3.926,5.039
			c-11.93,2.973-22,4.467-38.225,4.467c-22.57,0-46.807-11.939-46.807-47.913v-13.05c0-30.031,17.525-49.058,47.182-49.058
			c30.578,0,46.062,20.888,46.062,49.058v10.808C376.704,122.721,375.209,124.393,372.784,124.393z M347.229,105.014
			c0-13.808-6.334-20.708-16.779-20.708c-10.262,0-17.152,7.083-17.152,20.708v0.73h33.932V105.014z"/>
		<path fill="#1C2A3B" d="M471.09,55.583H433.23c-8.76,0-11.926,2.986-11.926,12.685v16.779h48.291c2.064,0,3.717,1.677,3.717,3.736
			v17.708c0,2.052-1.652,3.737-3.717,3.737h-48.291v54.459c0,2.037-1.682,3.721-3.734,3.721h-24.244
			c-2.051,0-3.727-1.684-3.727-3.721v-96.42c0-33.948,21.436-39.911,45.503-39.911c20.139,0,29.447,1.488,35.986,2.424
			c2.605,0.374,3.732,1.313,3.732,3.727v17.345C474.822,53.905,473.143,55.583,471.09,55.583z"/>
		<path fill="#1C2A3B" d="M530.338,170.079c-30.217,0-46.814-18.838-46.814-48.485v-13.05c0-29.648,16.598-48.486,46.814-48.486
			c30.203,0,46.627,18.837,46.627,48.486v13.05C576.965,151.241,560.541,170.079,530.338,170.079z M546.938,108.543
			c0-15.104-5.791-22.749-16.6-22.749c-10.822,0-16.783,7.645-16.783,22.749v13.05c0,15.117,5.961,22.938,16.783,22.938
			c10.809,0,16.6-7.822,16.6-22.938V108.543z"/>
		<path fill="#1C2A3B" d="M655.363,167.282c-5.215,1.303-13.609,2.797-24.799,2.797c-26.307,0-43.461-16.787-43.461-47.165V107.24
			c0-30.396,17.154-47.182,43.461-47.182c11.189,0,19.584,1.493,24.799,2.799c2.797,0.745,3.91,1.493,3.91,4.291v16.597
			c0,1.866-1.67,3.17-3.541,3.17c-0.193,0-0.193,0-0.369,0c-6.904-0.746-12.115-1.304-22.75-1.304
			c-8.393,0-15.311,5.034-15.311,21.629v15.674c0,16.582,6.918,21.618,15.311,21.618c10.635,0,15.846-0.557,22.75-1.305
			c0.176,0,0.176,0,0.369,0c1.871,0,3.541,1.305,3.541,3.18v16.598C659.273,165.802,658.16,166.548,655.363,167.282z"/>
		<path fill="#1C2A3B" d="M717.705,170.079h-2.621c-11.746,0-44.558-3.531-44.558-47.358V65.47c0-2.05,1.492-3.919,3.543-3.919
			h22.923c2.051,0,3.754,1.869,3.754,3.919v57.251c0,17.71,5.578,21.812,14.338,21.812h2.621c8.758,0,14.342-4.101,14.342-21.812
			V65.47c0-2.05,1.686-3.919,3.748-3.919h22.938c2.055,0,3.547,1.869,3.547,3.919v57.251
			C762.279,166.548,729.467,170.079,717.705,170.079z"/>
		<path fill="#1C2A3B" d="M810.472,170.079c-10.256,0-24.432-1.494-33.939-4.102c-2.256-0.541-3.545-2.051-3.545-4.293v-15.086
			c0-1.875,1.289-3.56,3.545-3.56c0.176,0,0.557,0,0.73,0c10.066,1.304,25.742,2.623,31.714,2.623
			c8.968,0,10.987-2.434,10.987-7.281c0-2.797-1.658-4.85-6.883-7.836l-24.246-13.988c-10.439-5.963-16.592-15.469-16.592-27.591
			c0-18.838,12.496-28.908,38.229-28.908c14.738,0,23.688,1.866,33.193,4.292c2.244,0.565,3.545,2.05,3.545,4.292v15.103
			c0,2.233-1.115,3.544-2.988,3.544c-0.363,0-0.557,0-0.734,0c-5.418-0.746-21.459-2.424-30.967-2.424
			c-7.264,0-9.883,1.113-9.883,5.406c0,2.797,2.051,4.291,5.783,6.525l23.113,13.243c15.488,8.951,18.84,18.648,18.84,28.71
			C850.375,156.28,837.687,170.079,810.472,170.079z"/>
	</g>
	<g>
		<path fill="#FF3D15" d="M223.535,59.34c-2.605-10.546-7.052-19.877-13.197-27.737c-6.199-7.909-14.123-14.348-23.573-19.124
			c-11.769-5.947-27.238-9.556-48.705-11.366C124.928,0.007,113.854,0,113.384,0c-0.46,0-11.533,0.007-24.674,1.113
			C67.251,2.924,51.783,6.533,40.013,12.479c-9.45,4.776-17.381,11.214-23.562,19.124C10.29,39.463,5.858,48.794,3.246,59.34
			C0,72.457,0,86.058,0,99.213s0,26.763,3.246,39.858c2.613,10.544,7.044,19.875,13.205,27.74
			c6.182,7.914,14.113,14.344,23.562,19.133c11.77,5.947,27.238,9.537,48.696,11.367c13.141,1.096,24.214,1.113,24.674,1.113
			c0.47,0,11.544-0.018,24.676-1.113c21.467-1.83,36.937-5.42,48.705-11.367c9.45-4.789,17.375-11.219,23.573-19.133
			c6.146-7.865,10.592-17.195,13.197-27.74c3.245-13.095,3.245-26.703,3.245-39.858S226.78,72.457,223.535,59.34z M209.627,135.569
			c-4.242,17.138-14.094,29.734-29.277,37.412c-10.078,5.082-23.892,8.232-43.475,9.873c-12.547,1.055-23.051,1.084-23.492,1.084
			c-0.44,0-10.933-0.029-23.479-1.084c-19.592-1.641-33.398-4.791-43.483-9.873c-15.182-7.678-25.019-20.273-29.267-37.412
			c-2.812-11.396-2.812-23.509-2.812-36.356s0-24.975,2.812-36.357c4.248-17.153,14.085-29.743,29.267-37.413
			c10.085-5.097,23.891-8.23,43.483-9.887c12.546-1.055,23.04-1.069,23.479-1.069c0.441,0,10.944,0.014,23.492,1.069
			c19.583,1.656,33.397,4.79,43.475,9.887c15.183,7.67,25.035,20.26,29.277,37.413c2.812,11.382,2.812,23.51,2.812,36.357
			S212.439,124.173,209.627,135.569z"/>
		<path fill="#FF3D15" d="M173.537,39.218c-17.562-8.874-53.187-9.321-60.153-9.321c-6.955,0-42.573,0.447-60.143,9.321
			C42.217,44.795,35.047,54,31.94,66.59c-2.365,9.542-2.365,20.237-2.365,32.623c0,12.377,0,23.069,2.365,32.622
			c3.107,12.582,10.277,21.796,21.301,27.361c17.57,8.875,53.188,9.332,60.143,9.332c6.966,0,42.591-0.457,60.153-9.332
			c11.024-5.564,18.195-14.779,21.308-27.361c0.146-0.617,0.278-1.217,0.41-1.832h-32.98c-0.689,0.645-1.472,1.172-2.368,1.641
			c-8.259,4.176-32.181,6.078-46.523,6.078c-14.324,0-38.222-1.875-46.514-6.078c-4.38-2.211-5.998-6.125-6.548-17.035h68.304h37.83
			h30.549c0.189-4.834,0.189-9.961,0.189-15.395c0-12.386,0-23.081-2.349-32.623C191.732,54,184.561,44.795,173.537,39.218z
			 M60.322,83.802c0.55-10.898,2.168-14.816,6.548-17.027c8.262-4.178,32.176-6.066,46.514-6.079
			c14.327,0,38.227,1.888,46.523,6.079c4.382,2.211,5.993,6.129,6.549,17.027H60.322z"/>
	</g>
	<g>
	</g>
	<g>
	</g>
	<g>
	</g>
	<g>
	</g>
	<g>
	</g>
	<g>
	</g>
</g>
</svg>
