<?xml version="1.0" encoding="utf-8"?>
<!-- Generator: Adobe Illustrator 16.0.0, SVG Export Plug-In . SVG Version: 6.00 Build 0)  -->
<!DOCTYPE svg PUBLIC "-//W3C//DTD SVG 1.1//EN" "http://www.w3.org/Graphics/SVG/1.1/DTD/svg11.dtd">
<svg version="1.1" id="Layer_1" xmlns="http://www.w3.org/2000/svg" xmlns:xlink="http://www.w3.org/1999/xlink" x="0px" y="0px"
	 width="356px" height="125.75px" viewBox="0 0 356 125.75" enable-background="new 0 0 356 125.75" xml:space="preserve">
<g>
	<polygon points="356,23.75 355.75,36.5 355.75,36.5 350.75,36 346.5,35.75 342.75,35.75 342.75,35.75 339,35.75 336.25,36.5 
		335,36.75 334,37.25 333.25,38 332.25,38.75 331.75,39.75 331.25,40.75 330.5,43.25 330.25,46.25 330,50 330,50 330.25,54 
		330.5,57.25 331.25,60 331.75,61 332.5,62 333.25,63 334,63.5 335.25,64.25 336.25,64.5 339.25,65.25 342.75,65.25 342.75,65.25 
		346.5,65.25 350.75,65 355.75,64.5 356,77.25 356,77.25 349.5,78.5 343.5,79.25 340.5,79.5 338,79.5 338,79.5 335,79.5 
		332.25,79.25 329.75,78.75 327.5,78 325.25,77 323.5,75.75 321.75,74.25 320.25,72.5 319,70.75 318,68.5 317,66 316.25,63.25 
		315.75,60.5 315.25,57.25 315,53.75 315,50 315,50 315,46.25 315.25,43 315.75,40 316.25,37 317,34.5 318,32.25 319.25,30 
		320.5,28.25 322,26.5 323.75,25.25 325.5,24 327.75,23 330,22.25 332.5,21.75 335.5,21.5 338.25,21.5 338.25,21.5 341,21.5 
		343.75,21.75 349.75,22.5 356,23.75 356,23.75 	"/>
	<polygon points="69.25,36.5 69.25,36.5 61,35.75 54,35 47.75,34.75 47.75,34.75 45.5,34.75 43.5,35 42.25,35.25 41,35.75 
		40.25,36.5 39.75,37.25 39.5,38 39.5,39.25 39.5,39.25 39.5,40 40,40.75 40.75,41.25 41.75,42 43.25,42.25 45,42.75 50.5,43.75 
		50.5,43.75 56,44.75 60.5,46 62.25,46.75 64,47.5 65.5,48.25 66.75,49.25 67.75,50.5 68.75,51.5 69.5,53 70.25,54.5 70.75,56 
		71,57.75 71.25,61.5 71.25,61.5 71,64 70.75,66.25 70.25,68.25 69.5,70 68.75,71.75 67.5,73 66.25,74.5 64.75,75.5 63.25,76.5 
		61.5,77.5 59.5,78.25 57.25,78.75 55,79.25 52.75,79.5 47.5,79.75 47.5,79.75 44,79.75 40.25,79.25 32.75,78.5 24.75,77 
		25.25,64.5 25.25,64.5 33.25,65.25 40,66 45.75,66.25 45.75,66.25 48.5,66.25 50.5,66 52.25,65.75 53.5,65.25 54.25,64.5 55,63.75 
		55.25,63 55.5,62 55.5,62 55.25,61 55,60.5 54.5,59.75 53.75,59.25 52.5,58.75 50.75,58.25 45.75,57.25 45.75,57.25 40.5,56.25 
		36,55.25 32,53.75 30.5,53 29,52 27.75,51 26.75,49.75 25.75,48.5 25,47 24.5,45.25 24,43.5 23.75,41.75 23.75,39.5 23.75,39.5 
		23.75,37.25 24.25,35 24.75,33 25.5,31.25 26.5,29.5 27.75,28 29,26.75 30.5,25.5 32.25,24.5 34,23.5 35.75,22.75 37.75,22.25 
		42,21.5 46.5,21.25 46.5,21.25 50,21.25 53.75,21.75 61.25,22.75 69.5,24 69.25,36.5 	"/>
	<polygon points="90.25,22.5 101,63.75 103.75,63.75 114.5,22.5 130,22.5 112.5,92.5 97.25,92.5 99.75,78.5 89.25,78.5 74.75,22.5 
		90.25,22.5 	"/>
	<polygon points="136,78.5 136,22.5 151.75,22.5 151.75,25.75 151.75,25.75 153,25 156.5,23.5 158.75,22.75 161.25,22 163.75,21.5 
		166.25,21.25 166.25,21.25 169.25,21.25 172,21.75 174.25,22.25 176.5,23 178.5,24 180,25.25 181.5,26.75 182.75,28.5 184,30.25 
		184.75,32.5 185.5,34.75 186.25,37.25 186.5,40 186.75,42.75 187,49.25 187,78.5 171.25,78.5 171.25,48.75 171.25,48.75 
		171.25,45.5 171,43 170.5,40.5 169.75,38.5 168.5,36.75 167.75,36.25 167,35.75 166,35.25 165,35 162.5,34.75 162.5,34.75 
		160.25,34.75 158.5,35 155,35.75 152.5,36.25 151.75,36.75 151.75,78.5 136,78.5 	"/>
	<path d="M242.75,65L243,76.5l0,0l-2.25,0.5L235,78.25l-8,1l-4.25,0.25l-4.25,0.25l0,0h-3.25l-3-0.5l-2.75-0.5L207,78l-2.25-0.75
		l-2-1.25l-2-1.25l-1.5-1.75l-1.5-1.75L196.5,69l-1-2.25l-0.75-2.5l-0.75-3l-0.5-3l-0.25-3.5v-3.5l0,0V47.5l0.25-3.25L194,41
		l0.75-2.75l1-2.75L197,33l1.25-2.25l1.5-2L201.5,27l2-1.5l2-1.25L208,23l2.5-0.75l2.75-0.5l2.75-0.5h3.25l0,0h3l3,0.25L228,22
		l2.5,0.75l2.25,1l2.25,1l1.75,1.25l1.75,1.5l1.5,1.75l1.25,1.75l1.25,2l0.75,2.25l0.75,2.5l0.5,2.75l0.25,2.75L245,46.5L243.75,57
		H209l0,0l0.25,2.25l0.5,1.75l1,1.5l1.25,1.25l1.5,1l2,0.75l2.5,0.25l3,0.25l0,0l7.5-0.25l7-0.25L242.75,65L242.75,65L242.75,65z
		 M229.25,45.5L229.25,45.5v-2.75l-0.5-2.5L228,38.5l-1-1.5l-1.25-1L224,35.25l-2.25-0.5l-2.5-0.25l0,0l-2.75,0.25l-2,0.5L212.75,36
		l-1.5,1.25l-1,1.5l-0.75,1.75l-0.25,2.25L209,45.5H229.25L229.25,45.5z"/>
	<polygon points="270.25,36 270.25,57.25 270.25,57.25 270.5,61 270.75,62.25 271,63.5 271.5,64.25 272.5,65 273.75,65.25 
		275.25,65.5 275.25,65.5 284.25,65.25 285,78 285,78 280.5,79 276.5,79.5 273,79.75 273,79.75 268,79.5 266,79.25 264,78.75 
		262.5,78 261,77.25 259.5,76.25 258.5,75.25 257.5,73.75 256.75,72.25 256,70.5 255.5,68.5 255,66.5 254.75,64 254.5,58.5 
		254.5,36 247.5,36 247.5,22.5 254.5,22.5 254.5,7 270.25,7 270.25,22.5 284.75,22.5 284.75,36 270.25,36 	"/>
	<path d="M292,0h15.75v15.25H292V0L292,0z M292,22.5h15.75v56H292V22.5L292,22.5z"/>
	<polygon fill="#E2231A" points="0,64.25 14.25,64.25 14.25,78.5 0,78.5 0,64.25 	"/>
	<polygon fill="#5F625F" points="28.5,106.25 28.5,108 32.75,108 32.75,109 28.5,109 28.5,119.75 28.5,119.75 29.25,120 29.25,120 
		30,120 30,120 30.25,120 30.25,120 30.5,120 30.75,120.5 30.75,121 28.5,121 27.25,121 25,121 25,120.5 25,120.5 25,120 25.5,120 
		25.5,120 25.75,120 25.75,120 26.25,120 26.25,120 27.25,119.75 27.25,109 25.25,108.75 25.25,108.75 25,108.75 25,108.5 25,108 
		27.25,108 27.25,106.25 27.25,106.25 27.25,105.25 27.5,104.25 27.5,104.25 27.75,103.5 28.25,102.75 28.25,102.75 29,102.25 
		29.5,102 29.5,102 30.5,101.75 31.25,101.75 31.25,101.75 32.25,101.75 32.25,101.75 32.75,102 32.75,102.5 32.75,102.5 
		32.5,102.75 32.5,102.75 32.25,102.75 32.25,102.75 31.5,102.75 31.5,102.75 30.25,102.75 30.25,102.75 29.25,103.5 29.25,103.5 
		28.75,104.5 28.75,104.5 28.5,106.25 28.5,106.25 	"/>
	<polygon fill="#5F625F" points="49.5,120.5 49.5,121 47.75,121 47,121 47,121 46.75,120.75 46.5,120.5 46.5,118.5 46.5,118.5 
		45.5,119.75 44.25,120.5 44.25,120.5 43,121 41.5,121.25 41.5,121.25 40.5,121 39.75,120.75 39.75,120.75 39,120.25 38.25,119.75 
		38.25,119.75 37.75,119 37.5,118.25 37.5,118.25 37.25,117.25 37.25,116 37.25,108.5 37.25,108.5 36.5,108.5 36.5,108.5 36,108.5 
		36,108.5 36,108.5 36,108.5 35.75,108.5 35.75,108.5 35.25,108.5 35.25,108 35.25,107.5 37.25,107.5 38.5,107.5 38.5,116 38.5,116 
		38.75,117.75 39.25,119 39.25,119 39.75,119.5 40.5,119.75 41,120 42,120 42,120 43.25,120 44.25,119.5 44.25,119.5 45.5,118.75 
		46.5,117.5 46.5,108.5 46.5,108.5 45.75,108.5 45.75,108.5 45.25,108.5 45.25,108.5 45.25,108.5 45.25,108.5 45,108.5 45,108.5 
		44.5,108.5 44.5,108 44.5,107.5 46.5,107.5 47.75,107.5 47.75,119.75 47.75,119.75 48.25,120 48.25,120 48.75,120 48.75,120 
		49,120 49,120 49,120 49,120 49.5,120 49.5,120.5 49.5,120.5 	"/>
	<polygon fill="#5F625F" points="58,120.5 58,121 56,121 54.75,121 52.75,121 52.75,120.5 52.75,120.5 53,120 53.25,120 53.25,120 
		53.5,120 53.5,120 54,120 54,120 54.75,119.75 54.75,102.5 54.75,102.5 54,102.5 54,102.5 53.5,102.5 53.5,102.5 53.5,102.25 
		53.5,102.25 53.25,102.25 53.25,102.25 53,102.25 52.75,102 52.75,101.25 54.75,101.25 56,101.25 56,119.75 56,119.75 56.5,120 
		56.5,120 57,120 57,120 57.25,120 57.25,120 57.25,120 57.25,120 57.75,120 58,120.5 58,120.5 	"/>
	<polygon fill="#5F625F" points="66,120.5 66,121 64.25,121 62.75,121 61,121 61,120.5 61,120.5 61,120 61.5,120 61.5,120 
		61.75,120 61.75,120 62,120 62,120 62.75,119.75 62.75,102.5 62.75,102.5 62.25,102.5 62.25,102.5 61.75,102.5 61.75,102.5 
		61.5,102.25 61.5,102.25 61.5,102.25 61.5,102.25 61,102.25 61,102 61,101.25 62.75,101.25 64.25,101.25 64.25,119.75 
		64.25,119.75 64.75,120 64.75,120 65.25,120 65.25,120 65.5,120 65.5,120 65.5,120 65.5,120 66,120 66,120.5 66,120.5 	"/>
	<polygon fill="#5F625F" points="85.25,117 85.25,117 85.25,117.75 85,118.75 85,118.75 84.75,119.25 84.25,120 84.25,120 
		83.5,120.5 82.75,120.75 82.75,120.75 81.75,121 80.75,121.25 80.75,121.25 78.75,121 76.75,120.5 76.75,117.25 77.25,117.25 
		77.25,117.25 77.75,117.25 78,117.75 78,117.75 78,118 78,118 78,118.75 78,118.75 78,119.75 78,119.75 79.25,120 80.75,120.25 
		80.75,120.25 82.25,120 82.25,120 83.25,119.25 83.25,119.25 84,118.5 84,118.5 84.25,117.25 84.25,117.25 84,116.5 83.75,116 
		83.75,116 83,115.25 83,115.25 81.75,114.75 81.75,114.75 80.5,114.5 80.5,114.5 79,114 79,114 78,113.25 78,113.25 77,112.25 
		77,112.25 76.75,111.75 76.75,111 76.75,111 76.75,110.25 77,109.5 77,109.5 77.5,109 78,108.5 78,108.5 79.25,107.5 79.25,107.5 
		80.25,107.5 81.25,107.25 81.25,107.25 82.75,107.5 84.75,108 84.75,111.25 84,111.25 84,111.25 83.5,111 83.5,110.5 83.5,110.5 
		83.5,110.25 83.5,110.25 83.25,109.5 83.25,109.5 83.25,108.75 83.25,108.75 82.25,108.5 81.25,108.25 81.25,108.25 79.75,108.5 
		79.75,108.5 78.75,109 78.75,109 78.25,110 78.25,110 78,110.75 78,110.75 78,111.5 78.25,112 78.25,112 79,112.5 79,112.5 
		80.25,113 80.25,113 81.75,113.5 81.75,113.5 83,114 83,114 84.25,114.75 84.25,114.75 85,115.75 85,115.75 85.25,116.25 
		85.25,117 85.25,117 	"/>
	<path fill="#5F625F" d="M96.25,107.75L96.25,107.75l1,0.5l0.75,0.5l0,0l0.5,1l0.5,1l0,0l0.25,1l0.25,1.5l0,0l-0.25,0.25l0,0
		L99,113.75h-9.5V114l0,0v1.25l0.25,1.25l0,0l0.5,1.25l0.5,0.75l0,0l0.75,0.75l0.75,0.5l0,0l1,0.25h1l0,0l1.75-0.25l0,0l1.25-0.5
		l0,0l1-0.5l0,0h0.25l0,0h0.25l0.5,0.5l0,0l-1,0.75l0,0l-1,0.5l0,0l-1.5,0.5l0,0h-1.5l0,0H93l-1.25-0.5l0,0l-1-0.5l-1-0.75l0,0
		l-0.75-1L88.5,117l0,0l-0.25-1.5V114l0,0v-1.5l0.25-1.25l0,0l0.5-1l0.75-1l0,0l0.75-0.75l1.25-0.75l0,0l1-0.25l1.5-0.25l0,0l1,0.25
		L96.25,107.75L96.25,107.75L96.25,107.75z M92.25,108.5L92.25,108.5L91.5,109l-0.5,0.5l0,0l-0.5,0.75L90,111l0,0l-0.5,2h8.75l0,0
		v-1.25L98,111l0,0l-0.25-0.75l-0.5-0.75l0,0L96.5,109l-0.75-0.5l0,0L95,108.25h-0.75l0,0h-1L92.25,108.5L92.25,108.5L92.25,108.5z"
		/>
	<polygon fill="#5F625F" points="112.25,107.75 112,108.75 112,108.75 111.75,109 111.75,109 111.5,108.75 111.5,108.75 111,108.75 
		111,108.75 110.5,108.5 110.5,108.5 109.75,108.5 109.75,108.5 108.5,108.75 107.25,109.5 107.25,109.5 106.5,110.75 
		105.75,112.25 105.75,119.75 105.75,119.75 107.25,120 107.25,120 107.5,120 107.75,120.5 107.75,121 105.75,121 104.5,121 
		102.5,121 102.5,120.5 102.5,120.5 102.75,120 103,120 103,120 104.5,119.75 104.5,108.5 104.5,108.5 103,108.5 103,108.5 
		102.75,108.5 102.5,108 102.5,107.5 104.5,107.5 104.5,107.5 105.25,107.5 105.25,107.5 105.5,107.75 105.5,107.75 105.5,108 
		105.75,110.75 105.75,110.75 106.5,109.25 107.5,108.25 107.5,108.25 108.5,107.5 110,107.25 110,107.25 111.25,107.5 
		111.25,107.5 112.25,107.75 112.25,107.75 	"/>
	<polygon fill="#5F625F" points="128.5,107.5 128.5,108 128.5,108 128.25,108.5 128,108.5 128,108.5 127.75,108.5 127.75,108.5 
		127.5,108.5 127.5,108.5 127,108.5 121.75,121 120.5,121 115.5,108.5 115.5,108.5 114.5,108.5 114.5,108.5 114.25,108.5 114,108 
		114,107.5 115,107.5 116,107.5 118.75,107.5 118.75,108 118.75,108 118.5,108.5 118.25,108.5 118.25,108.5 118,108.5 118,108.5 
		117.5,108.5 117.5,108.5 116.75,108.5 120.75,118.5 120.75,118.5 121,119 121,119 121.25,119.25 121.25,119.25 121.25,119.5 
		121.25,119.5 121.25,119 121.25,119 121.5,118.5 125.75,108.5 125.75,108.5 125,108.5 125,108.5 124.5,108.5 124.5,108.5 
		124.5,108.5 124.5,108.5 124.25,108.5 124.25,108.5 123.75,108.5 123.75,108 123.75,107.5 126.5,107.5 127.5,107.5 128.5,107.5 	
		"/>
	<path fill="#5F625F" d="M136.25,120.5v0.5h-2H133h-2v-0.5l0,0l0.25-0.5h0.5l0,0l0,0l0,0h0.5l0,0l0.75-0.25V108.5l0,0h-0.5l0,0H132
		l0,0h-0.25l0,0l0,0l0,0h-0.5L131,108v-0.5h2h1.25v12.25l0,0L135,120l0,0h0.5l0,0l0,0l0,0h0.25l0,0h0.5V120.5L136.25,120.5
		L136.25,120.5z M132.5,103.5L132.5,103.5V103l0,0v-0.5l0,0l0.5-0.5l0,0l0.25-0.25l0,0h0.5l0,0h0.5l0,0l0.25,0.25l0,0l0.25,0.5l0,0
		L135,103l0,0l-0.25,0.5l0,0l-0.25,0.25l0,0l-0.25,0.25l0,0h-0.5l0,0h-0.5l0,0l-0.25-0.25l0,0L132.5,103.5L132.5,103.5L132.5,103.5z
		"/>
	<polygon fill="#5F625F" points="149.5,119.25 149.5,119.25 148.75,120 148.75,120 147.5,120.5 147.5,120.5 146.25,121 146.25,121 
		144.75,121 144.75,121 143.5,121 142.5,120.75 142.5,120.75 141.5,120 140.75,119.25 140.75,119.25 140,118.25 139.5,117.25 
		139.5,117.25 139.25,115.75 139,114.25 139,114.25 139.25,112.75 139.5,111.5 139.5,111.5 140,110.25 140.75,109.25 140.75,109.25 
		141.5,108.5 142.5,107.75 142.5,107.75 143.75,107.5 145.25,107.25 145.25,107.25 146.5,107.5 146.5,107.5 148.25,108 149,108.25 
		149,111.5 148.25,111.5 148.25,111.5 147.75,111.5 147.75,111 147.75,111 147.5,110.5 147.5,110.5 147.5,109.75 147.5,109.75 
		147.5,108.75 147.5,108.75 146.25,108.5 145.25,108.25 145.25,108.25 144,108.5 143.25,108.75 143.25,108.75 142.25,109.25 
		141.75,110 141.75,110 141,110.75 140.75,111.75 140.75,111.75 140.5,113 140.5,114.25 140.5,114.25 140.5,115.5 140.75,116.75 
		140.75,116.75 141,117.75 141.75,118.5 141.75,118.5 142.25,119.25 143,119.75 143,119.75 144,120 145,120 145,120 146.75,119.75 
		146.75,119.75 147.75,119.25 147.75,119.25 148.5,118.75 148.5,118.75 148.75,118.75 148.75,118.75 149,118.75 149.5,119.25 	"/>
	<path fill="#5F625F" d="M160.25,107.75L160.25,107.75l0.75,0.5l1,0.5l0,0l0.5,1l0.5,1l0,0l0.25,1l0.25,1.5l0,0l-0.25,0.25l0,0
		l-0.25,0.25h-9.75V114l0,0l0.25,1.25l0.25,1.25l0,0l0.5,1.25l0.5,0.75l0,0l0.75,0.75l0.75,0.5l0,0l1,0.25h1l0,0l1.75-0.25l0,0
		l1.25-0.5l0,0l0.75-0.5l0,0h0.5l0,0h0.25l0.5,0.5l0,0l-1,0.75l0,0l-1.25,0.5l0,0l-1.25,0.5l0,0h-1.5l0,0H157l-1.25-0.5l0,0l-1-0.5
		l-1-0.75l0,0l-0.75-1l-0.5-1.25l0,0l-0.25-1.5L152,114l0,0l0.25-1.5l0.25-1.25l0,0l0.5-1l0.75-1l0,0l0.75-0.75l1-0.75l0,0
		l1.25-0.25l1.5-0.25l0,0l1,0.25L160.25,107.75L160.25,107.75L160.25,107.75z M156.25,108.5L156.25,108.5l-0.75,0.5l-0.75,0.5l0,0
		l-0.5,0.75L154,111l0,0l-0.5,2h8.75l0,0v-1.25L162,111l0,0l-0.5-0.75l-0.5-0.75l0,0l-0.5-0.5l-0.75-0.5l0,0l-0.75-0.25h-0.75l0,0
		h-1L156.25,108.5L156.25,108.5L156.25,108.5z"/>
	<path fill="#5F625F" d="M186.25,120.5v0.5h-1.75h-0.75l0,0l-0.25-0.25l-0.25-0.25v-2l0,0l-1,1l-1,1l0,0L180,121h-1.5l0,0h-1.25
		l-1-0.25l-0.75-0.5l-0.75-0.75l0,0l-0.75-1l-0.5-1.25l-0.25-1.5v-1.5l0,0v-1.5l0.5-1.25l0,0l0.25-1.25l0.75-1l0,0l0.75-0.75l1-0.75
		l0,0l1.25-0.25l1.25-0.25l0,0l1.25,0.25l1.25,0.25l0,0l1,0.75l0.75,0.75v-6.75l0,0h-0.75l0,0H182l0,0v-0.25l0,0h-0.25l0,0h-0.5V102
		v-0.75h2h1.25v18.5l0,0L185,120l0,0h0.5l0,0l0,0l0,0h0.25l0,0h0.5V120.5L186.25,120.5L186.25,120.5z M183.25,110.5L183.25,110.5
		l-1-1l-0.75-0.75l0,0l-1-0.25l-1.25-0.25l0,0l-1,0.25l-1,0.25l0,0l-0.75,0.5l-0.75,0.75l0,0l-0.5,0.75l-0.25,1l0,0l-0.25,1.25
		l-0.25,1.25l0,0l0.25,1.5v1l0.5,1l0.5,1l0,0l0.5,0.5l0.75,0.5l0.75,0.25h1l0,0H180l1.25-0.5l0,0l1-1l1-1V110.5L183.25,110.5z"/>
	<polygon fill="#5F625F" points="199,107.75 198.75,108.75 198.75,108.75 198.5,109 198.5,109 198.25,108.75 198.25,108.75 
		198,108.75 198,108.75 197.5,108.5 197.5,108.5 196.75,108.5 196.75,108.5 195.25,108.75 194.25,109.5 194.25,109.5 193.25,110.75 
		192.5,112.25 192.5,119.75 192.5,119.75 194,120 194,120 194.5,120 194.5,120.5 194.5,121 192.5,121 191.25,121 189.25,121 
		189.25,120.5 189.25,120.5 189.5,120 190,120 190,120 191.25,119.75 191.25,108.5 191.25,108.5 190,108.5 190,108.5 189.5,108.5 
		189.25,108 189.25,107.5 191.25,107.5 191.25,107.5 192,107.5 192,107.5 192.25,107.75 192.25,107.75 192.5,108 192.5,110.75 
		192.5,110.75 193.25,109.25 194.25,108.25 194.25,108.25 195.5,107.5 197,107.25 197,107.25 198,107.5 198,107.5 199,107.75 
		199,107.75 	"/>
	<polygon fill="#5F625F" points="215.5,120.5 215.5,121 213.5,121 212.75,121 212.75,121 212.5,120.75 212.5,120.5 212.25,118.5 
		212.25,118.5 211.25,119.75 210.25,120.5 210.25,120.5 209,121 207.5,121.25 207.5,121.25 206.5,121 205.5,120.75 205.5,120.75 
		204.75,120.25 204.25,119.75 204.25,119.75 203.75,119 203.25,118.25 203.25,118.25 203,117.25 203,116 203,108.5 203,108.5 
		202.5,108.5 202.5,108.5 202,108.5 202,108.5 201.75,108.5 201.75,108.5 201.75,108.5 201.75,108.5 201.25,108.5 201,108 
		201,107.5 203,107.5 204.25,107.5 204.25,116 204.25,116 204.5,117.75 205.25,119 205.25,119 205.75,119.5 206.25,119.75 207,120 
		207.75,120 207.75,120 209,120 210.25,119.5 210.25,119.5 211.25,118.75 212.25,117.5 212.25,108.5 212.25,108.5 211.75,108.5 
		211.75,108.5 211.25,108.5 211.25,108.5 211,108.5 211,108.5 211,108.5 211,108.5 210.5,108.5 210.25,108 210.25,107.5 
		212.25,107.5 213.5,107.5 213.5,119.75 213.5,119.75 214.25,120 214.25,120 214.75,120 214.75,120 214.75,120 214.75,120 215,120 
		215,120 215.5,120 215.5,120.5 215.5,120.5 	"/>
	<path fill="#5F625F" d="M231,114.25L231,114.25v1.25l-0.25,1.5l0,0l-0.5,1l-0.75,1l0,0l-0.75,1l-1,0.5l0,0l-1.25,0.5h-1.25l0,0H224
		l-1.25-0.5l0,0L222,120l-1-1v5.5l0,0h0.75l0,0l0.5,0.25l0,0l0,0l0,0h0.25l0,0h0.5V125v0.75h-2h-1.25H218V125l0,0v-0.25h0.5l0,0l0,0
		l0,0l0.5-0.25l0,0h0.75v-16l0,0h-0.5l0,0h-0.5l0,0h-0.25l0,0l0,0l0,0H218V108v-0.5h1.75h0.75l0,0h0.25l0,0L221,108v2l0,0l1-1.25
		l1.25-0.75l0,0l1.25-0.5l1.25-0.25l0,0l1.25,0.25l1,0.25l1,0.5l0.75,0.75l0,0l0.5,1l0.5,1.25l0.25,1.25V114.25L231,114.25
		L231,114.25z M229.75,114.25L229.75,114.25v-1.5l-0.25-1.25l-0.5-1l-0.5-0.75l0,0l-0.5-0.5l-0.75-0.5l-0.75-0.25l-1-0.25l0,0
		l-1.25,0.25L223,109l0,0l-1,0.75l-1,1.25v7l0,0l1,1l0.75,0.5l0,0l1,0.5H225l0,0h1l1-0.25l0,0l0.75-0.5l0.75-0.75l0,0l0.5-1l0.5-1
		l0,0l0.25-1V114.25L229.75,114.25L229.75,114.25z"/>
	<path fill="#5F625F" d="M245.25,120.5v0.5h-1.75H243l0,0l0,0l-0.25-0.25l-0.25-0.25v-1.75l0,0l-1.25,1l0,0l-1,0.75l0,0L239,121l0,0
		l-1.5,0.25l0,0L236,121l0,0l-1-0.75l0,0l-1-1l0,0v-0.75l-0.25-0.75l0,0l0.25-1l0.25-0.75l0,0l0.75-0.5l0.75-0.75l0,0l1.25-0.5
		l1.5-0.25l0,0l1.75-0.25l2-0.25v-1.25l0,0v-1.75l-0.75-1.25l0,0L241,109l-0.5-0.5l-1.25-0.25l0,0l-1,0.25h-0.75l0,0l-1.25,0.75l0,0
		l-0.75,0.5l0,0L235,110l0,0l-0.25-0.25l-0.25-0.25l0,0l1-1l1.25-0.75l0,0l1.25-0.25l1.25-0.25l0,0l1,0.25l1,0.25l0,0L242,108
		l0.5,0.75l0,0l0.5,0.5l0.25,1l0,0l0.25,2v7.5l0,0l0.75,0.25l0,0h0.5l0,0l0,0l0,0h0.5V120.5L245.25,120.5L245.25,120.5z
		 M242.25,114.5L242.25,114.5l-3.25,0.25l0,0l-2.25,0.75l0,0l-0.75,0.25l-0.5,0.5l0,0l-0.25,0.75l-0.25,0.75l0,0l0.25,1l0,0
		l0.5,0.75l0,0l1,0.5l0,0l1,0.25l0,0l1.5-0.25l0,0l1-0.5l0,0l1.25-0.75l0,0l0.75-0.75V114.5L242.25,114.5z"/>
	<polygon fill="#5F625F" points="253.75,120.5 253.75,121 251.75,121 250.5,121 248.5,121 248.5,120.5 248.5,120.5 248.75,120 
		249,120 249,120 249.25,120 249.25,120 249.75,120 249.75,120 250.5,119.75 250.5,102.5 250.5,102.5 249.75,102.5 249.75,102.5 
		249.5,102.5 249.5,102.5 249.25,102.25 249.25,102.25 249,102.25 249,102.25 248.75,102.25 248.5,102 248.5,101.25 250.5,101.25 
		251.75,101.25 251.75,119.75 251.75,119.75 252.5,120 252.5,120 252.75,120 252.75,120 253,120 253,120 253.25,120 253.25,120 
		253.5,120 253.75,120.5 253.75,120.5 	"/>
	<path fill="#5F625F" d="M271.75,107.75L271.75,107.75l0.75,0.5l0.75,0.5l0,0l0.75,1l0.5,1l0,0l0.25,1v1.5l0,0v0.25l0,0l-0.25,0.25
		h-9.75V114l0,0l0.25,1.25l0.25,1.25l0,0l0.25,1.25l0.75,0.75l0,0l0.75,0.75l0.75,0.5l0,0l1,0.25h1l0,0l1.75-0.25l0,0l1.25-0.5l0,0
		l0.75-0.5l0,0h0.5l0,0h0.25l0.25,0.5l0,0l-0.75,0.75l0,0l-1.25,0.5l0,0l-1.25,0.5l0,0h-1.5l0,0h-1.5l-1-0.5l0,0L266,120l-0.75-0.75
		l0,0l-0.75-1L264,117l0,0l-0.25-1.5l-0.25-1.5l0,0l0.25-1.5l0.25-1.25l0,0l0.5-1l0.75-1l0,0l0.75-0.75l1-0.75l0,0l1.25-0.25
		l1.25-0.25l0,0l1.25,0.25L271.75,107.75L271.75,107.75L271.75,107.75z M267.75,108.5L267.75,108.5L267,109l-0.75,0.5l0,0l-0.5,0.75
		l-0.5,0.75l0,0l-0.5,2h9l0,0l-0.25-1.25V111l0,0l-0.5-0.75l-0.5-0.75l0,0L272,109l-0.75-0.5l0,0l-0.75-0.25h-1l0,0h-0.75
		L267.75,108.5L267.75,108.5L267.75,108.5z"/>
	<polygon fill="#5F625F" points="289.5,120.5 289.5,121 288.25,121 287.5,121 285.5,121 285.5,120.5 285.5,120.5 285.75,120 
		286,120 286,120 286.75,120 283.25,114.75 283.25,114.75 283,115.25 279.75,120 279.75,120 280.5,120 280.5,120 281,120 281,120.5 
		281,121 279,121 278.25,121 277,121 277,120.5 277,120.5 277.25,120 277.5,120 277.5,120 278.25,120 282.5,114 278.5,108.5 
		278.5,108.5 277.75,108.5 277.75,108.5 277.25,108.5 277.25,108 277.25,107.5 277.75,107.5 279,107.5 279,107.5 279,107.5 
		281.25,107.5 281.25,108 281.25,108 281,108.5 280.5,108.5 280.5,108.5 280,108.5 283.25,113.5 283.25,113.5 283.5,113 
		286.75,108.5 286.75,108.5 286,108.5 286,108.5 285.5,108.5 285.5,108 285.5,107.5 287.5,107.5 287.75,107.5 288.75,107.5 
		289.5,107.5 289.5,108 289.5,108 289.25,108.5 289,108.5 289,108.5 288,108.5 284.25,114 288.25,120 288.25,120 289,120 289,120 
		289.5,120 289.5,120.5 289.5,120.5 	"/>
	<path fill="#5F625F" d="M305.25,114.25L305.25,114.25v1.25L305,117l0,0l-0.5,1l-0.75,1l0,0l-0.75,1l-1,0.5l0,0l-1.25,0.5h-1.25l0,0
		h-1.25l-1.25-0.5l0,0l-0.75-0.5l-0.75-1v5.5l0,0h0.5l0,0l0.5,0.25l0,0h0.25l0,0l0,0l0,0h0.5V125v0.75h-1.75H294h-1.75V125l0,0
		v-0.25h0.5l0,0l0,0l0,0l0.5-0.25l0,0H294v-16l0,0h-0.5l0,0H293l0,0h-0.25l0,0l0,0l0,0h-0.5V108v-0.5H294h0.75l0,0H295l0,0l0.25,0.5
		v2l0,0l1-1.25l1.25-0.75l0,0l1.25-0.5l1.25-0.25l0,0l1.25,0.25l1,0.25l1,0.5L304,109l0,0l0.5,1l0.5,1.25l0.25,1.25V114.25
		L305.25,114.25L305.25,114.25z M304,114.25L304,114.25v-1.5l-0.25-1.25l-0.5-1l-0.5-0.75l0,0l-0.5-0.5l-0.75-0.5l-0.75-0.25
		l-1-0.25l0,0l-1.25,0.25l-1.25,0.5l0,0l-1,0.75L295.5,111v7l0,0l0.75,1l0.75,0.5l0,0l1,0.5h1.25l0,0h1l1-0.25l0,0l0.75-0.5
		l0.75-0.75l0,0l0.5-1l0.5-1l0,0l0.25-1V114.25L304,114.25L304,114.25z"/>
	<path fill="#5F625F" d="M316.25,107.75L316.25,107.75l0.75,0.5l0.75,0.5l0,0l0.75,1l0.5,1l0,0l0.25,1v1.5l0,0v0.25l0,0l-0.25,0.25
		h-9.75V114l0,0l0.25,1.25l0.25,1.25l0,0l0.25,1.25l0.75,0.75l0,0l0.5,0.75l1,0.5l0,0l1,0.25h1l0,0l1.75-0.25l0,0l1.25-0.5l0,0
		l0.75-0.5l0,0h0.5l0,0h0.25l0.25,0.5l0,0l-0.75,0.75l0,0l-1.25,0.5l0,0l-1.25,0.5l0,0h-1.5l0,0h-1.5l-1-0.5l0,0l-1.25-0.5
		l-0.75-0.75l0,0l-0.75-1l-0.5-1.25l0,0l-0.25-1.5L308,114l0,0l0.25-1.5l0.25-1.25l0,0l0.5-1l0.5-1l0,0l1-0.75l1-0.75l0,0l1.25-0.25
		l1.25-0.25l0,0l1.25,0.25L316.25,107.75L316.25,107.75L316.25,107.75z M312.25,108.5L312.25,108.5l-0.75,0.5l-0.75,0.5l0,0
		l-0.5,0.75l-0.5,0.75l0,0l-0.5,2h9l0,0l-0.25-1.25l-0.25-0.75l0,0l-0.25-0.75l-0.5-0.75l0,0l-0.5-0.5l-0.75-0.5l0,0l-0.75-0.25h-1
		l0,0h-1L312.25,108.5L312.25,108.5L312.25,108.5z"/>
	<polygon fill="#5F625F" points="332,107.75 331.75,108.75 331.75,108.75 331.5,109 331.5,109 331.25,108.75 331.25,108.75 
		331,108.75 331,108.75 330.5,108.5 330.5,108.5 329.75,108.5 329.75,108.5 328.25,108.75 327.25,109.5 327.25,109.5 326.25,110.75 
		325.75,112.25 325.75,119.75 325.75,119.75 327,120 327,120 327.5,120 327.5,120.5 327.5,121 325.75,121 324.25,121 322.5,121 
		322.5,120.5 322.5,120.5 322.5,120 323,120 323,120 324.25,119.75 324.25,108.5 324.25,108.5 323,108.5 323,108.5 322.5,108.5 
		322.5,108 322.5,107.5 324.25,107.5 324.25,107.5 325,107.5 325,107.5 325.25,107.75 325.25,107.75 325.5,108 325.5,110.75 
		325.5,110.75 326.25,109.25 327.25,108.25 327.25,108.25 328.5,107.5 330,107.25 330,107.25 331,107.5 331,107.5 332,107.75 
		332,107.75 	"/>
	<polygon fill="#5F625F" points="337.5,120.5 337.5,120.5 336.75,119.5 336.75,118 336.75,109 334.75,109 334.75,109 334.5,108.75 
		334.5,108.75 334.5,108.5 334.5,108 336.75,108 337,103.25 337,103.25 337,103 337,103 337.25,102.75 338,102.75 338,108 
		342.25,108 342.25,109 338,109 338,118 338,118 338,119 338,119 338.5,119.5 338.5,119.5 339,120 339,120 339.75,120 339.75,120 
		340.75,120 340.75,120 341.25,119.75 341.25,119.75 341.75,119.25 341.75,119.25 342,119.25 342,119.25 342.25,119.25 342.5,120 
		342.5,120 342,120.5 341.25,120.75 341.25,120.75 340.5,121 339.5,121.25 339.5,121.25 338.25,121 337.5,120.5 337.5,120.5 	"/>
	<polygon fill="#5F625F" points="354.5,117 354.5,117 354.5,117.75 354.25,118.75 354.25,118.75 354,119.25 353.25,120 353.25,120 
		352.75,120.5 352,120.75 352,120.75 351,121 350,121.25 350,121.25 348,121 346,120.5 346,117.25 346.5,117.25 346.5,117.25 
		347,117.25 347.25,117.75 347.25,117.75 347.25,118 347.25,118 347.25,118.75 347.25,118.75 347.25,119.75 347.25,119.75 
		348.5,120 350,120.25 350,120.25 351.5,120 351.5,120 352.5,119.25 352.5,119.25 353.25,118.5 353.25,118.5 353.5,117.25 
		353.5,117.25 353.25,116.5 353,116 353,116 352.25,115.25 352.25,115.25 351,114.75 351,114.75 349.75,114.5 349.75,114.5 
		348.25,114 348.25,114 347,113.25 347,113.25 346.25,112.25 346.25,112.25 346,111.75 346,111 346,111 346,110.25 346.25,109.5 
		346.25,109.5 346.5,109 347.25,108.5 347.25,108.5 348.5,107.5 348.5,107.5 349.5,107.5 350.25,107.25 350.25,107.25 352,107.5 
		354,108 354,111.25 353.25,111.25 353.25,111.25 352.75,111 352.75,110.5 352.75,110.5 352.75,110.25 352.75,110.25 352.5,109.5 
		352.5,109.5 352.5,108.75 352.5,108.75 351.5,108.5 350.5,108.25 350.5,108.25 349,108.5 349,108.5 348,109 348,109 347.5,110 
		347.5,110 347.25,110.75 347.25,110.75 347.25,111.5 347.5,112 347.5,112 348.25,112.5 348.25,112.5 349.5,113 349.5,113 
		351,113.5 351,113.5 352.25,114 352.25,114 353.5,114.75 353.5,114.75 354.25,115.75 354.25,115.75 354.5,116.25 354.5,117 
		354.5,117 	"/>
</g>
</svg>
