<?xml version="1.0" encoding="utf-8"?>
<!-- Generator: Adobe Illustrator 16.0.0, SVG Export Plug-In . SVG Version: 6.00 Build 0)  -->
<!DOCTYPE svg PUBLIC "-//W3C//DTD SVG 1.1//EN" "http://www.w3.org/Graphics/SVG/1.1/DTD/svg11.dtd">
<svg version="1.1" id="DRUPAL_SPECIALISTS_xA0_Image_1_"
	 xmlns="http://www.w3.org/2000/svg" xmlns:xlink="http://www.w3.org/1999/xlink" x="0px" y="0px" width="6127.412px"
	 height="958.873px" viewBox="0 0 6127.412 958.873" enable-background="new 0 0 6127.412 958.873" xml:space="preserve">
<g>
	<path fill="#030407" d="M1187.702,113.892v482.796H1065.88V113.892H903.45V10.144h446.692v103.748H1187.702z"/>
	<path fill="#030407" d="M1774.235,596.688l-168.08-241.397h-5.65v241.397h-121.811V10.144
		c42.865-2.269,119.553-3.403,191.748-3.403c139.885,0,221.1,54.165,221.1,162.451c0,95.853-66.544,153.421-160.172,168.036
		c13.525,15.793,29.318,38.371,47.381,63.219l145.501,196.241H1774.235z M1652.401,100.367c-20.309,0-36.092,0-51.896,2.269v169.169
		c16.939,1.135,37.215,2.291,56.424,2.291c64.264,0,106.017-37.237,106.017-92.492
		C1762.946,128.596,1721.193,100.367,1652.401,100.367z"/>
	<path fill="#030407" d="M2069.709,596.688V10.144h121.822v586.544H2069.709z"/>
	<path fill="#030407" d="M2631.428,606.831c-190.624,0-285.397-121.812-285.397-297.766C2346.03,116.161,2488.173,0,2650.603,0
		c170.338,0,288.757,99.255,288.757,297.765C2939.359,491.804,2799.508,606.831,2631.428,606.831z M2642.717,106.018
		c-89.111,0-166.945,67.668-166.945,194.017c0,111.668,47.358,199.622,162.418,199.622c93.649,0,170.337-63.13,170.337-193.972
		C2808.528,174.798,2743.106,106.018,2642.717,106.018z M2613.388,773.776V667.759c182.728-19.175,242.51,59.771,419.587,34.946
		v106.084C2844.62,836.95,2772.447,754.623,2613.388,773.776z"/>
	<path fill="#030407" d="M3344.266,606.831c-170.305,0-254.923-80.059-254.923-214.305V10.144h121.855v357.559
		c0,95.874,49.605,137.604,140.941,137.604c100.412,0,138.762-56.39,138.762-146.592V10.144H3611.6v362.052
		C3611.6,499.656,3532.632,606.831,3344.266,606.831z"/>
	<path fill="#030407" d="M4164.021,596.688l-41.73-113.915h-244.778l-42.844,113.915h-121.855l222.223-586.544h143.3
		l221.021,586.544H4164.021z M4030.954,230.098c-11.3-30.476-22.556-65.443-30.476-92.516h-1.156
		c-6.762,28.229-18.062,60.928-29.318,91.381l-63.13,165.833h184.985L4030.954,230.098z"/>
	<path fill="#030407" d="M4804.663,596.688l-201.892-318.097c-22.556-34.969-43.999-76.699-59.793-111.668h-1.112
		c2.225,32.699,3.382,68.803,3.382,122.945l1.111,306.819h-118.43V10.144h162.43l197.398,312.469
		c22.6,36.103,45.156,74.408,64.286,115.026h1.157c-2.27-37.192-3.426-93.604-3.426-169.191l-1.112-258.304h118.474v586.544
		H4804.663z"/>
	<path fill="#030407" d="M5376.348,113.892v482.796h-121.811V113.892h-162.43V10.144h446.715v103.748H5376.348z"/>
	<path fill="#030407" d="M5991.987,596.688l-41.687-113.915h-244.822l-42.844,113.915h-121.811l222.223-586.544h143.255
		l221.11,586.544H5991.987z M5858.921,230.098c-11.3-30.476-22.556-65.443-30.476-92.516h-1.111
		c-6.763,28.229-18.062,60.928-29.318,91.381l-63.175,165.833h184.985L5858.921,230.098z"/>
</g>
<g>
	<path fill="#ADE0EE" d="M110.155,596.688H0L225.526,6.651h109.265L110.155,596.688z"/>
	<path fill="#ADE0EE" d="M333.034,596.688H222.901L448.438,6.651h109.254L333.034,596.688z"/>
	<path fill="#ADE0EE" d="M573.431,596.688H463.275L688.813,6.651h109.276L573.431,596.688z"/>
</g>
<g>
	<path d="M3497.708,765.346h40.174c13.124,0,25.515,2.246,37.171,6.695c11.678,4.471,21.865,10.855,30.631,19.152
		c8.742,8.275,15.66,18.352,20.775,30.186c5.094,11.856,7.652,25.07,7.652,39.64c0,10.767-1.868,21.777-5.605,33.078
		c-3.737,11.3-9.811,21.6-18.174,30.897c-8.387,9.276-19.286,16.906-32.678,22.823c-13.391,5.917-29.74,8.875-49.07,8.875h-30.876
		V765.346z M3508.92,776.29v169.191h23.779c15.125,0,28.316-2.402,39.639-7.229c11.278-4.827,20.666-11.167,28.14-18.997
		c7.474-7.852,13.08-16.816,16.817-26.938c3.736-10.1,5.605-20.532,5.605-31.299c0-12.924-2.247-24.646-6.695-35.124
		c-4.472-10.477-10.566-19.396-18.33-26.782c-7.741-7.385-16.75-13.035-27.049-16.95c-10.3-3.915-21.289-5.872-32.944-5.872H3508.92
		z"/>
	<path d="M3675.375,956.692V765.346h41.02c5.627,0,11.834,0.911,18.574,2.735s13.079,4.738,18.996,8.742
		c5.917,4.026,10.9,9.209,14.904,15.594c4.004,6.384,6.006,14.036,6.006,22.956c0,13.124-3.515,24.024-10.521,32.678
		c-7.008,8.653-17.173,14.348-30.475,17.083c7.273,15.482,14.525,30.787,21.732,45.913c7.185,15.126,14.348,30.342,21.443,45.646
		h-12.301c-7.096-15.304-14.192-30.43-21.311-45.379c-7.096-14.926-14.215-29.963-21.311-45.089c-1.646,0.178-3.248,0.312-4.782,0.4
		c-1.558,0.089-3.159,0.133-4.805,0.133h-25.96v89.935H3675.375z M3686.586,855.547h28.429c9.477,0,17.351-1.268,23.646-3.826
		c6.296-2.536,11.301-5.828,15.038-9.832s6.317-8.342,7.786-12.991c1.467-4.648,2.18-9.143,2.18-13.524
		c0-5.094-1.224-10.01-3.693-14.748c-2.447-4.738-5.872-8.942-10.232-12.591c-4.382-3.625-9.543-6.495-15.459-8.608
		c-5.918-2.091-12.258-3.136-18.998-3.136h-28.695V855.547z"/>
	<path d="M3882.561,958.873c-9.298,0-17.862-1.357-25.692-4.093c-7.83-2.736-14.614-6.785-20.354-12.168
		c-5.739-5.361-10.21-12.057-13.392-20.087c-3.203-8.009-4.805-17.218-4.805-27.605V765.346h11.211v128.751
		c0,8.742,1.335,16.438,3.96,23.09c2.647,6.674,6.296,12.257,10.944,16.816c4.648,4.561,10.255,8.03,16.816,10.389
		c6.562,2.38,13.658,3.559,21.311,3.559s14.727-1.179,21.177-3.559c6.474-2.358,12.124-5.828,16.95-10.389
		c4.827-4.56,8.564-10.143,11.211-16.816c2.647-6.651,3.96-14.348,3.96-23.09V765.346h11.479V894.92
		c0,10.388-1.624,19.597-4.916,27.605c-3.271,8.03-7.83,14.726-13.658,20.087c-5.828,5.383-12.724,9.432-20.644,12.168
		C3900.201,957.516,3891.682,958.873,3882.561,958.873z"/>
	<path d="M3991.625,956.692V765.346h41.02c5.628,0,11.834,0.911,18.574,2.735s13.08,4.738,18.996,8.742
		c5.918,4.026,10.9,9.209,14.904,15.594c4.004,6.384,6.006,14.036,6.006,22.956c0,15.683-4.96,28.162-14.903,37.46
		c-9.921,9.276-24.269,13.925-43.044,13.925h-30.341v89.935H3991.625z M4002.837,855.547h28.429c9.477,0,17.351-1.268,23.646-3.826
		c6.296-2.536,11.3-5.828,15.038-9.832c3.736-4.004,6.316-8.342,7.785-12.991c1.468-4.648,2.18-9.143,2.18-13.524
		c0-5.094-1.223-10.01-3.692-14.748c-2.446-4.738-5.872-8.942-10.232-12.591c-4.382-3.625-9.543-6.495-15.46-8.608
		c-5.917-2.091-12.257-3.136-18.997-3.136h-28.695V855.547z"/>
	<path d="M4284.097,956.692h-11.478c-5.852-13.658-11.612-27.338-17.373-40.996c-5.74-13.681-11.523-27.339-17.352-40.997h-76.811
		c-5.828,13.658-11.611,27.316-17.35,40.997c-5.74,13.658-11.523,27.338-17.352,40.996h-11.768
		c14.215-33.522,28.34-66.867,42.377-100.033c14.035-33.167,28.16-66.512,42.375-100.056
		c14.215,33.544,28.317,66.889,42.354,100.056C4255.758,889.825,4269.883,923.17,4284.097,956.692z M4201.814,789.681
		c-0.355-1.268-0.779-2.558-1.224-3.826c-0.468-1.268-0.868-2.558-1.224-3.826c-4.76,13.858-10.076,27.517-15.994,40.997
		c-5.939,13.503-11.812,27.071-17.64,40.729h67.513c-5.272-12.568-10.521-24.958-15.705-37.17
		C4212.336,814.372,4207.108,802.071,4201.814,789.681z"/>
	<path d="M4323.715,956.692V765.346h11.211v180.402h106.062v10.944H4323.715z"/>
	<path d="M4662.654,781.473c-1.268,1.468-2.402,2.937-3.403,4.382c-1.001,1.469-2.047,2.914-3.137,4.383
		c-1.646-1.469-3.647-3.048-6.028-4.783c-2.357-1.734-5.139-3.381-8.342-4.938c-3.181-1.535-6.74-2.825-10.654-3.826
		c-3.916-1.002-8.164-1.491-12.702-1.491c-6.384,0-11.945,1.046-16.684,3.137c-4.737,2.091-8.698,4.916-11.878,8.476
		c-3.203,3.559-5.562,7.652-7.119,12.301c-1.557,4.649-2.312,9.432-2.312,14.348c0,5.295,0.867,9.811,2.58,13.525
		c1.734,3.736,4.115,6.896,7.118,9.432c3.003,2.558,6.606,4.782,10.788,6.695c4.205,1.913,8.765,3.692,13.681,5.339
		c5.828,2.002,12.346,4.227,19.53,6.695c7.207,2.469,13.992,5.828,20.377,10.121c6.361,4.271,11.7,9.654,15.993,16.128
		c4.271,6.473,6.407,14.614,6.407,24.446c0,8.03-1.491,15.326-4.494,21.866c-3.025,6.562-7.118,12.168-12.301,16.817
		c-5.205,4.648-11.301,8.208-18.33,10.655c-7.007,2.469-14.437,3.692-22.267,3.692c-7.118,0-13.725-0.912-19.819-2.736
		c-6.117-1.802-11.523-4.093-16.262-6.829s-8.875-5.65-12.434-8.742c-3.56-3.092-6.34-5.828-8.342-8.208l7.651-7.652
		c2.558,2.559,5.472,5.205,8.742,7.941c3.292,2.736,6.874,5.228,10.812,7.519c3.914,2.269,8.23,4.138,12.968,5.583
		c4.738,1.469,9.854,2.202,15.305,2.202c6.206,0,12.123-0.956,17.772-2.869c5.65-1.913,10.656-4.649,15.038-8.208
		c4.382-3.56,7.874-7.875,10.521-12.991c2.647-5.094,3.96-10.922,3.96-17.484c0-8.208-1.824-14.948-5.45-20.22
		c-3.647-5.294-8.163-9.654-13.547-13.124c-5.36-3.471-11.256-6.296-17.618-8.476c-6.384-2.18-12.301-4.182-17.773-6.006
		c-3.47-1.112-7.518-2.559-12.168-4.382c-4.648-1.824-9.119-4.383-13.391-7.652c-4.293-3.293-8.03-7.43-11.211-12.435
		c-3.182-5.005-4.871-11.256-5.05-18.73c-0.378-6.006,0.312-12.057,2.046-18.174c1.736-6.095,4.605-11.567,8.609-16.394
		c4.004-4.827,9.209-8.787,15.594-11.901c6.361-3.092,14.103-4.649,23.223-4.649c6.918,0,13.992,1.201,21.178,3.56
		C4647.039,770.194,4654.646,774.732,4662.654,781.473z"/>
	<path d="M4715.686,956.692V765.346h41.019c5.628,0,11.834,0.911,18.574,2.735s13.079,4.738,18.997,8.742
		c5.917,4.026,10.899,9.209,14.904,15.594c4.004,6.384,6.006,14.036,6.006,22.956c0,15.683-4.961,28.162-14.904,37.46
		c-9.922,9.276-24.27,13.925-43.043,13.925h-30.342v89.935H4715.686z M4726.896,855.547h28.428c9.477,0,17.352-1.268,23.646-3.826
		c6.295-2.536,11.301-5.828,15.037-9.832c3.737-4.004,6.318-8.342,7.786-12.991c1.468-4.648,2.18-9.143,2.18-13.524
		c0-5.094-1.224-10.01-3.692-14.748c-2.447-4.738-5.873-8.942-10.232-12.591c-4.383-3.625-9.543-6.495-15.46-8.608
		c-5.917-2.091-12.257-3.136-18.997-3.136h-28.695V855.547z"/>
	<path d="M4845.504,956.692V765.346h113.447v10.944h-102.236v78.456h91.582v10.922h-91.582v80.08h106.062v10.944H4845.504z"/>
	<path d="M5144.537,935.916l6.295,9.299c-7.295,4.182-15.081,7.519-23.379,9.966c-8.274,2.469-17.083,3.692-26.359,3.692
		c-13.502,0-26.159-2.536-37.994-7.652c-11.855-5.094-22.199-12.057-31.03-20.91c-8.831-8.831-15.815-19.175-20.91-31.009
		c-5.116-11.856-7.651-24.514-7.651-38.016c0-13.48,2.535-26.182,7.651-38.127c5.095-11.924,12.079-22.312,20.91-31.165
		c8.831-8.831,19.175-15.838,31.03-21.043c11.835-5.184,24.492-7.786,37.994-7.786c9.276,0,18.085,1.18,26.359,3.56
		c8.298,2.357,16.172,5.739,23.646,10.099c-1.09,1.469-2.135,3.025-3.137,4.649c-1,1.646-2.047,3.203-3.137,4.649
		c-6.384-3.826-13.258-6.785-20.643-8.876s-15.082-3.137-23.09-3.137c-11.855,0-23.023,2.313-33.5,6.963
		s-19.619,10.922-27.473,18.863c-7.83,7.919-13.969,17.173-18.439,27.739c-4.472,10.565-6.696,21.866-6.696,33.9
		c0,11.834,2.225,23.001,6.696,33.479c4.471,10.477,10.609,19.642,18.439,27.472c7.854,7.83,16.906,14.036,27.205,18.597
		c10.3,4.537,21.355,6.828,33.212,6.828c8.208,0,15.949-1.045,23.245-3.158C5131.057,942.701,5137.998,939.742,5144.537,935.916z"/>
	<path d="M5198.125,765.346h11.211v191.347h-11.211V765.346z"/>
	<path d="M5423.373,956.692h-11.479c-5.85-13.658-11.611-27.338-17.373-40.996c-5.738-13.681-11.522-27.339-17.351-40.997h-76.811
		c-5.828,13.658-11.611,27.316-17.351,40.997c-5.739,13.658-11.522,27.338-17.351,40.996h-11.768
		c14.214-33.522,28.34-66.867,42.376-100.033c14.036-33.167,28.162-66.512,42.376-100.056
		c14.214,33.544,28.317,66.889,42.354,100.056C5395.033,889.825,5409.158,923.17,5423.373,956.692z M5341.09,789.681
		c-0.355-1.268-0.778-2.558-1.223-3.826c-0.468-1.268-0.868-2.558-1.224-3.826c-4.761,13.858-10.077,27.517-15.994,40.997
		c-5.938,13.503-11.812,27.071-17.64,40.729h67.512c-5.271-12.568-10.521-24.958-15.705-37.17
		C5351.611,814.372,5346.385,802.071,5341.09,789.681z"/>
	<path d="M5462.99,956.692V765.346h11.211v180.402h106.062v10.944H5462.99z"/>
	<path d="M5630.27,765.346h11.211v191.347h-11.211V765.346z"/>
	<path d="M5787.693,781.473c-1.268,1.468-2.402,2.937-3.402,4.382c-1.002,1.469-2.047,2.914-3.137,4.383
		c-1.646-1.469-3.648-3.048-6.029-4.783c-2.357-1.734-5.138-3.381-8.342-4.938c-3.18-1.535-6.739-2.825-10.654-3.826
		c-3.915-1.002-8.164-1.491-12.701-1.491c-6.385,0-11.945,1.046-16.684,3.137s-8.698,4.916-11.879,8.476
		c-3.203,3.559-5.561,7.652-7.118,12.301c-1.558,4.649-2.313,9.432-2.313,14.348c0,5.295,0.867,9.811,2.58,13.525
		c1.735,3.736,4.115,6.896,7.118,9.432c3.003,2.558,6.606,4.782,10.789,6.695c4.204,1.913,8.765,3.692,13.681,5.339
		c5.828,2.002,12.346,4.227,19.53,6.695c7.207,2.469,13.991,5.828,20.376,10.121c6.361,4.271,11.701,9.654,15.994,16.128
		c4.271,6.473,6.406,14.614,6.406,24.446c0,8.03-1.49,15.326-4.494,21.866c-3.025,6.562-7.117,12.168-12.301,16.817
		c-5.205,4.648-11.301,8.208-18.33,10.655c-7.006,2.469-14.436,3.692-22.266,3.692c-7.119,0-13.726-0.912-19.82-2.736
		c-6.117-1.802-11.523-4.093-16.261-6.829c-4.738-2.736-8.876-5.65-12.435-8.742s-6.34-5.828-8.342-8.208l7.652-7.652
		c2.558,2.559,5.472,5.205,8.742,7.941c3.292,2.736,6.873,5.228,10.811,7.519c3.915,2.269,8.23,4.138,12.969,5.583
		c4.738,1.469,9.854,2.202,15.305,2.202c6.205,0,12.123-0.956,17.772-2.869c5.65-1.913,10.655-4.649,15.038-8.208
		c4.381-3.56,7.874-7.875,10.521-12.991c2.646-5.094,3.959-10.922,3.959-17.484c0-8.208-1.824-14.948-5.449-20.22
		c-3.648-5.294-8.164-9.654-13.547-13.124c-5.361-3.471-11.256-6.296-17.618-8.476c-6.384-2.18-12.302-4.182-17.773-6.006
		c-3.47-1.112-7.519-2.559-12.168-4.382c-4.649-1.824-9.12-4.383-13.392-7.652c-4.293-3.293-8.029-7.43-11.211-12.435
		c-3.181-5.005-4.871-11.256-5.049-18.73c-0.379-6.006,0.311-12.057,2.046-18.174c1.735-6.095,4.604-11.567,8.608-16.394
		c4.004-4.827,9.209-8.787,15.594-11.901c6.361-3.092,14.104-4.649,23.223-4.649c6.919,0,13.992,1.201,21.178,3.56
		C5772.078,770.194,5779.686,774.732,5787.693,781.473z"/>
	<path d="M5971.656,765.346v10.944h-69.959v180.402h-11.211V776.29h-69.982v-10.944H5971.656z"/>
	<path d="M6089.73,781.473c-1.269,1.468-2.402,2.937-3.404,4.382c-1,1.469-2.046,2.914-3.137,4.383
		c-1.646-1.469-3.647-3.048-6.027-4.783c-2.358-1.734-5.139-3.381-8.342-4.938c-3.182-1.535-6.74-2.825-10.655-3.826
		c-3.915-1.002-8.163-1.491-12.702-1.491c-6.384,0-11.945,1.046-16.684,3.137c-4.737,2.091-8.697,4.916-11.878,8.476
		c-3.203,3.559-5.562,7.652-7.118,12.301c-1.557,4.649-2.313,9.432-2.313,14.348c0,5.295,0.868,9.811,2.581,13.525
		c1.734,3.736,4.115,6.896,7.117,9.432c3.004,2.558,6.607,4.782,10.789,6.695c4.204,1.913,8.764,3.692,13.68,5.339
		c5.828,2.002,12.346,4.227,19.531,6.695c7.207,2.469,13.992,5.828,20.376,10.121c6.362,4.271,11.7,9.654,15.994,16.128
		c4.271,6.473,6.406,14.614,6.406,24.446c0,8.03-1.49,15.326-4.493,21.866c-3.025,6.562-7.119,12.168-12.302,16.817
		c-5.205,4.648-11.3,8.208-18.329,10.655c-7.008,2.469-14.438,3.692-22.268,3.692c-7.117,0-13.725-0.912-19.819-2.736
		c-6.117-1.802-11.522-4.093-16.261-6.829s-8.875-5.65-12.435-8.742s-6.34-5.828-8.342-8.208l7.652-7.652
		c2.558,2.559,5.472,5.205,8.741,7.941c3.293,2.736,6.875,5.228,10.812,7.519c3.915,2.269,8.23,4.138,12.969,5.583
		c4.737,1.469,9.854,2.202,15.304,2.202c6.207,0,12.123-0.956,17.773-2.869s10.655-4.649,15.037-8.208
		c4.383-3.56,7.875-7.875,10.521-12.991c2.648-5.094,3.961-10.922,3.961-17.484c0-8.208-1.824-14.948-5.451-20.22
		c-3.647-5.294-8.163-9.654-13.547-13.124c-5.36-3.471-11.256-6.296-17.617-8.476c-6.385-2.18-12.301-4.182-17.773-6.006
		c-3.471-1.112-7.519-2.559-12.168-4.382c-4.648-1.824-9.12-4.383-13.391-7.652c-4.293-3.293-8.031-7.43-11.211-12.435
		c-3.182-5.005-4.872-11.256-5.051-18.73c-0.377-6.006,0.312-12.057,2.047-18.174c1.735-6.095,4.605-11.567,8.609-16.394
		c4.004-4.827,9.209-8.787,15.593-11.901c6.362-3.092,14.103-4.649,23.224-4.649c6.918,0,13.992,1.201,21.177,3.56
		C6074.114,770.194,6081.723,774.732,6089.73,781.473z"/>
</g>
</svg>
