<?xml version="1.0" encoding="utf-8"?>
<!-- Generator: Adobe Illustrator 16.0.0, SVG Export Plug-In . SVG Version: 6.00 Build 0)  -->
<!DOCTYPE svg PUBLIC "-//W3C//DTD SVG 1.1//EN" "http://www.w3.org/Graphics/SVG/1.1/DTD/svg11.dtd">
<svg version="1.1" id="Layer_1" xmlns="http://www.w3.org/2000/svg" xmlns:xlink="http://www.w3.org/1999/xlink" x="0px" y="0px"
	 width="790.766px" height="187.923px" viewBox="0 0 790.766 187.923" enable-background="new 0 0 790.766 187.923"
	 xml:space="preserve">
<g>
	<g>
		<path fill="#455560" d="M42.135,124.31l-10.598,36.52c-0.894,3.192-3.833,5.488-7.151,5.488c-3.317,0-6.125-2.173-7.15-5.235
			L0.256,107.58C0,106.943,0,106.307,0,105.667c0-3.446,2.68-6.637,6.512-6.637c2.807,0,5.617,1.789,6.385,4.597l11.361,38.811
			l10.725-37.918c0.895-3.192,3.832-5.489,7.151-5.489c3.32,0,6.384,2.934,7.021,5.233l10.725,38.174l11.365-38.811
			c0.766-2.808,3.576-4.597,6.385-4.597c3.447,0,6.51,2.807,6.51,6.637c0,0.64,0,1.276-0.255,1.913l-16.981,53.37
			c-1.022,3.194-3.83,5.367-7.024,5.367c-3.317,0-6.255-2.296-7.148-5.367L42.135,124.31z"/>
		<path fill="#455560" d="M131.896,105.667c0-3.703,2.812-6.637,6.514-6.637c3.703,0,6.642,2.934,6.642,6.637v49.54
			c0,3.575-2.301,6.642-5.62,7.791c-6.259,2.167-13.022,3.319-20.046,3.319c-7.405,0-14.047-2.173-18.768-6.892
			c-4.599-4.6-6.77-11.238-6.77-18.773v-34.985c0-3.703,2.938-6.637,6.641-6.637c3.577,0,6.511,2.934,6.511,6.637v36.009
			c0,7.915,4.6,12.382,12.386,12.382c4.343,0,8.554-0.504,12.51-1.534V105.667z"/>
		<path fill="#455560" d="M196.01,123.546c0-7.794-4.598-12.388-12.512-12.388c-4.218,0-8.427,0.638-12.385,1.663v46.857
			c0,3.703-2.94,6.639-6.517,6.639c-3.702,0-6.637-2.936-6.637-6.639v-49.543c0-3.572,2.173-6.636,5.622-7.786
			c6.254-2.173,13.02-3.319,19.917-3.319c7.534,0,13.914,2.424,18.514,7.148c4.598,4.597,7.144,10.982,7.144,18.388v35.112
			c0,3.703-2.934,6.639-6.637,6.639c-3.702,0-6.509-2.936-6.509-6.639V123.546z"/>
		<path fill="#455560" d="M220.541,124.566c0-7.405,2.292-13.915,6.89-18.517c4.727-4.723,11.236-7.02,18.642-7.02
			c4.345,0,9.07,1.53,12.512,3.319c0-8.302,0-21.45,0-21.45c0-3.705,2.814-6.642,6.518-6.642c3.699,0,6.633,2.937,6.633,6.642
			v74.308c0,3.575-2.299,6.642-5.613,7.791c-6.39,2.167-13.153,3.319-20.049,3.319c-7.406,0-13.789-2.429-18.516-7.149
			c-4.597-4.596-7.016-10.98-7.016-18.516V124.566z M258.583,115.752c-3.441-2.931-7.914-4.594-12.512-4.594
			c-7.787,0-12.385,4.594-12.385,12.388v18.256c0,7.915,4.598,12.384,12.385,12.384c4.345,0,8.555-0.505,12.512-1.662V115.752z"/>
		<path fill="#455560" d="M297.028,138.865c0,5.235,0.896,8.679,2.553,10.981c2.173,2.81,5.488,4.339,9.832,4.339
			c4.853,0,9.451-1.398,13.789-3.315c0.896-0.384,1.788-0.641,2.688-0.641c3.188,0,6.248,2.684,6.248,6.003
			c0,2.424-1.015,4.597-3.314,5.742c-6.13,2.939-12.64,4.343-19.41,4.343c-7.405,0-13.788-2.429-18.515-7.149
			c-4.598-4.596-7.021-10.98-7.021-18.516v-16.086c0-7.405,2.423-13.791,7.021-18.388c4.727-4.725,11.109-7.148,18.515-7.148
			c7.541,0,13.915,2.424,18.514,7.148c4.6,4.597,7.149,10.982,7.149,18.388v6c0,4.599-3.7,8.299-8.298,8.299H297.028z
			 M321.924,126.733c0-10.598-4.345-15.575-12.512-15.575c-8.04,0-12.385,4.854-12.385,15.575H321.924z"/>
		<path fill="#455560" d="M346.543,118.057c0-10.854,8.165-19.026,19.021-19.026c3.198,0,6.39,0.384,9.579,1.021
			c3.066,0.64,5.233,3.192,5.233,6.256c0,3.443-2.553,6.129-6.257,6.129c-0.762,0-1.15,0-2.166-0.256
			c-2.045-0.511-4.344-1.021-6.39-1.021c-3.188,0-5.877,2.684-5.877,5.871v42.649c0,3.703-2.922,6.639-6.507,6.639
			c-3.703,0-6.637-2.936-6.637-6.639V118.057z"/>
		<path fill="#455560" d="M403.102,137.585v22.094c0,3.703-2.934,6.639-6.508,6.639c-3.705,0-6.639-2.936-6.639-6.639V80.899
			c0-3.705,2.934-6.642,6.639-6.642c3.574,0,6.508,2.937,6.508,6.642v40.984l22.729-21.064c1.28-1.276,2.934-1.789,4.604-1.789
			c3.436,0,6.37,2.934,6.37,6.637c0,1.787-0.762,3.449-2.168,4.726l-21.83,19.407l23.236,25.534
			c1.152,1.152,1.533,2.812,1.533,4.345c0,3.319-2.681,6.639-6.387,6.639c-1.912,0-3.826-0.768-5.106-2.296L403.102,137.585z"/>
		<path fill="#455560" d="M447.153,118.057c0-10.854,8.173-19.026,19.03-19.026c3.183,0,6.379,0.384,9.566,1.021
			c3.066,0.64,5.244,3.192,5.244,6.256c0,3.443-2.56,6.129-6.259,6.129c-0.771,0-1.158,0-2.173-0.256
			c-2.046-0.511-4.345-1.021-6.379-1.021c-3.199,0-5.879,2.684-5.879,5.871v42.649c0,3.703-2.938,6.639-6.518,6.639
			c-3.694,0-6.634-2.936-6.634-6.639V118.057z"/>
		<path fill="#455560" d="M537.802,155.207c0,3.575-2.289,6.642-5.614,7.791c-6.269,2.167-13.537,3.319-20.683,3.319
			c-7.797,0-13.929-1.914-18.265-5.616c-4.345-3.707-6.644-8.94-6.644-15.197c0-6.255,2.299-11.108,6.644-14.683
			c4.336-3.704,10.468-5.618,18.265-5.618h13.151v-4.467c0-5.364-3.971-9.578-10.604-9.578c-5.999,0-9.313,0.765-13.79,3.449
			c-1.026,0.638-2.422,1.145-3.579,1.145c-3.442,0-6.248-2.55-6.248-5.743c0-2.3,1.016-4.599,3.188-5.876
			c6.897-3.956,12.898-5.103,22.089-5.103c14.305,0,22.091,10.345,22.091,21.706V155.207z M524.656,137.338h-13.151
			c-11.112,0-11.756,5.998-11.756,8.166c0,2.302,0.644,8.682,11.756,8.682c4.329,0,9.054-0.632,13.151-1.662V137.338z"/>
		<path fill="#455560" d="M588.366,105.667c0-3.703,2.817-6.637,6.523-6.637c3.7,0,6.639,2.934,6.639,6.637v49.54
			c0,3.575-2.305,6.642-5.618,7.791c-6.254,2.167-13.024,3.319-20.045,3.319c-7.416,0-14.051-2.173-18.775-6.892
			c-4.588-4.6-6.761-11.238-6.761-18.773v-34.985c0-3.703,2.928-6.637,6.634-6.637c3.579,0,6.507,2.934,6.507,6.637v36.009
			c0,7.915,4.604,12.382,12.396,12.382c4.34,0,8.559-0.504,12.501-1.534V105.667z"/>
		<path fill="#455560" d="M614.431,80.899c0-3.705,2.939-6.642,6.646-6.642c3.572,0,6.507,2.937,6.507,6.642v19.404h12.385
			c3.705,0,6.645,2.686,6.645,6.26c0,3.829-2.812,6.385-6.645,6.385h-12.385v33.32c0,4.855,2.553,7.917,5.878,7.917
			c3.699,0,4.335-1.019,6.76-1.019c3.199,0,6.392,2.296,6.392,6.132c0,3.184-2.427,5.615-5.62,6.251
			c-2.552,0.512-4.978,0.768-7.531,0.768c-10.471,0-19.03-8.171-19.03-19.916V80.899z"/>
	</g>
</g>
<g>
	<path fill="#8DC63F" d="M699.2,25.787c-0.103,1.218-0.154,2.436-0.154,3.646c0.009,10.389,3.787,20.485,11.424,28.132
		c6.434,6.421,14.597,10.112,23.205,11.126c-6.406-8.539-10.105-18.876-10.105-29.724c0-2.43,0.195-4.879,0.571-7.333
		c-6.394-4.003-13.769-6-21.288-6.006C701.638,25.629,700.418,25.683,699.2,25.787z"/>
	<path fill="#8DC63F" d="M730.659,31.335c-0.45,2.56-0.665,5.109-0.665,7.633c0,10.617,3.879,20.734,10.58,28.926
		c-0.067-1.008-0.105-2.014-0.105-3.016c0-11.366,4.182-22.551,12.623-30.989c3.268-3.271,6.947-5.895,10.895-7.889
		c-0.771-9.577-4.656-18.612-10.891-26C741.522,6.648,733.057,17.748,730.659,31.335z"/>
	<path fill="#8DC63F" d="M790.464,25.481c-1.215-0.103-2.438-0.156-3.644-0.156c-10.391,0.003-20.489,3.788-28.132,11.432
		c-7.638,7.642-11.43,17.735-11.43,28.122c0,1.215,0.048,2.435,0.152,3.653c1.224,0.105,2.446,0.157,3.659,0.154
		c10.383-0.002,20.476-3.789,28.12-11.424c7.642-7.647,11.427-17.743,11.427-28.129C790.617,27.914,790.569,26.699,790.464,25.481z"
		/>
	<linearGradient id="SVGID_1_" gradientUnits="userSpaceOnUse" x1="710.2158" y1="87.8672" x2="776.9304" y2="154.5817">
		<stop  offset="0" style="stop-color:#FAA74A"/>
		<stop  offset="0.338" style="stop-color:#F7933D"/>
		<stop  offset="0.6749" style="stop-color:#F68636"/>
		<stop  offset="1" style="stop-color:#F58233"/>
	</linearGradient>
	<path fill="url(#SVGID_1_)" d="M775.101,86.164c-8.353-7.522-19.378-12.138-31.505-12.138c-26.06,0-47.169,21.121-47.169,47.178
		c0,10.669,3.582,20.482,9.558,28.385c1.227,1.62,2.508,3.185,3.926,4.632l33.678,33.702l33.685-33.702
		c8.343-8.511,13.493-20.162,13.493-33.017C790.766,107.275,784.698,94.799,775.101,86.164z"/>
</g>
<g>
	<path fill="#455560" d="M644.801,77.614h-2.555c-0.771,0-1.365-0.561-1.365-1.295c0-0.771,0.594-1.295,1.365-1.295h7.84
		c0.771,0,1.365,0.524,1.365,1.295c0,0.734-0.595,1.295-1.365,1.295h-2.555V88.99c0,0.735-0.631,1.33-1.365,1.33
		c-0.735,0-1.365-0.595-1.365-1.33V77.614z M663.283,81.114l-2.346,4.726c-0.245,0.49-0.735,0.841-1.33,0.841
		c-0.561,0-1.051-0.386-1.295-0.841l-2.346-4.726v7.876c0,0.735-0.596,1.33-1.365,1.33c-0.734,0-1.33-0.595-1.33-1.33V76.319
		c0-0.84,0.665-1.506,1.471-1.506c0.595,0,1.084,0.351,1.33,0.841l3.535,7.07l3.57-7.07c0.245-0.49,0.734-0.841,1.33-0.841
		c0.805,0,1.471,0.666,1.471,1.506V88.99c0,0.735-0.596,1.33-1.365,1.33c-0.736,0-1.33-0.595-1.33-1.33V81.114z"/>
</g>
<g>
</g>
<g>
</g>
<g>
</g>
<g>
</g>
<g>
</g>
<g>
</g>
</svg>
