<?xml version="1.0" encoding="utf-8"?>
<!-- Generator: Adobe Illustrator 16.0.0, SVG Export Plug-In . SVG Version: 6.00 Build 0)  -->
<!DOCTYPE svg PUBLIC "-//W3C//DTD SVG 1.1//EN" "http://www.w3.org/Graphics/SVG/1.1/DTD/svg11.dtd">
<svg version="1.1" id="Layer_1" xmlns="http://www.w3.org/2000/svg" xmlns:xlink="http://www.w3.org/1999/xlink" x="0px" y="0px"
	 width="211.664px" height="206.119px" viewBox="0 0 211.664 206.119" enable-background="new 0 0 211.664 206.119"
	 xml:space="preserve">
<path fill="#FFFFFF" d="M118.581,26.726c0.408,0.791,1.045,1.266,1.938,1.076c1.006-0.214,2.204-0.42,2.442-1.614
	c0.212-1.058,0.321-2.271,0.006-3.269c-0.537-1.7-1.37-3.322-2.213-4.905c-0.684-1.282-1.89-1.236-2.646-0.005
	c-0.328,0.533-0.629,1.083-1.02,1.756c-0.475-1.127-0.921-2.1-1.295-3.099c-0.28-0.748-0.727-1.065-1.451-0.663
	c-1.352,0.751-2.733,1.471-3.999,2.352c-3.621,2.522-7.047,5.354-10.814,7.625c-4.671,2.816-9.914,3.67-15.362,3.234
	c-3.123-0.25-3.391,0.276-2.097,2.9c0.331,0.672,0.625,1.362,0.903,1.971C45.412,48.95,24.559,75.995,21.86,116.426
	c-2.124,0-4.322-0.131-6.498,0.036c-2.34,0.179-4.734,0.38-6.969,1.037c-2.8,0.822-4.415,3.161-5.694,5.672
	c-1.499,2.942-1.926,6.156-2.314,9.376c-0.776,6.435-0.486,12.771,1.9,18.88c1.229,3.148,3.113,5.896,5.939,7.783
	c1.213,0.81,2.76,1.419,4.201,1.531c3.777,0.294,7.583,0.397,11.372,0.317c2.531-0.054,4.577-1.524,6.468-3.118
	c0.214-0.181,0.411-0.379,0.625-0.56c0.057-0.048,0.144-0.06,0.353-0.143c0.84,1.494,1.693,3.006,2.54,4.521
	c4.251,7.606,9.863,14.117,16.21,20.021c9.861,9.175,21.246,15.765,34.03,19.979c11.522,3.798,23.335,5.125,35.385,3.938
	c18.719-1.844,35.524-8.445,49.917-20.727c10.641-9.078,18.75-20.042,24.053-33.019c0.477-1.167,0.994-1.808,2.359-1.792
	c1.631,0.019,3.267-0.187,4.895-0.354c1.696-0.173,2.987-0.997,3.871-2.494c0.587-0.994,1.216-1.979,1.94-2.874
	c1.831-2.263,2.249-5.099,3.16-7.717c2.13-6.123,2.599-12.435,1.452-18.812c-0.363-2.027-0.973-4.057-1.795-5.943
	c-1.488-3.407-4.564-4.952-7.942-5.78c-1.401-0.344-1.821-0.949-2.035-2.251c-2.956-18.023-10.615-33.791-23.153-47.06
	c-11.576-12.25-25.717-20.248-42.046-24.382c-1.743-0.441-3.498-0.857-5.268-1.165c-0.949-0.166-1.06-0.571-1.038-1.454
	c0.071-2.992,0.184-6-0.045-8.977c-0.368-4.772-3.166-8.402-6.276-11.725c-3.076-3.286-6.562-6.117-10.897-7.636
	c-4.659-1.633-9.356-2.134-14.218-0.674c-4.526,1.358-8.096,3.993-11.265,7.384c-4.101,4.389-5.795,9.551-5.264,15.472
	c0.068,0.756,0.41,1.552,0.835,2.189c0.265,0.397,0.942,0.767,1.403,0.732c0.784-0.059,1.082-0.679,1.17-1.532
	c0.296-2.891,0.636-5.783,1.11-8.65c0.437-2.647,2.131-4.61,3.988-6.404c2.345-2.265,4.975-4.131,8.041-5.308
	c4.621-1.774,9.195-1.372,13.676,0.477c6.6,2.723,11.178,7.541,14.07,13.994c1.12,2.5,1.467,5.144,0.873,7.857
	c-0.845,3.864-1.601,7.753-2.593,11.58c-1.271,4.905-4.301,8.573-8.283,11.665c-4.111,3.191-8.828,4.541-13.793,5.376
	c-1.316,0.221-2.482-0.842-2.509-2.227c-0.006-0.312,0.064-0.635,0.149-0.939c0.663-2.399,0.664-2.36-1.896-2.557
	c-0.676-0.052-1.816,0.363-1.816-0.933c0-1.373,1.125-0.854,1.802-0.838c5.114,0.119,9.345-2.032,13.325-4.97
	c3.48-2.57,5.804-6.005,7.683-9.806c0.964-1.951,1.014-3.982,0.544-6.081c-0.195-0.873-0.189-1.791-0.275-2.688
	c0.063-0.006,0.126-0.012,0.19-0.019C117.863,25.334,118.223,26.03,118.581,26.726z"/>
<path fill="#FFFFFF" d="M104.747,48.82c0.012,0.246,0.342,0.581,0.604,0.691c1.429,0.604,2.776,0.277,3.871-0.709
	c0.504-0.454,1.129-1.452,0.943-1.834c-0.276-0.567-1.217-0.824-1.896-1.17c-0.149-0.076-0.389,0.024-0.39,0.025
	C106.485,45.859,104.689,47.641,104.747,48.82z"/>
<path fill-rule="evenodd" clip-rule="evenodd" d="M117.314,24.657c0.085,0.897,0.08,1.815,0.275,2.688
	c0.47,2.099,0.42,4.13-0.544,6.081c-1.878,3.801-4.202,7.236-7.683,9.806c-3.98,2.938-8.211,5.089-13.325,4.97
	c-0.677-0.016-1.802-0.535-1.802,0.838c0,1.296,1.14,0.881,1.816,0.933c2.56,0.197,2.56,0.158,1.896,2.557
	c-0.084,0.305-0.155,0.627-0.149,0.939c0.027,1.385,1.193,2.448,2.509,2.227c4.966-0.836,9.683-2.185,13.793-5.376
	c3.982-3.092,7.012-6.759,8.283-11.665c0.992-3.827,1.748-7.715,2.593-11.58c0.594-2.713,0.247-5.357-0.873-7.857
	c-2.892-6.453-7.47-11.271-14.07-13.994c-4.48-1.849-9.055-2.251-13.676-0.477c-3.066,1.177-5.696,3.043-8.041,5.308
	c-1.857,1.794-3.551,3.757-3.988,6.404c-0.474,2.867-0.813,5.759-1.11,8.65c-0.088,0.853-0.386,1.473-1.17,1.532
	c-0.461,0.035-1.138-0.334-1.403-0.732c-0.425-0.637-0.768-1.433-0.835-2.189c-0.531-5.921,1.164-11.083,5.264-15.472
	c3.169-3.392,6.739-6.026,11.265-7.384c4.862-1.459,9.56-0.958,14.218,0.674c4.335,1.519,7.821,4.35,10.897,7.636
	c3.11,3.323,5.909,6.952,6.276,11.725c0.229,2.977,0.117,5.985,0.045,8.977c-0.021,0.882,0.089,1.288,1.038,1.454
	c1.77,0.308,3.524,0.724,5.268,1.165c16.329,4.134,30.47,12.131,42.046,24.382c12.538,13.27,20.197,29.037,23.153,47.06
	c0.214,1.302,0.634,1.907,2.035,2.251c3.378,0.829,6.454,2.374,7.942,5.78c0.822,1.886,1.432,3.917,1.795,5.943
	c1.146,6.377,0.678,12.688-1.452,18.812c-0.911,2.618-1.329,5.454-3.16,7.717c-0.725,0.896-1.354,1.88-1.94,2.874
	c-0.884,1.497-2.175,2.321-3.871,2.494c-1.628,0.167-3.264,0.372-4.895,0.354c-1.365-0.016-1.883,0.625-2.359,1.792
	c-5.303,12.977-13.412,23.94-24.053,33.019c-14.394,12.281-31.198,18.883-49.917,20.727c-12.05,1.187-23.862-0.141-35.385-3.938
	c-12.784-4.214-24.168-10.804-34.03-19.979c-6.347-5.904-11.959-12.415-16.21-20.021c-0.847-1.516-1.7-3.027-2.54-4.521
	c-0.209,0.083-0.296,0.095-0.353,0.143c-0.214,0.181-0.411,0.379-0.625,0.56c-1.891,1.594-3.937,3.064-6.468,3.118
	c-3.789,0.08-7.595-0.023-11.372-0.317c-1.441-0.112-2.988-0.722-4.201-1.531c-2.826-1.888-4.71-4.635-5.939-7.783
	c-2.387-6.108-2.677-12.445-1.9-18.88c0.389-3.22,0.815-6.434,2.314-9.376c1.279-2.511,2.895-4.85,5.694-5.672
	c2.234-0.656,4.629-0.858,6.969-1.037c2.176-0.167,4.374-0.036,6.498-0.036c2.699-40.432,23.552-67.477,61.112-82.341
	c-0.278-0.608-0.572-1.299-0.903-1.971c-1.294-2.624-1.026-3.15,2.097-2.9c5.449,0.436,10.691-0.418,15.362-3.234
	c3.767-2.271,7.194-5.103,10.814-7.625c1.266-0.881,2.647-1.601,3.999-2.352c0.725-0.403,1.171-0.085,1.451,0.663
	c0.374,1,0.82,1.972,1.295,3.099c0.39-0.674,0.691-1.223,1.02-1.756c0.756-1.231,1.962-1.277,2.646,0.005
	c0.844,1.583,1.677,3.205,2.213,4.905c0.315,0.997,0.206,2.211-0.006,3.269c-0.239,1.193-1.437,1.399-2.442,1.614
	c-0.893,0.19-1.53-0.285-1.938-1.076c-0.358-0.696-0.718-1.392-1.077-2.087C117.441,24.645,117.378,24.651,117.314,24.657z
	 M33.647,154.405c-0.211,0.367-0.198,1.045-0.004,1.438c3.255,6.595,7.296,12.656,12.26,18.104
	c5.03,5.521,10.58,10.439,16.801,14.565c14.085,9.344,29.51,14.672,46.488,14.992c18.471,0.349,35.476-4.573,50.909-14.752
	c5.688-3.751,10.771-8.227,15.388-13.255c6.527-7.112,11.517-15.183,15.322-24.02c0.158-0.367,0.291-0.744,0.426-1.121
	c0.039-0.109,0.044-0.23,0.105-0.572c-2.233-0.523-4.456-1.114-6.711-1.539c-0.941-0.177-1.791-0.273-2.315-1.314
	c-0.304,1.498-0.661,2.988-0.899,4.497c-0.633,3.998-1.9,7.836-4.085,11.178c-2.403,3.676-6.062,5.782-10.573,5.826
	c-3.873,0.038-7.748-0.189-11.623-0.3c-2.129-0.061-3.796-1.146-5.305-2.491c-3.347-2.982-4.79-6.997-5.91-11.166
	c-0.383-1.428-0.696-2.875-1.039-4.313c-0.183-0.767-0.542-0.966-1.292-0.554c-5.738,3.154-11.044,6.898-15.755,11.461
	c-0.623,0.603-1.163,1.31-1.851,1.821c-2.055,1.531-4.257,2.08-6.942,1.854c-6.089-0.516-12.214-0.605-18.326-0.845
	c-13.701-0.536-27.404-1.037-41.103-1.628c-1.14-0.049-2.461-0.398-3.346-1.071c-3.936-2.991-7.735-6.161-11.6-9.246
	c-1.732-1.383-3.501-2.721-5.104-3.963C36.154,150.276,34.854,152.313,33.647,154.405z M118.125,141.005
	c4.431,0.171,8.858,0.423,13.288,0.618c3.475,0.153,6.953,0.25,10.427,0.421c0.864,0.043,1.423-0.077,1.38-1.1
	c-0.039-0.907-0.015-1.828-1.302-1.858c-2.678-0.062-5.355-0.135-8.033-0.198c-3.837-0.091-7.674-0.163-11.51-0.283
	c-0.49-0.016-1.139-0.124-1.43-0.446c-1.563-1.735-3.25-3.417-4.479-5.377c-1.196-1.907-0.958-4.163-0.222-6.277
	c0.125-0.36,0.476-0.761,0.822-0.906c2.129-0.889,4.326-1.625,6.417-2.591c1.01-0.467,2.108-1.152,2.688-2.048
	c0.963-1.488,2.008-2.826,3.411-3.895c0.092-0.071,0.209-0.178,0.219-0.277c0.199-1.945,1.895-2.761,3.028-3.986
	c1.703-1.842,3.139-3.826,3.751-6.513c2.867,1.117,6.217,1.135,7.817,4.216c1.97,3.795,5.365,6.282,8.132,9.345
	c0.08,0.088,0.174,0.166,0.253,0.255c1.757,1.999,1.771,2.089,0.171,4.215c-1.201,1.597-2.448,3.159-3.64,4.764
	c-0.269,0.36-0.388,0.831-0.576,1.251c0.116,0.073,0.233,0.146,0.35,0.22c0.209-0.193,0.419-0.384,0.626-0.578
	c1.537-1.431,3.021-2.923,4.63-4.268c0.831-0.694,1.907-1.087,2.816-1.701c0.245-0.166,0.377-0.631,0.401-0.971
	c0.154-2.174,0.604-4.228,2.457-5.627c0.682-0.514,1.492-0.874,2.28-1.222c0.542-0.239,1.161-0.301,1.723-0.504
	c1.784-0.643,2.224-1.329,2.153-3.231c-0.117-3.196-0.613-6.283-2.455-9.015c-1.18-1.749-1.646-1.811-3.118-0.374
	c-1.452,1.419-1.964,3.228-2.312,5.153c-0.265,1.473-0.68,2.924-1.096,4.365c-0.344,1.188-0.766,2.355-1.192,3.518
	c-0.462,1.26-1.177,1.389-2.065,0.433c-3.43-3.689-6.731-7.51-10.35-11.003c-2.188-2.111-4.767-3.874-7.36-5.49
	c-2.564-1.599-5.27-1.041-7.676,0.582c-1.776,1.197-3.175,2.718-3.69,4.975c-0.191,0.837-0.964,1.677-1.69,2.229
	c-2.21,1.685-3.598,3.804-4.042,6.55c-0.089,0.551-0.253,1.091-0.407,1.629c-0.403,1.406-1.108,2.431-2.622,2.995
	c-1.514,0.565-2.854,1.582-4.319,2.301c-0.588,0.289-1.32,0.475-1.963,0.422c-1.549-0.126-3.078-0.537-4.626-0.619
	c-1.989-0.106-3.677,0.699-4.883,2.309c-0.293,0.391-0.307,0.992-0.449,1.496c0.503,0.139,1.029,0.45,1.507,0.39
	c3.148-0.394,5.945,0.462,8.456,2.299c1.465,1.072,2.606,2.434,3.141,4.112c-2.549-0.15-5.03-0.324-7.513-0.43
	c-0.995-0.042-2.003,0.007-2.99,0.132c-0.41,0.052-0.78,0.413-1.168,0.633c0.292,0.319,0.531,0.803,0.89,0.919
	c0.584,0.189,1.248,0.195,1.876,0.182c2.397-0.048,4.71,0.345,6.855,1.422c0.544,0.273,1.121,0.829,1.317,1.385
	c0.707,1.998,0.35,2.43-1.777,2.364c-10.549-0.32-21.099-0.649-31.647-0.986c-1.198-0.038-2.394-0.196-3.591-0.211
	c-0.908-0.012-1.553-0.305-1.839-1.199c-0.423-1.319-1.369-1.864-2.705-1.937c-0.755-0.04-1.509-0.181-2.254-0.321
	c-2.174-0.409-3.729,0.686-5.194,2.062c-0.233,0.219-0.584,0.43-0.887,0.438c-3.356,0.092-6.714,0.148-10.071,0.204
	c-1.189,0.02-1.972-0.52-2.183-1.729c-0.205-1.17-0.334-2.354-0.565-3.519c-0.153-0.773-0.381-1.543-1.373-1.689
	c-0.821-0.121-1.938,0.331-2.336-0.724c-0.453-1.198-0.937-2.507-0.887-3.747c0.085-2.143-0.258-3.126-2.142-4.125
	c-0.599-0.317-1.158-0.708-1.734-1.067c-0.969-0.604-2.025-0.271-2.175,0.852c-0.121,0.909-0.059,1.936,0.26,2.785
	c0.371,0.985,1.017,1.912,1.707,2.725c1.648,1.941,2.573,4.225,3.302,6.602c0.744,2.426-0.826,4.104-3.562,3.842
	c-0.548-0.053-1.074-0.295-1.619-0.414c-0.741-0.163-0.927-0.625-1.037-1.352c-0.46-3.037-0.862-6.096-1.581-9.076
	c-0.882-3.654-2.913-6.507-6.546-8.03c-1.888-0.791-1.904-1.06-1.655-3.121c0.606-5.033,2.697-9.503,5.195-13.812
	c1.153-1.989,3.093-2.801,5.266-2.752c3.948,0.089,7.894,0.338,11.835,0.603c0.824,0.055,1.208-0.115,1.262-0.927
	c0.121-1.833,0.245-3.665,0.363-5.498c0.128-1.991,0.23-3.983,0.395-5.971c0.03-0.365,0.222-0.791,0.479-1.051
	c2.582-2.609,5.031-5.39,7.869-7.689c1.313-1.064,3.261-1.764,5.229-1.344c1.893,0.404,1.894,0.399,2.505-1.554
	c3.541,0.605,7.346-0.218,10.761,1.995c0.41-0.372,0.9-0.725,1.277-1.174c1.22-1.453,2.75-2.362,4.538-2.975
	c2.386-0.816,2.551-1.272,2.532-3.769c-0.037-5.011,1.465-9.614,4.041-13.861c0.578-0.953,0.499-1.608-0.044-2.491
	c-2.834-4.614-5.828-9.158-7.327-14.445c-0.293-1.036-0.763-1.037-1.645-0.718c-8.216,2.971-15.79,7.121-22.89,12.195
	c-14.383,10.28-24.243,23.91-30.204,40.468c-3.049,8.47-4.562,17.212-4.816,26.196c-0.026,0.911,0.26,1.288,1.137,1.438
	c3.106,0.533,5.515,2.235,7.466,4.637c0.322,0.396,0.6,0.859,0.78,1.335c1.381,3.639,2.387,7.376,2.808,11.255
	c0.26,2.392,1.106,3.26,3.504,3.394c4.511,0.253,9.021,0.52,13.535,0.694c12.705,0.493,25.41,0.957,38.117,1.398
	c3.954,0.138,7.915,0.099,11.867,0.271c1.774,0.077,3.534,0.475,5.355,0.735c-0.293,1.461-0.615,2.694-0.755,3.948
	c-0.056,0.493,0.14,1.232,0.494,1.507c0.637,0.493,1.412,0.268,1.877-0.421c1.033-1.53,1.486-3.219,1.186-5.209
	C114.164,140.993,116.147,140.929,118.125,141.005z M165.012,95.316c-0.889,2.029-0.639,3.345,0.658,5.085
	c1.428,1.915,2.324,4.24,3.341,6.438c0.344,0.743,0.718,1.157,1.53,1.278c1.455,0.215,1.66,0.758,1.478,2.354
	c-0.215,1.883-0.265,3.789-0.288,5.686c-0.006,0.547,0.325,1.098,0.784,1.655c0.302-0.758,0.606-1.515,0.906-2.274
	c1.316-3.339,2.862-6.552,5.845-8.744c0.997-0.733,2.188-1.36,3.383-1.641c4.146-0.976,8.34-0.674,12.52-0.104
	c0.465,0.063,0.934,0.091,1.611,0.156c-0.166-1.186-0.27-2.241-0.468-3.279c-2.347-12.268-7.109-23.51-14.249-33.766
	c-4.691-6.741-10.156-12.771-16.689-17.725c-11.088-8.408-23.454-14.079-37.178-16.68c-0.919-0.174-1.318,0.109-1.269,0.984
	c0.054,0.965,0.196,1.925,0.285,2.747c1.609-0.165,2.943-0.416,4.276-0.409c1.634,0.008,2.928,0.779,3.615,2.331
	c0.545,1.231,0.134,2.239-1.187,2.434c-1.109,0.164-2.315,0.092-3.412-0.163c-4.276-0.993-4.277-0.943-6.163,2.996
	c-0.865,1.806-2.234,3.364-3.243,5.11c-1.238,2.143-2.436,4.321-3.45,6.575c-0.377,0.837-0.363,1.956-0.222,2.9
	c0.329,2.206,0.855,4.382,1.271,6.576c0.096,0.505,0.134,1.041,0.083,1.55c-0.14,1.405-0.902,1.846-2.246,1.414
	c-3.434-1.106-6.82-2.423-10.324-3.226c-3.953-0.906-5.014-1.113-6.39,3.364c-0.25,0.814-1.096,1.426-1.523,2.21
	c-0.36,0.66-0.776,1.464-0.698,2.15c0.116,1.016-0.243,1.53-1.061,1.864c-1.329,0.542-2.676,1.041-4.014,1.561
	c-0.484,0.188-1.039,0.295-1.422,0.608c-0.308,0.251-0.407,0.758-0.599,1.151c0.388,0.078,0.864,0.338,1.15,0.201
	c1.208-0.577,1.894-0.013,2.468,0.941c0.185,0.308,0.329,0.644,0.534,0.937c0.889,1.27,2.248,1.149,2.891-0.249
	c0.098-0.213,0.179-0.434,0.264-0.64c0.656,0.133,1.274,0.404,1.86,0.346c1.071-0.105,1.701-1.251,1.688-2.682
	c-0.005-0.588,0.047-1.188,0.169-1.762c0.175-0.818,0.847-1.147,1.545-0.926c0.451,0.143,0.929,0.665,1.099,1.125
	c0.271,0.737,0.282,1.567,0.428,2.353c0.529,2.846,4.071,4.239,6.364,2.477c0.691-0.532,1.283-1.196,1.902-1.818
	c1.735-1.746,3.906-2.134,5.964-0.781c1.524,1.002,2.867,2.285,4.269,3.468c1.628,1.375,3.324,2.492,5.623,2.15
	c0.849-0.126,1.239-0.602,1.709-1.274c1.972-2.824,1.23-5.617,0.098-8.433c-0.737-1.833-2.514-2.254-4.111-2.765
	c-1.314-0.42-2.735-0.51-4.111-0.728c-0.872-0.138-1.3-0.512-1.253-1.503c0.164-3.51-0.391-6.937-1.428-10.284
	c-0.59-1.906,0.185-3.442,1.266-4.891c0.428-0.573,0.948-1.081,1.448-1.597c1.379-1.424,3.06-2.148,5.021-1.734
	c1.69,0.356,3.262,0.001,4.776-0.564c0.684-0.255,1.211-0.984,1.751-1.554c0.506-0.534,0.935-1.142,1.47-1.806
	c0.948,1.116,0.988,2.212,0.997,3.393c0.005,0.662,0.394,1.38,0.79,1.947c0.137,0.197,0.978,0.194,1.221-0.025
	c1.049-0.943,2.15-0.918,3.349-0.446c0.701,0.276,1.406,0.544,2.201,0.852c-0.104,0.334-0.172,0.632-0.289,0.909
	c-0.947,2.245-1.94,4.471-2.837,6.735c-0.303,0.766-0.857,0.928-1.501,0.906c-1.915-0.066-3.828-0.201-5.742-0.297
	c-0.637-0.032-1.281-0.082-1.913-0.029c-1.62,0.137-2.783,0.88-3.251,2.539c-0.238,0.845-0.622,1.649-0.848,2.496
	c-0.312,1.174,0.144,1.837,1.349,2.008c0.709,0.101,1.432,0.115,2.149,0.152c1.833,0.096,3.667,0.275,5.498,0.25
	c2.479-0.034,4.638-1.203,6.722-2.369c4.169-2.333,8.933-0.326,11.536,2.139c-1.082,0.227-2.094,0.542-3.122,0.611
	c-0.496,0.033-1.156-0.268-1.51-0.638c-0.821-0.856-1.651-1.052-2.675-0.476c-0.035,0.02-0.078,0.031-0.104,0.058
	c-2.336,2.398-5.555,2.58-8.519,3.415c-0.993,0.28-2.024,0.588-2.88,1.132c-0.509,0.323-0.897,1.107-0.972,1.729
	c-0.037,0.308,0.707,0.813,1.184,1.061c2.616,1.358,5.272,2.637,7.887,3.996c2.447,1.271,4.871,1.107,7.239-0.098
	c0.978-0.498,0.917-1.564,0.403-2.297c-0.523-0.747-1.346-1.313-2.114-1.849c-0.808-0.563-1.923-1.166-1.381-2.184
	c0.522-0.98,1.743-0.494,2.571-0.075c0.955,0.483,1.814,1.158,2.699,1.775c1.223,0.854,2.43,1.17,3.915,0.497
	c1.669-0.755,3.462-1.23,5.172-1.9c0.724-0.284,1.04-0.026,1.259,0.596c0.615,1.752,0.405,3.492-0.231,5.165
	c-0.495,1.303-1.231,2.514-1.752,3.809c-0.771,1.915-1.472,3.86-2.136,5.814c-0.117,0.345,0.09,0.8,0.146,1.204
	c0.385-0.148,0.843-0.208,1.139-0.461c0.85-0.725,1.599-1.57,2.456-2.285c0.525-0.438,1.177-0.725,1.93-1.173
	C166.264,88.71,166.406,92.128,165.012,95.316z M54.953,124.102c-2.497,0.472-4.183,2.048-5.14,4.371
	c-0.163,0.396-0.023,0.917-0.023,1.38c0.111,0.037,0.222,0.074,0.333,0.11c0.37-0.334,0.781-0.634,1.105-1.009
	c1.928-2.225,4.395-2.913,7.232-2.614c2.59,0.273,4.847,1.052,6.505,3.3c1.086,1.472,2.941,1.771,4.596,1.452
	c2.149-0.415,3.473,0.54,4.809,1.925c0.41,0.426,1.181,0.801,1.731,0.734c1.219-0.146,1.635-1.609,0.868-2.621
	c-0.621-0.819-1.458-1.632-0.464-2.7c0.908-0.976,2.978-1.205,3.933-0.496c1.154,0.855,1.316,0.861,2.625,0.03
	c-0.166-0.251-0.317-0.512-0.498-0.751c-1.038-1.378-1.425-2.849-0.627-4.478c0.336-0.686,0.654-1.388,1.064-2.029
	c0.901-1.409,0.806-4.677-0.223-5.966c-0.736-0.923-2.318-0.972-3.453,0.031c-0.801,0.708-1.494,1.555-2.152,2.404
	c-0.634,0.818-1.252,1.155-2.335,0.75c-1.309-0.489-2.141-0.021-2.758,1.36c-0.472,1.056-0.776,2.188-1.284,3.225
	c-0.612,1.251-1.721,1.677-3.144,1.323c-1.21-0.301-1.548-1.288-1.704-2.355c-0.146-1.006,0.345-1.782,1.228-2.118
	c1.664-0.633,2.104-1.807,2.037-3.471c-0.075-1.889,0.378-2.486,2.227-3.008c1.469-0.414,2.07-1.26,2.378-2.746
	c0.565-2.721,1.417-5.382,2.148-8.068c0.178-0.653,0.414-1.299,0.51-1.965c0.179-1.241-0.038-2.313-1.448-2.765
	c-0.332-0.106-0.646-0.329-0.912-0.562c-0.763-0.672-0.638-1.512,0.317-1.858c0.631-0.229,1.315-0.373,1.986-0.424
	c1.302-0.101,1.975-0.832,2.069-2.046c0.104-1.349,0.191-2.72,0.064-4.06c-0.146-1.545-0.584-3.061-0.788-4.604
	c-0.08-0.599,0.102-1.243,0.224-1.855c0.089-0.449,0.273-0.878,0.542-1.709c-2.506,0-4.767-0.002-7.026,0.001
	c-0.44,0.001-0.885-0.02-1.318,0.037c-1.733,0.228-3.029-0.263-3.771-1.989c-0.326-0.758-1.154-1.038-1.832-0.578
	c-3.369,2.284-6.869,4.451-8.903,8.184c-0.359,0.661-0.642,1.379-0.854,2.102c-0.595,2.013,0.341,3.376,2.43,3.542
	c3.186,0.254,6.375,0.467,9.562,0.705c0.398,0.03,0.872-0.016,1.171,0.184c0.438,0.292,0.75,0.774,1.115,1.175
	c-0.401,0.246-0.789,0.677-1.208,0.709c-3.695,0.283-7.396,0.494-11.095,0.727c-1.081,0.068-1.755,0.956-1.732,2.155
	c0.016,0.855-0.111,1.712-0.11,2.568c0.001,0.408,0.039,0.917,0.278,1.186c0.147,0.167,0.767,0.077,1.07-0.088
	c1.263-0.683,2.451-1.508,3.732-2.149c1.585-0.792,3.229-0.187,3.901,1.377c0.114,0.265,0.035,0.805-0.164,0.983
	c-2.098,1.868-2.295,2.668-0.943,5.141c0.395,0.721,0.276,1.138-0.401,1.409c-1.956,0.781-2.408,2.403-2.453,4.264
	c-0.019,0.798-0.019,1.598,0.007,2.396c0.029,0.931-0.275,1.116-1.23,0.9c-1.975-0.446-3.985-0.82-6-0.967
	c-1.025-0.075-2.109,0.349-3.129,0.667c-0.411,0.129-0.842,0.52-1.043,0.906c-0.188,0.359-0.265,1.109-0.064,1.262
	c0.332,0.254,1.049,0.382,1.387,0.188c2.378-1.369,4.527-0.978,6.701,0.507c2.157,1.474,3.997,3.179,5.024,5.635
	c0.075,0.18,0.14,0.366,0.185,0.554c0.016,0.064-0.045,0.146-0.153,0.453C59.435,123.222,57.173,123.682,54.953,124.102z
	 M95.603,127.387c3.631-12.2,4.976-24.568,2.576-37.19c-0.306-1.61-0.572-3.23-0.979-4.815c-0.107-0.417-0.616-0.919-1.037-1.037
	c-2.02-0.564-4.069-0.672-6.171-0.344c-1.834,0.286-2.969,1.289-3.29,3.006c-0.454,2.436-0.972,4.823-1.864,7.152
	c-0.627,1.637-0.028,2.33,1.734,2.463c0.955,0.072,1.917,0.044,2.875,0.09c2.079,0.099,3.218,1.125,3.26,3.201
	c0.113,5.594,0.107,11.19,0.204,16.784c0.075,4.314,0.226,8.627,0.367,12.939c0.013,0.405,0.193,0.804,0.296,1.205
	c0.164,0.03,0.329,0.061,0.493,0.091C94.586,129.753,95.238,128.613,95.603,127.387z M91.887,150.75
	c2.537-0.025,4.378-1.209,5.261-3.421c0.566-1.417,0.086-2.747-0.875-3.62c-0.604-0.548-1.851-0.677-2.734-0.532
	c-0.608,0.1-1.195,0.922-1.588,1.549c-0.324,0.516-0.324,1.226-0.51,1.836c-0.364,1.198-1.109,1.909-2.445,1.856
	c-1.608-0.064-2.926,0.354-3.884,1.838c-0.446,0.691-1.363,1.072-2.05,1.615c-0.746,0.591-1.392,1.382-2.229,1.765
	c-1.024,0.469-2.188,0.722-3.315,0.844c-0.807,0.087-1.673-0.355-2.477-0.258c-0.553,0.067-1.043,0.654-1.561,1.009
	c0.379,0.515,0.653,1.285,1.158,1.492c1.057,0.435,2.031,0.957,3.426,0.146c1.042-0.606,2.717-0.136,4.109-0.124
	c2.108,0.018,4.218,0.018,6.325,0.089c6.589,0.221,13.177,0.474,19.766,0.706c0.518,0.019,1.075,0.091,1.546-0.065
	c0.437-0.145,1.1-0.565,1.098-0.86c-0.004-0.506-0.324-1.237-0.736-1.461c-0.749-0.407-1.654-0.547-2.508-0.735
	c-2.031-0.448-2.946-1.358-3.29-3.425c-0.19-1.142-0.257-2.307-0.491-3.438c-0.129-0.626-0.105-1.543-1.271-1.286
	c-1.474,0.325-2.11,0.873-1.915,1.962c0.14,0.777,0.461,1.524,0.722,2.278c0.728,2.103,0.164,3.489-2.031,3.826
	c-2.306,0.354-4.688,0.279-7.035,0.257c-1.614-0.016-3.227-0.249-4.837-0.423c-0.244-0.025-0.466-0.252-0.768-0.426
	C87.918,151.69,89.649,150.772,91.887,150.75z M174.721,134.884c-1.493-2.115-3.979-3.068-6.281-1.963
	c-1.05,0.504-1.945,1.657-2.539,2.724c-2.635,4.731-2.717,9.844-1.87,15.027c0.429,2.628,1.599,4.919,3.533,6.78
	c1.548,1.489,4.329,1.315,5.937-0.104c2.006-1.773,2.604-4.163,3.162-6.558c0.461-1.973,0.648-4.01,0.817-5.112
	C177.471,141.208,176.814,137.85,174.721,134.884z M27.425,127.824c-1.405-0.731-2.66-0.189-3.762,0.712
	c-1.569,1.285-2.56,3.018-2.983,4.945c-1.016,4.626-0.265,9.041,1.894,13.256c0.757,1.479,2.069,1.786,3.465,1.958
	c0.284,0.035,0.859-0.422,0.917-0.726c0.447-2.347,0.826-4.708,1.153-7.075c0.048-0.348-0.292-0.749-0.452-1.125
	c-0.308,0.192-0.658,0.34-0.913,0.586c-0.984,0.952-2.067,0.883-2.632-0.353c-0.711-1.557-1.398-3.155-1.818-4.808
	c-0.727-2.861,1.308-5.767,4.209-6.186c0.414-0.06,0.932,0.163,1.314,0.396c2.328,1.415,3.637,3.643,4.712,6.044
	c0.224,0.498,0.426,1.006,0.638,1.509c0.116-0.046,0.232-0.092,0.349-0.138C32.738,132.998,31.094,129.733,27.425,127.824z
	 M169.04,124.304c4.008,0.853,6.965,3.073,8.643,6.821c0.58,1.296,0.846,2.734,1.242,4.111c0.305,1.061,0.447,2.196,0.924,3.171
	c0.449,0.918,3.07,1.323,4.191,0.837c3.551-1.543,7.1-3.088,10.65-4.631c0.915-0.397,1.892-0.696,2.723-1.226
	c0.443-0.282,0.636-0.958,0.941-1.457c-0.493-0.241-1.04-0.76-1.469-0.676c-1.793,0.35-3.566,0.826-5.314,1.357
	c-2.596,0.789-5.175,1.635-7.738,2.521c-0.654,0.228-1.275,0.638-1.822,1.075c-0.692,0.556-0.977,0.375-1.282-0.385
	c-0.89-2.21-1.638-4.512-2.819-6.559c-1.666-2.887-4.169-4.916-7.536-5.637c-0.667-0.143-1.37-0.121-2.056-0.174
	c-0.041,0.133-0.083,0.265-0.125,0.398C168.474,124.006,168.739,124.24,169.04,124.304z M121.228,145.819
	c-0.118-0.387-0.713-0.892-1.064-0.87c-0.357,0.021-0.913,0.582-0.98,0.976c-0.425,2.456-0.829,4.923-1.057,7.402
	c-0.161,1.74,0.592,3.273,1.704,4.608c0.492,0.591,0.958,0.84,1.701,0.229c4.741-3.902,9.52-7.759,14.262-11.66
	c0.3-0.247,0.389-0.749,0.576-1.133c-0.433-0.188-0.878-0.556-1.297-0.528c-1.5,0.095-2.811,0.529-3.31,2.229
	c-0.161,0.546-0.549,1.09-0.976,1.481c-1.673,1.534-3.371,3.056-5.571,3.833c-2.291,0.81-3.694,0.079-3.815-2.421
	c-0.025-0.519-0.003-1.038-0.003-1.557c0.065-0.006,0.13-0.011,0.195-0.017C121.484,147.53,121.477,146.638,121.228,145.819z
	 M186.594,108.934c-1.879,0.614-3.155,1.979-3.279,4.132c-0.053,0.891,0.29,1.341,1.19,1.046c2.919-0.956,5.838-0.44,8.767-0.093
	c0.746,0.088,1.513,0.025,2.268-0.003c0.222-0.008,0.58-0.079,0.635-0.217c0.53-1.34,1.713-2.494,1.368-4.083
	c-0.093-0.429-0.562-1.006-0.956-1.1c-1.424-0.337-2.891-0.496-4.639-0.769C190.311,108.165,188.387,108.349,186.594,108.934z
	 M69.397,155.966c0.409-0.071,0.757-0.494,1.132-0.757c-0.444-0.193-0.872-0.492-1.335-0.562c-1.254-0.187-2.536-0.201-3.782-0.424
	c-1.767-0.316-3.3-1.073-4.474-2.536c-0.978-1.217-3.727-1.58-5.185-1.097c-1.062,0.352-2.254,0.396-3.391,0.412
	c-1.238,0.018-1.575,0.363-1.036,1.484c0.619,1.287,1.643,2.283,3.055,2.472c3.879,0.517,7.778,0.882,11.843,1.325
	C67.176,156.199,68.299,156.158,69.397,155.966z M16.31,122.989c0.549,0.001,1.186-0.446,1.629-0.854
	c0.789-0.725,1.485-1.557,2.175-2.382c0.588-0.704,0.416-1.258-0.438-1.319c-2.107-0.151-4.221-0.244-6.333-0.304
	c-0.414-0.012-0.972,0.101-1.229,0.375c-1.099,1.177-2.11,2.435-3.153,3.664c0.077,0.178,0.155,0.356,0.233,0.535
	C11.567,122.813,13.938,122.981,16.31,122.989z M74.085,144.127c-0.286-1.219-2.764-2.305-4.081-1.791
	c-1.486,0.581-1.661,0.908-1.344,2.508c0.039,0.195,0.063,0.393,0.088,0.59c0.212,1.663,0.557,1.932,2.484,1.925
	C73.363,147.352,74.532,146.028,74.085,144.127z M203.934,119.36c0.344,2.204,0.897,4.277,0.926,6.357
	c0.031,2.172-0.373,4.364-0.721,6.525c-0.332,2.067-0.837,4.107-1.266,6.159C205.896,136.172,207.573,120.86,203.934,119.36z
	 M90.441,42.385c0.36,1.107,1.218,0.529,2.161,0.666c-0.224-1.016-0.302-1.926-0.625-2.738c-0.929-2.334-1.979-4.621-2.937-6.944
	c-0.355-0.863-0.891-0.882-1.697-0.53C88.397,36.09,89.419,39.238,90.441,42.385z M103.133,101.808
	c0.531,0.436,1.149,0.749,1.66,0.066c0.551-0.734,1.636-1.38,0.827-2.544c-0.359-0.517-0.927-0.893-1.26-1.422
	c-0.662-1.054-1.226-2.17-1.832-3.26c-0.162-0.292-0.33-0.58-0.59-1.038C101.039,95.171,101.995,100.873,103.133,101.808z
	 M110.319,33.862c-0.881-2.346-1.775-4.688-2.705-7.014c-0.078-0.194-0.609-0.43-0.679-0.367c-0.421,0.378-0.793,0.82-1.124,1.282
	c-0.073,0.102,0.06,0.383,0.143,0.56c1.156,2.476,2.32,4.947,3.526,7.513C110.356,35.305,110.627,34.682,110.319,33.862z
	 M66.159,149.918c1.046-1.148,0.765-1.992-0.65-2.696c-0.736-0.366-1.405-0.868-2.12-1.282c-0.221-0.127-0.599-0.306-0.718-0.215
	c-0.204,0.156-0.396,0.527-0.356,0.769c0.214,1.291,0.453,2.583,0.803,3.841c0.076,0.274,0.64,0.412,1.137,0.706
	C64.933,150.655,65.698,150.424,66.159,149.918z M153.036,105.632c-0.471-0.466-1.004-0.871-1.474-1.337
	c-0.572-0.568-1.175-0.893-1.851-0.229c-0.618,0.609-0.247,1.115,0.242,1.622c0.852,0.884,1.613,1.86,2.514,2.685
	c0.322,0.294,0.989,0.441,1.406,0.325c0.32-0.089,0.494-0.697,0.854-1.266C154.124,106.786,153.598,106.191,153.036,105.632z
	 M45.914,146.346c-1.593-1.25-3.239-2.434-4.891-3.607c-0.201-0.143-0.68-0.185-0.819-0.052c-0.174,0.166-0.174,0.562-0.164,0.856
	c0.007,0.176,0.135,0.398,0.279,0.512c1.945,1.529,3.903,3.043,5.915,4.604C46.969,147.535,46.549,146.845,45.914,146.346z
	 M29.773,147.912c0.111,0.302,0.562,0.725,0.787,0.685c0.39-0.069,0.971-0.407,1.033-0.72c0.19-0.965,0.294-1.984,0.184-2.955
	c-0.049-0.431-0.693-0.794-1.067-1.188c-0.349,0.408-0.788,0.771-1.018,1.237c-0.179,0.365-0.099,0.859-0.152,1.533
	C29.585,146.826,29.584,147.404,29.773,147.912z M137.329,90.235c0.125-0.192-0.018-0.71-0.213-0.926
	c-0.55-0.609-1.109-1.378-1.821-1.62c-0.521-0.177-1.292,0.379-1.951,0.608c0.254,0.524,0.38,1.213,0.792,1.535
	c0.607,0.473,1.419,0.684,2.19,1.027C136.7,90.644,137.143,90.523,137.329,90.235z M72.971,76.263
	c-0.264-0.007-0.54,0.386-0.81,0.593c0.219,0.258,0.413,0.711,0.66,0.742c1.663,0.208,3.336,0.346,5.009,0.456
	c0.247,0.017,0.512-0.235,0.731-0.344C76.878,76.096,74.885,76.315,72.971,76.263z M131.959,92.799
	c-0.497-0.581-1.042-1.249-1.716-1.505c-0.42-0.16-1.221,0.217-1.632,0.593c-0.691,0.632-0.379,1.336,0.559,1.476
	c0.629,0.094,1.262,0.162,1.894,0.241c0.04,0.005,0.079,0.008,0.457,0.045C131.638,93.432,132.048,92.902,131.959,92.799z
	 M52.843,108.177c0.02-0.039-0.347-0.268-0.534-0.408c-0.251,0.41-0.503,0.82-0.755,1.23c0.189,0.125,0.378,0.251,0.567,0.376
	C52.372,108.98,52.637,108.594,52.843,108.177z"/>
<path fill-rule="evenodd" clip-rule="evenodd" d="M107.879,45.823c-1.394,0.037-3.19,1.818-3.133,2.997
	c0.012,0.246,0.342,0.581,0.604,0.691c1.429,0.604,2.776,0.277,3.871-0.709c0.504-0.454,1.129-1.452,0.943-1.834
	c-0.276-0.567-1.217-0.824-1.896-1.17C108.12,45.722,107.88,45.822,107.879,45.823z"/>
<path fill-rule="evenodd" clip-rule="evenodd" fill="#FFFFFF" d="M37.563,147.992c-1.409,2.284-2.709,4.321-3.916,6.413
	c-0.211,0.367-0.198,1.045-0.004,1.438c3.255,6.595,7.296,12.656,12.26,18.104c5.03,5.521,10.58,10.439,16.801,14.565
	c14.085,9.344,29.51,14.672,46.488,14.992c18.471,0.349,35.476-4.573,50.909-14.752c5.688-3.751,10.771-8.227,15.388-13.255
	c6.527-7.112,11.517-15.183,15.322-24.02c0.158-0.367,0.291-0.744,0.426-1.121c0.039-0.109,0.044-0.23,0.105-0.572
	c-2.233-0.523-4.456-1.114-6.711-1.539c-0.941-0.177-1.791-0.273-2.315-1.314c-0.304,1.498-0.661,2.988-0.899,4.497
	c-0.633,3.998-1.9,7.836-4.085,11.178c-2.403,3.676-6.062,5.782-10.573,5.826c-3.873,0.038-7.748-0.189-11.623-0.3
	c-2.129-0.061-3.796-1.146-5.305-2.491c-3.347-2.982-4.79-6.997-5.91-11.166c-0.383-1.428-0.696-2.875-1.039-4.313
	c-0.183-0.767-0.542-0.966-1.292-0.554c-5.738,3.154-11.044,6.898-15.755,11.461c-0.623,0.603-1.163,1.31-1.851,1.821
	c-2.055,1.531-4.257,2.08-6.942,1.854c-6.089-0.516-12.214-0.605-18.326-0.845c-13.701-0.536-27.404-1.037-41.103-1.628
	c-1.14-0.049-2.461-0.398-3.346-1.071c-3.936-2.991-7.735-6.161-11.6-9.246C40.935,150.572,39.167,149.234,37.563,147.992z"/>
<path fill-rule="evenodd" clip-rule="evenodd" fill="#FFFFFF" d="M112.123,140.993c2.041,0,4.024-0.063,6.001,0.013
	c4.431,0.171,8.858,0.423,13.288,0.618c3.475,0.153,6.953,0.25,10.427,0.421c0.864,0.043,1.423-0.077,1.38-1.1
	c-0.039-0.907-0.015-1.828-1.302-1.858c-2.678-0.062-5.355-0.135-8.033-0.198c-3.837-0.091-7.674-0.163-11.51-0.283
	c-0.49-0.016-1.139-0.124-1.43-0.446c-1.563-1.735-3.25-3.417-4.479-5.377c-1.196-1.907-0.958-4.163-0.222-6.277
	c0.125-0.36,0.476-0.761,0.822-0.906c2.129-0.889,4.326-1.625,6.417-2.591c1.01-0.467,2.108-1.152,2.688-2.048
	c0.963-1.488,2.008-2.826,3.411-3.895c0.092-0.071,0.209-0.178,0.219-0.277c0.199-1.945,1.895-2.761,3.028-3.986
	c1.703-1.842,3.139-3.826,3.751-6.513c2.867,1.117,6.217,1.135,7.817,4.216c1.97,3.795,5.365,6.282,8.132,9.345
	c0.08,0.088,0.174,0.166,0.253,0.255c1.757,1.999,1.771,2.089,0.171,4.215c-1.201,1.597-2.448,3.159-3.64,4.764
	c-0.269,0.36-0.388,0.831-0.576,1.251c0.116,0.073,0.233,0.146,0.35,0.22c0.209-0.193,0.419-0.384,0.626-0.578
	c1.537-1.431,3.021-2.923,4.63-4.268c0.831-0.694,1.907-1.087,2.816-1.701c0.245-0.166,0.377-0.631,0.401-0.971
	c0.154-2.174,0.604-4.228,2.457-5.627c0.682-0.514,1.492-0.874,2.28-1.222c0.542-0.239,1.161-0.301,1.723-0.504
	c1.784-0.643,2.224-1.329,2.153-3.231c-0.117-3.196-0.613-6.283-2.455-9.015c-1.18-1.749-1.646-1.811-3.118-0.374
	c-1.452,1.419-1.964,3.228-2.312,5.153c-0.265,1.473-0.68,2.924-1.096,4.365c-0.344,1.188-0.766,2.355-1.192,3.518
	c-0.462,1.26-1.177,1.389-2.065,0.433c-3.43-3.689-6.731-7.51-10.35-11.003c-2.188-2.111-4.767-3.874-7.36-5.49
	c-2.564-1.599-5.27-1.041-7.676,0.582c-1.776,1.197-3.175,2.718-3.69,4.975c-0.191,0.837-0.964,1.677-1.69,2.229
	c-2.21,1.685-3.598,3.804-4.042,6.55c-0.089,0.551-0.253,1.091-0.407,1.629c-0.403,1.406-1.108,2.431-2.622,2.995
	c-1.514,0.565-2.854,1.582-4.319,2.301c-0.588,0.289-1.32,0.475-1.963,0.422c-1.549-0.126-3.078-0.537-4.626-0.619
	c-1.989-0.106-3.677,0.699-4.883,2.309c-0.293,0.391-0.307,0.992-0.449,1.496c0.503,0.139,1.029,0.45,1.507,0.39
	c3.148-0.394,5.945,0.462,8.456,2.299c1.465,1.072,2.606,2.434,3.141,4.112c-2.549-0.15-5.03-0.324-7.513-0.43
	c-0.995-0.042-2.003,0.007-2.99,0.132c-0.41,0.052-0.78,0.413-1.168,0.633c0.292,0.319,0.531,0.803,0.89,0.919
	c0.584,0.189,1.248,0.195,1.876,0.182c2.397-0.048,4.71,0.345,6.855,1.422c0.544,0.273,1.121,0.829,1.317,1.385
	c0.707,1.998,0.35,2.43-1.777,2.364c-10.549-0.32-21.099-0.649-31.647-0.986c-1.198-0.038-2.394-0.196-3.591-0.211
	c-0.908-0.012-1.553-0.305-1.839-1.199c-0.423-1.319-1.369-1.864-2.705-1.937c-0.755-0.04-1.509-0.181-2.254-0.321
	c-2.174-0.409-3.729,0.686-5.194,2.062c-0.233,0.219-0.584,0.43-0.887,0.438c-3.356,0.092-6.714,0.148-10.071,0.204
	c-1.189,0.02-1.972-0.52-2.183-1.729c-0.205-1.17-0.334-2.354-0.565-3.519c-0.153-0.773-0.381-1.543-1.373-1.689
	c-0.821-0.121-1.938,0.331-2.336-0.724c-0.453-1.198-0.937-2.507-0.887-3.747c0.085-2.143-0.258-3.126-2.142-4.125
	c-0.599-0.317-1.158-0.708-1.734-1.067c-0.969-0.604-2.025-0.271-2.175,0.852c-0.121,0.909-0.059,1.936,0.26,2.785
	c0.371,0.985,1.017,1.912,1.707,2.725c1.648,1.941,2.573,4.225,3.302,6.602c0.744,2.426-0.826,4.104-3.562,3.842
	c-0.548-0.053-1.074-0.295-1.619-0.414c-0.741-0.163-0.927-0.625-1.037-1.352c-0.46-3.037-0.862-6.096-1.581-9.076
	c-0.882-3.654-2.913-6.507-6.546-8.03c-1.888-0.791-1.904-1.06-1.655-3.121c0.606-5.033,2.697-9.503,5.195-13.812
	c1.153-1.989,3.093-2.801,5.266-2.752c3.948,0.089,7.894,0.338,11.835,0.603c0.824,0.055,1.208-0.115,1.262-0.927
	c0.121-1.833,0.245-3.665,0.363-5.498c0.128-1.991,0.23-3.983,0.395-5.971c0.03-0.365,0.222-0.791,0.479-1.051
	c2.582-2.609,5.031-5.39,7.869-7.689c1.313-1.064,3.261-1.764,5.229-1.344c1.893,0.404,1.894,0.399,2.505-1.554
	c3.541,0.605,7.346-0.218,10.761,1.995c0.41-0.372,0.9-0.725,1.277-1.174c1.22-1.453,2.75-2.362,4.538-2.975
	c2.386-0.816,2.551-1.272,2.532-3.769c-0.037-5.011,1.465-9.614,4.041-13.861c0.578-0.953,0.499-1.608-0.044-2.491
	c-2.834-4.614-5.828-9.158-7.327-14.445c-0.293-1.036-0.763-1.037-1.645-0.718c-8.216,2.971-15.79,7.121-22.89,12.195
	c-14.383,10.28-24.243,23.91-30.204,40.468c-3.049,8.47-4.562,17.212-4.816,26.196c-0.026,0.911,0.26,1.288,1.137,1.438
	c3.106,0.533,5.515,2.235,7.466,4.637c0.322,0.396,0.6,0.859,0.78,1.335c1.381,3.639,2.387,7.376,2.808,11.255
	c0.26,2.392,1.106,3.26,3.504,3.394c4.511,0.253,9.021,0.52,13.535,0.694c12.705,0.493,25.41,0.957,38.117,1.398
	c3.954,0.138,7.915,0.099,11.867,0.271c1.774,0.077,3.534,0.475,5.355,0.735c-0.293,1.461-0.615,2.694-0.755,3.948
	c-0.056,0.493,0.14,1.232,0.494,1.507c0.637,0.493,1.412,0.268,1.877-0.421C111.97,144.671,112.423,142.983,112.123,140.993z"/>
<path fill-rule="evenodd" clip-rule="evenodd" fill="#FFFFFF" d="M163.46,86.253c-0.857,0.715-1.606,1.56-2.456,2.285
	c-0.296,0.252-0.754,0.313-1.139,0.461c-0.057-0.404-0.264-0.859-0.146-1.204c0.664-1.955,1.365-3.899,2.136-5.814
	c0.521-1.295,1.257-2.505,1.752-3.809c0.637-1.673,0.847-3.413,0.231-5.165c-0.219-0.622-0.535-0.879-1.259-0.596
	c-1.71,0.669-3.503,1.145-5.172,1.9c-1.485,0.673-2.692,0.356-3.915-0.497c-0.885-0.617-1.744-1.292-2.699-1.775
	c-0.828-0.419-2.049-0.905-2.571,0.075c-0.542,1.019,0.573,1.621,1.381,2.184c0.769,0.536,1.591,1.103,2.114,1.849
	c0.514,0.733,0.574,1.799-0.403,2.297c-2.368,1.205-4.792,1.369-7.239,0.098c-2.615-1.359-5.271-2.638-7.887-3.996
	c-0.477-0.248-1.22-0.753-1.184-1.061c0.075-0.621,0.463-1.405,0.972-1.729c0.856-0.544,1.887-0.853,2.88-1.132
	c2.964-0.835,6.183-1.017,8.519-3.415c0.027-0.027,0.069-0.039,0.104-0.058c1.023-0.576,1.854-0.381,2.675,0.476
	c0.354,0.371,1.014,0.671,1.51,0.638c1.028-0.069,2.04-0.384,3.122-0.611c-2.604-2.465-7.367-4.473-11.536-2.139
	c-2.084,1.166-4.242,2.334-6.722,2.369c-1.832,0.026-3.666-0.154-5.498-0.25c-0.717-0.037-1.439-0.051-2.149-0.152
	c-1.206-0.171-1.661-0.834-1.349-2.008c0.226-0.847,0.609-1.651,0.848-2.496c0.468-1.658,1.631-2.402,3.251-2.539
	c0.632-0.053,1.276-0.003,1.913,0.029c1.914,0.096,3.827,0.231,5.742,0.297c0.644,0.022,1.198-0.14,1.501-0.906
	c0.897-2.264,1.89-4.491,2.837-6.735c0.117-0.277,0.184-0.575,0.289-0.909c-0.795-0.308-1.5-0.576-2.201-0.852
	c-1.199-0.473-2.299-0.498-3.349,0.446c-0.243,0.219-1.083,0.222-1.221,0.025c-0.396-0.567-0.785-1.286-0.79-1.947
	c-0.008-1.181-0.048-2.277-0.997-3.393c-0.535,0.665-0.963,1.272-1.47,1.806c-0.54,0.57-1.067,1.299-1.751,1.554
	c-1.514,0.565-3.086,0.921-4.776,0.564c-1.962-0.414-3.643,0.311-5.021,1.734c-0.5,0.516-1.02,1.023-1.448,1.597
	c-1.082,1.449-1.856,2.985-1.266,4.891c1.037,3.348,1.592,6.774,1.428,10.284c-0.047,0.991,0.382,1.365,1.253,1.503
	c1.376,0.217,2.797,0.308,4.111,0.728c1.598,0.511,3.375,0.932,4.111,2.765c1.132,2.815,1.875,5.609-0.098,8.433
	c-0.47,0.673-0.861,1.148-1.709,1.274c-2.298,0.342-3.995-0.775-5.623-2.15c-1.402-1.184-2.745-2.466-4.269-3.468
	c-2.059-1.354-4.229-0.965-5.964,0.781c-0.619,0.623-1.21,1.287-1.902,1.818c-2.293,1.762-5.834,0.369-6.364-2.477
	c-0.146-0.786-0.157-1.616-0.428-2.353c-0.17-0.461-0.648-0.983-1.099-1.125c-0.698-0.221-1.37,0.108-1.545,0.926
	c-0.123,0.574-0.175,1.174-0.169,1.762c0.012,1.43-0.617,2.577-1.688,2.682c-0.586,0.058-1.204-0.213-1.86-0.346
	c-0.084,0.206-0.166,0.427-0.264,0.64c-0.644,1.398-2.002,1.519-2.891,0.249c-0.205-0.293-0.349-0.628-0.534-0.937
	c-0.574-0.955-1.26-1.519-2.468-0.941c-0.286,0.137-0.762-0.124-1.15-0.201c0.192-0.394,0.291-0.9,0.599-1.151
	c0.384-0.313,0.938-0.42,1.422-0.608c1.338-0.521,2.685-1.019,4.014-1.561c0.818-0.334,1.177-0.849,1.061-1.864
	c-0.078-0.687,0.337-1.49,0.698-2.15c0.428-0.784,1.273-1.396,1.523-2.21c1.376-4.478,2.438-4.271,6.39-3.364
	c3.504,0.803,6.891,2.12,10.324,3.226c1.343,0.433,2.106-0.009,2.246-1.414c0.05-0.51,0.012-1.045-0.083-1.55
	c-0.416-2.194-0.943-4.37-1.271-6.576c-0.141-0.945-0.155-2.063,0.222-2.9c1.014-2.253,2.211-4.432,3.45-6.575
	c1.009-1.746,2.378-3.304,3.243-5.11c1.886-3.939,1.887-3.989,6.163-2.996c1.097,0.255,2.303,0.327,3.412,0.163
	c1.321-0.195,1.732-1.202,1.187-2.434c-0.687-1.552-1.98-2.323-3.615-2.331c-1.333-0.007-2.667,0.244-4.276,0.409
	c-0.089-0.822-0.231-1.782-0.285-2.747c-0.05-0.875,0.349-1.158,1.269-0.984c13.724,2.601,26.09,8.271,37.178,16.68
	c6.533,4.955,11.998,10.984,16.689,17.725c7.14,10.255,11.902,21.498,14.249,33.766c0.198,1.038,0.302,2.093,0.468,3.279
	c-0.678-0.065-1.146-0.093-1.611-0.156c-4.18-0.57-8.373-0.872-12.52,0.104c-1.195,0.281-2.386,0.908-3.383,1.641
	c-2.982,2.192-4.528,5.405-5.845,8.744c-0.3,0.759-0.604,1.516-0.906,2.274c-0.459-0.558-0.79-1.108-0.784-1.655
	c0.023-1.897,0.073-3.803,0.288-5.686c0.183-1.596-0.022-2.139-1.478-2.354c-0.812-0.121-1.187-0.535-1.53-1.278
	c-1.017-2.198-1.913-4.523-3.341-6.438c-1.297-1.74-1.547-3.056-0.658-5.085c1.394-3.188,1.252-6.606,0.378-10.236
	C164.637,85.528,163.986,85.814,163.46,86.253z M150.097,60.043c2.558-0.24,5.354,0.437,6.441,3.541
	c0.573,1.636,1.522,3.042,3.274,3.768c0.999,0.414,1.594-0.101,2.012-0.743c0.189-0.291-0.074-0.996-0.307-1.418
	c-0.708-1.291-1.491-2.54-2.263-3.794c-0.563-0.916-1.075-1.879-1.749-2.707c-1.021-1.256-2.355-1.934-4.047-1.983
	c-1.492-0.043-2.975-0.37-4.468-0.436c-0.579-0.026-1.178,0.306-1.761,0.498c-0.522,0.171-1.053,0.573-1.546,0.525
	c-1.271-0.122-1.574,0.77-1.635,1.602c-0.027,0.368,0.698,0.928,1.194,1.16c0.553,0.258,1.234,0.243,1.741,0.327
	C148.113,60.258,149.104,60.136,150.097,60.043z"/>
<path fill-rule="evenodd" clip-rule="evenodd" fill="#FFFFFF" d="M61.662,124.363c-2.227-1.141-4.488-0.682-6.709-0.261
	c-2.497,0.472-4.183,2.048-5.14,4.371c-0.163,0.396-0.023,0.917-0.023,1.38c0.111,0.037,0.222,0.074,0.333,0.11
	c0.37-0.334,0.781-0.634,1.105-1.009c1.928-2.225,4.395-2.913,7.232-2.614c2.59,0.273,4.847,1.052,6.505,3.3
	c1.086,1.472,2.941,1.771,4.596,1.452c2.149-0.415,3.473,0.54,4.809,1.925c0.41,0.426,1.181,0.801,1.731,0.734
	c1.219-0.146,1.635-1.609,0.868-2.621c-0.621-0.819-1.458-1.632-0.464-2.7c0.908-0.976,2.978-1.205,3.933-0.496
	c1.154,0.855,1.316,0.861,2.625,0.03c-0.166-0.251-0.317-0.512-0.498-0.751c-1.038-1.378-1.425-2.849-0.627-4.478
	c0.336-0.686,0.654-1.388,1.064-2.029c0.901-1.409,0.806-4.677-0.223-5.966c-0.736-0.923-2.318-0.972-3.453,0.031
	c-0.801,0.708-1.494,1.555-2.152,2.404c-0.634,0.818-1.252,1.155-2.335,0.75c-1.309-0.489-2.141-0.021-2.758,1.36
	c-0.472,1.056-0.776,2.188-1.284,3.225c-0.612,1.251-1.721,1.677-3.144,1.323c-1.21-0.301-1.548-1.288-1.704-2.355
	c-0.146-1.006,0.345-1.782,1.228-2.118c1.664-0.633,2.104-1.807,2.037-3.471c-0.075-1.889,0.378-2.486,2.227-3.008
	c1.469-0.414,2.07-1.26,2.378-2.746c0.565-2.721,1.417-5.382,2.148-8.068c0.178-0.653,0.414-1.299,0.51-1.965
	c0.179-1.241-0.038-2.313-1.448-2.765c-0.332-0.106-0.646-0.329-0.912-0.562c-0.763-0.672-0.638-1.512,0.317-1.858
	c0.631-0.229,1.315-0.373,1.986-0.424c1.302-0.101,1.975-0.832,2.069-2.046c0.104-1.349,0.191-2.72,0.064-4.06
	c-0.146-1.545-0.584-3.061-0.788-4.604c-0.08-0.599,0.102-1.243,0.224-1.855c0.089-0.449,0.273-0.878,0.542-1.709
	c-2.506,0-4.767-0.002-7.026,0.001c-0.44,0.001-0.885-0.02-1.318,0.037c-1.733,0.228-3.029-0.263-3.771-1.989
	c-0.326-0.758-1.154-1.038-1.832-0.578c-3.369,2.284-6.869,4.451-8.903,8.184c-0.359,0.661-0.642,1.379-0.854,2.102
	c-0.595,2.013,0.341,3.376,2.43,3.542c3.186,0.254,6.375,0.467,9.562,0.705c0.398,0.03,0.872-0.016,1.171,0.184
	c0.438,0.292,0.75,0.774,1.115,1.175c-0.401,0.246-0.789,0.677-1.208,0.709c-3.695,0.283-7.396,0.494-11.095,0.727
	c-1.081,0.068-1.755,0.956-1.732,2.155c0.016,0.855-0.111,1.712-0.11,2.568c0.001,0.408,0.039,0.917,0.278,1.186
	c0.147,0.167,0.767,0.077,1.07-0.088c1.263-0.683,2.451-1.508,3.732-2.149c1.585-0.792,3.229-0.187,3.901,1.377
	c0.114,0.265,0.035,0.805-0.164,0.983c-2.098,1.868-2.295,2.668-0.943,5.141c0.395,0.721,0.276,1.138-0.401,1.409
	c-1.956,0.781-2.408,2.403-2.453,4.264c-0.019,0.798-0.019,1.598,0.007,2.396c0.029,0.931-0.275,1.116-1.23,0.9
	c-1.975-0.446-3.985-0.82-6-0.967c-1.025-0.075-2.109,0.349-3.129,0.667c-0.411,0.129-0.842,0.52-1.043,0.906
	c-0.188,0.359-0.265,1.109-0.064,1.262c0.332,0.254,1.049,0.382,1.387,0.188c2.378-1.369,4.527-0.978,6.701,0.507
	c2.157,1.474,3.997,3.179,5.024,5.635c0.075,0.18,0.14,0.366,0.185,0.554C61.831,123.975,61.77,124.057,61.662,124.363z"/>
<path fill-rule="evenodd" clip-rule="evenodd" fill="#FFFFFF" d="M94.067,130.934c0.519-1.18,1.17-2.32,1.535-3.546
	c3.631-12.2,4.976-24.568,2.576-37.19c-0.306-1.61-0.572-3.23-0.979-4.815c-0.107-0.417-0.616-0.919-1.037-1.037
	c-2.02-0.564-4.069-0.672-6.171-0.344c-1.834,0.286-2.969,1.289-3.29,3.006c-0.454,2.436-0.972,4.823-1.864,7.152
	c-0.627,1.637-0.028,2.33,1.734,2.463c0.955,0.072,1.917,0.044,2.875,0.09c2.079,0.099,3.218,1.125,3.26,3.201
	c0.113,5.594,0.107,11.19,0.204,16.784c0.075,4.314,0.226,8.627,0.367,12.939c0.013,0.405,0.193,0.804,0.296,1.205
	C93.739,130.873,93.903,130.903,94.067,130.934z"/>
<path fill-rule="evenodd" clip-rule="evenodd" fill="#FFFFFF" d="M86.75,153.743c1.168-2.053,2.899-2.971,5.136-2.992
	c2.537-0.025,4.378-1.209,5.261-3.421c0.566-1.417,0.086-2.747-0.875-3.62c-0.604-0.548-1.851-0.677-2.734-0.532
	c-0.608,0.1-1.195,0.922-1.588,1.549c-0.324,0.516-0.324,1.226-0.51,1.836c-0.364,1.198-1.109,1.909-2.445,1.856
	c-1.608-0.064-2.926,0.354-3.884,1.838c-0.446,0.691-1.363,1.072-2.05,1.615c-0.746,0.591-1.392,1.382-2.229,1.765
	c-1.024,0.469-2.188,0.722-3.315,0.844c-0.807,0.087-1.673-0.355-2.477-0.258c-0.553,0.067-1.043,0.654-1.561,1.009
	c0.379,0.515,0.653,1.285,1.158,1.492c1.057,0.435,2.031,0.957,3.426,0.146c1.042-0.606,2.717-0.136,4.109-0.124
	c2.108,0.018,4.218,0.018,6.325,0.089c6.589,0.221,13.177,0.474,19.766,0.706c0.518,0.019,1.075,0.091,1.546-0.065
	c0.437-0.145,1.1-0.565,1.098-0.86c-0.004-0.506-0.324-1.237-0.736-1.461c-0.749-0.407-1.654-0.547-2.508-0.735
	c-2.031-0.448-2.946-1.358-3.29-3.425c-0.19-1.142-0.257-2.307-0.491-3.438c-0.129-0.626-0.105-1.543-1.271-1.286
	c-1.474,0.325-2.11,0.873-1.915,1.962c0.14,0.777,0.461,1.524,0.722,2.278c0.728,2.103,0.164,3.489-2.031,3.826
	c-2.306,0.354-4.688,0.279-7.035,0.257c-1.614-0.016-3.227-0.249-4.837-0.423C87.275,154.143,87.052,153.917,86.75,153.743z"/>
<path fill-rule="evenodd" clip-rule="evenodd" fill="#FFFFFF" d="M176.663,150.791c-0.559,2.395-1.156,4.784-3.162,6.558
	c-1.607,1.42-4.389,1.594-5.937,0.104c-1.935-1.861-3.104-4.152-3.533-6.78c-0.847-5.184-0.765-10.296,1.87-15.027
	c0.594-1.066,1.489-2.22,2.539-2.724c2.302-1.105,4.788-0.152,6.281,1.963c2.093,2.966,2.75,6.323,2.759,10.794
	C177.311,146.781,177.124,148.818,176.663,150.791z M173.846,152.852c1.516-3.979,2.201-8.099,1.417-12.312
	c-0.251-1.354-0.94-2.744-1.788-3.844c-1.867-2.424-5.009-2.037-6.091,0.824c-0.822,2.175-1.171,4.545-1.533,6.858
	c-0.064,0.411,0.771,1.062,1.305,1.441c0.541,0.384,1.237,0.541,1.843,0.842c1.763,0.877,2.884,2.119,2.809,4.282
	c-0.038,1.122,0.325,2.259,0.507,3.389c0.156,0.044,0.312,0.089,0.468,0.133C173.143,153.93,173.624,153.44,173.846,152.852z"/>
<path fill-rule="evenodd" clip-rule="evenodd" fill="#FFFFFF" d="M33.515,136.821c-0.777-3.823-2.421-7.088-6.09-8.997
	c-1.405-0.731-2.66-0.189-3.762,0.712c-1.569,1.285-2.56,3.018-2.983,4.945c-1.016,4.626-0.265,9.041,1.894,13.256
	c0.757,1.479,2.069,1.786,3.465,1.958c0.284,0.035,0.859-0.422,0.917-0.726c0.447-2.347,0.826-4.708,1.153-7.075
	c0.048-0.348-0.292-0.749-0.452-1.125c-0.308,0.192-0.658,0.34-0.913,0.586c-0.984,0.952-2.067,0.883-2.632-0.353
	c-0.711-1.557-1.398-3.155-1.818-4.808c-0.727-2.861,1.308-5.767,4.209-6.186c0.414-0.06,0.932,0.163,1.314,0.396
	c2.328,1.415,3.637,3.643,4.712,6.044c0.224,0.498,0.426,1.006,0.638,1.509C33.283,136.913,33.399,136.867,33.515,136.821z"/>
<path fill-rule="evenodd" clip-rule="evenodd" fill="#FFFFFF" d="M168.192,123.851c0.282,0.155,0.547,0.389,0.848,0.453
	c4.008,0.853,6.965,3.073,8.643,6.821c0.58,1.296,0.846,2.734,1.242,4.111c0.305,1.061,0.447,2.196,0.924,3.171
	c0.449,0.918,3.07,1.323,4.191,0.837c3.551-1.543,7.1-3.088,10.65-4.631c0.915-0.397,1.892-0.696,2.723-1.226
	c0.443-0.282,0.636-0.958,0.941-1.457c-0.493-0.241-1.04-0.76-1.469-0.676c-1.793,0.35-3.566,0.826-5.314,1.357
	c-2.596,0.789-5.175,1.635-7.738,2.521c-0.654,0.228-1.275,0.638-1.822,1.075c-0.692,0.556-0.977,0.375-1.282-0.385
	c-0.89-2.21-1.638-4.512-2.819-6.559c-1.666-2.887-4.169-4.916-7.536-5.637c-0.667-0.143-1.37-0.121-2.056-0.174
	C168.276,123.586,168.234,123.718,168.192,123.851z"/>
<path fill-rule="evenodd" clip-rule="evenodd" fill="#FFFFFF" d="M121.591,148.392c-0.107-0.862-0.115-1.754-0.364-2.573
	c-0.118-0.387-0.713-0.892-1.064-0.87c-0.357,0.021-0.913,0.582-0.98,0.976c-0.425,2.456-0.829,4.923-1.057,7.402
	c-0.161,1.74,0.592,3.273,1.704,4.608c0.492,0.591,0.958,0.84,1.701,0.229c4.741-3.902,9.52-7.759,14.262-11.66
	c0.3-0.247,0.389-0.749,0.576-1.133c-0.433-0.188-0.878-0.556-1.297-0.528c-1.5,0.095-2.811,0.529-3.31,2.229
	c-0.161,0.546-0.549,1.09-0.976,1.481c-1.673,1.534-3.371,3.056-5.571,3.833c-2.291,0.81-3.694,0.079-3.815-2.421
	c-0.025-0.519-0.003-1.038-0.003-1.557C121.461,148.403,121.526,148.398,121.591,148.392z"/>
<path fill-rule="evenodd" clip-rule="evenodd" fill="#FFFFFF" d="M191.948,107.848c-1.637,0.316-3.561,0.5-5.354,1.086
	c-1.879,0.614-3.155,1.979-3.279,4.132c-0.053,0.891,0.29,1.341,1.19,1.046c2.919-0.956,5.838-0.44,8.767-0.093
	c0.746,0.088,1.513,0.025,2.268-0.003c0.222-0.008,0.58-0.079,0.635-0.217c0.53-1.34,1.713-2.494,1.368-4.083
	c-0.093-0.429-0.562-1.006-0.956-1.1C195.163,108.28,193.696,108.121,191.948,107.848z"/>
<path fill-rule="evenodd" clip-rule="evenodd" fill="#FFFFFF" d="M66.224,156.285c0.952-0.086,2.075-0.127,3.173-0.318
	c0.409-0.071,0.757-0.494,1.132-0.757c-0.444-0.193-0.872-0.492-1.335-0.562c-1.254-0.187-2.536-0.201-3.782-0.424
	c-1.767-0.316-3.3-1.073-4.474-2.536c-0.978-1.217-3.727-1.58-5.185-1.097c-1.062,0.352-2.254,0.396-3.391,0.412
	c-1.238,0.018-1.575,0.363-1.036,1.484c0.619,1.287,1.643,2.283,3.055,2.472C58.26,155.476,62.16,155.841,66.224,156.285z"/>
<path fill-rule="evenodd" clip-rule="evenodd" fill="#FFFFFF" d="M9.195,122.704c2.372,0.109,4.743,0.277,7.115,0.285
	c0.549,0.001,1.186-0.446,1.629-0.854c0.789-0.725,1.485-1.557,2.175-2.382c0.588-0.704,0.416-1.258-0.438-1.319
	c-2.107-0.151-4.221-0.244-6.333-0.304c-0.414-0.012-0.972,0.101-1.229,0.375c-1.099,1.177-2.11,2.435-3.153,3.664
	C9.039,122.348,9.117,122.526,9.195,122.704z"/>
<path fill-rule="evenodd" clip-rule="evenodd" fill="#FFFFFF" d="M71.233,147.359c2.13-0.007,3.299-1.331,2.853-3.231
	c-0.286-1.219-2.764-2.305-4.081-1.791c-1.486,0.581-1.661,0.908-1.344,2.508c0.039,0.195,0.063,0.393,0.088,0.59
	C68.96,147.097,69.305,147.366,71.233,147.359z"/>
<path fill-rule="evenodd" clip-rule="evenodd" fill="#FFFFFF" d="M202.874,138.401c3.022-2.229,4.699-17.541,1.061-19.041
	c0.344,2.204,0.897,4.277,0.926,6.357c0.031,2.172-0.373,4.364-0.721,6.525C203.807,134.309,203.302,136.349,202.874,138.401z"/>
<path fill-rule="evenodd" clip-rule="evenodd" fill="#FFFFFF" d="M87.342,32.839c1.055,3.251,2.077,6.399,3.099,9.546
	c0.36,1.107,1.218,0.529,2.161,0.666c-0.224-1.016-0.302-1.926-0.625-2.738c-0.929-2.334-1.979-4.621-2.937-6.944
	C88.684,32.506,88.149,32.486,87.342,32.839z"/>
<path fill-rule="evenodd" clip-rule="evenodd" fill="#FFFFFF" d="M101.938,93.61c-0.899,1.561,0.056,7.262,1.195,8.198
	c0.531,0.436,1.149,0.749,1.66,0.066c0.551-0.734,1.636-1.38,0.827-2.544c-0.359-0.517-0.927-0.893-1.26-1.422
	c-0.662-1.054-1.226-2.17-1.832-3.26C102.367,94.357,102.199,94.068,101.938,93.61z"/>
<path fill-rule="evenodd" clip-rule="evenodd" fill="#FFFFFF" d="M109.479,35.835c0.876-0.53,1.147-1.154,0.839-1.974
	c-0.881-2.346-1.775-4.688-2.705-7.014c-0.078-0.194-0.609-0.43-0.679-0.367c-0.421,0.378-0.793,0.82-1.124,1.282
	c-0.073,0.102,0.06,0.383,0.143,0.56C107.11,30.798,108.274,33.27,109.479,35.835z"/>
<path fill-rule="evenodd" clip-rule="evenodd" fill="#FFFFFF" d="M64.253,151.041c0.68-0.386,1.444-0.616,1.905-1.122
	c1.046-1.148,0.765-1.992-0.65-2.696c-0.736-0.366-1.405-0.868-2.12-1.282c-0.221-0.127-0.599-0.306-0.718-0.215
	c-0.204,0.156-0.396,0.527-0.356,0.769c0.214,1.291,0.453,2.583,0.803,3.841C63.193,150.609,63.756,150.747,64.253,151.041z"/>
<path fill-rule="evenodd" clip-rule="evenodd" fill="#FFFFFF" d="M154.728,107.433c-0.604-0.647-1.13-1.242-1.692-1.801
	c-0.471-0.466-1.004-0.871-1.474-1.337c-0.572-0.568-1.175-0.893-1.851-0.229c-0.618,0.609-0.247,1.115,0.242,1.622
	c0.852,0.884,1.613,1.86,2.514,2.685c0.322,0.294,0.989,0.441,1.406,0.325C154.194,108.61,154.368,108.001,154.728,107.433z"/>
<path fill-rule="evenodd" clip-rule="evenodd" fill="#FFFFFF" d="M46.234,148.659c0.735-1.124,0.315-1.813-0.32-2.312
	c-1.593-1.25-3.239-2.434-4.891-3.607c-0.201-0.143-0.68-0.185-0.819-0.052c-0.174,0.166-0.174,0.562-0.164,0.856
	c0.007,0.176,0.135,0.398,0.279,0.512C42.264,145.584,44.222,147.098,46.234,148.659z"/>
<path fill-rule="evenodd" clip-rule="evenodd" fill="#FFFFFF" d="M29.54,146.504c0.046,0.321,0.045,0.899,0.233,1.407
	c0.111,0.302,0.562,0.725,0.787,0.685c0.39-0.069,0.971-0.407,1.033-0.72c0.19-0.965,0.294-1.984,0.184-2.955
	c-0.049-0.431-0.693-0.794-1.067-1.188c-0.349,0.408-0.788,0.771-1.018,1.237C29.513,145.336,29.593,145.831,29.54,146.504z"/>
<path fill-rule="evenodd" clip-rule="evenodd" fill="#FFFFFF" d="M136.326,90.859c0.374-0.215,0.817-0.336,1.003-0.624
	c0.125-0.192-0.018-0.71-0.213-0.926c-0.55-0.609-1.109-1.378-1.821-1.62c-0.521-0.177-1.292,0.379-1.951,0.608
	c0.254,0.524,0.38,1.213,0.792,1.535C134.743,90.305,135.554,90.516,136.326,90.859z"/>
<path fill-rule="evenodd" clip-rule="evenodd" fill="#FFFFFF" d="M78.562,77.71c-1.684-1.614-3.677-1.395-5.591-1.447
	c-0.264-0.007-0.54,0.386-0.81,0.593c0.219,0.258,0.413,0.711,0.66,0.742c1.663,0.208,3.336,0.346,5.009,0.456
	C78.077,78.071,78.342,77.819,78.562,77.71z"/>
<path fill-rule="evenodd" clip-rule="evenodd" fill="#FFFFFF" d="M131.521,93.649c0.117-0.217,0.527-0.747,0.438-0.85
	c-0.497-0.581-1.042-1.249-1.716-1.505c-0.42-0.16-1.221,0.217-1.632,0.593c-0.691,0.632-0.379,1.336,0.559,1.476
	c0.629,0.094,1.262,0.162,1.894,0.241C131.104,93.608,131.143,93.612,131.521,93.649z"/>
<path fill-rule="evenodd" clip-rule="evenodd" fill="#FFFFFF" d="M52.122,109.375c0.25-0.395,0.516-0.781,0.722-1.198
	c0.02-0.039-0.347-0.268-0.534-0.408c-0.251,0.41-0.503,0.82-0.755,1.23C51.744,109.125,51.932,109.25,52.122,109.375z"/>
<path fill-rule="evenodd" clip-rule="evenodd" d="M146.985,60.382c1.128-0.124,2.119-0.246,3.112-0.339
	c2.558-0.24,5.354,0.437,6.441,3.541c0.573,1.636,1.522,3.042,3.274,3.768c0.999,0.414,1.594-0.101,2.012-0.743
	c0.189-0.291-0.074-0.996-0.307-1.418c-0.708-1.291-1.491-2.54-2.263-3.794c-0.563-0.916-1.075-1.879-1.749-2.707
	c-1.021-1.256-2.355-1.934-4.047-1.983c-1.492-0.043-2.975-0.37-4.468-0.436c-0.579-0.026-1.178,0.306-1.761,0.498
	c-0.522,0.171-1.053,0.573-1.546,0.525c-1.271-0.122-1.574,0.77-1.635,1.602c-0.027,0.368,0.698,0.928,1.194,1.16
	C145.797,60.313,146.479,60.298,146.985,60.382z"/>
<path fill-rule="evenodd" clip-rule="evenodd" d="M172.782,154.465c0.361-0.535,0.842-1.025,1.064-1.613
	c1.516-3.979,2.201-8.099,1.417-12.312c-0.251-1.354-0.94-2.744-1.788-3.844c-1.867-2.424-5.009-2.037-6.091,0.824
	c-0.822,2.175-1.171,4.545-1.533,6.858c-0.064,0.411,0.771,1.062,1.305,1.441c0.541,0.384,1.237,0.541,1.843,0.842
	c1.763,0.877,2.884,2.119,2.809,4.282c-0.038,1.122,0.325,2.259,0.507,3.389C172.47,154.376,172.625,154.421,172.782,154.465z"/>
</svg>
