<?xml version="1.0" encoding="utf-8"?>
<!-- Generator: Adobe Illustrator 16.0.0, SVG Export Plug-In . SVG Version: 6.00 Build 0)  -->
<!DOCTYPE svg PUBLIC "-//W3C//DTD SVG 1.1//EN" "http://www.w3.org/Graphics/SVG/1.1/DTD/svg11.dtd">
<svg version="1.1" id="Layer_1" xmlns="http://www.w3.org/2000/svg" xmlns:xlink="http://www.w3.org/1999/xlink" x="0px" y="0px"
	 width="193.833px" height="98.424px" viewBox="0 0 193.833 98.424" enable-background="new 0 0 193.833 98.424"
	 xml:space="preserve">
<g>
	<g>
		<path fill="#595A5C" d="M92.537,0.059c2.404-0.052,4.425,0.327,6.064,1.137c1.638,0.811,2.907,1.842,3.81,3.097
			c0.15,0.209,0.271,0.418,0.361,0.627c0.09,0.209,0.194,0.418,0.314,0.627c0.181,0.418,0.323,0.896,0.429,1.431
			c0.104,0.536,0.165,1.091,0.181,1.666c0.015,0.575-0.023,1.137-0.113,1.686s-0.24,1.033-0.451,1.451
			c-0.301,0.68-0.691,1.333-1.172,1.96c-0.602,0.758-1.293,1.411-2.074,1.96s-1.593,1.085-2.434,1.607
			c-0.241,0.131-0.489,0.274-0.744,0.431c-0.256,0.157-0.504,0.301-0.744,0.431c-0.661,0.366-1.3,0.732-1.916,1.098
			c-0.616,0.367-1.225,0.745-1.826,1.137c-0.211,0.131-0.399,0.261-0.564,0.392c-0.166,0.131-0.338,0.261-0.518,0.392
			c-0.03,0.026-0.053,0.052-0.068,0.078c-0.016,0.026-0.053,0.053-0.113,0.079c-0.18,0.131-0.368,0.281-0.563,0.451
			c-0.196,0.17-0.354,0.359-0.473,0.568c-0.03,0.053-0.068,0.112-0.113,0.177c-0.045,0.065-0.053,0.164-0.022,0.294
			c0.06,0.131,0.165,0.222,0.315,0.274c0.15,0.053,0.3,0.092,0.451,0.118h0.226c0.15,0.053,0.323,0.072,0.519,0.059
			c0.195-0.013,0.368-0.02,0.519-0.02h2.029h6.853c0.42,0,0.932-0.006,1.533-0.02c0.6-0.013,1.021,0.059,1.262,0.215
			c0.15,0.105,0.255,0.262,0.315,0.471c0.06,0.209,0.097,0.451,0.112,0.725s0.016,0.549,0,0.823s-0.021,0.529-0.021,0.765
			c0,0.157,0.006,0.327,0.021,0.51c0.016,0.183-0.008,0.34-0.066,0.47c-0.031,0.262-0.182,0.458-0.451,0.588
			c-0.181,0.104-0.414,0.157-0.699,0.157c-0.286,0-0.563,0-0.834,0h-3.111H86.631H83.16c-0.271,0-0.564,0.007-0.879,0.02
			c-0.315,0.013-0.579-0.02-0.789-0.098c-0.301-0.13-0.489-0.339-0.563-0.627c-0.075-0.287-0.067-0.601,0.022-0.94
			c0-0.079,0.007-0.163,0.022-0.255c0.015-0.091,0.023-0.177,0.023-0.255c0.06-0.209,0.12-0.431,0.18-0.667
			c0.06-0.235,0.12-0.457,0.18-0.667c0.451-1.15,1.021-2.156,1.713-3.019c0.751-0.915,1.638-1.731,2.66-2.451
			c1.021-0.718,2.058-1.417,3.111-2.097c0.841-0.496,1.675-0.986,2.502-1.47c0.826-0.483,1.661-0.986,2.502-1.509
			c0.21-0.13,0.398-0.261,0.563-0.392c0.165-0.13,0.338-0.261,0.519-0.392c0.42-0.287,0.812-0.633,1.172-1.039
			c0.361-0.405,0.646-0.829,0.857-1.274c0.06-0.13,0.105-0.255,0.135-0.373c0.029-0.118,0.075-0.241,0.135-0.372
			c0.06-0.209,0.104-0.497,0.136-0.863c0.029-0.366,0.014-0.679-0.046-0.941c-0.03-0.13-0.061-0.274-0.09-0.431
			c-0.03-0.157-0.075-0.3-0.135-0.431c-0.421-0.941-1.067-1.633-1.939-2.078c-0.18-0.104-0.376-0.189-0.586-0.255
			c-0.21-0.065-0.436-0.124-0.676-0.177c-0.151-0.052-0.309-0.071-0.474-0.059c-0.166,0.013-0.338-0.006-0.518-0.059
			c-0.211-0.052-0.451-0.059-0.722-0.02c-0.271,0.04-0.496,0.085-0.676,0.137c-1.172,0.314-2.044,0.876-2.615,1.686
			c-0.271,0.366-0.481,0.751-0.631,1.156c-0.15,0.406-0.301,0.843-0.451,1.313c-0.09,0.34-0.143,0.686-0.158,1.039
			c-0.016,0.353-0.188,0.621-0.519,0.804c-0.151,0.078-0.354,0.124-0.609,0.137s-0.518,0.02-0.789,0.02H83.43
			c-0.331,0-0.625-0.006-0.879-0.02c-0.256-0.013-0.473-0.084-0.654-0.216c-0.15-0.079-0.255-0.222-0.315-0.431
			c-0.061-0.209-0.061-0.405,0-0.588V9.468c0.03-0.157,0.052-0.32,0.067-0.49c0.015-0.169,0.038-0.333,0.068-0.49
			c0.09-0.339,0.165-0.673,0.226-1c0.06-0.326,0.165-0.633,0.315-0.921c0.09-0.235,0.18-0.457,0.271-0.666
			c0.09-0.209,0.18-0.418,0.271-0.627c0.09-0.157,0.195-0.32,0.315-0.49c0.12-0.169,0.24-0.333,0.361-0.49
			c0.601-0.863,1.314-1.574,2.142-2.137c0.826-0.562,1.811-1.052,2.953-1.47c0.42-0.13,0.841-0.229,1.262-0.294
			c0.42-0.065,0.856-0.15,1.308-0.255c0.15,0,0.3-0.006,0.451-0.02c0.15-0.013,0.3-0.033,0.451-0.059c0.06,0,0.143,0.007,0.248,0.02
			C92.394,0.092,92.477,0.085,92.537,0.059z"/>
		<path fill="#595A5C" d="M128.469,13.231c0.029,0.157,0.037,0.327,0.023,0.51c-0.016,0.183-0.023,0.366-0.023,0.549
			c0,0.131,0.008,0.261,0.023,0.392c0.014,0.131,0.006,0.262-0.023,0.392v0.588l-0.135,1.411c-0.03,0.209-0.053,0.425-0.068,0.647
			c-0.016,0.222-0.037,0.451-0.066,0.686c-0.151,0.47-0.264,0.948-0.339,1.431c-0.075,0.484-0.202,0.947-0.384,1.392
			c-0.602,1.621-1.375,2.973-2.321,4.058c-0.946,1.085-2.308,1.94-4.08,2.568c-0.392,0.131-0.805,0.222-1.239,0.274
			c-0.437,0.052-0.88,0.13-1.33,0.235c-0.211,0.025-0.406,0.039-0.586,0.039c-0.182,0-0.377,0.013-0.587,0.039
			c-0.09,0.026-0.241,0.033-0.45,0.02c-0.211-0.013-0.361-0.033-0.451-0.059h-0.451c-0.061,0-0.143,0-0.248,0
			s-0.188-0.014-0.248-0.039c-0.24-0.053-0.48-0.085-0.721-0.098c-0.241-0.014-0.481-0.046-0.722-0.098
			c-0.571-0.131-1.098-0.28-1.578-0.451c-0.481-0.17-0.932-0.373-1.353-0.608c-1.112-0.601-1.999-1.307-2.66-2.117
			s-1.247-1.764-1.758-2.862c-0.15-0.366-0.271-0.745-0.361-1.137c-0.09-0.392-0.21-0.784-0.36-1.176
			c-0.09-0.287-0.15-0.588-0.181-0.901c-0.029-0.314-0.09-0.627-0.18-0.941c-0.03-0.13-0.038-0.248-0.023-0.353
			c0.016-0.104-0.007-0.209-0.066-0.313c0-0.157,0-0.313,0-0.471c0-0.157-0.016-0.313-0.045-0.47
			c-0.031-0.13-0.039-0.248-0.023-0.353c0.016-0.104,0.008-0.222-0.022-0.353c-0.061-0.209-0.083-0.444-0.067-0.706
			c0.015-0.261,0.022-0.497,0.022-0.706c0-0.183-0.008-0.372-0.022-0.568c-0.016-0.196,0.007-0.373,0.067-0.529v-0.51
			c0.06-0.208,0.075-0.412,0.046-0.607c-0.031-0.196-0.016-0.398,0.045-0.608v-0.392c0.06-0.157,0.082-0.314,0.066-0.471
			c-0.015-0.157,0.008-0.327,0.068-0.51c0.061-0.13,0.09-0.28,0.09-0.451c0-0.17,0.029-0.333,0.09-0.49
			c0.121-0.366,0.211-0.718,0.271-1.059c0.06-0.339,0.164-0.679,0.315-1.019c0.601-1.568,1.382-2.881,2.345-3.94
			c0.961-1.059,2.283-1.888,3.967-2.49c0.361-0.13,0.744-0.228,1.15-0.294c0.405-0.065,0.818-0.137,1.239-0.215
			c0.149-0.026,0.3-0.04,0.45-0.04s0.301-0.013,0.451-0.039c0.061-0.026,0.143-0.026,0.248,0c0.105,0.026,0.188,0.026,0.248,0
			c1.593-0.026,2.982,0.131,4.17,0.471c1.188,0.34,2.217,0.823,3.089,1.45c0.872,0.627,1.601,1.379,2.187,2.254
			c0.586,0.876,1.074,1.823,1.465,2.842c0.181,0.445,0.309,0.902,0.384,1.372c0.075,0.471,0.188,0.941,0.338,1.412
			c0.06,0.209,0.083,0.412,0.067,0.607s0.008,0.399,0.068,0.608c0.06,0.261,0.09,0.529,0.09,0.803s0.029,0.543,0.09,0.804V13.231z
			 M122.158,14.996c0.03-0.13,0.037-0.268,0.022-0.412c-0.016-0.144-0.022-0.281-0.022-0.412s0.007-0.268,0.022-0.412
			c0.015-0.144,0.008-0.281-0.022-0.412v-0.314c0-0.183,0-0.359,0-0.529c0-0.169-0.016-0.333-0.045-0.49v-0.392
			c-0.061-0.261-0.099-0.516-0.112-0.765c-0.016-0.248-0.039-0.503-0.068-0.764c-0.061-0.209-0.105-0.418-0.135-0.627
			c-0.031-0.209-0.076-0.418-0.136-0.627c-0.241-0.731-0.519-1.417-0.834-2.058c-0.315-0.64-0.789-1.143-1.42-1.509
			c-0.36-0.235-0.76-0.412-1.194-0.529c-0.437-0.118-0.985-0.176-1.646-0.176c-0.061,0.053-0.143,0.065-0.248,0.039
			c-0.105-0.026-0.188-0.026-0.248,0c-0.15,0.053-0.293,0.092-0.428,0.118c-0.135,0.026-0.278,0.065-0.428,0.118
			c-0.692,0.261-1.233,0.641-1.623,1.137c-0.392,0.497-0.737,1.046-1.037,1.646c-0.181,0.392-0.301,0.817-0.361,1.274
			c-0.061,0.458-0.15,0.921-0.271,1.392c-0.03,0.209-0.053,0.418-0.067,0.627c-0.016,0.209-0.038,0.418-0.068,0.627
			c-0.029,0.209-0.045,0.431-0.045,0.667s0,0.458,0,0.667v0.431c-0.061,0.131-0.082,0.274-0.067,0.432
			c0.015,0.157,0.022,0.3,0.022,0.431s0,0.261,0,0.392s0.016,0.261,0.045,0.392c0.03,0.131,0.03,0.281,0,0.451
			c-0.029,0.17-0.029,0.32,0,0.451v0.549c0.061,0.235,0.091,0.484,0.091,0.745s0.029,0.509,0.09,0.745v0.314
			c0.06,0.235,0.104,0.477,0.136,0.725c0.029,0.249,0.074,0.49,0.135,0.725c0.181,0.523,0.361,1.006,0.541,1.451
			c0.181,0.445,0.436,0.862,0.767,1.254c0.331,0.366,0.669,0.661,1.015,0.882c0.345,0.222,0.804,0.412,1.375,0.568
			c0.15,0.053,0.36,0.098,0.631,0.137s0.511,0.033,0.722-0.02c0.149-0.052,0.308-0.079,0.474-0.079c0.164,0,0.322-0.025,0.473-0.078
			c0.33-0.104,0.677-0.255,1.037-0.451c0.361-0.196,0.646-0.398,0.857-0.607c0.27-0.339,0.495-0.66,0.676-0.96
			c0.18-0.3,0.36-0.647,0.541-1.039c0.15-0.339,0.255-0.686,0.315-1.039c0.06-0.353,0.149-0.711,0.271-1.078
			c0.029-0.13,0.045-0.254,0.045-0.372s0.016-0.242,0.045-0.373c0.061-0.183,0.082-0.373,0.068-0.568
			c-0.016-0.196,0.007-0.385,0.067-0.568c0-0.209,0-0.432,0-0.667c0-0.235,0.015-0.457,0.045-0.667V14.996z"/>
		<path fill="#010101" d="M141.047,0.647h1.714c0.149,0,0.3-0.006,0.45-0.02s0.301,0.006,0.451,0.059h0.226
			c0.149,0.026,0.293,0.059,0.429,0.098c0.135,0.039,0.232,0.098,0.293,0.176c0.15,0.183,0.232,0.425,0.248,0.725
			c0.014,0.301,0.021,0.622,0.021,0.961v3.646v14.31v4.979c0,0.34,0.008,0.712,0.023,1.117c0.015,0.406-0.053,0.712-0.203,0.921
			c-0.121,0.131-0.264,0.216-0.428,0.255c-0.166,0.039-0.369,0.085-0.609,0.137h-1.127h-1.803c-0.151,0-0.309,0.006-0.475,0.02
			c-0.165,0.013-0.322,0.006-0.473-0.02h-0.226c-0.151-0.052-0.293-0.098-0.429-0.137c-0.135-0.039-0.248-0.111-0.338-0.216
			c-0.15-0.157-0.225-0.366-0.225-0.627s0-0.536,0-0.823v-2.94v-8.351v-2.509c0-0.209,0.006-0.451,0.021-0.726
			s-0.008-0.503-0.067-0.686c-0.15-0.444-0.437-0.686-0.856-0.725c-0.422-0.039-0.932-0.059-1.533-0.059h-3.246
			c-0.421,0-0.826-0.013-1.217-0.039c-0.391-0.026-0.676-0.143-0.857-0.353c-0.061-0.104-0.09-0.202-0.09-0.294
			c0-0.091-0.016-0.202-0.045-0.333c-0.061-0.13-0.083-0.268-0.067-0.412c0.015-0.144,0.022-0.281,0.022-0.412
			c0-0.339,0-0.692,0-1.059c0-0.366,0.074-0.653,0.226-0.862c0.149-0.183,0.368-0.288,0.653-0.314
			c0.285-0.025,0.578-0.065,0.879-0.118h0.451c0.181-0.052,0.367-0.084,0.563-0.098c0.195-0.013,0.384-0.033,0.563-0.059
			c0.361-0.104,0.699-0.196,1.015-0.274c0.315-0.078,0.638-0.183,0.97-0.313c0.691-0.261,1.285-0.601,1.78-1.02
			c0.496-0.417,0.925-0.888,1.285-1.411c0.181-0.287,0.345-0.647,0.496-1.078c0.149-0.431,0.36-0.725,0.631-0.882
			c0.15-0.104,0.315-0.169,0.496-0.196c0.06-0.026,0.128-0.032,0.202-0.02C140.919,0.68,140.987,0.673,141.047,0.647z"/>
		<path fill="#010101" d="M152.589,0.607h11.632h2.795c0.331,0,0.639,0.007,0.925,0.02c0.285,0.013,0.519,0.085,0.698,0.215
			c0.12,0.079,0.211,0.229,0.271,0.451c0.06,0.222,0.097,0.464,0.112,0.725c0.015,0.262,0.015,0.529,0,0.804
			C169.007,3.097,169,3.339,169,3.548c0,0.183,0,0.36,0,0.529c0,0.17-0.03,0.32-0.09,0.451c-0.151,0.314-0.399,0.49-0.744,0.529
			c-0.346,0.04-0.774,0.059-1.285,0.059h-3.472h-4.869c-0.421,0-0.85,0.007-1.284,0.02c-0.437,0.014-0.775,0.098-1.016,0.255
			c-0.15,0.104-0.27,0.255-0.359,0.451c-0.091,0.196-0.158,0.418-0.203,0.667c-0.045,0.249-0.084,0.503-0.113,0.765
			c-0.03,0.261-0.075,0.484-0.135,0.667c-0.061,0.209-0.105,0.418-0.136,0.627c-0.03,0.209-0.075,0.418-0.136,0.627
			c-0.029,0.078-0.045,0.209-0.045,0.392c-0.061,0.131-0.09,0.281-0.09,0.451c0,0.17,0.029,0.308,0.09,0.412
			c0.03,0.053,0.061,0.092,0.091,0.118c0.029,0.026,0.075,0.065,0.136,0.118c0.27,0.026,0.495,0,0.676-0.079
			c0.18-0.078,0.346-0.157,0.496-0.235c0.209-0.131,0.42-0.235,0.631-0.314c0.21-0.078,0.436-0.157,0.676-0.235
			c0.361-0.131,0.789-0.229,1.285-0.294c0.496-0.065,1.021-0.111,1.578-0.137c0.556-0.025,1.097-0.013,1.623,0.04
			c0.525,0.053,0.984,0.131,1.375,0.235c0.33,0.105,0.668,0.209,1.015,0.314c0.345,0.104,0.669,0.235,0.97,0.392
			c1.863,0.941,3.23,2.261,4.102,3.959c0.15,0.313,0.271,0.634,0.361,0.96c0.09,0.327,0.18,0.673,0.271,1.039
			c0.091,0.313,0.165,0.693,0.226,1.137c0.06,0.445,0.09,0.889,0.09,1.333c0,0.445-0.03,0.882-0.09,1.313
			c-0.061,0.431-0.15,0.804-0.271,1.117c-0.181,0.418-0.354,0.823-0.519,1.215c-0.166,0.392-0.369,0.771-0.609,1.137
			c-0.18,0.262-0.367,0.51-0.562,0.745c-0.196,0.235-0.398,0.458-0.609,0.667c-0.029,0.026-0.061,0.046-0.09,0.059
			c-0.03,0.014-0.061,0.033-0.09,0.059c-0.121,0.131-0.241,0.254-0.361,0.372s-0.256,0.229-0.405,0.333
			c-0.03,0.026-0.054,0.053-0.067,0.078c-0.016,0.026-0.053,0.053-0.113,0.079c-0.15,0.104-0.293,0.209-0.428,0.313
			c-0.136,0.105-0.279,0.209-0.429,0.314c-0.962,0.602-2.06,1.072-3.291,1.411c-0.241,0.079-0.496,0.137-0.767,0.176
			c-0.271,0.04-0.557,0.084-0.856,0.137c-0.241,0.052-0.496,0.084-0.767,0.098c-0.271,0.013-0.571,0.033-0.902,0.059
			c-0.119,0-0.24,0.006-0.359,0.02c-0.121,0.013-0.242,0.006-0.361-0.02h-0.315c-0.151-0.026-0.309-0.039-0.474-0.039
			c-0.166,0-0.323,0-0.473,0c-0.332-0.078-0.67-0.124-1.016-0.137s-0.684-0.059-1.014-0.137c-0.691-0.183-1.353-0.378-1.984-0.588
			c-0.631-0.209-1.217-0.457-1.758-0.745c-0.18-0.104-0.354-0.208-0.519-0.313c-0.165-0.104-0.338-0.222-0.519-0.353l-0.271-0.235
			c-0.15-0.079-0.278-0.17-0.384-0.274s-0.202-0.209-0.293-0.314c-0.119-0.13-0.24-0.241-0.359-0.333
			c-0.121-0.091-0.227-0.202-0.316-0.333c-0.301-0.366-0.557-0.757-0.766-1.176c-0.211-0.418-0.406-0.863-0.587-1.333
			c-0.061-0.209-0.136-0.516-0.226-0.921c-0.09-0.405-0.061-0.712,0.09-0.921c0.15-0.209,0.368-0.333,0.654-0.373
			c0.285-0.039,0.623-0.059,1.015-0.059h2.435c0.271,0,0.533,0,0.789,0c0.255,0,0.488,0.039,0.699,0.118
			c0.299,0.131,0.502,0.327,0.607,0.588c0.105,0.262,0.219,0.523,0.339,0.784c0.12,0.209,0.24,0.399,0.36,0.568
			c0.12,0.17,0.256,0.347,0.406,0.529c0.09,0.105,0.195,0.196,0.315,0.274c0.12,0.079,0.24,0.157,0.36,0.235
			c0.181,0.183,0.391,0.327,0.631,0.431c0.421,0.209,1.015,0.373,1.781,0.49s1.48,0.098,2.142-0.059
			c0.45-0.13,0.849-0.28,1.194-0.451c0.346-0.17,0.684-0.359,1.015-0.568c0.15-0.079,0.271-0.17,0.36-0.274
			c0.091-0.104,0.181-0.222,0.271-0.353c0.27-0.287,0.496-0.581,0.676-0.882c0.18-0.3,0.346-0.647,0.496-1.039
			c0.06-0.313,0.119-0.562,0.18-0.745V19.19c0.061-0.157,0.091-0.392,0.091-0.706c0-0.314-0.03-0.549-0.091-0.706
			c-0.061-0.182-0.112-0.372-0.157-0.568c-0.046-0.196-0.099-0.373-0.157-0.529c-0.361-0.758-0.82-1.385-1.376-1.882
			c-0.556-0.496-1.315-0.862-2.276-1.098c-0.15-0.052-0.301-0.078-0.451-0.078s-0.301-0.026-0.451-0.079h-0.36
			c-0.181-0.052-0.398-0.065-0.653-0.039c-0.256,0.026-0.459,0.065-0.609,0.118c-0.15,0.026-0.277,0.039-0.383,0.039
			s-0.219,0.014-0.338,0.039c-0.331,0.105-0.639,0.223-0.924,0.353c-0.287,0.131-0.549,0.274-0.789,0.431
			c-0.271,0.157-0.504,0.347-0.699,0.568c-0.195,0.223-0.459,0.399-0.789,0.529c-0.331,0.131-0.76,0.183-1.285,0.157
			c-0.525-0.025-1.014-0.039-1.465-0.039c-0.211,0-0.429,0.014-0.654,0.039c-0.225,0.026-0.413,0.014-0.562-0.039h-0.406
			c-0.331-0.052-0.557-0.118-0.676-0.196c-0.271-0.209-0.361-0.536-0.271-0.98c0.09-0.366,0.165-0.725,0.226-1.078
			c0.06-0.353,0.136-0.711,0.226-1.078c0.029-0.104,0.045-0.196,0.045-0.274c0-0.078,0.016-0.169,0.045-0.274
			c0.061-0.261,0.113-0.522,0.158-0.784s0.098-0.523,0.158-0.784c0.06-0.209,0.112-0.438,0.157-0.686
			c0.045-0.248,0.097-0.477,0.157-0.686c0.03-0.131,0.046-0.274,0.046-0.432c0-0.157,0.029-0.3,0.09-0.431
			c0.181-0.575,0.315-1.169,0.405-1.784c0.091-0.614,0.211-1.208,0.361-1.784c0.029-0.079,0.045-0.157,0.045-0.235
			c0-0.078,0.016-0.143,0.045-0.196c0.061-0.288,0.113-0.569,0.158-0.843s0.113-0.555,0.203-0.843
			c0.06-0.287,0.112-0.542,0.157-0.764c0.046-0.222,0.158-0.438,0.339-0.647c0.119-0.13,0.33-0.222,0.631-0.274
			c0.06-0.026,0.119-0.033,0.18-0.02S152.529,0.634,152.589,0.607z"/>
		<path fill="#595A5C" d="M28.429,47.995c0,0.078,0.007,0.183,0.022,0.313c0.015,0.131,0.022,0.274,0.022,0.431
			c0,0.157-0.008,0.301-0.022,0.432c-0.016,0.131-0.022,0.222-0.022,0.274c0,0.183-0.008,0.359-0.022,0.529
			c-0.016,0.17-0.022,0.333-0.022,0.49c-0.061,0.131-0.083,0.262-0.068,0.392c0.015,0.132,0.007,0.262-0.022,0.392
			c-0.061,0.289-0.105,0.576-0.135,0.863c-0.03,0.287-0.09,0.574-0.18,0.862c-0.151,0.444-0.286,0.869-0.406,1.274
			c-0.121,0.405-0.271,0.803-0.451,1.195c-0.511,1.098-1.143,2.092-1.894,2.979c-0.751,0.889-1.653,1.646-2.705,2.274
			c-0.602,0.365-1.225,0.68-1.871,0.94c-0.646,0.261-1.345,0.497-2.096,0.706c-0.301,0.078-0.609,0.137-0.924,0.176
			s-0.639,0.098-0.969,0.177c-0.151,0.026-0.293,0.039-0.428,0.039s-0.278,0.013-0.428,0.039c-0.121,0.026-0.241,0.033-0.361,0.02
			c-0.121-0.013-0.256-0.006-0.406,0.02c-0.061,0.026-0.151,0.033-0.271,0.021c-0.121-0.014-0.21-0.007-0.271,0.02
			c-0.241,0.051-0.541,0.064-0.902,0.039c-0.36-0.026-0.676-0.039-0.947-0.039H2.145c-0.512,0-0.94-0.02-1.285-0.06
			c-0.346-0.039-0.594-0.216-0.744-0.529c-0.09-0.208-0.128-0.529-0.113-0.96c0.015-0.432,0.022-0.791,0.022-1.078V37.213
			c0-0.313-0.008-0.647-0.022-1c-0.016-0.353,0.052-0.633,0.203-0.843c0.12-0.157,0.345-0.288,0.676-0.392
			c0.06-0.026,0.12-0.033,0.181-0.02c0.06,0.013,0.12,0.006,0.18-0.02h12.128c0.18,0,0.368-0.006,0.563-0.02
			c0.195-0.013,0.368-0.006,0.519,0.02h0.541c0.15,0.053,0.315,0.072,0.496,0.059c0.181-0.013,0.345,0.007,0.496,0.059
			c0.18,0.053,0.353,0.072,0.519,0.059c0.165-0.013,0.338,0.006,0.519,0.059c0.42,0.079,0.826,0.151,1.217,0.216
			c0.39,0.065,0.766,0.164,1.127,0.294c0.331,0.131,0.661,0.249,0.992,0.353c0.331,0.105,0.646,0.235,0.947,0.392
			c0.751,0.418,1.443,0.823,2.074,1.215l0.271,0.235c0.3,0.209,0.57,0.445,0.812,0.706l0.406,0.314
			c0.15,0.209,0.322,0.412,0.518,0.607c0.195,0.196,0.368,0.399,0.519,0.608c0.391,0.549,0.736,1.13,1.037,1.745
			c0.3,0.614,0.571,1.261,0.812,1.94c0.15,0.34,0.248,0.693,0.293,1.059c0.045,0.366,0.113,0.732,0.203,1.098
			c0,0.131,0.007,0.242,0.022,0.333c0.015,0.092,0.022,0.19,0.022,0.294c0.06,0.157,0.083,0.327,0.067,0.51
			c-0.015,0.183,0.007,0.34,0.068,0.471V47.995z M21.396,49.876c0.06-0.13,0.09-0.339,0.09-0.627c0-0.287-0.03-0.496-0.09-0.627
			v-0.745c-0.061-0.235-0.098-0.483-0.113-0.745c-0.016-0.261-0.053-0.497-0.113-0.706c-0.061-0.13-0.083-0.255-0.067-0.372
			c0.015-0.118-0.008-0.242-0.068-0.373c-0.15-0.418-0.293-0.817-0.428-1.196c-0.135-0.378-0.323-0.738-0.563-1.078
			c-0.451-0.627-0.969-1.169-1.556-1.627c-0.586-0.457-1.3-0.843-2.141-1.157c-0.271-0.078-0.541-0.15-0.812-0.215
			c-0.271-0.065-0.541-0.124-0.812-0.176c-0.241-0.026-0.459-0.045-0.654-0.059c-0.196-0.013-0.414-0.045-0.654-0.098
			c-0.121-0.025-0.241-0.032-0.361-0.02c-0.12,0.014-0.225,0.007-0.315-0.02h-0.992c-0.151-0.026-0.316-0.032-0.496-0.02
			c-0.18,0.014-0.361,0.02-0.541,0.02H8.682c-0.061,0.053-0.158,0.065-0.293,0.039c-0.135-0.025-0.248-0.025-0.338,0
			C7.9,40.128,7.75,40.173,7.6,40.212c-0.151,0.04-0.271,0.125-0.361,0.255c-0.12,0.131-0.18,0.314-0.18,0.549
			c0,0.235,0,0.497,0,0.784c0,0.34-0.008,0.693-0.022,1.059c-0.016,0.366-0.022,0.732-0.022,1.098v10.938
			c0,0.156-0.008,0.327-0.023,0.51c-0.015,0.184,0.007,0.34,0.068,0.471v0.392c0,0.183,0.007,0.359,0.022,0.529
			c0.015,0.171,0.052,0.32,0.113,0.45c0.18,0.314,0.525,0.479,1.037,0.49c0.511,0.014,1.037,0.02,1.578,0.02
			c1.172,0,2.359-0.006,3.562-0.02c1.202-0.012,2.224-0.162,3.065-0.45c1.112-0.392,1.991-0.915,2.638-1.568
			c0.646-0.653,1.195-1.464,1.646-2.431c0.12-0.209,0.21-0.444,0.271-0.705c0.06-0.262,0.135-0.523,0.226-0.785v-0.312
			c0.06-0.184,0.09-0.379,0.09-0.589c0-0.208,0.03-0.417,0.09-0.627V49.876z"/>
		<path fill="#595A5C" d="M43.713,42.153c0.33,0,0.623,0.026,0.879,0.078c0.255,0.053,0.458,0.17,0.609,0.353
			c0.18,0.209,0.271,0.568,0.271,1.078s0,0.96,0,1.353c0,0.288,0.007,0.614,0.022,0.98c0.015,0.366-0.038,0.654-0.158,0.862
			c-0.121,0.184-0.293,0.301-0.519,0.353c-0.226,0.053-0.481,0.079-0.767,0.079c-0.286,0-0.586-0.013-0.902-0.04
			c-0.315-0.025-0.608-0.013-0.879,0.04c-0.21,0.053-0.421,0.085-0.631,0.098c-0.21,0.014-0.406,0.046-0.586,0.098
			c-0.481,0.131-0.962,0.32-1.443,0.568c-0.481,0.249-0.856,0.529-1.127,0.843c-0.151,0.209-0.309,0.425-0.474,0.646
			c-0.166,0.223-0.323,0.451-0.473,0.686c-0.09,0.209-0.173,0.425-0.248,0.647c-0.075,0.223-0.143,0.438-0.203,0.647
			c-0.061,0.183-0.09,0.372-0.09,0.568c0,0.195-0.03,0.386-0.09,0.568c-0.03,0.104-0.038,0.203-0.022,0.294
			c0.015,0.092,0.007,0.177-0.022,0.255v0.627c-0.061,0.184-0.075,0.386-0.045,0.607c0.029,0.223,0.045,0.438,0.045,0.646v2.51
			v3.332c0,0.34-0.016,0.654-0.045,0.941c-0.03,0.287-0.121,0.523-0.271,0.705c-0.061,0.078-0.158,0.138-0.293,0.177
			s-0.278,0.072-0.428,0.099h-0.225c-0.151,0.025-0.316,0.039-0.496,0.039s-0.346,0-0.496,0h-1.938
			c-0.18-0.026-0.369-0.039-0.563-0.039c-0.196,0-0.399,0-0.609,0c-0.15-0.053-0.301-0.099-0.451-0.138
			c-0.151-0.04-0.256-0.124-0.315-0.255c-0.121-0.131-0.188-0.32-0.203-0.568c-0.016-0.248-0.022-0.503-0.022-0.765v-2.666V47.407
			v-2.901c0-0.261,0-0.516,0-0.765c0-0.248,0.06-0.451,0.18-0.607c0.15-0.209,0.375-0.339,0.676-0.392
			c0.3-0.052,0.661-0.079,1.082-0.079h2.299c0.361,0,0.676,0.02,0.947,0.059s0.48,0.164,0.631,0.373
			c0.09,0.131,0.142,0.313,0.158,0.549c0.015,0.235,0.038,0.464,0.068,0.686c0.029,0.222,0.082,0.425,0.158,0.607
			c0.075,0.183,0.218,0.274,0.428,0.274c0.06-0.052,0.12-0.078,0.18-0.078c0.06,0,0.12-0.026,0.181-0.079
			c0.18-0.13,0.338-0.28,0.473-0.451c0.135-0.17,0.308-0.32,0.519-0.451c0.12-0.078,0.226-0.163,0.315-0.254
			c0.09-0.091,0.195-0.177,0.316-0.255c0.271-0.157,0.548-0.314,0.834-0.471c0.285-0.157,0.578-0.3,0.879-0.431
			c0.3-0.104,0.609-0.196,0.924-0.274s0.638-0.157,0.969-0.235c0.09-0.025,0.263-0.032,0.519-0.02
			C43.494,42.226,43.652,42.206,43.713,42.153z"/>
		<path fill="#595A5C" d="M46.959,42.702h3.381c0.33,0,0.631,0.013,0.901,0.039c0.271,0.026,0.466,0.118,0.586,0.274
			c0.15,0.157,0.24,0.373,0.271,0.647c0.029,0.274,0.045,0.556,0.045,0.843v2.744v5.842c0,0.94,0.045,1.829,0.135,2.665
			c0.09,0.837,0.361,1.529,0.812,2.078c0.42,0.549,1.097,0.94,2.029,1.176c0.15,0.026,0.277,0.04,0.383,0.04
			c0.105,0,0.232,0.013,0.383,0.039c0.15,0.025,0.315,0.039,0.496,0.039c0.181,0,0.316-0.014,0.406-0.039
			c0.15-0.053,0.278-0.065,0.383-0.039c0.105,0.025,0.218,0.013,0.338-0.04c0.631-0.13,1.127-0.3,1.488-0.509
			c0.541-0.288,0.969-0.66,1.285-1.118c0.315-0.457,0.541-0.966,0.676-1.528s0.218-1.189,0.248-1.883
			c0.03-0.691,0.045-1.417,0.045-2.176v-4.743v-2.548c0-0.235,0-0.477,0-0.725c0-0.248,0.06-0.451,0.181-0.608
			c0.15-0.235,0.375-0.373,0.676-0.412c0.3-0.039,0.661-0.059,1.082-0.059h2.389c0.3,0,0.586,0,0.857,0s0.496,0.053,0.676,0.157
			c0.24,0.131,0.375,0.327,0.406,0.588c0.029,0.262,0.045,0.562,0.045,0.902v2.979v11.016v2.784c0,0.262,0,0.522,0,0.784
			s-0.061,0.457-0.18,0.588c-0.151,0.209-0.376,0.327-0.676,0.354c-0.301,0.025-0.617,0.039-0.947,0.039h-2.435
			c-0.331,0-0.625-0.014-0.879-0.039c-0.256-0.026-0.458-0.131-0.608-0.314c-0.061-0.078-0.113-0.195-0.158-0.353
			c-0.045-0.157-0.09-0.313-0.135-0.471c-0.045-0.157-0.098-0.3-0.158-0.431c-0.061-0.131-0.15-0.209-0.271-0.236
			c-0.061-0.051-0.135-0.064-0.225-0.039c-0.09,0.027-0.166,0.053-0.226,0.079c-0.21,0.104-0.391,0.222-0.541,0.353
			c-0.151,0.131-0.315,0.249-0.496,0.354c-0.12,0.078-0.233,0.163-0.338,0.254c-0.106,0.092-0.233,0.177-0.383,0.256
			c-0.692,0.365-1.503,0.652-2.435,0.861c-0.21,0.053-0.421,0.085-0.631,0.099c-0.21,0.013-0.436,0.046-0.676,0.098
			c-0.12,0.026-0.248,0.032-0.383,0.021c-0.135-0.014-0.263-0.008-0.383,0.02c-0.09,0.025-0.278,0.031-0.564,0.02
			c-0.286-0.014-0.473-0.033-0.563-0.06c-0.15,0-0.301-0.007-0.451-0.02c-0.151-0.013-0.301-0.02-0.451-0.02
			c-0.361-0.078-0.707-0.144-1.037-0.196c-0.331-0.053-0.662-0.131-0.992-0.234c-0.151-0.053-0.278-0.099-0.383-0.138
			c-0.106-0.039-0.233-0.085-0.383-0.138c-1.052-0.496-1.894-1.188-2.525-2.077c-0.391-0.549-0.676-1.209-0.856-1.979
			c-0.18-0.771-0.293-1.594-0.338-2.471c-0.045-0.875-0.061-1.777-0.045-2.705c0.015-0.928,0.022-1.848,0.022-2.764V45.29
			c0-0.339-0.008-0.738-0.022-1.196c-0.016-0.457,0.052-0.79,0.203-1c0.09-0.131,0.271-0.248,0.541-0.353
			C46.733,42.741,46.869,42.729,46.959,42.702z"/>
		<path fill="#595A5C" d="M93.891,52.542c0.029,0.157,0.045,0.392,0.045,0.706c0,0.313-0.03,0.535-0.09,0.666v0.51
			c-0.09,0.288-0.143,0.562-0.158,0.823c-0.016,0.262-0.067,0.523-0.158,0.784c-0.061,0.235-0.121,0.478-0.18,0.726
			c-0.061,0.249-0.151,0.489-0.271,0.726c-0.211,0.444-0.421,0.855-0.631,1.234c-0.21,0.379-0.451,0.752-0.721,1.117
			c-0.181,0.235-0.369,0.451-0.564,0.646c-0.196,0.197-0.413,0.399-0.653,0.608l-0.316,0.274c-0.15,0.131-0.309,0.248-0.473,0.353
			c-0.166,0.104-0.323,0.21-0.474,0.313c-0.241,0.157-0.503,0.295-0.789,0.412s-0.579,0.242-0.879,0.372
			c-0.301,0.131-0.609,0.222-0.924,0.274s-0.639,0.104-0.969,0.157c-0.18,0.052-0.369,0.078-0.563,0.078
			c-0.196,0-0.399,0.026-0.609,0.079h-0.406c-0.241,0.051-0.466,0.051-0.676,0H82.98c-0.18-0.053-0.369-0.072-0.563-0.06
			c-0.196,0.013-0.383-0.007-0.563-0.059c-0.481-0.132-0.94-0.249-1.375-0.353c-0.436-0.104-0.834-0.262-1.194-0.471
			c-0.211-0.104-0.406-0.216-0.586-0.334c-0.18-0.117-0.376-0.24-0.586-0.371c-0.121-0.079-0.301-0.197-0.541-0.354
			c-0.241-0.156-0.451-0.17-0.631-0.039c-0.15,0.078-0.225,0.176-0.225,0.294s-0.03,0.255-0.09,0.411
			c-0.061,0.262-0.083,0.562-0.068,0.902s0.023,0.652,0.023,0.941v3.998c0,0.34-0.008,0.673-0.023,1
			c-0.015,0.326-0.098,0.594-0.248,0.803c-0.09,0.105-0.256,0.184-0.496,0.236c-0.241,0.052-0.511,0.084-0.812,0.098
			c-0.301,0.013-0.602,0.013-0.902,0c-0.301-0.014-0.556-0.02-0.766-0.02h-1.217c-0.09,0-0.196,0-0.316,0s-0.225-0.014-0.315-0.039
			h-0.361c-0.511-0.131-0.782-0.387-0.812-0.765c-0.03-0.38-0.045-0.83-0.045-1.353V44.858c0-0.288-0.008-0.594-0.022-0.921
			c-0.016-0.327,0.052-0.582,0.203-0.765c0.12-0.183,0.286-0.3,0.496-0.353c0.15-0.052,0.338-0.079,0.563-0.079s0.443,0,0.654,0
			h2.164c0.3,0,0.586,0,0.856,0s0.496,0.065,0.676,0.196c0.21,0.131,0.323,0.294,0.338,0.49c0.015,0.196,0.083,0.399,0.203,0.608
			c0.03,0.078,0.068,0.137,0.113,0.176s0.097,0.085,0.158,0.137c0.331,0.026,0.601-0.052,0.812-0.235
			c0.21-0.183,0.421-0.339,0.631-0.47c0.39-0.235,0.796-0.451,1.217-0.647c0.42-0.196,0.886-0.359,1.397-0.49
			c0.24-0.078,0.503-0.13,0.789-0.157c0.285-0.026,0.563-0.065,0.834-0.118c0.12-0.025,0.248-0.025,0.383,0
			c0.135,0.026,0.248,0.014,0.338-0.039c1.713-0.052,3.163,0.151,4.351,0.607c1.187,0.458,2.201,1.053,3.043,1.784
			c0.15,0.131,0.286,0.255,0.406,0.372c0.12,0.118,0.24,0.242,0.361,0.373c0.21,0.235,0.398,0.471,0.563,0.706
			c0.165,0.235,0.323,0.471,0.474,0.706c0.06,0.052,0.097,0.117,0.112,0.196s0.052,0.17,0.113,0.274
			c0.181,0.262,0.345,0.575,0.496,0.941c0.06,0.157,0.12,0.32,0.18,0.49c0.06,0.17,0.12,0.347,0.181,0.529
			c0.12,0.313,0.203,0.641,0.248,0.98c0.045,0.339,0.113,0.693,0.203,1.058c0,0.131,0.007,0.275,0.022,0.432
			c0.015,0.156,0.038,0.313,0.068,0.471V52.542z M87.534,53.443c0.029-0.13,0.045-0.307,0.045-0.529
			c0-0.221-0.016-0.397-0.045-0.529v-0.352c-0.061-0.157-0.09-0.327-0.09-0.51c0-0.184-0.03-0.366-0.09-0.549
			c-0.061-0.262-0.12-0.516-0.18-0.765c-0.061-0.248-0.151-0.477-0.271-0.686c-0.361-0.836-0.827-1.502-1.397-2
			c-0.571-0.496-1.383-0.862-2.435-1.098c-0.241-0.052-0.504-0.078-0.789-0.078c-0.286,0-0.563,0-0.834,0
			c-0.121,0.026-0.226,0.039-0.316,0.039c-0.09,0-0.196,0.014-0.315,0.039c-0.21,0.053-0.414,0.098-0.609,0.137
			c-0.196,0.04-0.383,0.098-0.563,0.177c-0.782,0.288-1.391,0.732-1.826,1.333c-0.436,0.602-0.789,1.268-1.06,2
			c-0.061,0.209-0.105,0.426-0.135,0.646c-0.03,0.223-0.075,0.438-0.135,0.647c-0.03,0.104-0.045,0.274-0.045,0.51
			c-0.061,0.104-0.076,0.229-0.045,0.372c0.03,0.145,0.03,0.281,0,0.412c-0.061,0.156-0.061,0.301,0,0.432v0.47
			c0,0.132,0,0.249,0,0.353c0,0.105,0.03,0.21,0.09,0.314c0,0.183,0.015,0.326,0.045,0.431c0.03,0.157,0.06,0.313,0.09,0.471
			c0.03,0.157,0.075,0.313,0.135,0.47c0.271,0.759,0.593,1.379,0.969,1.863c0.375,0.483,0.909,0.908,1.601,1.273
			c0.42,0.209,0.917,0.379,1.488,0.51c0.12,0.026,0.226,0.033,0.315,0.02c0.09-0.013,0.195-0.006,0.316,0.02
			c0.12,0.026,0.3,0.046,0.541,0.059c0.24,0.014,0.435,0.008,0.586-0.02c0.24-0.052,0.488-0.098,0.744-0.137
			s0.503-0.098,0.744-0.177c0.721-0.261,1.308-0.627,1.758-1.098c0.451-0.47,0.826-1.019,1.127-1.646
			c0.15-0.313,0.255-0.64,0.316-0.979c0.06-0.34,0.135-0.693,0.225-1.059c0-0.131,0.007-0.262,0.022-0.393
			S87.534,53.575,87.534,53.443z"/>
		<path fill="#595A5C" d="M116.659,61.324c0.06,0.287,0.097,0.574,0.112,0.862c0.015,0.288-0.144,0.483-0.474,0.588
			c-0.18,0.079-0.391,0.118-0.631,0.118c-0.241,0-0.481,0-0.722,0h-2.435c-0.271,0-0.533-0.007-0.789-0.02
			c-0.256-0.014-0.459-0.072-0.608-0.177c-0.21-0.104-0.368-0.255-0.474-0.451s-0.248-0.358-0.428-0.489
			c-0.061-0.053-0.136-0.099-0.226-0.138c-0.091-0.04-0.211-0.046-0.36-0.021c-0.151,0.053-0.293,0.118-0.429,0.197
			c-0.136,0.078-0.278,0.144-0.429,0.195c-0.15,0.105-0.315,0.196-0.496,0.274c-0.18,0.079-0.36,0.157-0.541,0.235
			c-0.391,0.156-0.797,0.281-1.217,0.373c-0.422,0.091-0.856,0.189-1.308,0.293c-0.21,0.053-0.413,0.085-0.608,0.099
			c-0.195,0.013-0.398,0.032-0.609,0.059c-0.09,0-0.18,0.007-0.27,0.02s-0.181,0.02-0.271,0.02h-0.495
			c-0.301,0.052-0.602,0.052-0.901,0h-0.406c-0.211-0.052-0.414-0.072-0.609-0.059c-0.195,0.013-0.383-0.007-0.562-0.059
			c-0.301-0.053-0.586-0.099-0.857-0.138c-0.27-0.039-0.525-0.111-0.766-0.215c-0.873-0.287-1.616-0.66-2.232-1.117
			c-0.617-0.457-1.104-1.065-1.465-1.824c-0.09-0.182-0.173-0.378-0.248-0.588c-0.075-0.209-0.143-0.431-0.203-0.666
			c-0.061-0.131-0.083-0.261-0.068-0.393c0.015-0.13,0.007-0.26-0.022-0.392c-0.03-0.078-0.053-0.241-0.068-0.489
			c-0.015-0.249-0.007-0.426,0.023-0.529c0.06-0.262,0.09-0.484,0.09-0.667c0.09-0.288,0.181-0.581,0.271-0.882
			c0.09-0.301,0.21-0.568,0.361-0.805c0.511-0.758,1.097-1.332,1.758-1.725c0.661-0.392,1.503-0.73,2.524-1.02
			c0.391-0.13,0.797-0.221,1.218-0.273s0.841-0.118,1.263-0.196c0.24-0.052,0.496-0.085,0.766-0.099
			c0.271-0.013,0.541-0.045,0.812-0.098c0.209-0.053,0.42-0.072,0.631-0.059c0.209,0.014,0.436-0.006,0.676-0.059
			c0.21-0.053,0.421-0.078,0.631-0.078c0.211,0,0.436-0.026,0.677-0.079c0.632-0.13,1.21-0.241,1.735-0.333
			c0.525-0.091,1-0.32,1.42-0.686c0.271-0.235,0.451-0.497,0.541-0.784c0.03-0.079,0.038-0.144,0.023-0.196
			c-0.016-0.052-0.008-0.104,0.022-0.157c0.029-0.052,0.045-0.13,0.045-0.235c0-0.104,0-0.182,0-0.235
			c-0.03-0.104-0.053-0.209-0.067-0.314c-0.016-0.104-0.038-0.196-0.068-0.274c-0.301-0.784-0.932-1.319-1.893-1.607
			c-0.271-0.078-0.594-0.137-0.97-0.176s-0.759-0.052-1.149-0.039s-0.767,0.046-1.127,0.098c-0.361,0.052-0.677,0.117-0.947,0.196
			c-0.18,0.053-0.354,0.125-0.519,0.216c-0.165,0.092-0.323,0.189-0.474,0.294s-0.309,0.249-0.473,0.431
			c-0.166,0.183-0.279,0.353-0.338,0.51c-0.151,0.261-0.279,0.509-0.384,0.745c-0.106,0.235-0.323,0.392-0.653,0.471
			c-0.241,0.053-0.496,0.078-0.768,0.078c-0.27,0-0.541,0-0.811,0h-1.713c-0.151,0-0.301,0.007-0.451,0.02
			c-0.151,0.014-0.286,0.007-0.406-0.02h-0.406c-0.061-0.025-0.135-0.039-0.225-0.039c-0.09,0-0.166-0.026-0.226-0.079
			c-0.241-0.052-0.406-0.222-0.496-0.509c-0.03-0.131-0.03-0.261,0-0.392c0.03-0.13,0.06-0.248,0.09-0.353
			c0.09-0.287,0.188-0.555,0.293-0.804c0.105-0.248,0.232-0.477,0.383-0.686c0.09-0.13,0.18-0.261,0.271-0.392
			c0.09-0.13,0.18-0.261,0.271-0.392c0.24-0.287,0.541-0.562,0.902-0.823c0.059-0.025,0.149-0.091,0.27-0.196
			c0.15-0.104,0.285-0.196,0.406-0.274c0.119-0.079,0.255-0.157,0.406-0.235c0.51-0.287,1.051-0.516,1.623-0.686
			c0.57-0.17,1.156-0.333,1.758-0.49c0.36-0.078,0.736-0.13,1.127-0.157c0.391-0.026,0.781-0.078,1.172-0.157
			c0.12-0.026,0.309-0.026,0.564,0c0.254,0.026,0.412,0.014,0.473-0.039c1.232-0.026,2.412,0.013,3.539,0.118
			s2.148,0.301,3.066,0.588c0.916,0.288,1.705,0.673,2.367,1.156c0.66,0.484,1.172,1.104,1.532,1.862
			c0.21,0.445,0.331,0.955,0.36,1.529c0.029,0.575,0.045,1.163,0.045,1.764v8.742c0,0.497,0,1,0,1.509
			c0,0.51,0.061,0.975,0.181,1.393c0.03,0.078,0.046,0.164,0.046,0.255C116.614,61.161,116.627,61.246,116.659,61.324z
			 M110.031,55.287c0.03-0.131,0.045-0.281,0.045-0.451s-0.015-0.32-0.045-0.451c-0.061-0.156-0.091-0.301-0.091-0.432
			c0-0.13-0.061-0.234-0.18-0.312c-0.15-0.105-0.376-0.158-0.676-0.158c-0.121,0.027-0.227,0.047-0.316,0.06
			s-0.195,0.033-0.315,0.059c-0.21,0.053-0.437,0.093-0.677,0.118s-0.48,0.064-0.721,0.117c-0.09,0.026-0.226,0.039-0.406,0.039
			c-0.391,0.078-0.781,0.131-1.172,0.157s-0.766,0.092-1.127,0.196c-0.24,0.053-0.467,0.098-0.676,0.137
			c-0.211,0.039-0.422,0.098-0.632,0.176c-0.631,0.236-1.165,0.589-1.601,1.059c-0.436,0.471-0.594,1.125-0.473,1.961
			c0.06,0.444,0.225,0.811,0.496,1.098c0.209,0.287,0.525,0.516,0.946,0.686c0.421,0.171,0.879,0.295,1.375,0.373
			c0.495,0.078,1.021,0.098,1.577,0.059c0.557-0.039,1.075-0.123,1.557-0.255c0.781-0.209,1.396-0.542,1.848-0.999
			s0.797-1.025,1.037-1.706c0.061-0.183,0.098-0.372,0.113-0.568c0.014-0.196,0.052-0.398,0.112-0.608V55.287z"/>
		<path fill="#595A5C" d="M120.625,34.939h3.291c0.301,0,0.586,0.014,0.856,0.04c0.271,0.026,0.48,0.104,0.632,0.235
			c0.18,0.184,0.277,0.425,0.293,0.726c0.014,0.301,0.021,0.607,0.021,0.921v3.489v14.074v5.998c0,0.314,0.008,0.674,0.023,1.078
			c0.015,0.406-0.053,0.713-0.203,0.922s-0.422,0.353-0.812,0.432c-0.181,0.051-0.384,0.064-0.608,0.039
			c-0.226-0.026-0.443-0.039-0.654-0.039h-2.164c-0.33,0-0.631-0.014-0.901-0.04c-0.271-0.025-0.496-0.104-0.677-0.235
			c-0.18-0.131-0.277-0.333-0.293-0.607s-0.021-0.555-0.021-0.843v-3.489V42.937v-5.332c0-0.339-0.008-0.745-0.023-1.215
			c-0.016-0.47,0.053-0.81,0.203-1.019c0.061-0.104,0.143-0.183,0.248-0.235c0.105-0.052,0.218-0.104,0.338-0.157
			c0.061,0,0.135-0.006,0.226-0.02S120.565,34.939,120.625,34.939z"/>
		<path fill="#595A5C" d="M57.237,69.82h3.833c0.33,0,0.646,0.014,0.947,0.04c0.3,0.026,0.525,0.104,0.676,0.235
			c0.12,0.131,0.203,0.32,0.248,0.568c0.045,0.248,0.075,0.516,0.09,0.804c0.015,0.288,0.015,0.575,0,0.862
			c-0.016,0.288-0.022,0.549-0.022,0.784v7.88v6.664c0,0.602,0.007,1.223,0.022,1.863c0.015,0.641-0.053,1.222-0.203,1.744
			c-0.061,0.131-0.083,0.255-0.068,0.373c0.015,0.117-0.008,0.241-0.067,0.371c-0.09,0.236-0.166,0.479-0.226,0.727
			c-0.061,0.248-0.151,0.489-0.271,0.725c-0.662,1.438-1.608,2.535-2.84,3.293c-0.421,0.262-0.879,0.484-1.375,0.666
			c-0.496,0.184-1.015,0.354-1.556,0.51c-0.241,0.053-0.473,0.099-0.699,0.138s-0.458,0.085-0.699,0.138
			c-0.241,0.052-0.504,0.078-0.789,0.078c-0.286,0-0.563,0.025-0.834,0.078h-0.496c-0.18,0.053-0.428,0.072-0.744,0.059
			c-0.316-0.014-0.563-0.045-0.744-0.098c-0.331,0-0.571-0.014-0.721-0.039c-0.301-0.053-0.594-0.092-0.879-0.117
			c-0.286-0.027-0.548-0.066-0.789-0.118c-0.331-0.104-0.662-0.196-0.992-0.274c-0.331-0.078-0.646-0.183-0.947-0.313
			c-0.962-0.366-1.833-0.868-2.615-1.509c-0.782-0.641-1.383-1.379-1.803-2.216c-0.121-0.261-0.226-0.522-0.316-0.784
			c-0.09-0.261-0.18-0.535-0.271-0.823c-0.061-0.209-0.09-0.366-0.09-0.47c-0.061-0.131-0.083-0.248-0.068-0.354
			c0.015-0.104-0.008-0.222-0.067-0.353c-0.03-0.052-0.045-0.124-0.045-0.216s0-0.163,0-0.216v-0.392
			c-0.03-0.131-0.045-0.268-0.045-0.412c0-0.143,0-0.28,0-0.412c0-0.365,0.015-0.711,0.045-1.038
			c0.03-0.327,0.165-0.556,0.406-0.687c0.24-0.131,0.563-0.195,0.969-0.195s0.789,0,1.15,0c0.271,0,0.586-0.006,0.947-0.02
			s0.713-0.014,1.06,0c0.345,0.014,0.661,0.045,0.947,0.098c0.285,0.053,0.473,0.145,0.563,0.274
			c0.21,0.261,0.293,0.602,0.248,1.019c-0.045,0.419-0.022,0.811,0.067,1.177c0.06,0.157,0.097,0.308,0.113,0.45
			c0.015,0.145,0.052,0.295,0.113,0.451c0.12,0.367,0.271,0.699,0.451,1c0.181,0.301,0.436,0.556,0.767,0.765
			c0.361,0.235,0.856,0.431,1.488,0.588s1.277,0.171,1.938,0.039c0.15-0.052,0.286-0.078,0.406-0.078s0.24-0.026,0.361-0.079
			c0.902-0.312,1.502-0.849,1.803-1.607c0.12-0.234,0.195-0.477,0.226-0.725c0.03-0.248,0.075-0.516,0.135-0.804
			c0-0.157,0-0.307,0-0.45c0-0.145,0.015-0.295,0.045-0.451c0.03-0.131,0.038-0.281,0.022-0.451s-0.022-0.333-0.022-0.49v-1.881
			V75.701v-3.764c0-0.287-0.008-0.588-0.022-0.901c-0.016-0.313,0.052-0.574,0.203-0.784c0.12-0.156,0.345-0.287,0.676-0.392
			C57.057,69.86,57.176,69.848,57.237,69.82z"/>
		<path fill="#595A5C" d="M87.443,96.205c0.06,0.288,0.097,0.575,0.113,0.863c0.015,0.287-0.143,0.483-0.474,0.588
			c-0.18,0.078-0.391,0.117-0.631,0.117c-0.241,0-0.481,0-0.722,0h-2.435c-0.271,0-0.534-0.006-0.789-0.02
			c-0.255-0.013-0.458-0.072-0.608-0.176c-0.21-0.105-0.369-0.256-0.474-0.451c-0.105-0.196-0.248-0.359-0.428-0.49
			c-0.061-0.053-0.135-0.098-0.225-0.137c-0.09-0.04-0.211-0.046-0.361-0.021c-0.151,0.053-0.293,0.118-0.428,0.196
			s-0.278,0.145-0.428,0.195c-0.151,0.105-0.316,0.197-0.496,0.275s-0.361,0.156-0.541,0.234c-0.391,0.157-0.797,0.281-1.217,0.373
			c-0.421,0.092-0.856,0.189-1.308,0.294c-0.21,0.052-0.414,0.085-0.608,0.099c-0.196,0.012-0.399,0.031-0.609,0.059
			c-0.09,0-0.18,0.006-0.271,0.02c-0.09,0.013-0.18,0.02-0.271,0.02h-0.496c-0.301,0.052-0.602,0.052-0.902,0H72.43
			c-0.21-0.053-0.414-0.072-0.609-0.059c-0.196,0.012-0.383-0.008-0.563-0.059c-0.301-0.053-0.586-0.099-0.856-0.138
			c-0.271-0.04-0.526-0.112-0.767-0.216c-0.872-0.287-1.616-0.66-2.231-1.117c-0.617-0.457-1.104-1.064-1.465-1.823
			c-0.09-0.183-0.173-0.378-0.248-0.588c-0.075-0.209-0.143-0.431-0.203-0.667c-0.061-0.13-0.083-0.26-0.068-0.392
			c0.015-0.13,0.007-0.261-0.022-0.392c-0.03-0.078-0.053-0.242-0.068-0.49s-0.007-0.425,0.023-0.529
			c0.06-0.262,0.09-0.483,0.09-0.666c0.09-0.288,0.181-0.582,0.271-0.883c0.09-0.301,0.21-0.568,0.361-0.804
			c0.511-0.758,1.097-1.333,1.758-1.725c0.661-0.392,1.502-0.731,2.525-1.02c0.39-0.13,0.796-0.222,1.217-0.274
			c0.42-0.053,0.841-0.117,1.262-0.195c0.24-0.053,0.496-0.086,0.767-0.099s0.541-0.046,0.812-0.099
			c0.21-0.052,0.42-0.071,0.631-0.059c0.21,0.014,0.436-0.006,0.676-0.059c0.21-0.052,0.421-0.078,0.631-0.078
			c0.21,0,0.436-0.025,0.676-0.078c0.631-0.131,1.209-0.242,1.736-0.334c0.525-0.091,0.999-0.319,1.42-0.686
			c0.271-0.235,0.451-0.496,0.541-0.784c0.03-0.079,0.038-0.144,0.022-0.196c-0.015-0.052-0.007-0.104,0.023-0.156
			c0.029-0.053,0.045-0.131,0.045-0.236c0-0.104,0-0.182,0-0.234c-0.03-0.104-0.053-0.209-0.068-0.314
			c-0.015-0.104-0.038-0.195-0.067-0.273c-0.301-0.785-0.932-1.32-1.894-1.607c-0.271-0.078-0.594-0.138-0.969-0.177
			c-0.376-0.039-0.759-0.052-1.15-0.039s-0.766,0.046-1.127,0.099c-0.361,0.052-0.676,0.117-0.947,0.195
			c-0.18,0.053-0.354,0.125-0.519,0.216c-0.166,0.092-0.323,0.189-0.473,0.294c-0.151,0.104-0.309,0.248-0.474,0.432
			c-0.166,0.183-0.278,0.353-0.338,0.51c-0.151,0.261-0.278,0.509-0.383,0.744c-0.106,0.235-0.323,0.393-0.654,0.471
			c-0.241,0.053-0.496,0.078-0.767,0.078s-0.541,0-0.812,0h-1.713c-0.151,0-0.301,0.007-0.451,0.02
			c-0.15,0.014-0.286,0.007-0.406-0.02H67.2c-0.061-0.025-0.135-0.039-0.225-0.039c-0.09,0-0.166-0.025-0.226-0.078
			c-0.241-0.053-0.406-0.223-0.496-0.51c-0.03-0.131-0.03-0.262,0-0.393c0.03-0.13,0.06-0.248,0.09-0.353
			c0.09-0.287,0.188-0.555,0.293-0.804c0.105-0.248,0.232-0.477,0.383-0.686c0.09-0.131,0.18-0.262,0.271-0.393
			s0.18-0.261,0.271-0.393c0.24-0.287,0.541-0.561,0.902-0.822c0.06-0.025,0.15-0.092,0.271-0.196
			c0.15-0.104,0.285-0.196,0.406-0.274c0.12-0.078,0.255-0.156,0.406-0.235c0.511-0.287,1.052-0.516,1.623-0.687
			c0.57-0.17,1.157-0.333,1.758-0.49c0.36-0.078,0.736-0.13,1.127-0.156c0.39-0.025,0.781-0.078,1.172-0.156
			c0.12-0.026,0.308-0.026,0.563,0c0.255,0.025,0.413,0.014,0.473-0.039c1.232-0.026,2.412,0.013,3.539,0.117
			c1.127,0.104,2.149,0.301,3.066,0.588c0.917,0.288,1.706,0.674,2.367,1.156c0.661,0.484,1.172,1.104,1.533,1.862
			c0.21,0.444,0.331,0.954,0.361,1.529c0.029,0.575,0.045,1.163,0.045,1.765v8.742c0,0.496,0,1,0,1.509
			c0,0.51,0.06,0.974,0.18,1.392c0.03,0.078,0.045,0.164,0.045,0.256S87.413,96.127,87.443,96.205z M80.816,90.168
			c0.03-0.131,0.045-0.281,0.045-0.451s-0.015-0.319-0.045-0.451c-0.061-0.156-0.09-0.3-0.09-0.431c0-0.13-0.061-0.235-0.18-0.313
			c-0.151-0.104-0.376-0.157-0.676-0.157c-0.121,0.026-0.226,0.046-0.315,0.06c-0.09,0.013-0.196,0.033-0.316,0.059
			c-0.21,0.053-0.436,0.092-0.676,0.117c-0.241,0.026-0.481,0.065-0.721,0.117c-0.09,0.027-0.226,0.039-0.406,0.039
			c-0.391,0.079-0.782,0.132-1.172,0.158c-0.391,0.025-0.766,0.092-1.127,0.195c-0.241,0.053-0.466,0.098-0.676,0.137
			c-0.21,0.039-0.421,0.099-0.631,0.177c-0.631,0.235-1.165,0.589-1.601,1.059c-0.436,0.471-0.594,1.124-0.473,1.96
			c0.06,0.445,0.226,0.811,0.496,1.098c0.21,0.288,0.525,0.517,0.947,0.687c0.42,0.171,0.879,0.294,1.375,0.372
			c0.496,0.078,1.021,0.098,1.578,0.059s1.075-0.123,1.556-0.254c0.781-0.209,1.397-0.543,1.849-1
			c0.451-0.457,0.796-1.025,1.037-1.705c0.06-0.184,0.097-0.373,0.113-0.568c0.015-0.197,0.052-0.398,0.113-0.608V90.168z"/>
		<path fill="#595A5C" d="M103.268,77.035c1.111-0.026,2.088,0.078,2.93,0.312c0.842,0.236,1.578,0.562,2.209,0.98
			c0.24,0.156,0.459,0.34,0.654,0.549s0.413,0.418,0.654,0.627c0.06,0.053,0.157,0.125,0.293,0.217
			c0.135,0.092,0.277,0.111,0.428,0.059c0.33-0.079,0.646-0.268,0.947-0.568c0.3-0.301,0.586-0.529,0.856-0.687
			c0.421-0.288,0.871-0.529,1.353-0.726c0.48-0.195,1.021-0.385,1.623-0.568c0.24-0.052,0.533-0.098,0.879-0.137
			s0.706-0.065,1.082-0.078c0.375-0.014,0.736-0.007,1.082,0.02c0.346,0.025,0.654,0.064,0.924,0.117
			c0.15,0.026,0.285,0.039,0.406,0.039c0.119,0,0.255,0.026,0.406,0.078c0.42,0.105,0.826,0.209,1.217,0.314
			c0.391,0.104,0.751,0.248,1.082,0.431c1.262,0.68,2.209,1.673,2.84,2.979c0.12,0.235,0.211,0.477,0.271,0.725
			c0.06,0.25,0.119,0.49,0.18,0.727c0.029,0.183,0.053,0.352,0.068,0.509c0.014,0.157,0.037,0.313,0.066,0.471v0.392
			c0.03,0.157,0.038,0.34,0.023,0.549c-0.016,0.21-0.023,0.406-0.023,0.588v2.274v7.646c0,0.209,0.008,0.45,0.023,0.725
			c0.015,0.274,0.015,0.536,0,0.784c-0.016,0.249-0.053,0.483-0.113,0.706c-0.061,0.222-0.15,0.372-0.27,0.45
			c-0.182,0.132-0.414,0.203-0.699,0.216c-0.286,0.014-0.594,0.02-0.924,0.02h-2.391c-0.421,0-0.797-0.025-1.127-0.078
			s-0.557-0.196-0.676-0.432c-0.09-0.183-0.135-0.385-0.135-0.607c0-0.222,0-0.438,0-0.646v-2.195v-5.293v-1.646
			c0-0.131,0.006-0.275,0.021-0.432s-0.008-0.3-0.067-0.432v-0.312c0-0.157,0-0.314,0-0.471c0-0.157-0.015-0.314-0.045-0.471
			c-0.03-0.104-0.045-0.216-0.045-0.334c0-0.117-0.016-0.229-0.046-0.332c-0.119-0.393-0.248-0.738-0.383-1.039
			s-0.338-0.568-0.608-0.805c-0.421-0.365-0.933-0.627-1.532-0.783c-0.121-0.025-0.227-0.033-0.316-0.02s-0.195-0.006-0.315-0.059
			c-0.12-0.026-0.264-0.046-0.429-0.06c-0.165-0.013-0.322-0.006-0.473,0.021c-0.181,0.052-0.361,0.078-0.541,0.078
			c-0.181,0-0.361,0.025-0.541,0.078c-0.873,0.262-1.504,0.653-1.895,1.176c-0.511,0.602-0.818,1.353-0.924,2.254
			c-0.105,0.902-0.158,1.889-0.158,2.961v5.174v2.902c0,0.261,0,0.522,0,0.783c0,0.262-0.074,0.471-0.225,0.627
			c-0.15,0.184-0.369,0.295-0.654,0.334s-0.608,0.059-0.969,0.059h-2.435c-0.271,0-0.534-0.006-0.789-0.02
			c-0.256-0.013-0.474-0.045-0.653-0.098c-0.301-0.131-0.475-0.34-0.52-0.628c-0.045-0.287-0.066-0.614-0.066-0.979v-3.332v-6.156
			c0-0.758-0.031-1.476-0.091-2.156c-0.061-0.679-0.256-1.24-0.586-1.686c-0.241-0.365-0.549-0.64-0.925-0.822
			c-0.376-0.184-0.834-0.34-1.375-0.471c-0.12-0.026-0.24-0.033-0.36-0.02s-0.256,0.006-0.405-0.02
			c-0.332-0.053-0.646-0.026-0.947,0.078c-0.061,0-0.121,0.006-0.18,0.02c-0.061,0.014-0.121,0.02-0.182,0.02
			c-0.48,0.131-0.946,0.353-1.396,0.666c-0.481,0.314-0.85,0.674-1.105,1.078c-0.255,0.406-0.436,0.863-0.541,1.373
			c-0.106,0.51-0.166,1.064-0.181,1.666s-0.022,1.254-0.022,1.96v5.292v2.392c0,0.235,0,0.471,0,0.706
			c0,0.234-0.045,0.444-0.135,0.627c-0.12,0.235-0.346,0.379-0.676,0.432c-0.331,0.053-0.707,0.078-1.127,0.078h-2.344
			c-0.301,0-0.594-0.006-0.879-0.02c-0.286-0.013-0.519-0.072-0.699-0.176c-0.271-0.131-0.414-0.373-0.428-0.727
			c-0.016-0.352-0.022-0.725-0.022-1.117v-4.586v-9.566V79.23c0-0.287,0.007-0.543,0.022-0.766c0.015-0.221,0.083-0.411,0.203-0.568
			c0.15-0.156,0.391-0.26,0.722-0.312h0.271c0.15-0.026,0.308-0.04,0.473-0.04c0.165,0,0.323,0,0.474,0h1.848
			c0.24,0,0.474,0.007,0.699,0.021c0.226,0.013,0.429,0.045,0.609,0.098c0.24,0.078,0.398,0.209,0.473,0.392
			c0.075,0.183,0.143,0.392,0.203,0.628c0.03,0.078,0.037,0.15,0.022,0.215c-0.016,0.066,0.007,0.125,0.068,0.177
			c0.029,0.078,0.067,0.138,0.112,0.177c0.045,0.039,0.098,0.084,0.158,0.137c0.36,0.026,0.661-0.072,0.901-0.294
			s0.466-0.398,0.676-0.529c0.422-0.261,0.85-0.496,1.285-0.706c0.436-0.209,0.909-0.379,1.42-0.51
			c0.271-0.078,0.541-0.13,0.812-0.156c0.27-0.025,0.556-0.064,0.856-0.117c0.09-0.026,0.226-0.033,0.405-0.02
			C103.087,77.067,103.208,77.061,103.268,77.035z"/>
	</g>
	<polygon fill="#010101" points="193.833,10.871 193.833,1.554 183.879,1.406 183.879,10.871 	"/>
	<polygon fill="#010101" points="183.879,14.507 183.879,35.761 160.692,44.199 160.692,35.527 136.852,44.199 136.852,97.32 
		160.692,97.32 183.879,97.32 184.528,97.32 193.833,97.32 193.833,14.507 	"/>
</g>
<g>
</g>
<g>
</g>
<g>
</g>
<g>
</g>
<g>
</g>
<g>
</g>
</svg>
