<?xml version="1.0" encoding="utf-8"?>
<!-- Generator: Adobe Illustrator 16.0.0, SVG Export Plug-In . SVG Version: 6.00 Build 0)  -->
<!DOCTYPE svg PUBLIC "-//W3C//DTD SVG 1.1//EN" "http://www.w3.org/Graphics/SVG/1.1/DTD/svg11.dtd">
<svg version="1.1" id="Layer_1" xmlns="http://www.w3.org/2000/svg" xmlns:xlink="http://www.w3.org/1999/xlink" x="0px" y="0px"
	 width="34.807px" height="33.329px" viewBox="0 0 34.807 33.329" enable-background="new 0 0 34.807 33.329" xml:space="preserve">
<path fill="#FFFFFF" d="M9.393,15.023c0,2.91,2.357,5.269,5.269,5.269l3.78,0.197l-3.78,0.149c-2.91,0-5.269,2.36-5.269,5.271
	l-0.135,5.301l-0.209-5.301c0-2.91-2.359-5.271-5.271-5.271L0,20.489l3.777-0.197c2.91,0,5.271-2.357,5.271-5.269l0.107-9.091h0.066
	L9.393,15.023z"/>
<path fill="#FFFFFF" d="M29.016,22.971c0,1.859,1.508,3.371,3.371,3.371l2.42,0.125l-2.42,0.096c-1.863,0-3.371,1.51-3.371,3.371
	l-0.086,3.395l-0.137-3.395c0-1.861-1.508-3.371-3.371-3.371l-2.421-0.096l2.421-0.125c1.863,0,3.371-1.512,3.371-3.371l0.072-5.82
	h0.04L29.016,22.971z"/>
<path fill="#FFFFFF" d="M21.807,5.819c0,1.862,1.508,3.371,3.373,3.371l2.418,0.127L25.18,9.412c-1.865,0-3.373,1.51-3.373,3.372
	l-0.086,3.393l-0.135-3.393c0-1.862-1.509-3.372-3.371-3.372l-2.422-0.095l2.422-0.127c1.862,0,3.371-1.509,3.371-3.371L21.656,0
	h0.04L21.807,5.819z"/>
<g>
</g>
<g>
</g>
<g>
</g>
<g>
</g>
<g>
</g>
<g>
</g>
<g>
</g>
<g>
</g>
<g>
</g>
<g>
</g>
<g>
</g>
<g>
</g>
<g>
</g>
<g>
</g>
<g>
</g>
</svg>
